<svg width="182" height="46" viewBox="0 0 182 46" fill="none" xmlns="http://www.w3.org/2000/svg">
<g filter="url(#filter0_d_747_540)">
<path d="M162.828 28.4169V17.4992C162.828 15.107 163.681 13.0838 165.386 11.4296C167.116 9.74998 169.292 8.91016 171.914 8.91016C174.509 8.91016 176.673 9.73725 178.403 11.3914C180.134 13.0456 180.999 15.0816 180.999 17.4992V28.4169H175.158V17.7283C175.158 16.7612 174.866 15.9723 174.28 15.3615C173.695 14.7507 172.919 14.4453 171.952 14.4453C170.985 14.4453 170.183 14.7507 169.547 15.3615C168.936 15.9468 168.631 16.7358 168.631 17.7283V28.4169H162.828Z" fill="#1B1C1D"/>
<path d="M125.538 22.0801L131.761 14.7126H124.546V9.33008H136.227C136.71 9.33008 137.245 9.41915 137.83 9.59729C138.415 9.77544 138.912 10.1572 139.319 10.7425C139.726 11.3278 139.93 11.9641 139.93 12.6512C139.93 13.1602 139.841 13.6055 139.663 13.9873C139.484 14.369 139.332 14.6489 139.204 14.8271C139.103 14.9798 138.988 15.1198 138.861 15.247L131.99 23.0344H139.319V28.4169H127.523C125.055 28.4169 123.82 27.399 123.82 25.363C123.82 24.854 123.909 24.4087 124.088 24.027C124.291 23.6452 124.775 22.9963 125.538 22.0801Z" fill="#1B1C1D"/>
<path d="M104.531 9.33008H110.448L112.357 20.9349C112.459 21.4439 112.624 21.8892 112.853 22.271C113.082 22.6272 113.451 22.8054 113.96 22.8054C114.215 22.8054 114.444 22.7418 114.647 22.6145C114.876 22.4873 115.055 22.2964 115.182 22.0419C115.334 21.7874 115.462 21.4057 115.564 20.8967L117.51 9.33008H123.427L120.984 22.6527C120.959 22.9326 120.908 23.1617 120.832 23.3398C120.781 23.518 120.653 23.8997 120.45 24.485C120.246 25.0704 119.826 25.7193 119.19 26.4319C118.554 27.119 117.803 27.6407 116.938 27.997V36.5098H111.021V27.997C109.188 27.3862 107.916 25.9738 107.203 23.7597L106.898 22.6145L104.531 9.33008Z" fill="#1B1C1D"/>
<path d="M103.487 19.1018V28.4162H97.6466V19.3309C97.6466 17.8803 97.2776 16.7223 96.5395 15.8571C95.8015 14.9918 94.8471 14.5591 93.6765 14.5591C92.4549 14.5591 91.4497 14.9791 90.6607 15.8189C89.8718 16.6587 89.4773 17.7021 89.4773 18.9491C89.4773 20.0689 89.9227 21.0232 90.8134 21.8122C91.7042 22.6011 92.7603 22.9955 93.9819 22.9955C94.2873 22.9955 94.6181 22.9574 94.9744 22.881C95.3561 22.8047 95.7379 22.6647 96.1196 22.4611V28.3017C95.7124 28.4289 95.2925 28.5434 94.8599 28.6452C94.4527 28.747 94.0455 28.7979 93.6383 28.7979C90.8389 28.7979 88.4721 27.8563 86.5379 25.9731C84.6038 24.0898 83.6367 21.7104 83.6367 18.8346C83.6367 16.7478 84.1966 14.8773 85.3164 13.2231C86.4616 11.5434 87.6704 10.4491 88.9429 9.94013C90.2154 9.43115 91.1952 9.11304 91.8823 8.98579C92.5694 8.85854 93.2311 8.79492 93.8673 8.79492C96.565 8.79492 98.8427 9.76199 100.7 11.6961C102.558 13.6303 103.487 16.0988 103.487 19.1018Z" fill="#1B1C1D"/>
<path d="M55.2773 20.5913V9.33008H61.0798V20.8585C61.0798 21.0367 61.0925 21.2275 61.118 21.4311C61.1434 21.6093 61.1943 21.8638 61.2707 22.1946C61.347 22.5 61.5888 22.8054 61.996 23.1108C62.4286 23.3907 62.8994 23.5307 63.4084 23.5307C63.7901 23.5307 64.2737 23.378 64.859 23.0726C65.4443 22.7672 65.737 22.0292 65.737 20.8585V9.33008H71.3486V20.8585C71.3486 22.0292 71.6413 22.7672 72.2266 23.0726C72.8374 23.378 73.3336 23.5307 73.7154 23.5307C74.2244 23.5307 74.6825 23.3907 75.0896 23.1108C75.4968 22.8054 75.764 22.4237 75.8913 21.9656L76.0058 20.8585V9.33008H81.8464V20.5913C81.8464 22.4491 81.4392 24.0142 80.6249 25.2867C79.8359 26.5591 78.7543 27.4753 77.3801 28.0352C76.0058 28.5696 74.7334 28.8368 73.5627 28.8368C72.4429 28.8368 71.4631 28.646 70.6233 28.2642C69.7835 27.857 69.0963 27.2972 68.5619 26.5846C68.0275 27.2972 67.3403 27.857 66.5005 28.2642C65.6607 28.646 64.6681 28.8368 63.5229 28.8368C62.3523 28.8368 61.0798 28.5696 59.7055 28.0352C58.3567 27.5008 57.2751 26.5973 56.4607 25.3249C55.6718 24.027 55.2773 22.4491 55.2773 20.5913Z" fill="#1B1C1D"/>
<path d="M53.5866 15.0954L43.5851 22.3102L41.4473 19.4853L47.4025 15.1717C46.6899 14.4591 45.7864 14.1028 44.6921 14.1028C43.8523 14.1028 43.0506 14.3446 42.2871 14.8281C41.5237 15.2862 40.9511 15.897 40.5693 16.6605C40.213 17.424 40.0349 18.1493 40.0349 18.8364C40.0349 19.4981 40.1876 20.1725 40.493 20.8596C40.8238 21.5467 41.3328 22.132 42.0199 22.6156C42.7325 23.0737 43.5087 23.3027 44.3485 23.3027C45.6719 23.3027 46.8935 22.7428 48.0132 21.6231L48.5477 21.0505L53.1667 23.5699C51.9197 25.8858 50.3927 27.3364 48.5858 27.9217C46.7789 28.4816 45.3665 28.7615 44.3485 28.7615C41.6764 28.7615 39.3859 27.8199 37.4772 25.9367C35.594 24.028 34.6523 21.674 34.6523 18.8746C34.6523 16.7623 35.2377 14.8663 36.4083 13.1867C37.579 11.4816 38.966 10.3364 40.5693 9.75104C42.1726 9.16571 43.5723 8.87305 44.7684 8.87305C46.8044 8.87305 48.624 9.43293 50.2273 10.5527C51.8306 11.6725 52.9504 13.1867 53.5866 15.0954Z" fill="#1B1C1D"/>
<path d="M33.4538 15.0954L23.4522 22.3102L21.3145 19.4853L27.2696 15.1717C26.5571 14.4591 25.6536 14.1028 24.5593 14.1028C23.7195 14.1028 22.9178 14.3446 22.1543 14.8281C21.3908 15.2862 20.8182 15.897 20.4365 16.6605C20.0802 17.424 19.9021 18.1493 19.9021 18.8364C19.9021 19.4981 20.0548 20.1725 20.3601 20.8596C20.691 21.5467 21.2 22.132 21.8871 22.6156C22.5997 23.0737 23.3759 23.3027 24.2157 23.3027C25.5391 23.3027 26.7607 22.7428 27.8804 21.6231L28.4149 21.0505L33.0339 23.5699C31.7869 25.8858 30.2599 27.3364 28.453 27.9217C26.6461 28.4816 25.2337 28.7615 24.2157 28.7615C21.5435 28.7615 19.2531 27.8199 17.3444 25.9367C15.4612 24.028 14.5195 21.674 14.5195 18.8746C14.5195 16.7623 15.1049 14.8663 16.2755 13.1867C17.4462 11.4816 18.8332 10.3364 20.4365 9.75104C22.0398 9.16571 23.4395 8.87305 24.6356 8.87305C26.6716 8.87305 28.4912 9.43293 30.0945 10.5527C31.6978 11.6725 32.8176 13.1867 33.4538 15.0954Z" fill="#1B1C1D"/>
<path d="M1 21.4691V0.931641H7.6041V20.5147C7.6041 21.2528 7.82042 21.8381 8.25306 22.2707C8.6857 22.7034 9.27103 22.9197 10.0091 22.9197H14.0937V28.4167H7.94766C6.82789 28.4167 5.39001 27.9459 3.634 27.0043C1.878 26.0372 1 24.1922 1 21.4691Z" fill="#1B1C1D"/>
</g>
<path d="M7.15212 39.6995L8.46725 39.8704C8.3236 40.7769 7.95457 41.4877 7.36017 42.0029C6.77071 42.5131 6.04504 42.7682 5.18315 42.7682C4.10331 42.7682 3.23398 42.4165 2.57518 41.7131C1.92133 41.0048 1.59441 39.9918 1.59441 38.6742C1.59441 37.8222 1.73558 37.0767 2.01792 36.4377C2.30027 35.7987 2.72874 35.3207 3.30333 35.0037C3.88288 34.6817 4.51196 34.5208 5.19058 34.5208C6.04752 34.5208 6.74842 34.7387 7.2933 35.1746C7.83817 35.6055 8.18738 36.2198 8.34094 37.0173L7.04067 37.2179C6.91684 36.6879 6.69641 36.2891 6.37939 36.0216C6.06733 35.7542 5.68839 35.6204 5.24259 35.6204C4.56893 35.6204 4.02157 35.8631 3.60054 36.3486C3.1795 36.829 2.96898 37.5919 2.96898 38.637C2.96898 39.6971 3.17207 40.4673 3.57824 40.9478C3.98442 41.4283 4.51444 41.6685 5.16829 41.6685C5.69335 41.6685 6.13172 41.5075 6.48341 41.1856C6.83511 40.8636 7.05801 40.3682 7.15212 39.6995ZM9.11367 38.6445C9.11367 37.1832 9.51985 36.1009 10.3322 35.3975C11.0108 34.813 11.838 34.5208 12.8139 34.5208C13.8987 34.5208 14.7853 34.8774 15.4738 35.5907C16.1624 36.299 16.5066 37.2798 16.5066 38.533C16.5066 39.5485 16.3531 40.3484 16.046 40.9329C15.7438 41.5125 15.3005 41.9632 14.716 42.2852C14.1364 42.6072 13.5024 42.7682 12.8139 42.7682C11.7093 42.7682 10.8152 42.414 10.1316 41.7057C9.45298 40.9973 9.11367 39.9769 9.11367 38.6445ZM10.4882 38.6445C10.4882 39.655 10.7087 40.4128 11.1495 40.9181C11.5904 41.4184 12.1452 41.6685 12.8139 41.6685C13.4776 41.6685 14.0299 41.4159 14.4708 40.9106C14.9116 40.4054 15.1321 39.6351 15.1321 38.5999C15.1321 37.6241 14.9091 36.886 14.4633 36.3857C14.0225 35.8805 13.4727 35.6278 12.8139 35.6278C12.1452 35.6278 11.5904 35.878 11.1495 36.3783C10.7087 36.8786 10.4882 37.634 10.4882 38.6445ZM18.0818 42.5898V34.6991H19.2855V35.821C19.865 34.9542 20.7022 34.5208 21.7969 34.5208C22.2724 34.5208 22.7083 34.6074 23.1046 34.7808C23.5058 34.9492 23.8055 35.1721 24.0036 35.4495C24.2017 35.7269 24.3404 36.0563 24.4197 36.4377C24.4692 36.6854 24.494 37.1188 24.494 37.738V42.5898H23.1566V37.79C23.1566 37.2451 23.1046 36.8389 23.0005 36.5715C22.8965 36.299 22.7108 36.0836 22.4433 35.925C22.1807 35.7616 21.8712 35.6798 21.5145 35.6798C20.9449 35.6798 20.452 35.8606 20.0359 36.2222C19.6248 36.5838 19.4192 37.2699 19.4192 38.2804V42.5898H18.0818ZM26.0171 40.2345L27.3397 40.0265C27.414 40.5565 27.6196 40.9627 27.9564 41.245C28.2982 41.5273 28.7737 41.6685 29.383 41.6685C29.9972 41.6685 30.4529 41.5447 30.7501 41.297C31.0473 41.0444 31.1959 40.7497 31.1959 40.4128C31.1959 40.1107 31.0647 39.8729 30.8021 39.6995C30.6189 39.5807 30.1631 39.4296 29.435 39.2463C28.4542 38.9986 27.7731 38.7856 27.3917 38.6073C27.0153 38.424 26.728 38.1739 26.5298 37.8569C26.3366 37.5349 26.2401 37.1807 26.2401 36.7944C26.2401 36.4427 26.3193 36.1182 26.4778 35.821C26.6413 35.5189 26.8617 35.2687 27.1391 35.0706C27.3471 34.917 27.6295 34.7882 27.9861 34.6842C28.3477 34.5752 28.7341 34.5208 29.1452 34.5208C29.7644 34.5208 30.3068 34.6099 30.7724 34.7882C31.243 34.9666 31.5897 35.2093 31.8126 35.5164C32.0355 35.8185 32.1891 36.2247 32.2733 36.7349L30.9656 36.9132C30.9062 36.5071 30.7328 36.1901 30.4455 35.9622C30.1631 35.7343 29.7619 35.6204 29.2418 35.6204C28.6276 35.6204 28.1892 35.722 27.9267 35.925C27.6642 36.1281 27.5329 36.3659 27.5329 36.6383C27.5329 36.8117 27.5874 36.9677 27.6964 37.1064C27.8053 37.2501 27.9762 37.369 28.209 37.4631C28.3428 37.5126 28.7366 37.6265 29.3904 37.8049C30.3365 38.0575 30.9953 38.2655 31.3668 38.429C31.7433 38.5875 32.038 38.8203 32.251 39.1274C32.464 39.4345 32.5705 39.8159 32.5705 40.2717C32.5705 40.7175 32.4392 41.1385 32.1767 41.5348C31.9191 41.9261 31.5451 42.2307 31.0548 42.4487C30.5644 42.6617 30.0096 42.7682 29.3904 42.7682C28.3651 42.7682 27.5824 42.5552 27.0425 42.1292C26.5075 41.7032 26.1658 41.0716 26.0171 40.2345ZM39.3319 42.5898V41.4307C38.7177 42.3224 37.883 42.7682 36.8279 42.7682C36.3623 42.7682 35.9264 42.679 35.5203 42.5007C35.119 42.3224 34.8193 42.0995 34.6212 41.832C34.428 41.5595 34.2918 41.2277 34.2126 40.8363C34.1581 40.5738 34.1308 40.1577 34.1308 39.5881V34.6991H35.4682V39.0754C35.4682 39.7738 35.4955 40.2444 35.55 40.4871C35.6342 40.8388 35.8125 41.1162 36.0849 41.3193C36.3574 41.5174 36.6942 41.6165 37.0954 41.6165C37.4967 41.6165 37.8731 41.515 38.2248 41.3119C38.5765 41.1038 38.8242 40.824 38.9678 40.4723C39.1164 40.1156 39.1907 39.6005 39.1907 38.9268V34.6991H40.5281V42.5898H39.3319ZM42.6011 42.5898V31.6973H43.9386V42.5898H42.6011ZM48.939 41.3936L49.1322 42.575C48.7557 42.6542 48.4189 42.6939 48.1217 42.6939C47.6363 42.6939 47.2598 42.6171 46.9923 42.4635C46.7248 42.31 46.5366 42.1094 46.4276 41.8617C46.3187 41.6091 46.2642 41.0815 46.2642 40.2791V35.7393H45.2834V34.6991H46.2642V32.745L47.5942 31.9425V34.6991H48.939V35.7393H47.5942V40.3534C47.5942 40.7348 47.6165 40.98 47.661 41.089C47.7106 41.1979 47.7873 41.2846 47.8914 41.349C48.0003 41.4134 48.1539 41.4456 48.352 41.4456C48.5006 41.4456 48.6963 41.4283 48.939 41.3936ZM55.4032 41.6165C54.9079 42.0375 54.4299 42.3347 53.9692 42.5081C53.5135 42.6815 53.0231 42.7682 52.498 42.7682C51.6312 42.7682 50.965 42.5576 50.4993 42.1366C50.0337 41.7106 49.8009 41.1682 49.8009 40.5094C49.8009 40.1231 49.8876 39.7714 50.061 39.4543C50.2393 39.1324 50.4696 38.8748 50.752 38.6816C51.0393 38.4884 51.3612 38.3423 51.7179 38.2432C51.9804 38.1739 52.3767 38.107 52.9067 38.0426C53.9865 37.9138 54.7815 37.7603 55.2917 37.582C55.2967 37.3987 55.2992 37.2823 55.2992 37.2327C55.2992 36.6879 55.1729 36.304 54.9202 36.0811C54.5785 35.7789 54.0707 35.6278 53.3971 35.6278C52.768 35.6278 52.3024 35.7393 52.0002 35.9622C51.703 36.1801 51.4826 36.569 51.3389 37.1287L50.0312 36.9504C50.1501 36.3907 50.3458 35.9399 50.6182 35.5981C50.8907 35.2514 51.2844 34.9864 51.7996 34.8031C52.3148 34.6149 52.9116 34.5208 53.5903 34.5208C54.2639 34.5208 54.8113 34.6 55.2323 34.7585C55.6533 34.917 55.9629 35.1176 56.1611 35.3604C56.3592 35.5981 56.4979 35.9003 56.5772 36.2668C56.6217 36.4947 56.644 36.9058 56.644 37.5002V39.2834C56.644 40.5268 56.6713 41.3143 56.7258 41.6462C56.7852 41.9731 56.8991 42.2877 57.0675 42.5898H55.6707C55.532 42.3125 55.4428 41.988 55.4032 41.6165ZM55.2917 38.6296C54.8063 38.8277 54.0782 38.9962 53.1073 39.1348C52.5575 39.2141 52.1686 39.3033 51.9408 39.4023C51.7129 39.5014 51.5371 39.6475 51.4132 39.8407C51.2894 40.0289 51.2275 40.2395 51.2275 40.4723C51.2275 40.8289 51.3612 41.1261 51.6287 41.3639C51.9011 41.6016 52.2974 41.7205 52.8175 41.7205C53.3327 41.7205 53.7909 41.6091 54.1921 41.3862C54.5933 41.1583 54.888 40.8487 55.0763 40.4574C55.2199 40.1552 55.2917 39.7094 55.2917 39.12V38.6296ZM58.7245 42.5898V34.6991H59.9281V35.821C60.5077 34.9542 61.3448 34.5208 62.4395 34.5208C62.915 34.5208 63.3509 34.6074 63.7472 34.7808C64.1484 34.9492 64.4481 35.1721 64.6462 35.4495C64.8444 35.7269 64.9831 36.0563 65.0623 36.4377C65.1119 36.6854 65.1366 37.1188 65.1366 37.738V42.5898H63.7992V37.79C63.7992 37.2451 63.7472 36.8389 63.6432 36.5715C63.5392 36.299 63.3534 36.0836 63.0859 35.925C62.8234 35.7616 62.5138 35.6798 62.1572 35.6798C61.5875 35.6798 61.0947 35.8606 60.6786 36.2222C60.2674 36.5838 60.0619 37.2699 60.0619 38.2804V42.5898H58.7245ZM72.3438 39.6995L73.659 39.8704C73.5153 40.7769 73.1463 41.4877 72.5519 42.0029C71.9624 42.5131 71.2367 42.7682 70.3749 42.7682C69.295 42.7682 68.4257 42.4165 67.7669 41.7131C67.113 41.0048 66.7861 39.9918 66.7861 38.6742C66.7861 37.8222 66.9273 37.0767 67.2096 36.4377C67.492 35.7987 67.9204 35.3207 68.495 35.0037C69.0746 34.6817 69.7037 34.5208 70.3823 34.5208C71.2392 34.5208 71.9401 34.7387 72.485 35.1746C73.0299 35.6055 73.3791 36.2198 73.5326 37.0173L72.2324 37.2179C72.1085 36.6879 71.8881 36.2891 71.5711 36.0216C71.259 35.7542 70.8801 35.6204 70.4343 35.6204C69.7606 35.6204 69.2133 35.8631 68.7922 36.3486C68.3712 36.829 68.1607 37.5919 68.1607 38.637C68.1607 39.6971 68.3638 40.4673 68.7699 40.9478C69.1761 41.4283 69.7061 41.6685 70.36 41.6685C70.8851 41.6685 71.3234 41.5075 71.6751 41.1856C72.0268 40.8636 72.2497 40.3682 72.3438 39.6995ZM74.7437 45.6288L74.5951 44.3731C74.8874 44.4523 75.1425 44.4919 75.3604 44.4919C75.6577 44.4919 75.8954 44.4424 76.0737 44.3433C76.2521 44.2443 76.3982 44.1056 76.5121 43.9273C76.5963 43.7935 76.7325 43.4616 76.9208 42.9316C76.9455 42.8573 76.9852 42.7484 77.0396 42.6047L74.0453 34.6991H75.4868L77.1288 39.2686C77.3418 39.8481 77.5325 40.4574 77.7009 41.0964C77.8545 40.4822 78.0378 39.8828 78.2508 39.2983L79.9374 34.6991H81.2748L78.273 42.7236C77.9511 43.5904 77.7009 44.1873 77.5226 44.5142C77.2848 44.9551 77.0124 45.2771 76.7053 45.4802C76.3982 45.6882 76.0316 45.7922 75.6056 45.7922C75.3481 45.7922 75.0608 45.7377 74.7437 45.6288Z" fill="#1B1C1D"/>
<g filter="url(#filter1_d_747_540)">
<path d="M144.623 27.1937C145.953 28.0221 147.633 28.4362 149.663 28.4362C151.658 28.4362 153.45 28.0303 155.04 27.2186C156.629 26.3986 157.946 25.2555 158.992 23.7893C160.037 22.3232 160.728 20.6169 161.065 18.6703C161.401 16.6906 161.298 14.9553 160.754 13.4643C160.366 12.4019 159.778 10.808 158.992 10.082C158.992 11.185 156.692 14.1501 155.493 15.097C155.548 15.2714 155.495 15.3591 155.532 15.5517C155.696 16.4049 155.683 17.3823 155.493 18.4839C155.303 19.6022 154.966 20.6044 154.483 21.4908C154.008 22.3688 153.407 23.0646 152.682 23.5781C151.965 24.0834 151.14 24.336 150.207 24.336C149.3 24.336 148.583 24.0917 148.056 23.603C147.529 23.106 147.188 22.4309 147.032 21.5777C146.915 20.9287 146.894 20.2138 146.968 19.433C145.223 19.3452 142.507 20.3987 141.324 21.0658C141.357 22.0211 141.52 22.9041 141.811 23.7148C142.355 25.1975 143.292 26.3571 144.623 27.1937Z" fill="#1B1C1D"/>
<g filter="url(#filter2_d_747_540)">
<path d="M141.481 19.9323C141.654 5.68468 153.294 5.21421 159.093 6.75994C148.75 8.30374 146.407 11.4031 146.528 12.7597C150.481 8.62253 156.309 8.92529 158.73 9.59382C155.68 14.9879 145.96 18.7337 141.481 19.9323Z" fill="url(#paint0_linear_747_540)"/>
</g>
</g>
<defs>
<filter id="filter0_d_747_540" x="0.200002" y="0.731641" width="181.6" height="37.1781" filterUnits="userSpaceOnUse" color-interpolation-filters="sRGB">
<feFlood flood-opacity="0" result="BackgroundImageFix"/>
<feColorMatrix in="SourceAlpha" type="matrix" values="0 0 0 0 0 0 0 0 0 0 0 0 0 0 0 0 0 0 127 0" result="hardAlpha"/>
<feOffset dy="0.599998"/>
<feGaussianBlur stdDeviation="0.399999"/>
<feComposite in2="hardAlpha" operator="out"/>
<feColorMatrix type="matrix" values="0 0 0 0 0 0 0 0 0 0 0 0 0 0 0 0 0 0 0.25 0"/>
<feBlend mode="normal" in2="BackgroundImageFix" result="effect1_dropShadow_747_540"/>
<feBlend mode="normal" in="SourceGraphic" in2="effect1_dropShadow_747_540" result="shape"/>
</filter>
<filter id="filter1_d_747_540" x="140.524" y="6.15625" width="21.5336" height="23.8793" filterUnits="userSpaceOnUse" color-interpolation-filters="sRGB">
<feFlood flood-opacity="0" result="BackgroundImageFix"/>
<feColorMatrix in="SourceAlpha" type="matrix" values="0 0 0 0 0 0 0 0 0 0 0 0 0 0 0 0 0 0 127 0" result="hardAlpha"/>
<feOffset dy="0.799998"/>
<feGaussianBlur stdDeviation="0.399999"/>
<feComposite in2="hardAlpha" operator="out"/>
<feColorMatrix type="matrix" values="0 0 0 0 0 0 0 0 0 0 0 0 0 0 0 0 0 0 0.25 0"/>
<feBlend mode="normal" in2="BackgroundImageFix" result="effect1_dropShadow_747_540"/>
<feBlend mode="normal" in="SourceGraphic" in2="effect1_dropShadow_747_540" result="shape"/>
</filter>
<filter id="filter2_d_747_540" x="140.68" y="5.35625" width="19.2133" height="15.3754" filterUnits="userSpaceOnUse" color-interpolation-filters="sRGB">
<feFlood flood-opacity="0" result="BackgroundImageFix"/>
<feColorMatrix in="SourceAlpha" type="matrix" values="0 0 0 0 0 0 0 0 0 0 0 0 0 0 0 0 0 0 127 0" result="hardAlpha"/>
<feOffset/>
<feGaussianBlur stdDeviation="0.399999"/>
<feComposite in2="hardAlpha" operator="out"/>
<feColorMatrix type="matrix" values="0 0 0 0 0 0 0 0 0 0 0 0 0 0 0 0 0 0 0.25 0"/>
<feBlend mode="normal" in2="BackgroundImageFix" result="effect1_dropShadow_747_540"/>
<feBlend mode="normal" in="SourceGraphic" in2="effect1_dropShadow_747_540" result="shape"/>
</filter>
<linearGradient id="paint0_linear_747_540" x1="151.192" y1="5.65161" x2="149.401" y2="20.8649" gradientUnits="userSpaceOnUse">
<stop stop-color="#051C2C"/>
<stop offset="1" stop-color="#115D92"/>
</linearGradient>
</defs>
</svg>
