<svg width="56" height="32" viewBox="0 0 56 32" fill="none" xmlns="http://www.w3.org/2000/svg">
<g clip-path="url(#clip0_747_1480)">
<mask id="mask0_747_1480" style="mask-type:luminance" maskUnits="userSpaceOnUse" x="0" y="-1" width="56" height="33">
<path d="M55.4766 -0.00976562H0.988281V31.6926H55.4766V-0.00976562Z" fill="white"/>
</mask>
<g mask="url(#mask0_747_1480)">
<mask id="mask1_747_1480" style="mask-type:alpha" maskUnits="userSpaceOnUse" x="27" y="8" width="11" height="15">
<path fill-rule="evenodd" clip-rule="evenodd" d="M27.7773 8.90723H37.9496V22.7769H27.7773V8.90723Z" fill="white"/>
</mask>
<g mask="url(#mask1_747_1480)">
<path fill-rule="evenodd" clip-rule="evenodd" d="M31.975 13.3504V8.90723H31.9359C31.9226 8.9122 31.9096 8.91778 31.8965 8.92342C31.8685 8.93554 31.8404 8.94765 31.811 8.95307C30.5393 9.18712 29.2673 9.42014 27.9951 9.65226C27.8618 9.67655 27.774 9.71868 27.7774 9.88192C27.781 10.0453 27.8437 10.1266 28.0052 10.1523C28.0611 10.1612 28.1163 10.175 28.1714 10.1887C28.2172 10.2002 28.2629 10.2116 28.3092 10.2202C28.606 10.2757 28.8102 10.4469 28.8973 10.7197C28.9815 10.9832 29.0638 11.2563 29.0815 11.5291C29.1216 12.1495 29.1329 12.7722 29.1357 13.394C29.1438 15.2035 29.1486 17.0129 29.1413 18.8224C29.1379 19.6798 29.1209 20.5373 29.1039 21.3947C29.0985 21.6608 29.0933 21.9269 29.0884 22.193C29.0866 22.2921 29.1129 22.3436 29.2208 22.3597C29.5842 22.4141 29.9474 22.4698 30.3106 22.5254C30.7565 22.5938 31.2025 22.6621 31.6487 22.7281C31.7757 22.7469 31.9043 22.7555 32.0329 22.7642C32.092 22.7681 32.1511 22.772 32.21 22.777H32.7193C32.7597 22.7726 32.8001 22.768 32.8406 22.7634C32.9287 22.7535 33.0168 22.7435 33.105 22.7347C33.1973 22.7254 33.29 22.7188 33.3828 22.7122C33.5762 22.6984 33.7696 22.6847 33.958 22.6469C35.4532 22.3472 36.6077 21.5824 37.3184 20.2456C37.7038 19.5208 37.8913 18.7397 37.9344 17.9264C37.9822 17.0207 37.9317 16.1273 37.5702 15.2738C37.1595 14.3043 36.5257 13.5283 35.5108 13.1143C34.4817 12.6947 33.4479 12.7987 32.4262 13.1657C32.3294 13.2005 32.2345 13.2408 32.1319 13.2845C32.0819 13.3057 32.03 13.3278 31.975 13.3504ZM31.9482 17.9402L31.9654 17.94C31.9654 17.6566 31.9655 17.3733 31.9656 17.0899C31.966 16.1554 31.9665 15.2208 31.9625 14.2863C31.9619 14.1419 32.0067 14.0771 32.1539 14.0351C33.1427 13.7534 33.8335 14.0265 34.3533 14.8903C34.7178 15.4958 34.903 16.1657 34.9215 16.8638C34.9389 17.5146 34.9426 18.1709 34.8764 18.8173C34.7946 19.6146 34.5661 20.3839 34.1299 21.0772C33.8349 21.5461 33.4585 21.9283 32.8633 22.0032C32.6472 22.0304 32.4218 22.01 32.2039 21.9847C32.1407 21.9774 32.0629 21.8867 32.0379 21.8183C32.0095 21.7405 32.009 21.6519 32.0084 21.5654C32.0083 21.5493 32.0081 21.5333 32.0078 21.5175C31.9914 20.576 31.9759 19.6346 31.9605 18.6931C31.9564 18.4421 31.9523 18.1912 31.9482 17.9402Z" fill="#1B1C1D"/>
</g>
<path d="M0.988281 9.17357C1.54907 9.17298 2.10983 9.17156 2.67062 9.17194C5.72509 9.17446 8.77962 9.17788 11.834 9.17855C11.9757 9.17855 12.0636 9.19066 12.0665 9.36847C12.0844 10.4982 12.1106 11.6277 12.1422 12.7571C12.1465 12.9092 12.1058 12.9779 11.9481 13.0203C11.4747 13.1475 11.4902 13.1496 11.2957 12.7114C11.1129 12.2993 10.9278 11.8833 10.6909 11.4998C10.2251 10.7456 9.54784 10.2544 8.62121 10.2119C7.80844 10.1745 6.99244 10.204 6.14173 10.204C6.02695 11.9492 6.02237 13.6961 6.02993 15.4559C6.43325 15.4559 6.82168 15.4589 7.21004 15.4543C7.35306 15.4526 7.49674 15.4393 7.63858 15.4203C8.24893 15.3385 8.57938 14.9426 8.78705 14.4246C8.87176 14.2131 8.91953 13.9879 8.99332 13.772C9.01085 13.7208 9.06056 13.6492 9.10418 13.6428C9.2695 13.6182 9.43846 13.6166 9.61961 13.6056V18.158C9.43683 18.1446 9.26259 18.1403 9.09221 18.113C9.05112 18.1065 9.011 18.0281 8.99057 17.9754C8.86455 17.6509 8.77048 17.312 8.61594 17.0014C8.38827 16.5438 7.98303 16.3356 7.45988 16.3228C7.04305 16.3127 6.62665 16.282 6.21036 16.2558C6.07893 16.2475 6.02135 16.2857 6.02637 16.4248C6.07059 17.6546 6.09997 18.885 6.15795 20.1141C6.17174 20.4068 6.2585 20.7004 6.34308 20.9847C6.49134 21.4832 6.83214 21.777 7.37546 21.8362C7.5752 21.8581 7.77346 21.8979 7.97018 21.9396C8.2194 21.9924 8.12997 22.1936 8.1405 22.344C8.15128 22.498 8.03662 22.5048 7.91581 22.5047C5.68408 22.5029 3.45231 22.5013 1.22057 22.5056C1.09303 22.5059 1.03094 22.4585 0.988281 22.3575V22.0907C1.09064 21.8914 1.29676 21.9043 1.4759 21.8729C2.32825 21.7232 2.6781 21.3951 2.79762 20.5647C2.87153 20.0514 2.93041 19.5329 2.94439 19.0154C3.00813 16.6567 3.0437 14.2972 2.90722 11.9401C2.88125 11.4917 2.76706 11.041 2.63627 10.6077C2.5135 10.2009 2.18273 9.96905 1.75296 9.88829C1.57457 9.8547 1.39423 9.82684 1.21344 9.81123C1.08476 9.80024 1.02749 9.75395 1.02957 9.62347C1.0309 9.53721 1.00305 9.45057 0.988281 9.36408V9.17357Z" fill="#1B1C1D"/>
<mask id="mask2_747_1480" style="mask-type:alpha" maskUnits="userSpaceOnUse" x="10" y="12" width="11" height="11">
<path fill-rule="evenodd" clip-rule="evenodd" d="M10.6934 12.7109H20.3463V22.7714H10.6934V12.7109Z" fill="white"/>
</mask>
<g mask="url(#mask2_747_1480)">
<path fill-rule="evenodd" clip-rule="evenodd" d="M15.2252 22.7578C15.2453 22.7627 15.2654 22.7676 15.2855 22.7715H15.5206C15.5485 22.7674 15.5764 22.7631 15.6042 22.7588C15.6656 22.7492 15.727 22.7397 15.7886 22.7343C15.8653 22.7275 15.9425 22.7238 16.0197 22.7201C16.1642 22.7132 16.3085 22.7062 16.4491 22.6797C18.0019 22.3866 19.1568 21.5624 19.8022 20.153C20.533 18.5575 20.5028 16.9222 19.8608 15.3064C19.406 14.1617 18.5632 13.3753 17.3595 12.9761C16.5621 12.7117 15.7418 12.6584 14.9095 12.7573C13.1063 12.9714 11.8398 13.9055 11.1399 15.5201C10.5817 16.8079 10.5881 18.1519 10.9318 19.4941C11.4627 21.5672 13.1953 22.7547 15.0959 22.7371C15.1389 22.7366 15.182 22.7472 15.2252 22.7578ZM17.0972 15.4541C17.3052 16.3633 17.3242 17.2881 17.324 17.8387C17.2916 19.0313 17.2571 19.8478 17.0204 20.6402C16.8972 21.0523 16.7259 21.4387 16.3932 21.7396C15.9031 22.1828 15.2413 22.1817 14.7614 21.7257C14.3955 21.3779 14.2125 20.9299 14.0623 20.4679C13.8086 19.6874 13.7286 18.8814 13.7187 18.0687C13.7065 17.08 13.7096 16.0907 13.942 15.119C14.0383 14.7164 14.1666 14.3252 14.4077 13.9783C14.8849 13.292 15.7025 13.2188 16.291 13.8122C16.7467 14.2717 16.9585 14.8478 17.0972 15.4541Z" fill="#1B1C1D"/>
</g>
<path fill-rule="evenodd" clip-rule="evenodd" d="M43.1841 22.7487C43.2598 22.7553 43.3356 22.7617 43.411 22.7695H43.8028C43.8245 22.7651 43.8462 22.7603 43.8679 22.7556C43.915 22.7452 43.9621 22.7349 44.0098 22.7275C44.1011 22.7136 44.193 22.7021 44.285 22.6906C44.4707 22.6674 44.6564 22.6442 44.8367 22.6003C45.7814 22.3697 46.5757 21.894 47.2029 21.1653C47.348 20.9966 47.3309 20.9177 47.1886 20.7515C47.0704 20.6137 46.9659 20.6833 46.866 20.7499C46.8605 20.7536 46.8548 20.7574 46.8492 20.7611C46.2144 21.18 45.5132 21.3248 44.7525 21.3005C43.5944 21.2634 42.7587 20.7249 42.1955 19.7744C41.7785 19.0707 41.6751 18.2827 41.6475 17.4833C41.6427 17.344 41.7248 17.3445 41.8162 17.3451C41.8242 17.3451 41.8323 17.3452 41.8403 17.3451C42.8797 17.3394 43.9191 17.3333 44.9585 17.3272C45.7009 17.3229 46.4432 17.3186 47.1855 17.3145C47.4574 17.3129 47.4807 17.2988 47.4668 17.0385C47.432 16.3848 47.3448 15.7381 47.1135 15.1193C46.7075 14.0334 45.9907 13.2391 44.83 12.8861C44.192 12.6921 43.5357 12.6761 42.8751 12.7565C41.6781 12.9021 40.6683 13.3981 39.9055 14.3135C39.1821 15.1818 38.8057 16.1898 38.7591 17.3073C38.7282 18.0497 38.7229 18.7925 38.9698 19.5104C39.5765 21.2743 40.7877 22.3719 42.6956 22.6934C42.8569 22.7206 43.0205 22.7347 43.1841 22.7487ZM42.1772 16.5639V16.5671C42.1449 16.5671 42.1125 16.5662 42.0801 16.5654C42.0078 16.5635 41.9356 16.5616 41.8644 16.5691C41.7028 16.5859 41.6589 16.5154 41.6719 16.3713C41.742 15.5897 41.8828 14.8227 42.3034 14.1411C42.4459 13.9103 42.6558 13.6962 42.8837 13.5433C43.2453 13.3004 43.649 13.3958 43.9232 13.7306C44.2047 14.0741 44.3233 14.4864 44.3888 14.9054C44.4393 15.2277 44.467 15.5534 44.4947 15.8791C44.5083 16.0391 44.5219 16.1992 44.5383 16.3588C44.5503 16.4768 44.4861 16.4934 44.3861 16.4962C43.8222 16.5119 43.2583 16.5298 42.6943 16.5476C42.5219 16.553 42.3496 16.5585 42.1772 16.5639Z" fill="#1B1C1D"/>
<path d="M55.4783 19.69C55.4652 19.7386 55.4441 19.7866 55.4401 19.8359C55.3288 21.2067 54.5244 22.038 53.2468 22.4965C52.8039 22.6555 52.347 22.7446 51.8698 22.7312C51.4719 22.72 51.0731 22.7409 50.6754 22.7284C49.8559 22.7024 49.066 22.5203 48.2897 22.2735C48.169 22.2352 48.1093 22.1758 48.1068 22.0443C48.0904 21.194 48.0688 20.3438 48.045 19.4937C48.0399 19.3114 48.1901 19.3157 48.2994 19.294C48.4034 19.2732 48.5215 19.2353 48.5929 19.3912C48.7731 19.7843 48.9521 20.1803 49.1709 20.5534C49.4566 21.0409 49.8329 21.4675 50.3936 21.659C51.0585 21.8862 51.7219 21.9262 52.3136 21.4416C52.863 20.9916 53.0527 19.8469 52.1861 19.3394C51.731 19.0729 51.2344 18.8726 50.7522 18.6515C50.3871 18.4842 50.0001 18.3574 49.6492 18.1668C48.7651 17.6868 48.2882 16.9619 48.2311 15.9545C48.141 14.3648 49.3474 13.2117 50.6838 12.8809C51.5789 12.6593 52.4812 12.6773 53.3803 12.8269C53.8397 12.9034 54.2882 13.0418 54.7411 13.1537C54.8647 13.1842 54.9151 13.2595 54.9168 13.3892C54.9264 14.1128 54.9357 14.8366 54.9639 15.5595C54.9723 15.7768 54.8205 15.7843 54.6859 15.8276C54.5339 15.8765 54.4605 15.7899 54.4052 15.665C54.2611 15.3395 54.1284 15.0075 53.9594 14.6942C53.6475 14.1163 53.1972 13.6966 52.5207 13.5238C51.4494 13.2501 50.5993 14.0883 50.8437 15.1703C50.9106 15.4663 51.1079 15.693 51.3565 15.8436C51.7973 16.1106 52.2594 16.3459 52.7215 16.5778C53.213 16.8245 53.728 17.029 54.2089 17.2931C54.8384 17.6387 55.2582 18.1586 55.4065 18.8626C55.4323 18.9857 55.4544 19.1094 55.4783 19.2327V19.69Z" fill="#1B1C1D"/>
<path d="M24.5887 12.7291C24.5643 13.3895 24.5409 14.0259 24.5174 14.6623C24.5332 14.6678 24.5491 14.6733 24.5649 14.6788C24.6042 14.6189 24.6463 14.5606 24.6821 14.4988C24.9961 13.9567 25.3694 13.4656 25.9154 13.1191C26.589 12.6916 27.3114 12.5866 28.0836 12.8C28.1398 12.8155 28.1947 12.8361 28.2485 12.8582C28.3939 12.9182 28.4563 13.0032 28.3906 13.1682C28.0919 13.9183 27.7998 14.671 27.512 15.4252C27.4594 15.5629 27.3921 15.5722 27.2617 15.5249C26.9032 15.3948 26.547 15.2424 26.1754 15.1669C25.7056 15.0714 25.2408 15.1589 24.8118 15.3811C24.6357 15.4724 24.5177 15.5978 24.5162 15.8135C24.5099 16.7149 24.4761 17.6164 24.4888 18.5174C24.4998 19.297 24.5579 20.076 24.6007 20.855C24.6068 20.9676 24.6395 21.0795 24.6666 21.1901C24.7666 21.5987 25.0125 21.8455 25.4617 21.8766C25.6365 21.8886 25.81 21.9422 25.9837 21.9405C26.1666 21.9387 26.2126 22.0159 26.1968 22.1692C26.1915 22.2197 26.1849 22.2705 26.1864 22.321C26.1904 22.4572 26.1317 22.504 25.9864 22.5036C24.1782 22.4985 22.37 22.4968 20.5618 22.5028C20.373 22.5034 20.3214 22.437 20.3356 22.2704C20.3492 22.1111 20.3087 21.9494 20.5678 21.9217C21.4103 21.8318 21.6122 21.4329 21.6308 20.6984C21.6737 19.0047 21.6717 17.3097 21.6728 15.6153C21.673 15.314 21.6212 15.0081 21.5553 14.7125C21.478 14.366 21.2715 14.1183 20.8787 14.0667C20.7502 14.0497 20.6242 14.0144 20.4962 13.9929C20.3626 13.9705 20.3098 13.8945 20.3171 13.7672C20.3238 13.6489 20.3305 13.5448 20.4895 13.5139C21.0955 13.3964 21.6986 13.2652 22.3045 13.1478C23.0252 13.008 23.7477 12.8769 24.4695 12.7426C24.5004 12.7368 24.5322 12.7354 24.5887 12.7291Z" fill="#1B1C1D"/>
</g>
</g>
<defs>
<clipPath id="clip0_747_1480">
<rect width="54.9837" height="31.95" fill="white" transform="translate(0.988281 -0.00976562)"/>
</clipPath>
</defs>
</svg>
