<svg width="108" height="34" viewBox="0 0 108 34" fill="none" xmlns="http://www.w3.org/2000/svg">
<g clip-path="url(#clip0_747_1499)">
<g clip-path="url(#clip1_747_1499)">
<g clip-path="url(#clip2_747_1499)">
<mask id="mask0_747_1499" style="mask-type:luminance" maskUnits="userSpaceOnUse" x="1" y="0" width="107" height="33">
<path d="M107.973 0.880371H1.23828V32.801H107.973V0.880371Z" fill="white"/>
</mask>
<g mask="url(#mask0_747_1499)">
<path fill-rule="evenodd" clip-rule="evenodd" d="M32.5133 12.9077C32.496 12.9192 32.4758 12.9326 32.4512 12.9463V23.948H35.8057V20.4363C36.0911 20.4363 36.3721 20.4418 36.6497 20.4473C37.2554 20.4592 37.845 20.4709 38.429 20.4238C39.8969 20.3054 41.1689 19.807 41.8682 18.5085C43.204 16.0279 41.7523 13.3264 38.7777 13.0187C37.3566 12.8717 35.9169 12.8761 34.4774 12.8805C33.8465 12.8824 33.2158 12.8843 32.5866 12.8735C32.5653 12.8732 32.5437 12.8875 32.5133 12.9077ZM36.4318 17.9984C36.2398 17.9937 36.0434 17.9888 35.8412 17.9888V15.313C36.0446 15.3236 36.2448 15.3292 36.4424 15.3346C36.8788 15.3467 37.3019 15.3584 37.7152 15.4231C38.4789 15.5428 38.8282 16.0123 38.8074 16.7259C38.7869 17.4295 38.3931 17.8964 37.6367 17.9768C37.2463 18.0183 36.8495 18.0086 36.4318 17.9984Z" fill="#1B1C1D"/>
<path fill-rule="evenodd" clip-rule="evenodd" d="M84.7932 23.9615H87.8591V22.0357C87.8591 21.4483 87.8591 20.8609 87.8591 20.2735C87.8591 17.979 87.8598 15.6844 87.8538 13.3899C87.8538 13.3513 87.8576 13.3088 87.8621 13.2654C87.8823 13.0724 87.9039 12.8582 87.5486 12.8555C86.8738 12.8504 86.1989 12.8514 85.5002 12.8524C85.2084 12.8528 84.9121 12.8532 84.6099 12.8532V16.7688C82.9333 15.1528 79.8427 15.6896 79.0041 18.1144C78.6293 19.1963 78.6083 20.2832 78.841 21.3953C79.4141 24.1361 82.869 25.1924 84.7341 23.1775L84.7932 23.9615ZM84.7625 19.592C84.8037 19.7449 84.8456 19.899 84.8957 20.0509C84.8426 20.2053 84.7984 20.3599 84.755 20.5117C84.6615 20.8401 84.5717 21.1561 84.4042 21.4321C83.9642 22.1557 82.9827 22.1403 82.4702 21.4529C81.957 20.7641 81.9615 19.28 82.4792 18.5967C82.9947 17.9157 83.9844 17.908 84.4109 18.635C84.5807 18.9255 84.6712 19.256 84.7625 19.592Z" fill="#1B1C1D"/>
<path fill-rule="evenodd" clip-rule="evenodd" d="M97.7245 23.7127C97.7245 23.5597 97.7245 23.4054 97.7245 23.2495C99.4864 24.5472 101.542 24.3723 102.694 22.8986C103.833 21.4406 103.807 18.7005 102.68 17.2317C101.564 15.7767 98.9044 15.455 97.7373 16.9356C97.7313 16.944 97.7021 16.9374 97.6714 16.9303C97.6565 16.927 97.6415 16.9235 97.628 16.9216C97.6131 16.7306 97.5981 16.5388 97.5831 16.3511C97.5802 16.3152 97.5772 16.2794 97.5742 16.2438H94.5779V21.9823C94.5779 22.3089 94.5779 22.6356 94.5771 22.9621C94.5756 24.0937 94.5734 25.2252 94.5928 26.3563C94.5958 26.5097 94.7986 26.7866 94.919 26.7915C95.6185 26.8196 96.3195 26.8165 97.0041 26.8135C97.2151 26.8126 97.4245 26.8117 97.6325 26.8117C97.6535 26.7767 97.6714 26.7506 97.6856 26.7298C97.7088 26.6963 97.7223 26.6768 97.7223 26.6572C97.7245 25.6959 97.7245 24.7347 97.7245 23.7127ZM100.195 19.6121C100.238 19.7609 100.281 19.9097 100.331 20.0546C100.279 20.2104 100.235 20.3642 100.193 20.514C100.104 20.8335 100.018 21.1352 99.8605 21.4004C99.4258 22.1317 98.3956 22.1483 97.9565 21.429C97.4103 20.5355 97.4073 19.5828 97.955 18.6878C98.3844 17.9871 99.3892 17.9729 99.8261 18.6687C100.005 18.9534 100.1 19.2825 100.195 19.6121Z" fill="#1B1C1D"/>
<path fill-rule="evenodd" clip-rule="evenodd" d="M43.1958 18.7313C42.3017 21.7966 44.35 24.2292 47.8226 24.2257C50.1197 24.2236 51.7726 23.2358 52.3731 21.5063C53.471 18.345 51.1497 15.6167 47.5361 15.8214C45.2365 15.9515 43.7076 16.9766 43.1958 18.7313ZM46.4618 20.4541C46.4261 20.3127 46.3903 20.1711 46.3501 20.0306C46.3917 19.8832 46.4279 19.7374 46.4634 19.5942C46.5426 19.2757 46.6187 18.9691 46.7448 18.6809C46.9308 18.2562 47.3379 18.0494 47.8507 18.0605C48.3384 18.071 48.7021 18.2836 48.8964 18.6858C49.3327 19.5894 49.3411 20.5056 48.8791 21.404C48.6745 21.8019 48.3031 22.0004 47.815 22.0018C47.3237 22.0036 46.9341 21.7982 46.7577 21.3993C46.6245 21.0978 46.5433 20.7767 46.4618 20.4541Z" fill="#1B1C1D"/>
<path d="M17.1289 16.1034H20.0598C20.0772 16.362 20.0928 16.5936 20.1129 16.8921C20.232 16.8078 20.3213 16.757 20.3943 16.691C21.3961 15.7851 22.5921 15.656 23.8545 16.0464C25.0598 16.4191 25.6459 17.3281 25.6947 18.4256C25.7758 20.2491 25.7168 22.0778 25.7168 23.9434H22.5349C22.5267 23.7781 22.5109 23.6025 22.5106 23.427C22.5084 22.2076 22.5106 20.9882 22.5084 19.7687C22.5079 19.5473 22.5102 19.324 22.4815 19.1049C22.4195 18.6307 22.2234 18.2438 21.6345 18.1734C21.0804 18.1071 20.6554 18.3654 20.4957 18.9462C20.3838 19.3526 20.3414 19.7836 20.3345 20.2046C20.3143 21.4393 20.3274 22.6745 20.3274 23.9457H17.1289V16.1034Z" fill="#1B1C1D"/>
<path d="M6.72656 16.0979H9.66711C9.68132 16.3513 9.69434 16.5843 9.7099 16.8628C9.79414 16.8212 9.86843 16.8031 9.91362 16.7595C10.9032 15.8047 12.1128 15.6498 13.4062 16.0314C14.6457 16.3972 15.2401 17.3239 15.2921 18.4413C15.377 20.2626 15.315 22.0899 15.315 23.9483H12.108V23.1983C12.108 21.9969 12.1134 20.7955 12.1037 19.5941C12.1016 19.3384 12.1271 19.0348 11.9924 18.8394C11.8088 18.5734 11.5196 18.2904 11.2102 18.1954C10.7722 18.0611 10.346 18.2874 10.2004 18.6983C10.0478 19.129 9.95327 19.5941 9.94145 20.0466C9.90809 21.3354 9.92978 22.6255 9.92978 23.9483H6.72656V16.0979Z" fill="#1B1C1D"/>
<path d="M68.7949 16.0883H71.732C71.7541 16.3428 71.7754 16.5856 71.786 16.7098C72.4482 16.4365 73.0964 16.0154 73.8013 15.9068C75.8395 15.5924 77.2954 16.6905 77.3979 18.6368C77.4899 20.3858 77.4174 22.1419 77.4174 23.9374H74.1857C74.1857 22.5251 74.1906 21.1262 74.1817 19.7275C74.18 19.4346 74.1557 19.1364 74.0908 18.8505C74.0004 18.452 73.7298 18.1962 73.2634 18.1663C72.7898 18.1359 72.4034 18.3103 72.2622 18.7223C72.12 19.1378 72.0286 19.5838 72.0181 20.0185C71.9872 21.3093 72.0071 22.6011 72.0071 23.9362H68.7949V16.0883Z" fill="#1B1C1D"/>
<path fill-rule="evenodd" clip-rule="evenodd" d="M66.5745 23.9892C66.7653 23.9886 66.9523 23.988 67.1346 23.988C67.1242 23.6232 67.1139 23.2622 67.1038 22.9041C67.0782 22.0057 67.0533 21.1248 67.0273 20.2439C67.0219 20.0643 67.02 19.8843 67.0179 19.7043C67.0132 19.2738 67.0085 18.8432 66.9573 18.4174C66.8446 17.4804 66.3663 16.7051 65.4117 16.3089C63.7095 15.6025 61.9716 15.6105 60.2897 16.3629C59.3444 16.7858 58.8732 17.5516 58.7886 18.5753H60.3418H61.8188C62.0579 17.7403 62.5026 17.4352 63.1716 17.6C63.6514 17.718 63.9641 18.175 63.9012 18.6816C63.858 19.0297 63.6228 19.0107 63.3948 18.9924C63.3049 18.9852 63.2162 18.9781 63.1408 18.9935C62.7806 19.0671 62.4157 19.1265 62.051 19.1858C61.4071 19.2906 60.7638 19.3954 60.1474 19.5781C58.8891 19.9514 58.3463 20.7791 58.4208 21.891C58.4958 23.0082 59.27 23.8524 60.5045 24.1075C61.9207 24.4001 63.1631 24.1001 64.201 23.029C64.2142 23.1159 64.2228 23.1963 64.2309 23.2712C64.248 23.4314 64.2626 23.5667 64.3141 23.6887C64.3648 23.8093 64.5253 23.9717 64.6414 23.975C65.2983 23.9935 65.9559 23.9913 66.5745 23.9892ZM63.3138 20.5029C63.4853 20.4726 63.6572 20.4422 63.8285 20.4082C64.0347 21.6394 63.5099 22.3705 62.5195 22.3461C62.0738 22.335 61.7336 22.1784 61.6372 21.7455C61.5378 21.3001 61.6607 20.9009 62.1576 20.7527C62.5322 20.641 62.922 20.5721 63.3138 20.5029Z" fill="#1B1C1D"/>
<mask id="mask1_747_1499" style="mask-type:alpha" maskUnits="userSpaceOnUse" x="1" y="12" width="107" height="15">
<path fill-rule="evenodd" clip-rule="evenodd" d="M1.24023 26.8168H107.975V12.8516H1.24023V26.8168Z" fill="white"/>
</mask>
<g mask="url(#mask1_747_1499)">
<path d="M1.24023 23.9496H4.57613V12.8896H1.24023V23.9496Z" fill="#1B1C1D"/>
</g>
<mask id="mask2_747_1499" style="mask-type:alpha" maskUnits="userSpaceOnUse" x="1" y="12" width="107" height="15">
<path fill-rule="evenodd" clip-rule="evenodd" d="M1.24023 26.8168H107.975V12.8516H1.24023V26.8168Z" fill="white"/>
</mask>
<g mask="url(#mask2_747_1499)">
<path d="M53.9922 23.947H57.1628V12.8779H53.9922V23.947Z" fill="#1B1C1D"/>
</g>
<mask id="mask3_747_1499" style="mask-type:alpha" maskUnits="userSpaceOnUse" x="1" y="12" width="107" height="15">
<path fill-rule="evenodd" clip-rule="evenodd" d="M1.24023 26.8168H107.975V12.8516H1.24023V26.8168Z" fill="white"/>
</mask>
<g mask="url(#mask3_747_1499)">
<path d="M104.867 23.8913H107.977V13.1177H104.867V23.8913Z" fill="#1B1C1D"/>
</g>
<mask id="mask4_747_1499" style="mask-type:alpha" maskUnits="userSpaceOnUse" x="1" y="12" width="107" height="15">
<path fill-rule="evenodd" clip-rule="evenodd" d="M1.24023 26.8168H107.975V12.8516H1.24023V26.8168Z" fill="white"/>
</mask>
<g mask="url(#mask4_747_1499)">
<path d="M31.006 22.3725C31.0109 23.3303 30.1961 24.1193 29.1783 24.1425C28.1728 24.1653 27.2482 23.3244 27.25 22.3884C27.2516 21.4485 28.0958 20.6791 29.1298 20.6748C30.1764 20.6706 31.001 21.4168 31.006 22.3725Z" fill="#1B1C1D"/>
</g>
<mask id="mask5_747_1499" style="mask-type:alpha" maskUnits="userSpaceOnUse" x="1" y="12" width="107" height="15">
<path fill-rule="evenodd" clip-rule="evenodd" d="M1.24023 26.8168H107.975V12.8516H1.24023V26.8168Z" fill="white"/>
</mask>
<g mask="url(#mask5_747_1499)">
<path d="M31.0073 17.8498C31.0028 18.8102 30.1529 19.6034 29.1388 19.5936C28.1333 19.5837 27.2522 18.7673 27.252 17.8452C27.2517 16.8995 28.1 16.129 29.1432 16.1274C30.1872 16.1259 31.012 16.8879 31.0073 17.8498Z" fill="#1B1C1D"/>
</g>
<mask id="mask6_747_1499" style="mask-type:alpha" maskUnits="userSpaceOnUse" x="1" y="12" width="107" height="15">
<path fill-rule="evenodd" clip-rule="evenodd" d="M1.24023 26.8168H107.975V12.8516H1.24023V26.8168Z" fill="white"/>
</mask>
<g mask="url(#mask6_747_1499)">
<path d="M91.2027 24.1141C90.1635 24.1036 89.2942 23.2785 89.3189 22.3253C89.3428 21.3949 90.2159 20.6231 91.2386 20.6289C92.2583 20.6348 93.1142 21.4232 93.1164 22.3582C93.1179 23.3204 92.2419 24.1245 91.2027 24.1141Z" fill="#1B1C1D"/>
</g>
</g>
</g>
</g>
</g>
<defs>
<clipPath id="clip0_747_1499">
<rect width="107" height="32.17" fill="white" transform="translate(0.980469 0.880371)"/>
</clipPath>
<clipPath id="clip1_747_1499">
<rect width="107" height="32.17" fill="white" transform="translate(0.980469 0.880371)"/>
</clipPath>
<clipPath id="clip2_747_1499">
<rect width="106.984" height="32.17" fill="white" transform="translate(0.988281 0.880371)"/>
</clipPath>
</defs>
</svg>
