<svg width="260" height="131" viewBox="0 0 260 131" fill="none" xmlns="http://www.w3.org/2000/svg">
<g opacity="0.3">
<g filter="url(#filter0_d_974_12998)">
<path d="M234.326 68.1138V63.8268C234.326 62.8874 234.652 62.093 235.303 61.4434C235.963 60.7839 236.794 60.4541 237.795 60.4541C238.786 60.4541 239.612 60.7789 240.273 61.4284C240.934 62.078 241.264 62.8774 241.264 63.8268V68.1138H239.034V63.9167C239.034 63.537 238.922 63.2272 238.699 62.9873C238.475 62.7475 238.179 62.6276 237.81 62.6276C237.44 62.6276 237.134 62.7475 236.891 62.9873C236.658 63.2172 236.542 63.527 236.542 63.9167V68.1138H234.326Z" fill="#0C2D3E"/>
<path d="M220.076 65.6242L222.452 62.7312H219.697V60.6177H224.157C224.342 60.6177 224.546 60.6527 224.769 60.7226C224.993 60.7926 225.182 60.9424 225.337 61.1723C225.493 61.4021 225.571 61.652 225.571 61.9218C225.571 62.1216 225.537 62.2965 225.469 62.4464C225.401 62.5963 225.342 62.7062 225.294 62.7762C225.255 62.8361 225.211 62.8911 225.163 62.9411L222.539 65.9989H225.337V68.1125H220.834C219.891 68.1125 219.42 67.7127 219.42 66.9133C219.42 66.7134 219.454 66.5386 219.522 66.3887C219.6 66.2388 219.784 65.9839 220.076 65.6242Z" fill="#0C2D3E"/>
<path d="M212.064 60.6177H214.324L215.052 65.1749C215.091 65.3747 215.154 65.5496 215.242 65.6995C215.329 65.8395 215.47 65.9094 215.664 65.9094C215.762 65.9094 215.849 65.8844 215.927 65.8345C216.014 65.7845 216.082 65.7095 216.131 65.6096C216.189 65.5097 216.238 65.3598 216.277 65.1599L217.02 60.6177H219.279L218.346 65.8495C218.336 65.9594 218.317 66.0493 218.288 66.1193C218.268 66.1892 218.22 66.3392 218.142 66.569C218.064 66.7989 217.904 67.0537 217.661 67.3335C217.418 67.6034 217.132 67.8082 216.801 67.9482V71.2911H214.542V67.9482C213.843 67.7083 213.357 67.1536 213.085 66.2842L212.968 65.8345L212.064 60.6177Z" fill="#0C2D3E"/>
<path d="M211.667 64.4544V68.1119H209.437V64.5443C209.437 63.9747 209.296 63.5201 209.014 63.1803C208.733 62.8405 208.368 62.6707 207.921 62.6707C207.455 62.6707 207.071 62.8355 206.77 63.1653C206.469 63.4951 206.318 63.9048 206.318 64.3945C206.318 64.8341 206.488 65.2089 206.828 65.5187C207.168 65.8285 207.571 65.9833 208.038 65.9833C208.154 65.9833 208.281 65.9684 208.417 65.9384C208.563 65.9084 208.708 65.8534 208.854 65.7735V68.0669C208.699 68.1169 208.538 68.1618 208.373 68.2018C208.218 68.2418 208.062 68.2618 207.907 68.2618C206.838 68.2618 205.934 67.892 205.196 67.1525C204.457 66.413 204.088 65.4787 204.088 64.3495C204.088 63.5301 204.302 62.7956 204.729 62.146C205.166 61.4865 205.628 61.0568 206.114 60.8569C206.6 60.6571 206.974 60.5321 207.236 60.4822C207.499 60.4322 207.751 60.4072 207.994 60.4072C209.024 60.4072 209.894 60.787 210.603 61.5464C211.312 62.3059 211.667 63.2752 211.667 64.4544Z" fill="#0C2D3E"/>
<path d="M193.271 65.0396V60.6177H195.487V65.1445C195.487 65.2145 195.492 65.2894 195.502 65.3694C195.511 65.4393 195.531 65.5392 195.56 65.6692C195.589 65.7891 195.681 65.909 195.837 66.0289C196.002 66.1388 196.182 66.1938 196.376 66.1938C196.522 66.1938 196.706 66.1338 196.93 66.0139C197.153 65.894 197.265 65.6042 197.265 65.1445V60.6177H199.408V65.1445C199.408 65.6042 199.519 65.894 199.743 66.0139C199.976 66.1338 200.166 66.1938 200.311 66.1938C200.506 66.1938 200.681 66.1388 200.836 66.0289C200.992 65.909 201.094 65.7591 201.142 65.5792L201.186 65.1445V60.6177H203.416V65.0396C203.416 65.7691 203.26 66.3837 202.949 66.8833C202.648 67.383 202.235 67.7427 201.711 67.9626C201.186 68.1724 200.7 68.2773 200.253 68.2773C199.826 68.2773 199.451 68.2024 199.131 68.0525C198.81 67.8926 198.548 67.6728 198.344 67.393C198.14 67.6728 197.877 67.8926 197.557 68.0525C197.236 68.2024 196.857 68.2773 196.42 68.2773C195.973 68.2773 195.487 68.1724 194.962 67.9626C194.447 67.7527 194.034 67.398 193.723 66.8983C193.422 66.3887 193.271 65.7691 193.271 65.0396Z" fill="#0C2D3E"/>
<path d="M192.602 62.8798L188.784 65.7129L187.967 64.6036L190.241 62.9098C189.969 62.63 189.624 62.4901 189.206 62.4901C188.886 62.4901 188.58 62.585 188.288 62.7749C187.997 62.9548 187.778 63.1946 187.632 63.4944C187.496 63.7942 187.428 64.079 187.428 64.3488C187.428 64.6086 187.486 64.8734 187.603 65.1432C187.729 65.4131 187.924 65.6429 188.186 65.8328C188.458 66.0126 188.755 66.1026 189.075 66.1026C189.58 66.1026 190.047 65.8827 190.474 65.443L190.678 65.2182L192.442 66.2075C191.966 67.1169 191.383 67.6865 190.693 67.9163C190.003 68.1362 189.464 68.2461 189.075 68.2461C188.055 68.2461 187.18 67.8763 186.452 67.1369C185.733 66.3874 185.373 65.463 185.373 64.3638C185.373 63.5344 185.597 62.7899 186.044 62.1303C186.49 61.4608 187.02 61.0111 187.632 60.7813C188.244 60.5514 188.779 60.4365 189.236 60.4365C190.013 60.4365 190.708 60.6564 191.32 61.0961C191.932 61.5358 192.359 62.1303 192.602 62.8798Z" fill="#0C2D3E"/>
<path d="M184.919 62.8788L181.1 65.7119L180.284 64.6026L182.558 62.9088C182.286 62.629 181.941 62.4891 181.523 62.4891C181.202 62.4891 180.896 62.5841 180.605 62.7739C180.313 62.9538 180.094 63.1936 179.949 63.4934C179.813 63.7932 179.745 64.078 179.745 64.3478C179.745 64.6076 179.803 64.8725 179.919 65.1423C180.046 65.4121 180.24 65.6419 180.502 65.8318C180.775 66.0117 181.071 66.1016 181.392 66.1016C181.897 66.1016 182.363 65.8818 182.791 65.4421L182.995 65.2172L184.758 66.2065C184.282 67.1159 183.699 67.6855 183.009 67.9153C182.32 68.1352 181.78 68.2451 181.392 68.2451C180.371 68.2451 179.497 67.8754 178.768 67.1359C178.049 66.3864 177.689 65.462 177.689 64.3628C177.689 63.5334 177.913 62.7889 178.36 62.1294C178.807 61.4598 179.336 61.0101 179.949 60.7803C180.561 60.5505 181.095 60.4355 181.552 60.4355C182.329 60.4355 183.024 60.6554 183.636 61.0951C184.248 61.5348 184.676 62.1294 184.919 62.8788Z" fill="#0C2D3E"/>
<path d="M172.541 65.3851V57.3196H175.062V65.0103C175.062 65.3002 175.145 65.53 175.31 65.6999C175.475 65.8698 175.699 65.9548 175.981 65.9548H177.54V68.1136H175.194C174.766 68.1136 174.217 67.9287 173.547 67.5589C172.876 67.1791 172.541 66.4545 172.541 65.3851Z" fill="#0C2D3E"/>
</g>
<g filter="url(#filter1_d_974_12998)">
<path d="M227.187 68.1073C227.697 68.4476 228.341 68.6178 229.118 68.6178C229.883 68.6178 230.569 68.451 231.178 68.1175C231.787 67.7806 232.292 67.311 232.692 66.7086C233.092 66.1063 233.357 65.4053 233.486 64.6055C233.615 63.7922 233.575 63.0793 233.367 62.4667C233.218 62.0302 232.993 61.3754 232.692 61.0771C232.692 61.5303 231.811 62.7485 231.352 63.1375C231.373 63.2091 231.353 63.2452 231.367 63.3243C231.43 63.6748 231.425 64.0764 231.352 64.529C231.279 64.9884 231.15 65.4002 230.965 65.7643C230.783 66.125 230.553 66.4109 230.275 66.6219C230 66.8294 229.684 66.9332 229.327 66.9332C228.979 66.9332 228.705 66.8328 228.503 66.6321C228.301 66.4279 228.17 66.1505 228.111 65.8C228.066 65.5334 228.057 65.2397 228.086 64.9189C227.417 64.8828 226.377 65.3156 225.924 65.5897C225.937 65.9822 225.999 66.3449 226.11 66.678C226.319 67.2872 226.678 67.7636 227.187 68.1073Z" fill="#0C2D3E"/>
<g filter="url(#filter2_d_974_12998)">
<path d="M225.977 65.1225C226.05 59.2713 230.511 59.0723 232.733 59.7042C228.768 60.3434 227.869 61.6173 227.915 62.1744C229.431 60.4734 231.665 60.5949 232.592 60.8682C231.421 63.085 227.694 64.6281 225.977 65.1225Z" fill="url(#paint0_linear_974_12998)"/>
</g>
</g>
<path d="M160.825 39.3636L206.541 14.5115L252.257 39.3636V89.0086L206.541 113.861L160.825 89.0086V39.3636Z" stroke="#0C2D3E" stroke-width="1.16255"/>
<path d="M248.541 49.6655V40.7348L206.54 17.6641L164.539 40.7348V49.6655M248.541 77.2016V86.8764L206.54 109.947L164.539 86.8764V77.2016" stroke="#0C2D3E" stroke-width="3.25512"/>
<path d="M245.829 52.359H167.243V42.4903L206.536 21.1553L245.829 42.4903V52.359ZM245.829 85.1201L206.536 106.455L167.243 85.1201V75.2515H245.829V85.1201Z" fill="#0C2D3E" stroke="#0C2D3E" stroke-width="0.775028"/>
<mask id="path-14-inside-1_974_12998" fill="white">
<path d="M174.461 27.5781H238.598V50.2283H174.461V27.5781Z"/>
</mask>
<path d="M238.598 49.6525H174.461V50.8041H238.598V49.6525Z" fill="white" mask="url(#path-14-inside-1_974_12998)"/>
<path d="M200.307 30.9812V30.1027H204.09V30.9812H202.733V34.5781H201.667V30.9812H200.307ZM208.638 32.3404C208.638 32.8328 208.544 33.2502 208.354 33.5926C208.165 33.9349 207.908 34.195 207.585 34.3727C207.263 34.5504 206.902 34.6393 206.501 34.6393C206.099 34.6393 205.737 34.5497 205.415 34.3705C205.093 34.1913 204.837 33.9313 204.648 33.5904C204.46 33.248 204.366 32.8314 204.366 32.3404C204.366 31.848 204.46 31.4306 204.648 31.0882C204.837 30.7459 205.093 30.4858 205.415 30.3081C205.737 30.1303 206.099 30.0415 206.501 30.0415C206.902 30.0415 207.263 30.1303 207.585 30.3081C207.908 30.4858 208.165 30.7459 208.354 31.0882C208.544 31.4306 208.638 31.848 208.638 32.3404ZM207.533 32.3404C207.533 32.049 207.491 31.8028 207.408 31.6018C207.326 31.4007 207.208 31.2485 207.054 31.145C206.901 31.0416 206.717 30.9899 206.501 30.9899C206.287 30.9899 206.103 31.0416 205.948 31.145C205.794 31.2485 205.675 31.4007 205.592 31.6018C205.51 31.8028 205.47 32.049 205.47 32.3404C205.47 32.6318 205.51 32.878 205.592 33.079C205.675 33.2801 205.794 33.4323 205.948 33.5357C206.103 33.6392 206.287 33.6909 206.501 33.6909C206.717 33.6909 206.901 33.6392 207.054 33.5357C207.208 33.4323 207.326 33.2801 207.408 33.079C207.491 32.878 207.533 32.6318 207.533 32.3404ZM209.27 34.5781V30.1027H211.119C211.454 30.1027 211.743 30.1682 211.986 30.2993C212.231 30.429 212.42 30.6104 212.552 30.8435C212.685 31.0751 212.751 31.3446 212.751 31.652C212.751 31.9609 212.683 32.2311 212.548 32.4628C212.414 32.693 212.222 32.8714 211.973 32.9982C211.724 33.1249 211.428 33.1883 211.086 33.1883H209.945V32.336H210.885C211.048 32.336 211.184 32.3076 211.293 32.2508C211.404 32.194 211.488 32.1146 211.545 32.0126C211.602 31.9092 211.63 31.789 211.63 31.652C211.63 31.5136 211.602 31.3942 211.545 31.2936C211.488 31.1917 211.404 31.113 211.293 31.0576C211.183 31.0023 211.046 30.9746 210.885 30.9746H210.352V34.5781H209.27ZM181.094 43.5781V39.1027H182.176V40.899H183.939V39.1027H185.019V43.5781H183.939V41.7796H182.176V43.5781H181.094ZM186.779 39.1027V43.5781H185.697V39.1027H186.779ZM187.458 43.5781V39.1027H189.307C189.642 39.1027 189.931 39.1631 190.175 39.284C190.419 39.4035 190.608 39.5754 190.741 39.7998C190.873 40.0227 190.939 40.2871 190.939 40.593C190.939 40.9033 190.872 41.167 190.736 41.3841C190.601 41.5997 190.408 41.7643 190.159 41.878C189.91 41.9902 189.615 42.0462 189.274 42.0462H188.105V41.194H189.073C189.236 41.194 189.373 41.1729 189.482 41.1306C189.593 41.0869 189.676 41.0213 189.733 40.9339C189.79 40.8451 189.818 40.7314 189.818 40.593C189.818 40.4546 189.79 40.3403 189.733 40.2499C189.676 40.1582 189.593 40.0897 189.482 40.0445C189.371 39.9979 189.235 39.9746 189.073 39.9746H188.54V43.5781H187.458ZM189.978 41.5327L191.092 43.5781H189.912L188.82 41.5327H189.978ZM192.614 39.1027V43.5781H191.533V39.1027H192.614ZM197.102 39.1027V43.5781H196.185L194.404 40.9951H194.375V43.5781H193.293V39.1027H194.224L195.986 41.6813H196.023V39.1027H197.102ZM200.72 40.5646C200.695 40.4728 200.658 40.392 200.61 40.3221C200.562 40.2507 200.503 40.1902 200.433 40.1407C200.363 40.0911 200.283 40.054 200.193 40.0292C200.103 40.003 200.004 39.9899 199.896 39.9899C199.679 39.9899 199.491 40.0423 199.332 40.1472C199.175 40.2521 199.053 40.4051 198.967 40.6061C198.881 40.8057 198.838 41.0483 198.838 41.3338C198.838 41.6208 198.88 41.8656 198.963 42.0681C199.046 42.2706 199.166 42.425 199.323 42.5314C199.481 42.6377 199.671 42.6909 199.896 42.6909C200.094 42.6909 200.261 42.6588 200.398 42.5947C200.537 42.5292 200.642 42.4367 200.713 42.3172C200.784 42.1978 200.82 42.0572 200.82 41.8955L201.021 41.9195H199.933V41.1306H201.863V41.7228C201.863 42.1235 201.777 42.4665 201.607 42.7521C201.438 43.0376 201.205 43.2569 200.908 43.4099C200.612 43.5628 200.272 43.6393 199.887 43.6393C199.46 43.6393 199.085 43.5468 198.762 43.3618C198.438 43.1768 198.186 42.9131 198.006 42.5707C197.825 42.2269 197.735 41.819 197.735 41.347C197.735 40.9798 197.789 40.6542 197.898 40.3701C198.008 40.0846 198.16 39.8427 198.355 39.6446C198.552 39.4465 198.779 39.2964 199.037 39.1944C199.296 39.0925 199.575 39.0415 199.874 39.0415C200.133 39.0415 200.374 39.0786 200.597 39.1529C200.822 39.2272 201.02 39.3321 201.192 39.4676C201.365 39.6031 201.506 39.7641 201.613 39.9506C201.721 40.137 201.788 40.3417 201.814 40.5646H200.72ZM203.822 43.5781V39.1027H205.671C206.006 39.1027 206.295 39.1682 206.538 39.2993C206.783 39.429 206.972 39.6104 207.104 39.8435C207.237 40.0751 207.303 40.3446 207.303 40.652C207.303 40.9609 207.236 41.2311 207.1 41.4628C206.966 41.693 206.774 41.8714 206.525 41.9982C206.276 42.1249 205.981 42.1883 205.638 42.1883H204.497V41.336H205.437C205.6 41.336 205.736 41.3076 205.846 41.2508C205.956 41.194 206.04 41.1146 206.097 41.0126C206.154 40.9092 206.182 40.789 206.182 40.652C206.182 40.5136 206.154 40.3942 206.097 40.2936C206.04 40.1917 205.956 40.113 205.846 40.0576C205.735 40.0023 205.599 39.9746 205.437 39.9746H204.904V43.5781H203.822ZM208.264 43.5781H207.101L208.611 39.1027H210.051L211.561 43.5781H210.399L209.348 40.2303H209.313L208.264 43.5781ZM208.109 41.8168H210.539V42.6385H208.109V41.8168ZM212.043 43.5781V39.1027H213.892C214.227 39.1027 214.516 39.1631 214.76 39.284C215.004 39.4035 215.193 39.5754 215.326 39.7998C215.458 40.0227 215.524 40.2871 215.524 40.593C215.524 40.9033 215.457 41.167 215.321 41.3841C215.186 41.5997 214.993 41.7643 214.744 41.878C214.495 41.9902 214.2 42.0462 213.859 42.0462H212.69V41.194H213.658C213.821 41.194 213.958 41.1729 214.067 41.1306C214.178 41.0869 214.261 41.0213 214.318 40.9339C214.375 40.8451 214.403 40.7314 214.403 40.593C214.403 40.4546 214.375 40.3403 214.318 40.2499C214.261 40.1582 214.178 40.0897 214.067 40.0445C213.956 39.9979 213.82 39.9746 213.658 39.9746H213.125V43.5781H212.043ZM214.563 41.5327L215.677 43.5781H214.497L213.405 41.5327H214.563ZM215.971 39.9812V39.1027H219.754V39.9812H218.397V43.5781H217.331V39.9812H215.971ZM224.091 39.1027V43.5781H223.173L221.392 40.9951H221.364V43.5781H220.282V39.1027H221.213L222.975 41.6813H223.012V39.1027H224.091ZM224.771 43.5781V39.1027H227.892V39.9812H225.853V40.899H227.732V41.7796H225.853V42.6996H227.892V43.5781H224.771ZM228.569 43.5781V39.1027H230.418C230.753 39.1027 231.042 39.1631 231.286 39.284C231.53 39.4035 231.719 39.5754 231.852 39.7998C231.984 40.0227 232.051 40.2871 232.051 40.593C232.051 40.9033 231.983 41.167 231.847 41.3841C231.712 41.5997 231.52 41.7643 231.27 41.878C231.021 41.9902 230.726 42.0462 230.385 42.0462H229.216V41.194H230.184C230.347 41.194 230.484 41.1729 230.593 41.1306C230.704 41.0869 230.787 41.0213 230.844 40.9339C230.901 40.8451 230.93 40.7314 230.93 40.593C230.93 40.4546 230.901 40.3403 230.844 40.2499C230.787 40.1582 230.704 40.0897 230.593 40.0445C230.482 39.9979 230.346 39.9746 230.184 39.9746H229.651V43.5781H228.569ZM231.089 41.5327L232.204 43.5781H231.023L229.931 41.5327H231.089Z" fill="white"/>
<mask id="path-17-inside-2_974_12998" fill="white">
<path d="M174.461 77.1521H238.598V99.0273H174.461V77.1521Z"/>
</mask>
<path d="M174.461 77.7279H238.598V76.5763H174.461V77.7279Z" fill="white" mask="url(#path-17-inside-2_974_12998)"/>
<path d="M188.037 88.0273H186.383V83.5519H188.035C188.491 83.5519 188.883 83.6415 189.212 83.8207C189.543 83.9984 189.798 84.2548 189.977 84.5899C190.157 84.9235 190.246 85.3227 190.246 85.7874C190.246 86.2536 190.157 86.6543 189.977 86.9893C189.8 87.3244 189.545 87.5815 189.215 87.7607C188.884 87.9385 188.491 88.0273 188.037 88.0273ZM187.464 87.1052H187.995C188.246 87.1052 188.458 87.0629 188.631 86.9784C188.806 86.8925 188.938 86.7533 189.027 86.561C189.117 86.3673 189.162 86.1094 189.162 85.7874C189.162 85.4655 189.117 85.2091 189.027 85.0182C188.936 84.8259 188.803 84.6875 188.627 84.603C188.452 84.5171 188.236 84.4741 187.98 84.4741H187.464V87.1052ZM190.878 88.0273V83.5519H193.998V84.4304H191.959V85.3482H193.839V86.2289H191.959V87.1489H193.998V88.0273H190.878ZM195.692 83.5519L196.693 86.8298H196.73L197.731 83.5519H198.941L197.431 88.0273H195.991L194.481 83.5519H195.692ZM199.423 88.0273V83.5519H202.544V84.4304H200.505V85.3482H202.384V86.2289H200.505V87.1489H202.544V88.0273H199.423ZM203.221 88.0273V83.5519H204.303V87.1489H206.165V88.0273H203.221ZM210.775 85.7896C210.775 86.282 210.68 86.6994 210.491 87.0418C210.301 87.3841 210.045 87.6442 209.721 87.8219C209.399 87.9997 209.038 88.0885 208.637 88.0885C208.235 88.0885 207.873 87.9989 207.551 87.8197C207.229 87.6405 206.974 87.3805 206.784 87.0396C206.596 86.6972 206.502 86.2806 206.502 85.7896C206.502 85.2972 206.596 84.8798 206.784 84.5374C206.974 84.1951 207.229 83.935 207.551 83.7573C207.873 83.5796 208.235 83.4907 208.637 83.4907C209.038 83.4907 209.399 83.5796 209.721 83.7573C210.045 83.935 210.301 84.1951 210.491 84.5374C210.68 84.8798 210.775 85.2972 210.775 85.7896ZM209.669 85.7896C209.669 85.4982 209.627 85.252 209.544 85.051C209.463 84.8499 209.345 84.6977 209.19 84.5943C209.037 84.4908 208.853 84.4391 208.637 84.4391C208.423 84.4391 208.239 84.4908 208.085 84.5943C207.93 84.6977 207.811 84.8499 207.728 85.051C207.647 85.252 207.606 85.4982 207.606 85.7896C207.606 86.081 207.647 86.3272 207.728 86.5282C207.811 86.7293 207.93 86.8815 208.085 86.985C208.239 87.0884 208.423 87.1401 208.637 87.1401C208.853 87.1401 209.037 87.0884 209.19 86.985C209.345 86.8815 209.463 86.7293 209.544 86.5282C209.627 86.3272 209.669 86.081 209.669 85.7896ZM211.406 88.0273V83.5519H213.255C213.59 83.5519 213.879 83.6174 214.123 83.7486C214.367 83.8782 214.556 84.0596 214.688 84.2927C214.821 84.5243 214.887 84.7939 214.887 85.1013C214.887 85.4101 214.82 85.6804 214.684 85.912C214.55 86.1422 214.359 86.3206 214.109 86.4474C213.86 86.5741 213.565 86.6375 213.222 86.6375H212.081V85.7852H213.021C213.184 85.7852 213.321 85.7568 213.43 85.7C213.54 85.6432 213.624 85.5638 213.681 85.4618C213.738 85.3584 213.766 85.2382 213.766 85.1013C213.766 84.9628 213.738 84.8434 213.681 84.7429C213.624 84.6409 213.54 84.5622 213.43 84.5069C213.319 84.4515 213.183 84.4238 213.021 84.4238H212.488V88.0273H211.406ZM215.421 88.0273V83.5519H218.541V84.4304H216.502V85.3482H218.382V86.2289H216.502V87.1489H218.541V88.0273H215.421ZM219.219 88.0273V83.5519H221.067C221.402 83.5519 221.692 83.6123 221.935 83.7333C222.18 83.8527 222.368 84.0246 222.501 84.249C222.633 84.4719 222.7 84.7363 222.7 85.0422C222.7 85.3526 222.632 85.6162 222.497 85.8333C222.361 86.0489 222.169 86.2136 221.92 86.3272C221.67 86.4394 221.375 86.4955 221.035 86.4955H219.865V85.6432H220.834C220.997 85.6432 221.133 85.6221 221.242 85.5798C221.353 85.5361 221.437 85.4706 221.493 85.3832C221.55 85.2943 221.579 85.1806 221.579 85.0422C221.579 84.9038 221.55 84.7895 221.493 84.6992C221.437 84.6074 221.353 84.5389 221.242 84.4937C221.131 84.4471 220.995 84.4238 220.834 84.4238H220.3V88.0273H219.219ZM221.738 85.9819L222.853 88.0273H221.673L220.58 85.9819H221.738ZM225.712 84.8936C225.698 84.7334 225.633 84.6088 225.518 84.52C225.404 84.4296 225.242 84.3845 225.03 84.3845C224.89 84.3845 224.774 84.4027 224.681 84.4391C224.587 84.4755 224.518 84.5258 224.471 84.5899C224.424 84.6525 224.4 84.7247 224.399 84.8062C224.396 84.8733 224.409 84.9323 224.438 84.9832C224.469 85.0342 224.512 85.0794 224.569 85.1187C224.628 85.1566 224.697 85.1901 224.779 85.2193C224.861 85.2484 224.952 85.2739 225.054 85.2957L225.439 85.3832C225.66 85.4312 225.856 85.4953 226.025 85.5755C226.195 85.6556 226.338 85.751 226.453 85.8617C226.57 85.9724 226.658 86.0999 226.717 86.2442C226.777 86.3884 226.808 86.5501 226.809 86.7293C226.808 87.0119 226.736 87.2545 226.595 87.457C226.454 87.6595 226.25 87.8146 225.985 87.9225C225.722 88.0303 225.403 88.0842 225.03 88.0842C224.656 88.0842 224.33 88.0281 224.051 87.9159C223.773 87.8037 223.557 87.6333 223.402 87.4045C223.248 87.1758 223.168 86.8866 223.164 86.537H224.2C224.209 86.6812 224.247 86.8014 224.316 86.8976C224.384 86.9937 224.478 87.0665 224.598 87.1161C224.719 87.1656 224.858 87.1904 225.017 87.1904C225.163 87.1904 225.287 87.1707 225.389 87.1314C225.492 87.092 225.572 87.0374 225.627 86.9675C225.682 86.8976 225.711 86.8174 225.712 86.7271C225.711 86.6426 225.684 86.5705 225.633 86.5108C225.582 86.4496 225.504 86.3971 225.397 86.3534C225.293 86.3083 225.159 86.2667 224.995 86.2289L224.528 86.1196C224.14 86.0307 223.835 85.8872 223.612 85.6891C223.389 85.4895 223.278 85.22 223.28 84.8805C223.278 84.6037 223.353 84.3612 223.503 84.1528C223.653 83.9445 223.86 83.7821 224.126 83.6655C224.391 83.549 224.693 83.4907 225.033 83.4907C225.379 83.4907 225.68 83.5497 225.935 83.6677C226.191 83.7843 226.39 83.9481 226.532 84.1594C226.673 84.3706 226.745 84.6154 226.748 84.8936H225.712ZM198.681 97.0273V96.2494L200.314 94.8202C200.436 94.7095 200.54 94.6082 200.626 94.5165C200.712 94.4232 200.778 94.33 200.823 94.2367C200.868 94.142 200.891 94.0393 200.891 93.9286C200.891 93.8048 200.864 93.6992 200.81 93.6117C200.756 93.5229 200.682 93.4544 200.587 93.4063C200.492 93.3583 200.384 93.3342 200.261 93.3342C200.137 93.3342 200.029 93.3597 199.936 93.4107C199.842 93.4602 199.77 93.5323 199.717 93.627C199.666 93.7217 199.641 93.8368 199.641 93.9723H198.616C198.616 93.6678 198.684 93.4049 198.821 93.1834C198.958 92.962 199.15 92.7915 199.398 92.6721C199.647 92.5512 199.936 92.4907 200.266 92.4907C200.605 92.4907 200.9 92.5475 201.151 92.6611C201.401 92.7748 201.595 92.9336 201.732 93.1375C201.87 93.34 201.94 93.5753 201.94 93.8434C201.94 94.0138 201.905 94.1828 201.837 94.3504C201.768 94.5179 201.645 94.7029 201.468 94.9054C201.291 95.1079 201.041 95.3505 200.716 95.6331L200.18 96.127V96.1554H201.994V97.0273H198.681ZM204.456 97.1366C204.066 97.1366 203.729 97.0441 203.447 96.8591C203.164 96.6726 202.946 96.4053 202.793 96.0571C202.64 95.7074 202.565 95.2871 202.566 94.7962C202.568 94.3052 202.644 93.8885 202.796 93.5462C202.949 93.2024 203.166 92.9409 203.447 92.7617C203.729 92.581 204.066 92.4907 204.456 92.4907C204.847 92.4907 205.183 92.581 205.466 92.7617C205.75 92.9409 205.969 93.2024 206.122 93.5462C206.275 93.89 206.35 94.3067 206.349 94.7962C206.349 95.2886 206.272 95.7096 206.119 96.0593C205.966 96.4089 205.749 96.6762 205.466 96.8613C205.185 97.0448 204.848 97.1366 204.456 97.1366ZM204.456 96.2516C204.69 96.2516 204.878 96.1328 205.022 95.8954C205.167 95.6564 205.238 95.29 205.237 94.7962C205.237 94.4727 205.204 94.2061 205.138 93.9964C205.073 93.7851 204.982 93.6278 204.865 93.5243C204.749 93.4209 204.612 93.3692 204.456 93.3692C204.225 93.3692 204.038 93.4865 203.895 93.721C203.752 93.9541 203.68 94.3125 203.678 94.7962C203.677 95.124 203.708 95.3957 203.772 95.6113C203.838 95.8269 203.93 95.9879 204.048 96.0942C204.166 96.1991 204.302 96.2516 204.456 96.2516ZM206.968 97.0273V96.2494L208.601 94.8202C208.723 94.7095 208.827 94.6082 208.913 94.5165C208.999 94.4232 209.065 94.33 209.11 94.2367C209.155 94.142 209.178 94.0393 209.178 93.9286C209.178 93.8048 209.151 93.6992 209.097 93.6117C209.043 93.5229 208.969 93.4544 208.874 93.4063C208.779 93.3583 208.671 93.3342 208.548 93.3342C208.425 93.3342 208.316 93.3597 208.223 93.4107C208.13 93.4602 208.057 93.5323 208.004 93.627C207.953 93.7217 207.928 93.8368 207.928 93.9723H206.903C206.903 93.6678 206.971 93.4049 207.108 93.1834C207.245 92.962 207.438 92.7915 207.685 92.6721C207.934 92.5512 208.224 92.4907 208.553 92.4907C208.892 92.4907 209.187 92.5475 209.438 92.6611C209.688 92.7748 209.882 92.9336 210.019 93.1375C210.157 93.34 210.227 93.5753 210.227 93.8434C210.227 94.0138 210.192 94.1828 210.124 94.3504C210.056 94.5179 209.932 94.7029 209.755 94.9054C209.578 95.1079 209.328 95.3505 209.003 95.6331L208.468 96.127V96.1554H210.281V97.0273H206.968ZM210.742 96.2843V95.4408L212.575 92.5519H213.325V93.697H212.89L211.817 95.3971V95.4321H214.472V96.2843H210.742ZM212.903 97.0273V96.0265L212.925 95.6572V92.5519H213.937V97.0273H212.903Z" fill="white"/>
</g>
<g opacity="0.3">
<g filter="url(#filter3_d_974_12998)">
<path d="M81.1621 68.1177V63.8307C81.1621 62.8913 81.4876 62.0969 82.1387 61.4473C82.7994 60.7878 83.6302 60.458 84.631 60.458C85.6222 60.458 86.4481 60.7828 87.1088 61.4323C87.7696 62.0819 88.1 62.8813 88.1 63.8307V68.1177H85.8699V63.9206C85.8699 63.5409 85.7582 63.2311 85.5347 62.9912C85.3112 62.7514 85.0148 62.6315 84.6456 62.6315C84.2764 62.6315 83.9703 62.7514 83.7274 62.9912C83.4942 63.2211 83.3776 63.5309 83.3776 63.9206V68.1177H81.1621Z" fill="#0C2D3E"/>
<path d="M66.9157 65.6281L69.2914 62.7351H66.5367V60.6216H70.9967C71.1814 60.6216 71.3854 60.6566 71.6089 60.7265C71.8324 60.7965 72.0219 60.9464 72.1773 61.1762C72.3328 61.406 72.4105 61.6559 72.4105 61.9257C72.4105 62.1255 72.3765 62.3004 72.3085 62.4503C72.2405 62.6002 72.1822 62.7101 72.1336 62.7801C72.0947 62.84 72.051 62.895 72.0024 62.945L69.3789 66.0028H72.1773V68.1164H67.6736C66.731 68.1164 66.2598 67.7166 66.2598 66.9172C66.2598 66.7173 66.2938 66.5425 66.3618 66.3926C66.4395 66.2427 66.6241 65.9878 66.9157 65.6281Z" fill="#0C2D3E"/>
<path d="M58.9043 60.6216H61.1634L61.8921 65.1788C61.931 65.3787 61.9941 65.5535 62.0816 65.7035C62.169 65.8434 62.3099 65.9133 62.5043 65.9133C62.6014 65.9133 62.6889 65.8883 62.7666 65.8384C62.8541 65.7884 62.9221 65.7134 62.9707 65.6135C63.029 65.5136 63.0775 65.3637 63.1164 65.1638L63.8597 60.6216H66.1188L65.186 65.8534C65.1763 65.9633 65.1569 66.0532 65.1277 66.1232C65.1083 66.1931 65.0597 66.3431 64.982 66.5729C64.9042 66.8028 64.7439 67.0576 64.501 67.3374C64.2581 67.6073 63.9715 67.8122 63.6411 67.9521V71.295H61.382V67.9521C60.6824 67.7122 60.1966 67.1576 59.9245 66.2881L59.8079 65.8384L58.9043 60.6216Z" fill="#0C2D3E"/>
<path d="M58.5069 64.4593V68.1167H56.2769V64.5492C56.2769 63.9796 56.136 63.5249 55.8542 63.1852C55.5724 62.8454 55.208 62.6755 54.761 62.6755C54.2946 62.6755 53.9108 62.8404 53.6096 63.1702C53.3084 63.5 53.1578 63.9097 53.1578 64.3993C53.1578 64.839 53.3278 65.2138 53.6679 65.5236C54.008 65.8333 54.4112 65.9882 54.8776 65.9882C54.9942 65.9882 55.1206 65.9732 55.2566 65.9433C55.4024 65.9133 55.5481 65.8583 55.6939 65.7784V68.0718C55.5384 68.1217 55.3781 68.1667 55.2129 68.2067C55.0574 68.2467 54.9019 68.2666 54.7465 68.2666C53.6776 68.2666 52.7739 67.8969 52.0355 67.1574C51.297 66.4179 50.9277 65.4836 50.9277 64.3544C50.9277 63.5349 51.1415 62.8004 51.569 62.1509C52.0063 61.4914 52.4679 61.0617 52.9537 60.8618C53.4395 60.6619 53.8136 60.537 54.076 60.4871C54.3384 60.4371 54.591 60.4121 54.8339 60.4121C55.8639 60.4121 56.7336 60.7918 57.4429 61.5513C58.1522 62.3108 58.5069 63.2801 58.5069 64.4593Z" fill="#0C2D3E"/>
<path d="M40.1113 65.0435V60.6216H42.3268V65.1484C42.3268 65.2184 42.3316 65.2933 42.3414 65.3733C42.3511 65.4432 42.3705 65.5432 42.3997 65.6731C42.4288 65.793 42.5211 65.9129 42.6766 66.0328C42.8418 66.1427 43.0215 66.1977 43.2159 66.1977C43.3616 66.1977 43.5462 66.1377 43.7697 66.0178C43.9932 65.8979 44.105 65.6081 44.105 65.1484V60.6216H46.2475V65.1484C46.2475 65.6081 46.3593 65.8979 46.5828 66.0178C46.816 66.1377 47.0055 66.1977 47.1512 66.1977C47.3455 66.1977 47.5204 66.1427 47.6759 66.0328C47.8314 65.9129 47.9334 65.763 47.982 65.5831L48.0257 65.1484V60.6216H50.2557V65.0435C50.2557 65.773 50.1003 66.3876 49.7893 66.8872C49.4881 67.3869 49.0751 67.7466 48.5504 67.9665C48.0257 68.1763 47.5399 68.2812 47.0929 68.2812C46.6654 68.2812 46.2913 68.2063 45.9706 68.0564C45.6499 67.8965 45.3876 67.6767 45.1835 67.3969C44.9795 67.6767 44.7171 67.8965 44.3965 68.0564C44.0758 68.2063 43.6969 68.2812 43.2596 68.2812C42.8126 68.2812 42.3268 68.1763 41.8021 67.9665C41.2871 67.7566 40.8741 67.4019 40.5632 66.9022C40.2619 66.3926 40.1113 65.773 40.1113 65.0435Z" fill="#0C2D3E"/>
<path d="M39.4422 62.8837L35.6235 65.7168L34.8073 64.6075L37.081 62.9137C36.809 62.6339 36.464 62.494 36.0462 62.494C35.7255 62.494 35.4195 62.5889 35.128 62.7788C34.8364 62.9587 34.6178 63.1985 34.4721 63.4983C34.336 63.7981 34.268 64.0829 34.268 64.3527C34.268 64.6125 34.3263 64.8773 34.4429 65.1472C34.5692 65.417 34.7636 65.6468 35.0259 65.8367C35.298 66.0165 35.5944 66.1065 35.915 66.1065C36.4203 66.1065 36.8867 65.8866 37.3142 65.4469L37.5183 65.2221L39.2819 66.2114C38.8058 67.1208 38.2228 67.6904 37.5329 67.9202C36.843 68.1401 36.3037 68.25 35.915 68.25C34.8947 68.25 34.0202 67.8803 33.2915 67.1408C32.5724 66.3913 32.2129 65.4669 32.2129 64.3677C32.2129 63.5383 32.4364 62.7938 32.8834 62.1343C33.3303 61.4647 33.8599 61.015 34.4721 60.7852C35.0842 60.5553 35.6187 60.4404 36.0753 60.4404C36.8527 60.4404 37.5475 60.6603 38.1596 61.1C38.7718 61.5397 39.1993 62.1343 39.4422 62.8837Z" fill="#0C2D3E"/>
<path d="M31.7626 62.8837L27.9438 65.7168L27.1276 64.6075L29.4014 62.9137C29.1293 62.6339 28.7843 62.494 28.3665 62.494C28.0459 62.494 27.7398 62.5889 27.4483 62.7788C27.1568 62.9587 26.9381 63.1985 26.7924 63.4983C26.6563 63.7981 26.5883 64.0829 26.5883 64.3527C26.5883 64.6125 26.6466 64.8773 26.7632 65.1472C26.8895 65.417 27.0839 65.6468 27.3462 65.8367C27.6183 66.0165 27.9147 66.1065 28.2353 66.1065C28.7406 66.1065 29.207 65.8866 29.6346 65.4469L29.8386 65.2221L31.6022 66.2114C31.1261 67.1208 30.5431 67.6904 29.8532 67.9202C29.1633 68.1401 28.624 68.25 28.2353 68.25C27.2151 68.25 26.3405 67.8803 25.6118 67.1408C24.8927 66.3913 24.5332 65.4669 24.5332 64.3677C24.5332 63.5383 24.7567 62.7938 25.2037 62.1343C25.6506 61.4647 26.1802 61.015 26.7924 60.7852C27.4045 60.5553 27.939 60.4404 28.3957 60.4404C29.173 60.4404 29.8678 60.6603 30.4799 61.1C31.0921 61.5397 31.5196 62.1343 31.7626 62.8837Z" fill="#0C2D3E"/>
<path d="M19.3809 65.389V57.3235H21.9022V65.0142C21.9022 65.3041 21.9848 65.5339 22.15 65.7038C22.3152 65.8737 22.5386 65.9587 22.8204 65.9587H24.3799V68.1175H22.0334C21.6059 68.1175 21.0569 67.9326 20.3865 67.5628C19.7161 67.183 19.3809 66.4584 19.3809 65.389Z" fill="#0C2D3E"/>
</g>
<g filter="url(#filter4_d_974_12998)">
<path d="M73.9999 68.1139C74.5094 68.4542 75.153 68.6243 75.9307 68.6243C76.695 68.6243 77.3817 68.4576 77.9905 68.1241C78.5994 67.7872 79.104 67.3176 79.5044 66.7152C79.9048 66.1129 80.1695 65.4119 80.2986 64.6121C80.4276 63.7988 80.3879 63.0859 80.1794 62.4733C80.0309 62.0368 79.8058 61.382 79.5044 61.0837C79.5044 61.5369 78.6235 62.7551 78.1642 63.1441C78.1853 63.2157 78.1651 63.2518 78.1791 63.3309C78.242 63.6814 78.237 64.083 78.1642 64.5356C78.0915 64.995 77.9624 65.4068 77.7771 65.7709C77.5951 66.1316 77.3651 66.4175 77.0872 66.6284C76.8125 66.836 76.4965 66.9398 76.1391 66.9398C75.7917 66.9398 75.517 66.8394 75.3152 66.6387C75.1133 66.4345 74.9826 66.1571 74.9231 65.8066C74.8782 65.54 74.8699 65.2462 74.8983 64.9255C74.2299 64.8894 73.1894 65.3222 72.7363 65.5963C72.7491 65.9888 72.8112 66.3515 72.9228 66.6846C73.1312 67.2937 73.4903 67.7702 73.9999 68.1139Z" fill="#0C2D3E"/>
<g filter="url(#filter5_d_974_12998)">
<path d="M72.7893 65.1291C72.8628 59.2779 77.3238 59.0789 79.5452 59.7108C75.5809 60.3499 74.6814 61.6239 74.7271 62.181C76.2439 60.48 78.4775 60.6015 79.4047 60.8748C78.2332 63.0916 74.5063 64.6347 72.7893 65.1291Z" fill="url(#paint1_linear_974_12998)"/>
</g>
</g>
<path d="M7.74345 39.3577L53.4592 14.5056L99.175 39.3577V89.0028L53.4592 113.855L7.74345 89.0028V39.3577Z" stroke="#0C2D3E" stroke-width="1.16255"/>
<path d="M95.459 49.6596V40.729L53.458 17.6582L11.457 40.729V49.6596M95.459 77.1957V86.8706L53.458 109.941L11.457 86.8706V77.1957" stroke="#0C2D3E" stroke-width="3.25512"/>
<path d="M92.7472 52.3531H14.161V42.4845L53.4541 21.1494L92.7472 42.4845V52.3531ZM92.7472 85.1143L53.4541 106.449L14.161 85.1143V75.2456H92.7472V85.1143Z" fill="#0C2D3E" stroke="#0C2D3E" stroke-width="0.775028"/>
<mask id="path-33-inside-3_974_12998" fill="white">
<path d="M21.3789 27.5732H85.5164V50.2234H21.3789V27.5732Z"/>
</mask>
<path d="M85.5164 49.6476H21.3789V50.7992H85.5164V49.6476Z" fill="white" mask="url(#path-33-inside-3_974_12998)"/>
<path d="M47.2254 30.9763V30.0978H51.0081V30.9763H49.6511V34.5732H48.5846V30.9763H47.2254ZM55.5562 32.3355C55.5562 32.8279 55.4615 33.2453 55.2721 33.5877C55.0828 33.93 54.8264 34.1901 54.5029 34.3678C54.181 34.5456 53.8197 34.6344 53.419 34.6344C53.0169 34.6344 52.6549 34.5448 52.3329 34.3656C52.011 34.1864 51.7553 33.9264 51.5659 33.5855C51.378 33.2431 51.284 32.8265 51.284 32.3355C51.284 31.8431 51.378 31.4257 51.5659 31.0833C51.7553 30.741 52.011 30.4809 52.3329 30.3032C52.6549 30.1255 53.0169 30.0366 53.419 30.0366C53.8197 30.0366 54.181 30.1255 54.5029 30.3032C54.8264 30.4809 55.0828 30.741 55.2721 31.0833C55.4615 31.4257 55.5562 31.8431 55.5562 32.3355ZM54.4505 32.3355C54.4505 32.0441 54.409 31.7979 54.3259 31.5969C54.2443 31.3958 54.1263 31.2436 53.9719 31.1402C53.8189 31.0367 53.6346 30.985 53.419 30.985C53.2049 30.985 53.0206 31.0367 52.8662 31.1402C52.7117 31.2436 52.593 31.3958 52.51 31.5969C52.4284 31.7979 52.3876 32.0441 52.3876 32.3355C52.3876 32.6269 52.4284 32.8731 52.51 33.0741C52.593 33.2752 52.7117 33.4274 52.8662 33.5309C53.0206 33.6343 53.2049 33.686 53.419 33.686C53.6346 33.686 53.8189 33.6343 53.9719 33.5309C54.1263 33.4274 54.2443 33.2752 54.3259 33.0741C54.409 32.8731 54.4505 32.6269 54.4505 32.3355ZM56.1878 34.5732V30.0978H58.0365C58.3716 30.0978 58.6608 30.1633 58.9041 30.2945C59.1488 30.4241 59.3375 30.6055 59.4701 30.8386C59.6027 31.0702 59.6689 31.3398 59.6689 31.6471C59.6689 31.956 59.6012 32.2262 59.4657 32.4579C59.3317 32.6881 59.1401 32.8665 58.891 32.9933C58.6419 33.12 58.3461 33.1834 58.0038 33.1834H56.863V32.3311H57.8027C57.9659 32.3311 58.1021 32.3027 58.2114 32.2459C58.3221 32.1891 58.4058 32.1097 58.4627 32.0077C58.5195 31.9043 58.5479 31.7841 58.5479 31.6471C58.5479 31.5087 58.5195 31.3893 58.4627 31.2888C58.4058 31.1868 58.3221 31.1081 58.2114 31.0528C58.1006 30.9974 57.9644 30.9697 57.8027 30.9697H57.2695V34.5732H56.1878ZM28.0121 43.5732V39.0978H29.0938V40.8941H30.8574V39.0978H31.9369V43.5732H30.8574V41.7748H29.0938V43.5732H28.0121ZM33.6971 39.0978V43.5732H32.6154V39.0978H33.6971ZM34.3762 43.5732V39.0978H36.225C36.56 39.0978 36.8492 39.1582 37.0925 39.2792C37.3373 39.3986 37.5259 39.5705 37.6585 39.7949C37.7911 40.0178 37.8574 40.2822 37.8574 40.5881C37.8574 40.8985 37.7896 41.1621 37.6541 41.3792C37.5186 41.5948 37.3263 41.7595 37.0772 41.8731C36.8281 41.9853 36.5331 42.0414 36.1922 42.0414H35.023V41.1891H35.9911C36.1543 41.1891 36.2905 41.168 36.3998 41.1257C36.5105 41.082 36.5943 41.0165 36.6511 40.9291C36.7079 40.8402 36.7363 40.7265 36.7363 40.5881C36.7363 40.4497 36.7079 40.3354 36.6511 40.2451C36.5943 40.1533 36.5105 40.0848 36.3998 40.0396C36.2891 39.993 36.1528 39.9697 35.9911 39.9697H35.4579V43.5732H34.3762ZM36.8958 41.5278L38.0103 43.5732H36.8303L35.7376 41.5278H36.8958ZM39.5324 39.0978V43.5732H38.4507V39.0978H39.5324ZM44.0204 39.0978V43.5732H43.1026L41.3216 40.9902H41.2932V43.5732H40.2115V39.0978H41.1424L42.9037 41.6764H42.9409V39.0978H44.0204ZM47.6376 40.5597C47.6128 40.468 47.5764 40.3871 47.5283 40.3172C47.4803 40.2458 47.4212 40.1853 47.3513 40.1358C47.2814 40.0863 47.2013 40.0491 47.1109 40.0243C47.0206 39.9981 46.9215 39.985 46.8137 39.985C46.5967 39.985 46.4087 40.0375 46.2499 40.1423C46.0926 40.2472 45.9709 40.4002 45.885 40.6013C45.799 40.8008 45.7561 41.0434 45.7561 41.329C45.7561 41.616 45.7976 41.8607 45.8806 42.0632C45.9637 42.2657 46.0839 42.4201 46.2412 42.5265C46.3985 42.6328 46.5894 42.686 46.8137 42.686C47.0119 42.686 47.1794 42.654 47.3164 42.5899C47.4548 42.5243 47.5596 42.4318 47.631 42.3123C47.7024 42.1929 47.7381 42.0523 47.7381 41.8906L47.9392 41.9146H46.8509V41.1257H48.7805V41.7179C48.7805 42.1186 48.6953 42.4617 48.5248 42.7472C48.3558 43.0327 48.1227 43.252 47.8255 43.405C47.5298 43.5579 47.1896 43.6344 46.805 43.6344C46.3781 43.6344 46.003 43.5419 45.6796 43.3569C45.3562 43.1719 45.1041 42.9082 44.9235 42.5658C44.7428 42.222 44.6525 41.8141 44.6525 41.3421C44.6525 40.9749 44.7071 40.6493 44.8164 40.3652C44.9257 40.0797 45.0779 39.8379 45.2731 39.6397C45.4698 39.4416 45.6971 39.2915 45.9549 39.1896C46.2142 39.0876 46.4932 39.0366 46.7919 39.0366C47.0512 39.0366 47.2923 39.0737 47.5152 39.148C47.7396 39.2223 47.9377 39.3272 48.1096 39.4627C48.283 39.5982 48.4236 39.7592 48.5314 39.9457C48.6392 40.1322 48.7062 40.3368 48.7324 40.5597H47.6376ZM50.7401 43.5732V39.0978H52.5889C52.924 39.0978 53.2132 39.1633 53.4565 39.2945C53.7012 39.4241 53.8899 39.6055 54.0224 39.8386C54.155 40.0702 54.2213 40.3398 54.2213 40.6471C54.2213 40.956 54.1536 41.2262 54.0181 41.4579C53.884 41.6881 53.6925 41.8665 53.4433 41.9933C53.1942 42.12 52.8985 42.1834 52.5561 42.1834H51.4154V41.3311H52.3551C52.5182 41.3311 52.6545 41.3027 52.7637 41.2459C52.8744 41.1891 52.9582 41.1097 53.015 41.0077C53.0718 40.9043 53.1003 40.7841 53.1003 40.6471C53.1003 40.5087 53.0718 40.3893 53.015 40.2888C52.9582 40.1868 52.8744 40.1081 52.7637 40.0528C52.653 39.9974 52.5168 39.9697 52.3551 39.9697H51.8219V43.5732H50.7401ZM55.1817 43.5732H54.0192L55.5292 39.0978H56.9693L58.4793 43.5732H57.3168L56.2656 40.2254H56.2307L55.1817 43.5732ZM55.0266 41.8119H57.4566V42.6336H55.0266V41.8119ZM58.9612 43.5732V39.0978H60.8099C61.145 39.0978 61.4342 39.1582 61.6775 39.2792C61.9222 39.3986 62.1109 39.5705 62.2435 39.7949C62.376 40.0178 62.4423 40.2822 62.4423 40.5881C62.4423 40.8985 62.3746 41.1621 62.2391 41.3792C62.1036 41.5948 61.9113 41.7595 61.6622 41.8731C61.4131 41.9853 61.1181 42.0414 60.7771 42.0414H59.608V41.1891H60.5761C60.7393 41.1891 60.8755 41.168 60.9847 41.1257C61.0955 41.082 61.1792 41.0165 61.2361 40.9291C61.2929 40.8402 61.3213 40.7265 61.3213 40.5881C61.3213 40.4497 61.2929 40.3354 61.2361 40.2451C61.1792 40.1533 61.0955 40.0848 60.9847 40.0396C60.874 39.993 60.7378 39.9697 60.5761 39.9697H60.0429V43.5732H58.9612ZM61.4808 41.5278L62.5953 43.5732H61.4153L60.3226 41.5278H61.4808ZM62.8892 39.9763V39.0978H66.6719V39.9763H65.3149V43.5732H64.2485V39.9763H62.8892ZM71.0092 39.0978V43.5732H70.0914L68.3104 40.9902H68.282V43.5732H67.2002V39.0978H68.1312L69.8925 41.6764H69.9297V39.0978H71.0092ZM71.6894 43.5732V39.0978H74.8099V39.9763H72.7711V40.8941H74.6504V41.7748H72.7711V42.6948H74.8099V43.5732H71.6894ZM75.4874 43.5732V39.0978H77.3361C77.6712 39.0978 77.9604 39.1582 78.2037 39.2792C78.4484 39.3986 78.6371 39.5705 78.7697 39.7949C78.9022 40.0178 78.9685 40.2822 78.9685 40.5881C78.9685 40.8985 78.9008 41.1621 78.7653 41.3792C78.6298 41.5948 78.4375 41.7595 78.1884 41.8731C77.9393 41.9853 77.6442 42.0414 77.3033 42.0414H76.1342V41.1891H77.1023C77.2655 41.1891 77.4017 41.168 77.5109 41.1257C77.6217 41.082 77.7054 41.0165 77.7623 40.9291C77.8191 40.8402 77.8475 40.7265 77.8475 40.5881C77.8475 40.4497 77.8191 40.3354 77.7623 40.2451C77.7054 40.1533 77.6217 40.0848 77.5109 40.0396C77.4002 39.993 77.264 39.9697 77.1023 39.9697H76.5691V43.5732H75.4874ZM78.007 41.5278L79.1215 43.5732H77.9414L76.8488 41.5278H78.007Z" fill="white"/>
<mask id="path-36-inside-4_974_12998" fill="white">
<path d="M21.3789 77.1462H85.5164V99.0214H21.3789V77.1462Z"/>
</mask>
<path d="M21.3789 77.722H85.5164V76.5705H21.3789V77.722Z" fill="white" mask="url(#path-36-inside-4_974_12998)"/>
<path d="M34.9548 88.0215H33.3005V83.546H34.9526C35.4086 83.546 35.8012 83.6356 36.1304 83.8148C36.4611 83.9926 36.7161 84.249 36.8953 84.584C37.0745 84.9177 37.1641 85.3168 37.1641 85.7816C37.1641 86.2478 37.0745 86.6484 36.8953 86.9835C36.7176 87.3186 36.4633 87.5757 36.1326 87.7549C35.8019 87.9326 35.4093 88.0215 34.9548 88.0215ZM34.3822 87.0993H34.9132C35.1638 87.0993 35.3758 87.057 35.5492 86.9725C35.724 86.8866 35.8558 86.7475 35.9447 86.5552C36.035 86.3614 36.0802 86.1035 36.0802 85.7816C36.0802 85.4596 36.035 85.2032 35.9447 85.0124C35.8544 84.82 35.7211 84.6816 35.5448 84.5971C35.37 84.5112 35.1543 84.4682 34.8979 84.4682H34.3822V87.0993ZM37.7956 88.0215V83.546H40.9162V84.4245H38.8773V85.3423H40.7567V86.223H38.8773V87.143H40.9162V88.0215H37.7956ZM42.6098 83.546L43.6107 86.8239H43.6478L44.6487 83.546H45.8593L44.3493 88.0215H42.9092L41.3992 83.546H42.6098ZM46.3412 88.0215V83.546H49.4618V84.4245H47.4229V85.3423H49.3022V86.223H47.4229V87.143H49.4618V88.0215H46.3412ZM50.1392 88.0215V83.546H51.2209V87.143H53.0828V88.0215H50.1392ZM57.6926 85.7838C57.6926 86.2762 57.5979 86.6936 57.4085 87.0359C57.2191 87.3783 56.9627 87.6383 56.6393 87.8161C56.3173 87.9938 55.956 88.0827 55.5554 88.0827C55.1533 88.0827 54.7913 87.9931 54.4693 87.8139C54.1474 87.6347 53.8917 87.3746 53.7023 87.0337C53.5144 86.6914 53.4204 86.2747 53.4204 85.7838C53.4204 85.2913 53.5144 84.8739 53.7023 84.5316C53.8917 84.1892 54.1474 83.9292 54.4693 83.7514C54.7913 83.5737 55.1533 83.4848 55.5554 83.4848C55.956 83.4848 56.3173 83.5737 56.6393 83.7514C56.9627 83.9292 57.2191 84.1892 57.4085 84.5316C57.5979 84.8739 57.6926 85.2913 57.6926 85.7838ZM56.5869 85.7838C56.5869 85.4924 56.5453 85.2462 56.4623 85.0451C56.3807 84.8441 56.2627 84.6918 56.1083 84.5884C55.9553 84.485 55.771 84.4333 55.5554 84.4333C55.3413 84.4333 55.157 84.485 55.0025 84.5884C54.8481 84.6918 54.7294 84.8441 54.6463 85.0451C54.5648 85.2462 54.524 85.4924 54.524 85.7838C54.524 86.0751 54.5648 86.3213 54.6463 86.5224C54.7294 86.7234 54.8481 86.8757 55.0025 86.9791C55.157 87.0825 55.3413 87.1343 55.5554 87.1343C55.771 87.1343 55.9553 87.0825 56.1083 86.9791C56.2627 86.8757 56.3807 86.7234 56.4623 86.5224C56.5453 86.3213 56.5869 86.0751 56.5869 85.7838ZM58.3242 88.0215V83.546H60.1729C60.508 83.546 60.7972 83.6116 61.0405 83.7427C61.2852 83.8724 61.4739 84.0537 61.6065 84.2868C61.739 84.5185 61.8053 84.788 61.8053 85.0954C61.8053 85.4042 61.7376 85.6745 61.6021 85.9061C61.4681 86.1363 61.2765 86.3148 61.0274 86.4415C60.7782 86.5683 60.4825 86.6316 60.1401 86.6316H58.9994V85.7794H59.9391C60.1023 85.7794 60.2385 85.751 60.3477 85.6942C60.4585 85.6373 60.5422 85.5579 60.599 85.456C60.6559 85.3525 60.6843 85.2323 60.6843 85.0954C60.6843 84.957 60.6559 84.8375 60.599 84.737C60.5422 84.635 60.4585 84.5564 60.3477 84.501C60.237 84.4456 60.1008 84.418 59.9391 84.418H59.4059V88.0215H58.3242ZM62.3385 88.0215V83.546H65.4591V84.4245H63.4202V85.3423H65.2996V86.223H63.4202V87.143H65.4591V88.0215H62.3385ZM66.1366 88.0215V83.546H67.9853C68.3204 83.546 68.6096 83.6065 68.8529 83.7274C69.0976 83.8469 69.2863 84.0188 69.4188 84.2431C69.5514 84.466 69.6177 84.7304 69.6177 85.0364C69.6177 85.3467 69.55 85.6104 69.4145 85.8275C69.279 86.0431 69.0867 86.2077 68.8376 86.3213C68.5884 86.4335 68.2934 86.4896 67.9525 86.4896H66.7834V85.6373H67.7515C67.9146 85.6373 68.0509 85.6162 68.1601 85.574C68.2708 85.5303 68.3546 85.4647 68.4114 85.3773C68.4682 85.2884 68.4967 85.1748 68.4967 85.0364C68.4967 84.898 68.4682 84.7836 68.4114 84.6933C68.3546 84.6015 68.2708 84.533 68.1601 84.4879C68.0494 84.4413 67.9132 84.418 67.7515 84.418H67.2183V88.0215H66.1366ZM68.6562 85.9761L69.7707 88.0215H68.5906L67.498 85.9761H68.6562ZM72.6301 84.8878C72.6155 84.7275 72.5507 84.603 72.4356 84.5141C72.322 84.4238 72.1596 84.3786 71.9483 84.3786C71.8085 84.3786 71.6919 84.3968 71.5987 84.4333C71.5054 84.4697 71.4355 84.5199 71.3889 84.584C71.3423 84.6467 71.3182 84.7188 71.3168 84.8004C71.3138 84.8674 71.327 84.9264 71.3561 84.9774C71.3867 85.0284 71.4304 85.0735 71.4872 85.1129C71.5455 85.1508 71.6154 85.1843 71.697 85.2134C71.7786 85.2425 71.8704 85.268 71.9723 85.2899L72.357 85.3773C72.5784 85.4254 72.7736 85.4895 72.9426 85.5696C73.1131 85.6497 73.2558 85.7451 73.3709 85.8559C73.4875 85.9666 73.5756 86.0941 73.6353 86.2383C73.6951 86.3825 73.7257 86.5442 73.7271 86.7234C73.7257 87.0061 73.6543 87.2486 73.513 87.4511C73.3717 87.6536 73.1684 87.8088 72.9033 87.9166C72.6396 88.0244 72.3213 88.0783 71.9483 88.0783C71.5739 88.0783 71.2476 88.0222 70.9693 87.91C70.691 87.7979 70.4747 87.6274 70.3203 87.3987C70.1658 87.17 70.0864 86.8808 70.0821 86.5311H71.1179C71.1266 86.6754 71.1653 86.7955 71.2337 86.8917C71.3022 86.9878 71.3962 87.0607 71.5156 87.1102C71.6365 87.1598 71.7764 87.1845 71.9352 87.1845C72.0809 87.1845 72.2047 87.1649 72.3067 87.1255C72.4101 87.0862 72.4895 87.0316 72.5449 86.9616C72.6003 86.8917 72.6287 86.8116 72.6301 86.7212C72.6287 86.6367 72.6024 86.5646 72.5514 86.5049C72.5005 86.4437 72.4218 86.3913 72.3154 86.3476C72.2105 86.3024 72.0765 86.2609 71.9133 86.223L71.4457 86.1137C71.0582 86.0249 70.753 85.8814 70.5301 85.6832C70.3072 85.4836 70.1964 85.2141 70.1979 84.8747C70.1964 84.5979 70.2707 84.3553 70.4208 84.147C70.5709 83.9386 70.7785 83.7762 71.0436 83.6597C71.3088 83.5431 71.611 83.4848 71.9505 83.4848C72.2972 83.4848 72.5981 83.5438 72.853 83.6618C73.1094 83.7784 73.3083 83.9423 73.4496 84.1535C73.5909 84.3648 73.663 84.6095 73.6659 84.8878H72.6301ZM45.5993 97.0215V96.2435L47.2317 94.8143C47.3541 94.7036 47.4582 94.6024 47.5442 94.5106C47.6301 94.4174 47.6957 94.3241 47.7408 94.2309C47.786 94.1362 47.8086 94.0335 47.8086 93.9228C47.8086 93.7989 47.7816 93.6933 47.7277 93.6059C47.6738 93.517 47.5995 93.4485 47.5048 93.4005C47.4101 93.3524 47.3016 93.3284 47.1792 93.3284C47.0554 93.3284 46.9469 93.3539 46.8536 93.4048C46.7604 93.4544 46.6875 93.5265 46.6351 93.6212C46.5841 93.7159 46.5586 93.831 46.5586 93.9665H45.5337C45.5337 93.662 45.6022 93.399 45.7391 93.1776C45.8761 92.9561 46.0684 92.7857 46.316 92.6662C46.5652 92.5453 46.8543 92.4848 47.1836 92.4848C47.523 92.4848 47.8181 92.5417 48.0686 92.6553C48.3192 92.7689 48.513 92.9277 48.6499 93.1317C48.7883 93.3342 48.8575 93.5695 48.8575 93.8375C48.8575 94.008 48.8233 94.177 48.7548 94.3445C48.6863 94.5121 48.5632 94.6971 48.3855 94.8996C48.2092 95.1021 47.9586 95.3446 47.6338 95.6273L47.0984 96.1211V96.1496H48.9122V97.0215H45.5993ZM51.3744 97.1307C50.984 97.1307 50.6475 97.0382 50.3648 96.8532C50.0822 96.6667 49.8644 96.3994 49.7114 96.0512C49.5585 95.7016 49.4827 95.2813 49.4842 94.7903C49.4856 94.2994 49.5621 93.8827 49.7136 93.5403C49.8666 93.1965 50.0837 92.935 50.3648 92.7558C50.6475 92.5752 50.984 92.4848 51.3744 92.4848C51.7649 92.4848 52.1014 92.5752 52.384 92.7558C52.6681 92.935 52.8866 93.1965 53.0396 93.5403C53.1926 93.8841 53.2683 94.3008 53.2669 94.7903C53.2669 95.2827 53.1904 95.7038 53.0374 96.0534C52.8845 96.403 52.6667 96.6704 52.384 96.8554C52.1029 97.039 51.7663 97.1307 51.3744 97.1307ZM51.3744 96.2457C51.6075 96.2457 51.7962 96.127 51.9404 95.8895C52.0846 95.6506 52.156 95.2842 52.1546 94.7903C52.1546 94.4669 52.1218 94.2003 52.0562 93.9905C51.9907 93.7793 51.8996 93.6219 51.7831 93.5185C51.6665 93.415 51.5303 93.3633 51.3744 93.3633C51.1428 93.3633 50.9556 93.4806 50.8128 93.7152C50.67 93.9482 50.5979 94.3066 50.5965 94.7903C50.595 95.1181 50.6263 95.3898 50.6904 95.6054C50.756 95.821 50.8478 95.982 50.9658 96.0884C51.0838 96.1933 51.22 96.2457 51.3744 96.2457ZM53.8864 97.0215V96.2435L55.5188 94.8143C55.6412 94.7036 55.7454 94.6024 55.8313 94.5106C55.9173 94.4174 55.9828 94.3241 56.028 94.2309C56.0731 94.1362 56.0957 94.0335 56.0957 93.9228C56.0957 93.7989 56.0688 93.6933 56.0149 93.6059C55.961 93.517 55.8867 93.4485 55.792 93.4005C55.6973 93.3524 55.5887 93.3284 55.4664 93.3284C55.3425 93.3284 55.234 93.3539 55.1408 93.4048C55.0475 93.4544 54.9747 93.5265 54.9222 93.6212C54.8712 93.7159 54.8457 93.831 54.8457 93.9665H53.8208C53.8208 93.662 53.8893 93.399 54.0263 93.1776C54.1632 92.9561 54.3555 92.7857 54.6032 92.6662C54.8523 92.5453 55.1415 92.4848 55.4707 92.4848C55.8102 92.4848 56.1052 92.5417 56.3558 92.6553C56.6064 92.7689 56.8001 92.9277 56.9371 93.1317C57.0755 93.3342 57.1447 93.5695 57.1447 93.8375C57.1447 94.008 57.1104 94.177 57.042 94.3445C56.9735 94.5121 56.8504 94.6971 56.6726 94.8996C56.4964 95.1021 56.2458 95.3446 55.9209 95.6273L55.3855 96.1211V96.1496H57.1993V97.0215H53.8864ZM57.6598 96.2785V95.435L59.4933 92.546H60.2428V93.6911H59.808L58.735 95.3913V95.4262H61.3901V96.2785H57.6598ZM59.8211 97.0215V96.0206L59.8429 95.6513V92.546H60.8547V97.0215H59.8211Z" fill="white"/>
</g>
<path d="M70.4833 33.067L129.802 0.845052L189.121 33.067V97.4344L129.802 129.656L70.4833 97.4344V33.067Z" fill="white" stroke="#0C2D3E" stroke-width="1.48514"/>
<path d="M184.26 46.4267V34.8499L129.779 4.94336L75.2969 34.8499V46.4267M184.26 82.1216V94.6631L129.779 124.57L75.2969 94.6631V82.1216" stroke="#0C2D3E" stroke-width="4.1584"/>
<path d="M180.704 49.9266H78.8154V37.1222L129.76 9.46175L180.704 37.1222V49.9266ZM180.704 92.3918L129.76 120.052L78.8154 92.3918V79.5874H180.704V92.3918Z" fill="#0C2D3E" stroke="#0C2D3E" stroke-width="0.990093"/>
<mask id="path-42-inside-5_974_12998" fill="white">
<path d="M88.1602 17.7971H171.314V45.7377H88.1602V17.7971Z"/>
</mask>
<path d="M171.314 45.0021H88.1602V46.4732H171.314V45.0021Z" fill="white" mask="url(#path-42-inside-5_974_12998)"/>
<path d="M121.787 21.202V20.0798H126.62V21.202H124.886V25.7971H123.524V21.202H121.787ZM132.43 22.9384C132.43 23.5675 132.309 24.1007 132.067 24.5381C131.825 24.9754 131.498 25.3076 131.084 25.5347C130.673 25.7618 130.211 25.8753 129.7 25.8753C129.186 25.8753 128.724 25.7608 128.312 25.5319C127.901 25.303 127.574 24.9708 127.332 24.5353C127.092 24.0979 126.972 23.5656 126.972 22.9384C126.972 22.3094 127.092 21.7762 127.332 21.3388C127.574 20.9015 127.901 20.5692 128.312 20.3422C128.724 20.1151 129.186 20.0016 129.7 20.0016C130.211 20.0016 130.673 20.1151 131.084 20.3422C131.498 20.5692 131.825 20.9015 132.067 21.3388C132.309 21.7762 132.43 22.3094 132.43 22.9384ZM131.017 22.9384C131.017 22.5662 130.964 22.2517 130.858 21.9949C130.754 21.738 130.603 21.5435 130.406 21.4114C130.211 21.2793 129.975 21.2132 129.7 21.2132C129.426 21.2132 129.191 21.2793 128.993 21.4114C128.796 21.5435 128.644 21.738 128.538 21.9949C128.434 22.2517 128.382 22.5662 128.382 22.9384C128.382 23.3107 128.434 23.6252 128.538 23.882C128.644 24.1389 128.796 24.3334 128.993 24.4655C129.191 24.5976 129.426 24.6637 129.7 24.6637C129.975 24.6637 130.211 24.5976 130.406 24.4655C130.603 24.3334 130.754 24.1389 130.858 23.882C130.964 23.6252 131.017 23.3107 131.017 22.9384ZM133.237 25.7971V20.0798H135.598C136.027 20.0798 136.396 20.1635 136.707 20.331C137.019 20.4967 137.26 20.7284 137.43 21.0262C137.599 21.3221 137.684 21.6664 137.684 22.0591C137.684 22.4536 137.597 22.7989 137.424 23.0948C137.253 23.3888 137.008 23.6168 136.69 23.7787C136.372 23.9407 135.994 24.0216 135.557 24.0216H134.099V22.9329H135.3C135.508 22.9329 135.682 22.8966 135.822 22.824C135.963 22.7514 136.07 22.65 136.143 22.5197C136.215 22.3876 136.252 22.234 136.252 22.0591C136.252 21.8823 136.215 21.7297 136.143 21.6012C136.07 21.471 135.963 21.3705 135.822 21.2997C135.68 21.229 135.506 21.1937 135.3 21.1937H134.619V25.7971H133.237ZM97.2427 36.7971V31.0798H98.6245V33.3745H100.877V31.0798H102.257V36.7971H100.877V34.4996H98.6245V36.7971H97.2427ZM104.505 31.0798V36.7971H103.123V31.0798H104.505ZM105.373 36.7971V31.0798H107.734C108.163 31.0798 108.532 31.157 108.843 31.3115C109.155 31.4641 109.396 31.6837 109.566 31.9703C109.735 32.2551 109.82 32.5929 109.82 32.9837C109.82 33.3801 109.733 33.717 109.56 33.9943C109.387 34.2697 109.141 34.48 108.823 34.6252C108.505 34.7685 108.128 34.8402 107.693 34.8402H106.199V33.7514H107.436C107.644 33.7514 107.818 33.7244 107.958 33.6704C108.099 33.6146 108.206 33.5309 108.279 33.4192C108.351 33.3057 108.388 33.1605 108.388 32.9837C108.388 32.8069 108.351 32.6608 108.279 32.5454C108.206 32.4282 108.099 32.3407 107.958 32.283C107.816 32.2234 107.642 32.1937 107.436 32.1937H106.755V36.7971H105.373ZM108.592 34.1841L110.015 36.7971H108.508L107.112 34.1841H108.592ZM111.96 31.0798V36.7971H110.578V31.0798H111.96ZM117.693 31.0798V36.7971H116.521L114.245 33.4974H114.209V36.7971H112.827V31.0798H114.016L116.267 34.3739H116.314V31.0798H117.693ZM122.314 32.9474C122.282 32.8302 122.236 32.7269 122.174 32.6375C122.113 32.5463 122.038 32.4691 121.948 32.4058C121.859 32.3425 121.757 32.2951 121.641 32.2634C121.526 32.2299 121.399 32.2132 121.262 32.2132C120.984 32.2132 120.744 32.2802 120.541 32.4142C120.34 32.5482 120.185 32.7436 120.075 33.0004C119.965 33.2554 119.91 33.5653 119.91 33.9301C119.91 34.2967 119.963 34.6094 120.069 34.8681C120.176 35.1268 120.329 35.324 120.53 35.4599C120.731 35.5958 120.975 35.6637 121.262 35.6637C121.515 35.6637 121.729 35.6228 121.904 35.5409C122.08 35.4571 122.214 35.3389 122.306 35.1863C122.397 35.0337 122.442 34.8541 122.442 34.6475L122.699 34.6782H121.309V33.6704H123.774V34.427C123.774 34.9388 123.665 35.3771 123.447 35.7419C123.232 36.1066 122.934 36.3867 122.554 36.5822C122.176 36.7776 121.742 36.8753 121.25 36.8753C120.705 36.8753 120.226 36.7571 119.813 36.5207C119.399 36.2844 119.077 35.9475 118.847 35.5102C118.616 35.0709 118.501 34.5498 118.501 33.9468C118.501 33.4778 118.57 33.0619 118.71 32.6989C118.85 32.3342 119.044 32.0252 119.293 31.7721C119.545 31.519 119.835 31.3273 120.164 31.197C120.496 31.0667 120.852 31.0016 121.234 31.0016C121.565 31.0016 121.873 31.0491 122.158 31.144C122.444 31.2389 122.697 31.3729 122.917 31.546C123.138 31.7191 123.318 31.9247 123.456 32.1629C123.593 32.4012 123.679 32.6627 123.713 32.9474H122.314ZM126.277 36.7971V31.0798H128.639C129.067 31.0798 129.437 31.1635 129.747 31.331C130.06 31.4967 130.301 31.7284 130.471 32.0262C130.64 32.3221 130.725 32.6664 130.725 33.0591C130.725 33.4536 130.638 33.7989 130.465 34.0948C130.294 34.3888 130.049 34.6168 129.731 34.7787C129.412 34.9407 129.035 35.0216 128.597 35.0216H127.14V33.9329H128.34C128.549 33.9329 128.723 33.8966 128.863 33.824C129.004 33.7514 129.111 33.65 129.184 33.5197C129.256 33.3876 129.292 33.234 129.292 33.0591C129.292 32.8823 129.256 32.7297 129.184 32.6012C129.111 32.471 129.004 32.3705 128.863 32.2997C128.721 32.229 128.547 32.1937 128.34 32.1937H127.659V36.7971H126.277ZM131.952 36.7971H130.466L132.395 31.0798H134.235L136.164 36.7971H134.679L133.336 32.5203H133.292L131.952 36.7971ZM131.753 34.547H134.858V35.5967H131.753V34.547ZM136.78 36.7971V31.0798H139.141C139.57 31.0798 139.939 31.157 140.25 31.3115C140.562 31.4641 140.803 31.6837 140.973 31.9703C141.142 32.2551 141.227 32.5929 141.227 32.9837C141.227 33.3801 141.14 33.717 140.967 33.9943C140.794 34.2697 140.548 34.48 140.23 34.6252C139.912 34.7685 139.535 34.8402 139.1 34.8402H137.606V33.7514H138.843C139.051 33.7514 139.225 33.7244 139.365 33.6704C139.506 33.6146 139.613 33.5309 139.686 33.4192C139.758 33.3057 139.795 33.1605 139.795 32.9837C139.795 32.8069 139.758 32.6608 139.686 32.5454C139.613 32.4282 139.506 32.3407 139.365 32.283C139.223 32.2234 139.049 32.1937 138.843 32.1937H138.162V36.7971H136.78ZM139.999 34.1841L141.422 36.7971H139.915L138.519 34.1841H139.999ZM141.798 32.202V31.0798H146.63V32.202H144.897V36.7971H143.534V32.202H141.798ZM152.171 31.0798V36.7971H150.998L148.723 33.4974H148.687V36.7971H147.305V31.0798H148.494L150.744 34.3739H150.792V31.0798H152.171ZM153.04 36.7971V31.0798H157.026V32.202H154.422V33.3745H156.823V34.4996H154.422V35.6749H157.026V36.7971H153.04ZM157.892 36.7971V31.0798H160.253C160.682 31.0798 161.051 31.157 161.362 31.3115C161.674 31.4641 161.915 31.6837 162.085 31.9703C162.254 32.2551 162.339 32.5929 162.339 32.9837C162.339 33.3801 162.252 33.717 162.079 33.9943C161.906 34.2697 161.66 34.48 161.342 34.6252C161.024 34.7685 160.647 34.8402 160.212 34.8402H158.718V33.7514H159.955C160.163 33.7514 160.337 33.7244 160.477 33.6704C160.618 33.6146 160.725 33.5309 160.798 33.4192C160.87 33.3057 160.907 33.1605 160.907 32.9837C160.907 32.8069 160.87 32.6608 160.798 32.5454C160.725 32.4282 160.618 32.3407 160.477 32.283C160.335 32.2234 160.161 32.1937 159.955 32.1937H159.274V36.7971H157.892ZM161.111 34.1841L162.534 36.7971H161.027L159.631 34.1841H161.111Z" fill="white"/>
<mask id="path-45-inside-6_974_12998" fill="white">
<path d="M88.1602 82.0571H171.314V109.008H88.1602V82.0571Z"/>
</mask>
<path d="M88.1602 82.7927H171.314V81.3216H88.1602V82.7927Z" fill="white" mask="url(#path-45-inside-6_974_12998)"/>
<path d="M106.112 95.0076H103.999V89.2902H106.109C106.692 89.2902 107.193 89.4047 107.614 89.6336C108.036 89.8607 108.362 90.1882 108.591 90.6163C108.82 91.0425 108.934 91.5524 108.934 92.1461C108.934 92.7417 108.82 93.2535 108.591 93.6815C108.364 94.1096 108.039 94.4381 107.617 94.667C107.194 94.894 106.692 95.0076 106.112 95.0076ZM105.38 93.8295H106.059C106.379 93.8295 106.65 93.7755 106.871 93.6676C107.094 93.5578 107.263 93.38 107.376 93.1344C107.492 92.8868 107.55 92.5574 107.55 92.1461C107.55 91.7348 107.492 91.4072 107.376 91.1634C107.261 90.9178 107.091 90.741 106.866 90.633C106.642 90.5232 106.367 90.4683 106.039 90.4683H105.38V93.8295ZM109.741 95.0076V89.2902H113.727V90.4125H111.123V91.585H113.524V92.71H111.123V93.8853H113.727V95.0076H109.741ZM115.891 89.2902L117.17 93.4777H117.217L118.496 89.2902H120.042L118.113 95.0076H116.273L114.344 89.2902H115.891ZM120.658 95.0076V89.2902H124.644V90.4125H122.04V91.585H124.441V92.71H122.04V93.8853H124.644V95.0076H120.658ZM125.51 95.0076V89.2902H126.892V93.8853H129.27V95.0076H125.51ZM135.159 92.1489C135.159 92.778 135.038 93.3112 134.796 93.7485C134.554 94.1859 134.227 94.5181 133.814 94.7452C133.402 94.9722 132.941 95.0857 132.429 95.0857C131.915 95.0857 131.453 94.9713 131.041 94.7424C130.63 94.5134 130.304 94.1812 130.062 93.7457C129.821 93.3084 129.701 92.7761 129.701 92.1489C129.701 91.5198 129.821 90.9866 130.062 90.5493C130.304 90.1119 130.63 89.7797 131.041 89.5526C131.453 89.3256 131.915 89.2121 132.429 89.2121C132.941 89.2121 133.402 89.3256 133.814 89.5526C134.227 89.7797 134.554 90.1119 134.796 90.5493C135.038 90.9866 135.159 91.5198 135.159 92.1489ZM133.747 92.1489C133.747 91.7767 133.694 91.4621 133.587 91.2053C133.483 90.9485 133.332 90.754 133.135 90.6219C132.94 90.4897 132.704 90.4236 132.429 90.4236C132.155 90.4236 131.92 90.4897 131.723 90.6219C131.525 90.754 131.374 90.9485 131.268 91.2053C131.163 91.4621 131.111 91.7767 131.111 92.1489C131.111 92.5211 131.163 92.8356 131.268 93.0925C131.374 93.3493 131.525 93.5438 131.723 93.6759C131.92 93.8081 132.155 93.8741 132.429 93.8741C132.704 93.8741 132.94 93.8081 133.135 93.6759C133.332 93.5438 133.483 93.3493 133.587 93.0925C133.694 92.8356 133.747 92.5211 133.747 92.1489ZM135.966 95.0076V89.2902H138.328C138.756 89.2902 139.125 89.374 139.436 89.5415C139.749 89.7071 139.99 89.9388 140.159 90.2366C140.328 90.5325 140.413 90.8768 140.413 91.2695C140.413 91.6641 140.327 92.0093 140.153 92.3052C139.982 92.5993 139.737 92.8273 139.419 92.9892C139.101 93.1511 138.723 93.2321 138.286 93.2321H136.829V92.1433H138.029C138.237 92.1433 138.411 92.107 138.551 92.0344C138.692 91.9619 138.799 91.8604 138.872 91.7301C138.945 91.598 138.981 91.4445 138.981 91.2695C138.981 91.0927 138.945 90.9401 138.872 90.8117C138.799 90.6814 138.692 90.5809 138.551 90.5102C138.41 90.4395 138.236 90.4041 138.029 90.4041H137.348V95.0076H135.966ZM141.094 95.0076V89.2902H145.081V90.4125H142.476V91.585H144.877V92.71H142.476V93.8853H145.081V95.0076H141.094ZM145.946 95.0076V89.2902H148.308C148.736 89.2902 149.105 89.3675 149.416 89.5219C149.729 89.6745 149.97 89.8942 150.139 90.1808C150.309 90.4655 150.393 90.8033 150.393 91.1941C150.393 91.5906 150.307 91.9274 150.134 92.2047C149.961 92.4802 149.715 92.6905 149.397 92.8356C149.078 92.979 148.702 93.0506 148.266 93.0506H146.773V91.9619H148.009C148.218 91.9619 148.392 91.9349 148.531 91.8809C148.673 91.8251 148.78 91.7413 148.852 91.6296C148.925 91.5161 148.961 91.371 148.961 91.1941C148.961 91.0173 148.925 90.8712 148.852 90.7559C148.78 90.6386 148.673 90.5511 148.531 90.4934C148.39 90.4339 148.216 90.4041 148.009 90.4041H147.328V95.0076H145.946ZM149.165 92.3946L150.589 95.0076H149.081L147.685 92.3946H149.165ZM154.242 91.0043C154.223 90.7996 154.14 90.6405 153.993 90.5269C153.848 90.4115 153.64 90.3539 153.371 90.3539C153.192 90.3539 153.043 90.3771 152.924 90.4236C152.805 90.4702 152.716 90.5344 152.656 90.6163C152.596 90.6963 152.566 90.7884 152.564 90.8926C152.56 90.9783 152.577 91.0536 152.614 91.1188C152.653 91.1839 152.709 91.2416 152.782 91.2919C152.856 91.3402 152.945 91.383 153.05 91.4203C153.154 91.4575 153.271 91.4901 153.401 91.518L153.893 91.6296C154.176 91.6911 154.425 91.773 154.641 91.8753C154.859 91.9777 155.041 92.0996 155.188 92.241C155.337 92.3825 155.449 92.5453 155.526 92.7296C155.602 92.9138 155.641 93.1204 155.643 93.3493C155.641 93.7104 155.55 94.0202 155.369 94.2789C155.189 94.5376 154.929 94.7358 154.591 94.8736C154.254 95.0113 153.847 95.0802 153.371 95.0802C152.892 95.0802 152.475 95.0085 152.12 94.8652C151.764 94.7219 151.488 94.5041 151.291 94.2119C151.094 93.9197 150.992 93.5503 150.987 93.1036H152.31C152.321 93.2879 152.37 93.4414 152.458 93.5643C152.545 93.6871 152.665 93.7802 152.818 93.8434C152.972 93.9067 153.151 93.9384 153.354 93.9384C153.54 93.9384 153.698 93.9132 153.828 93.863C153.961 93.8127 154.062 93.7429 154.133 93.6536C154.203 93.5643 154.24 93.4619 154.242 93.3465C154.24 93.2386 154.206 93.1465 154.141 93.0701C154.076 92.992 153.975 92.925 153.84 92.8691C153.706 92.8115 153.534 92.7584 153.326 92.71L152.729 92.5704C152.233 92.4569 151.844 92.2736 151.559 92.0205C151.274 91.7655 151.133 91.4212 151.134 90.9876C151.133 90.6339 151.228 90.3241 151.419 90.0579C151.611 89.7918 151.876 89.5843 152.215 89.4354C152.554 89.2865 152.94 89.2121 153.373 89.2121C153.816 89.2121 154.201 89.2874 154.526 89.4382C154.854 89.5871 155.108 89.7964 155.288 90.0663C155.469 90.3362 155.561 90.6488 155.565 91.0043H154.242ZM119.71 106.008V105.014L121.795 103.188C121.952 103.047 122.085 102.917 122.195 102.8C122.304 102.681 122.388 102.562 122.446 102.443C122.504 102.322 122.532 102.19 122.532 102.049C122.532 101.891 122.498 101.756 122.429 101.644C122.36 101.531 122.265 101.443 122.144 101.382C122.023 101.32 121.885 101.29 121.728 101.29C121.57 101.29 121.432 101.322 121.312 101.387C121.193 101.451 121.1 101.543 121.033 101.664C120.968 101.785 120.936 101.932 120.936 102.105H119.626C119.626 101.716 119.714 101.38 119.889 101.097C120.064 100.814 120.309 100.596 120.626 100.444C120.944 100.289 121.313 100.212 121.734 100.212C122.168 100.212 122.545 100.285 122.865 100.43C123.185 100.575 123.432 100.778 123.607 101.038C123.784 101.297 123.872 101.598 123.872 101.94C123.872 102.158 123.829 102.374 123.741 102.588C123.654 102.802 123.496 103.038 123.269 103.297C123.044 103.556 122.724 103.865 122.309 104.226L121.625 104.857V104.894H123.942V106.008H119.71ZM127.088 106.147C126.589 106.147 126.159 106.029 125.798 105.793C125.437 105.554 125.159 105.213 124.963 104.768C124.768 104.321 124.671 103.784 124.673 103.157C124.675 102.53 124.773 101.998 124.966 101.56C125.161 101.121 125.439 100.787 125.798 100.558C126.159 100.327 126.589 100.212 127.088 100.212C127.587 100.212 128.016 100.327 128.377 100.558C128.74 100.787 129.02 101.121 129.215 101.56C129.41 102 129.507 102.532 129.505 103.157C129.505 103.786 129.408 104.324 129.212 104.771C129.017 105.218 128.739 105.559 128.377 105.795C128.018 106.03 127.588 106.147 127.088 106.147ZM127.088 105.017C127.386 105.017 127.627 104.865 127.811 104.561C127.995 104.256 128.086 103.788 128.084 103.157C128.084 102.744 128.042 102.404 127.959 102.136C127.875 101.866 127.759 101.665 127.61 101.533C127.461 101.4 127.287 101.334 127.088 101.334C126.792 101.334 126.553 101.484 126.37 101.784C126.188 102.082 126.096 102.539 126.094 103.157C126.092 103.576 126.132 103.923 126.214 104.199C126.298 104.474 126.415 104.68 126.566 104.816C126.716 104.95 126.89 105.017 127.088 105.017ZM130.297 106.008V105.014L132.382 103.188C132.538 103.047 132.672 102.917 132.781 102.8C132.891 102.681 132.975 102.562 133.033 102.443C133.09 102.322 133.119 102.19 133.119 102.049C133.119 101.891 133.085 101.756 133.016 101.644C132.947 101.531 132.852 101.443 132.731 101.382C132.61 101.32 132.471 101.29 132.315 101.29C132.157 101.29 132.018 101.322 131.899 101.387C131.78 101.451 131.687 101.543 131.62 101.664C131.555 101.785 131.522 101.932 131.522 102.105H130.213C130.213 101.716 130.3 101.38 130.475 101.097C130.65 100.814 130.896 100.596 131.212 100.444C131.531 100.289 131.9 100.212 132.321 100.212C132.754 100.212 133.131 100.285 133.451 100.43C133.771 100.575 134.019 100.778 134.194 101.038C134.371 101.297 134.459 101.598 134.459 101.94C134.459 102.158 134.415 102.374 134.328 102.588C134.24 102.802 134.083 103.038 133.856 103.297C133.631 103.556 133.311 103.865 132.896 104.226L132.212 104.857V104.894H134.529V106.008H130.297ZM135.117 105.058V103.981L137.459 100.29H138.417V101.753H137.861L136.491 103.925V103.97H139.883V105.058H135.117ZM137.878 106.008V104.729L137.906 104.257V100.29H139.199V106.008H137.878Z" fill="white"/>
<g filter="url(#filter6_d_974_12998)">
<path d="M165.795 70.3359V64.7787C165.795 63.561 166.217 62.5312 167.061 61.6892C167.917 60.8342 168.994 60.4067 170.292 60.4067C171.576 60.4067 172.647 60.8277 173.504 61.6697C174.36 62.5118 174.788 63.5481 174.788 64.7787V70.3359H171.898V64.8953C171.898 64.403 171.753 64.0015 171.463 63.6906C171.173 63.3797 170.789 63.2242 170.311 63.2242C169.832 63.2242 169.435 63.3797 169.12 63.6906C168.818 63.9885 168.667 64.3901 168.667 64.8953V70.3359H165.795Z" fill="#0C2D3E"/>
<path d="M147.27 67.111L150.35 63.3609H146.779V60.6211H152.56C152.8 60.6211 153.064 60.6664 153.354 60.7571C153.644 60.8478 153.889 61.0421 154.091 61.34C154.292 61.638 154.393 61.9618 154.393 62.3116C154.393 62.5707 154.349 62.7974 154.261 62.9917C154.173 63.186 154.097 63.3285 154.034 63.4191C153.984 63.4969 153.927 63.5681 153.864 63.6329L150.463 67.5968H154.091V70.3366H148.253C147.031 70.3366 146.42 69.8184 146.42 68.7821C146.42 68.523 146.464 68.2963 146.552 68.102C146.653 67.9077 146.892 67.5774 147.27 67.111Z" fill="#0C2D3E"/>
<path d="M136.869 60.6211H139.798L140.742 66.5286C140.793 66.7877 140.875 67.0144 140.988 67.2087C141.101 67.3901 141.284 67.4808 141.536 67.4808C141.662 67.4808 141.775 67.4484 141.876 67.3836C141.989 67.3188 142.077 67.2217 142.14 67.0921C142.216 66.9626 142.279 66.7682 142.329 66.5091L143.293 60.6211H146.221L145.012 67.403C145 67.5455 144.974 67.6621 144.937 67.7528C144.911 67.8435 144.848 68.0378 144.748 68.3358C144.647 68.6338 144.439 68.9641 144.124 69.3268C143.809 69.6766 143.438 69.9422 143.009 70.1236V74.457H140.081V70.1236C139.174 69.8127 138.544 69.0937 138.192 67.9666L138.041 67.3836L136.869 60.6211Z" fill="#0C2D3E"/>
<path d="M136.346 65.5942V70.3354H133.456V65.7108C133.456 64.9725 133.273 64.3831 132.908 63.9426C132.542 63.5022 132.07 63.282 131.491 63.282C130.886 63.282 130.388 63.4957 129.998 63.9232C129.607 64.3507 129.412 64.8818 129.412 65.5165C129.412 66.0865 129.633 66.5723 130.074 66.9738C130.514 67.3754 131.037 67.5762 131.642 67.5762C131.793 67.5762 131.957 67.5568 132.133 67.5179C132.322 67.479 132.511 67.4078 132.7 67.3042V70.2771C132.498 70.3419 132.29 70.4002 132.076 70.452C131.875 70.5038 131.673 70.5297 131.472 70.5297C130.086 70.5297 128.915 70.0504 127.957 69.0918C127 68.1332 126.521 66.922 126.521 65.4582C126.521 64.396 126.799 63.4439 127.353 62.6019C127.92 61.7469 128.518 61.1899 129.148 60.9308C129.778 60.6717 130.262 60.5098 130.603 60.4451C130.943 60.3803 131.27 60.3479 131.585 60.3479C132.92 60.3479 134.048 60.8401 134.967 61.8246C135.887 62.8091 136.346 64.0657 136.346 65.5942Z" fill="#0C2D3E"/>
<path d="M112.49 66.3532V60.6211H115.362V66.4892C115.362 66.5799 115.368 66.6771 115.381 66.7807C115.394 66.8714 115.419 67.0009 115.457 67.1693C115.494 67.3248 115.614 67.4802 115.816 67.6357C116.03 67.7781 116.263 67.8494 116.515 67.8494C116.704 67.8494 116.943 67.7717 117.233 67.6162C117.522 67.4608 117.667 67.0851 117.667 66.4892V60.6211H120.445V66.4892C120.445 67.0851 120.589 67.4608 120.879 67.6162C121.181 67.7717 121.427 67.8494 121.616 67.8494C121.868 67.8494 122.095 67.7781 122.296 67.6357C122.498 67.4802 122.63 67.2859 122.693 67.0527L122.75 66.4892V60.6211H125.64V66.3532C125.64 67.2989 125.439 68.0955 125.036 68.7432C124.645 69.3909 124.11 69.8573 123.43 70.1422C122.75 70.4143 122.12 70.5503 121.54 70.5503C120.986 70.5503 120.501 70.4531 120.086 70.2588C119.67 70.0516 119.33 69.7666 119.065 69.4039C118.801 69.7666 118.461 70.0516 118.045 70.2588C117.629 70.4531 117.138 70.5503 116.571 70.5503C115.992 70.5503 115.362 70.4143 114.682 70.1422C114.014 69.8702 113.479 69.4103 113.076 68.7626C112.685 68.102 112.49 67.2989 112.49 66.3532Z" fill="#0C2D3E"/>
<path d="M111.635 63.5564L106.685 67.2288L105.627 65.791L108.574 63.5953C108.222 63.2326 107.774 63.0512 107.233 63.0512C106.817 63.0512 106.42 63.1743 106.042 63.4204C105.665 63.6536 105.381 63.9644 105.192 64.3531C105.016 64.7417 104.928 65.1109 104.928 65.4606C104.928 65.7974 105.003 66.1407 105.154 66.4905C105.318 66.8402 105.57 67.1382 105.91 67.3843C106.263 67.6175 106.647 67.734 107.063 67.734C107.718 67.734 108.322 67.4491 108.877 66.8791L109.141 66.5876L111.427 67.8701C110.81 69.0489 110.054 69.7872 109.16 70.0852C108.266 70.3702 107.567 70.5127 107.063 70.5127C105.74 70.5127 104.607 70.0334 103.662 69.0748C102.73 68.1032 102.264 66.905 102.264 65.4801C102.264 64.4049 102.553 63.4398 103.133 62.5849C103.712 61.7169 104.399 61.134 105.192 60.8361C105.986 60.5381 106.679 60.3892 107.271 60.3892C108.278 60.3892 109.179 60.6741 109.972 61.2441C110.766 61.8141 111.32 62.5849 111.635 63.5564Z" fill="#0C2D3E"/>
<path d="M101.686 63.5564L96.7356 67.2288L95.6776 65.791L98.625 63.5953C98.2723 63.2326 97.8252 63.0512 97.2836 63.0512C96.8679 63.0512 96.4711 63.1743 96.0932 63.4204C95.7154 63.6536 95.4319 63.9644 95.243 64.3531C95.0667 64.7417 94.9785 65.1109 94.9785 65.4606C94.9785 65.7974 95.0541 66.1407 95.2052 66.4905C95.369 66.8402 95.6209 67.1382 95.961 67.3843C96.3137 67.6175 96.6978 67.734 97.1135 67.734C97.7685 67.734 98.3731 67.4491 98.9273 66.8791L99.1918 66.5876L101.478 67.8701C100.861 69.0489 100.105 69.7872 99.2107 70.0852C98.3164 70.3702 97.6173 70.5127 97.1135 70.5127C95.7909 70.5127 94.6573 70.0334 93.7126 69.0748C92.7805 68.1032 92.3145 66.905 92.3145 65.4801C92.3145 64.4049 92.6042 63.4398 93.1836 62.5849C93.763 61.7169 94.4495 61.134 95.243 60.8361C96.0366 60.5381 96.7293 60.3892 97.3213 60.3892C98.329 60.3892 99.2296 60.6741 100.023 61.2441C100.817 61.8141 101.371 62.5849 101.686 63.5564Z" fill="#0C2D3E"/>
<path d="M85.627 66.802V56.3467H88.8954V66.3161C88.8954 66.6919 89.0025 66.9899 89.2166 67.2101C89.4307 67.4303 89.7204 67.5405 90.0856 67.5405H92.1072V70.3389H89.0654C88.5112 70.3389 87.7996 70.0992 86.9305 69.6199C86.0615 69.1276 85.627 68.1883 85.627 66.802Z" fill="#0C2D3E"/>
</g>
<g filter="url(#filter7_d_974_12998)">
<path d="M156.458 70.3343C157.119 70.7755 157.953 70.9961 158.961 70.9961C159.952 70.9961 160.842 70.7799 161.631 70.3476C162.421 69.9109 163.075 69.3021 163.594 68.5213C164.113 67.7405 164.456 66.8317 164.623 65.795C164.79 64.7407 164.739 63.8165 164.469 63.0225C164.276 62.4567 163.985 61.6078 163.594 61.2212C163.594 61.8086 162.452 63.3877 161.857 63.892C161.884 63.9849 161.858 64.0316 161.876 64.1342C161.957 64.5885 161.951 65.1091 161.857 65.6958C161.762 66.2913 161.595 66.8251 161.355 67.2971C161.119 67.7647 160.821 68.1353 160.46 68.4088C160.104 68.6779 159.695 68.8124 159.231 68.8124C158.781 68.8124 158.425 68.6823 158.163 68.422C157.902 68.1573 157.732 67.7978 157.655 67.3434C157.597 66.9978 157.586 66.617 157.623 66.2012C156.756 66.1544 155.408 66.7155 154.82 67.0708C154.837 67.5795 154.917 68.0498 155.062 68.4816C155.332 69.2712 155.798 69.8888 156.458 70.3343Z" fill="#0C2D3E"/>
<g filter="url(#filter8_d_974_12998)">
<path d="M154.896 66.4639C154.99 58.8787 160.772 58.6215 163.652 59.4411C158.513 60.2689 157.348 61.9203 157.407 62.6425C159.373 60.4377 162.268 60.5955 163.47 60.95C161.952 63.8235 157.121 65.8232 154.896 66.4639Z" fill="url(#paint2_linear_974_12998)"/>
</g>
</g>
<defs>
<filter id="filter0_d_974_12998" x="172.328" y="57.2662" width="69.1496" height="14.3984" filterUnits="userSpaceOnUse" color-interpolation-filters="sRGB">
<feFlood flood-opacity="0" result="BackgroundImageFix"/>
<feColorMatrix in="SourceAlpha" type="matrix" values="0 0 0 0 0 0 0 0 0 0 0 0 0 0 0 0 0 0 127 0" result="hardAlpha"/>
<feOffset dy="0.160106"/>
<feGaussianBlur stdDeviation="0.106737"/>
<feComposite in2="hardAlpha" operator="out"/>
<feColorMatrix type="matrix" values="0 0 0 0 0 0 0 0 0 0 0 0 0 0 0 0 0 0 0.25 0"/>
<feBlend mode="normal" in2="BackgroundImageFix" result="effect1_dropShadow_974_12998"/>
<feBlend mode="normal" in="SourceGraphic" in2="effect1_dropShadow_974_12998" result="shape"/>
</filter>
<filter id="filter1_d_974_12998" x="225.71" y="59.4587" width="8.06367" height="9.58588" filterUnits="userSpaceOnUse" color-interpolation-filters="sRGB">
<feFlood flood-opacity="0" result="BackgroundImageFix"/>
<feColorMatrix in="SourceAlpha" type="matrix" values="0 0 0 0 0 0 0 0 0 0 0 0 0 0 0 0 0 0 127 0" result="hardAlpha"/>
<feOffset dy="0.213474"/>
<feGaussianBlur stdDeviation="0.106737"/>
<feComposite in2="hardAlpha" operator="out"/>
<feColorMatrix type="matrix" values="0 0 0 0 0 0 0 0 0 0 0 0 0 0 0 0 0 0 0.25 0"/>
<feBlend mode="normal" in2="BackgroundImageFix" result="effect1_dropShadow_974_12998"/>
<feBlend mode="normal" in="SourceGraphic" in2="effect1_dropShadow_974_12998" result="shape"/>
</filter>
<filter id="filter2_d_974_12998" x="225.763" y="59.2453" width="7.18281" height="6.09077" filterUnits="userSpaceOnUse" color-interpolation-filters="sRGB">
<feFlood flood-opacity="0" result="BackgroundImageFix"/>
<feColorMatrix in="SourceAlpha" type="matrix" values="0 0 0 0 0 0 0 0 0 0 0 0 0 0 0 0 0 0 127 0" result="hardAlpha"/>
<feOffset/>
<feGaussianBlur stdDeviation="0.106739"/>
<feComposite in2="hardAlpha" operator="out"/>
<feColorMatrix type="matrix" values="0 0 0 0 0 0 0 0 0 0 0 0 0 0 0 0 0 0 0.25 0"/>
<feBlend mode="normal" in2="BackgroundImageFix" result="effect1_dropShadow_974_12998"/>
<feBlend mode="normal" in="SourceGraphic" in2="effect1_dropShadow_974_12998" result="shape"/>
</filter>
<filter id="filter3_d_974_12998" x="19.1674" y="57.2701" width="69.1457" height="14.3984" filterUnits="userSpaceOnUse" color-interpolation-filters="sRGB">
<feFlood flood-opacity="0" result="BackgroundImageFix"/>
<feColorMatrix in="SourceAlpha" type="matrix" values="0 0 0 0 0 0 0 0 0 0 0 0 0 0 0 0 0 0 127 0" result="hardAlpha"/>
<feOffset dy="0.160106"/>
<feGaussianBlur stdDeviation="0.106737"/>
<feComposite in2="hardAlpha" operator="out"/>
<feColorMatrix type="matrix" values="0 0 0 0 0 0 0 0 0 0 0 0 0 0 0 0 0 0 0.25 0"/>
<feBlend mode="normal" in2="BackgroundImageFix" result="effect1_dropShadow_974_12998"/>
<feBlend mode="normal" in="SourceGraphic" in2="effect1_dropShadow_974_12998" result="shape"/>
</filter>
<filter id="filter4_d_974_12998" x="72.5229" y="59.4653" width="8.06367" height="9.58588" filterUnits="userSpaceOnUse" color-interpolation-filters="sRGB">
<feFlood flood-opacity="0" result="BackgroundImageFix"/>
<feColorMatrix in="SourceAlpha" type="matrix" values="0 0 0 0 0 0 0 0 0 0 0 0 0 0 0 0 0 0 127 0" result="hardAlpha"/>
<feOffset dy="0.213474"/>
<feGaussianBlur stdDeviation="0.106737"/>
<feComposite in2="hardAlpha" operator="out"/>
<feColorMatrix type="matrix" values="0 0 0 0 0 0 0 0 0 0 0 0 0 0 0 0 0 0 0.25 0"/>
<feBlend mode="normal" in2="BackgroundImageFix" result="effect1_dropShadow_974_12998"/>
<feBlend mode="normal" in="SourceGraphic" in2="effect1_dropShadow_974_12998" result="shape"/>
</filter>
<filter id="filter5_d_974_12998" x="72.5756" y="59.2519" width="7.18281" height="6.09077" filterUnits="userSpaceOnUse" color-interpolation-filters="sRGB">
<feFlood flood-opacity="0" result="BackgroundImageFix"/>
<feColorMatrix in="SourceAlpha" type="matrix" values="0 0 0 0 0 0 0 0 0 0 0 0 0 0 0 0 0 0 127 0" result="hardAlpha"/>
<feOffset/>
<feGaussianBlur stdDeviation="0.106739"/>
<feComposite in2="hardAlpha" operator="out"/>
<feColorMatrix type="matrix" values="0 0 0 0 0 0 0 0 0 0 0 0 0 0 0 0 0 0 0.25 0"/>
<feBlend mode="normal" in2="BackgroundImageFix" result="effect1_dropShadow_974_12998"/>
<feBlend mode="normal" in="SourceGraphic" in2="effect1_dropShadow_974_12998" result="shape"/>
</filter>
<filter id="filter6_d_974_12998" x="85.3542" y="56.2785" width="89.7075" height="18.6558" filterUnits="userSpaceOnUse" color-interpolation-filters="sRGB">
<feFlood flood-opacity="0" result="BackgroundImageFix"/>
<feColorMatrix in="SourceAlpha" type="matrix" values="0 0 0 0 0 0 0 0 0 0 0 0 0 0 0 0 0 0 127 0" result="hardAlpha"/>
<feOffset dy="0.204534"/>
<feGaussianBlur stdDeviation="0.136355"/>
<feComposite in2="hardAlpha" operator="out"/>
<feColorMatrix type="matrix" values="0 0 0 0 0 0 0 0 0 0 0 0 0 0 0 0 0 0 0.25 0"/>
<feBlend mode="normal" in2="BackgroundImageFix" result="effect1_dropShadow_974_12998"/>
<feBlend mode="normal" in="SourceGraphic" in2="effect1_dropShadow_974_12998" result="shape"/>
</filter>
<filter id="filter7_d_974_12998" x="154.548" y="59.1226" width="10.4439" height="12.419" filterUnits="userSpaceOnUse" color-interpolation-filters="sRGB">
<feFlood flood-opacity="0" result="BackgroundImageFix"/>
<feColorMatrix in="SourceAlpha" type="matrix" values="0 0 0 0 0 0 0 0 0 0 0 0 0 0 0 0 0 0 127 0" result="hardAlpha"/>
<feOffset dy="0.27271"/>
<feGaussianBlur stdDeviation="0.136355"/>
<feComposite in2="hardAlpha" operator="out"/>
<feColorMatrix type="matrix" values="0 0 0 0 0 0 0 0 0 0 0 0 0 0 0 0 0 0 0.25 0"/>
<feBlend mode="normal" in2="BackgroundImageFix" result="effect1_dropShadow_974_12998"/>
<feBlend mode="normal" in="SourceGraphic" in2="effect1_dropShadow_974_12998" result="shape"/>
</filter>
<filter id="filter8_d_974_12998" x="154.624" y="58.8498" width="9.30129" height="7.88674" filterUnits="userSpaceOnUse" color-interpolation-filters="sRGB">
<feFlood flood-opacity="0" result="BackgroundImageFix"/>
<feColorMatrix in="SourceAlpha" type="matrix" values="0 0 0 0 0 0 0 0 0 0 0 0 0 0 0 0 0 0 127 0" result="hardAlpha"/>
<feOffset/>
<feGaussianBlur stdDeviation="0.136357"/>
<feComposite in2="hardAlpha" operator="out"/>
<feColorMatrix type="matrix" values="0 0 0 0 0 0 0 0 0 0 0 0 0 0 0 0 0 0 0.25 0"/>
<feBlend mode="normal" in2="BackgroundImageFix" result="effect1_dropShadow_974_12998"/>
<feBlend mode="normal" in="SourceGraphic" in2="effect1_dropShadow_974_12998" result="shape"/>
</filter>
<linearGradient id="paint0_linear_974_12998" x1="229.706" y1="59.253" x2="228.926" y2="65.491" gradientUnits="userSpaceOnUse">
<stop stop-color="#051C2C"/>
<stop offset="1" stop-color="#115D92"/>
</linearGradient>
<linearGradient id="paint1_linear_974_12998" x1="76.5182" y1="59.2596" x2="75.739" y2="65.4976" gradientUnits="userSpaceOnUse">
<stop stop-color="#051C2C"/>
<stop offset="1" stop-color="#115D92"/>
</linearGradient>
<linearGradient id="paint2_linear_974_12998" x1="159.728" y1="58.8556" x2="158.717" y2="66.9418" gradientUnits="userSpaceOnUse">
<stop stop-color="#051C2C"/>
<stop offset="1" stop-color="#115D92"/>
</linearGradient>
</defs>
</svg>
