<svg width="152" height="42" viewBox="0 0 152 42" fill="none" xmlns="http://www.w3.org/2000/svg">
<g filter="url(#filter0_d_905_6037)">
<path d="M135.859 24.0114V14.9133C135.859 12.9198 136.57 11.2338 137.991 9.8553C139.433 8.45559 141.246 7.75574 143.431 7.75574C145.594 7.75574 147.397 8.44499 148.839 9.82348C150.281 11.202 151.002 12.8986 151.002 14.9133V24.0114H146.135V15.1042C146.135 14.2983 145.891 13.6409 145.403 13.1319C144.915 12.6229 144.268 12.3684 143.462 12.3684C142.657 12.3684 141.988 12.6229 141.458 13.1319C140.949 13.6197 140.695 14.2771 140.695 15.1042V24.0114H135.859Z" fill="#0C2D3E"/>
<path d="M104.783 18.7303L109.968 12.5907H103.956V8.10529H113.69C114.093 8.10529 114.539 8.17951 115.027 8.32796C115.514 8.47642 115.928 8.79453 116.267 9.28231C116.607 9.77008 116.776 10.3003 116.776 10.8729C116.776 11.297 116.702 11.6682 116.554 11.9863C116.405 12.3044 116.278 12.5377 116.172 12.6861C116.087 12.8134 115.992 12.93 115.885 13.0361L110.159 19.5256H116.267V24.011H106.437C104.38 24.011 103.352 23.1627 103.352 21.4661C103.352 21.0419 103.426 20.6708 103.574 20.3527C103.744 20.0346 104.147 19.4938 104.783 18.7303Z" fill="#0C2D3E"/>
<path d="M87.2773 8.10535H92.2082L93.7988 17.776C93.8836 18.2002 94.0215 18.5713 94.2124 18.8894C94.4032 19.1863 94.7108 19.3348 95.1349 19.3348C95.347 19.3348 95.5379 19.2818 95.7075 19.1757C95.8984 19.0697 96.0469 18.9106 96.1529 18.6986C96.2801 18.4865 96.3862 18.1684 96.471 17.7442L98.0934 8.10535H103.024L100.988 19.2075C100.967 19.4408 100.925 19.6317 100.861 19.7802C100.819 19.9286 100.713 20.2467 100.543 20.7345C100.373 21.2223 100.023 21.7631 99.4932 22.3569C98.963 22.9295 98.3373 23.3642 97.6163 23.6612V30.7551H92.6854V23.6612C91.1584 23.1522 90.098 21.9751 89.5042 20.1301L89.2497 19.1757L87.2773 8.10535Z" fill="#0C2D3E"/>
<path d="M86.4094 16.2491V24.0111H81.5422V16.44C81.5422 15.2312 81.2347 14.2662 80.6197 13.5452C80.0046 12.8241 79.2093 12.4636 78.2338 12.4636C77.2158 12.4636 76.378 12.8135 75.7206 13.5133C75.0632 14.2132 74.7344 15.0827 74.7344 16.1219C74.7344 17.055 75.1056 17.8503 75.8479 18.5077C76.5901 19.1652 77.4703 19.4939 78.4883 19.4939C78.7427 19.4939 79.0185 19.4621 79.3154 19.3985C79.6335 19.3348 79.9516 19.2182 80.2697 19.0485V23.9157C79.9304 24.0217 79.5805 24.1172 79.2199 24.202C78.8806 24.2868 78.5413 24.3292 78.2019 24.3292C75.8691 24.3292 73.8967 23.5446 72.2849 21.9752C70.6731 20.4058 69.8672 18.4229 69.8672 16.0264C69.8672 14.2874 70.3338 12.7287 71.2669 11.3502C72.2213 9.95046 73.2287 9.03853 74.2891 8.61438C75.3495 8.19022 76.166 7.92513 76.7386 7.81909C77.3112 7.71305 77.8626 7.66003 78.3928 7.66003C80.6409 7.66003 82.539 8.46592 84.0872 10.0777C85.6354 11.6895 86.4094 13.7466 86.4094 16.2491Z" fill="#0C2D3E"/>
<path d="M46.2344 17.4897V8.10529H51.0698V17.7123C51.0698 17.8608 51.0804 18.0199 51.1016 18.1895C51.1228 18.338 51.1652 18.55 51.2289 18.8257C51.2925 19.0802 51.494 19.3347 51.8333 19.5892C52.1938 19.8225 52.5862 19.9391 53.0103 19.9391C53.3285 19.9391 53.7314 19.8119 54.2192 19.5574C54.707 19.3029 54.9509 18.6879 54.9509 17.7123V8.10529H59.6272V17.7123C59.6272 18.6879 59.8711 19.3029 60.3589 19.5574C60.8679 19.8119 61.2815 19.9391 61.5996 19.9391C62.0237 19.9391 62.4055 19.8225 62.7448 19.5892C63.0841 19.3347 63.3068 19.0166 63.4129 18.6349L63.5083 17.7123V8.10529H68.3755V17.4897C68.3755 19.0378 68.0362 20.3421 67.3576 21.4025C66.7001 22.4629 65.7988 23.2263 64.6535 23.6929C63.5083 24.1383 62.4479 24.3609 61.4723 24.3609C60.5392 24.3609 59.7227 24.2019 59.0228 23.8838C58.3229 23.5444 57.7503 23.0779 57.305 22.4841C56.8596 23.0779 56.287 23.5444 55.5871 23.8838C54.8872 24.2019 54.0601 24.3609 53.1058 24.3609C52.1302 24.3609 51.0698 24.1383 49.9246 23.6929C48.8005 23.2475 47.8992 22.4947 47.2205 21.4343C46.5631 20.3527 46.2344 19.0378 46.2344 17.4897Z" fill="#0C2D3E"/>
<path d="M44.8217 12.9087L36.487 18.9211L34.7055 16.567L39.6682 12.9723C39.0744 12.3785 38.3215 12.0816 37.4095 12.0816C36.7097 12.0816 36.0416 12.2831 35.4054 12.686C34.7691 13.0678 34.292 13.5768 33.9738 14.213C33.6769 14.8492 33.5285 15.4536 33.5285 16.0262C33.5285 16.5776 33.6557 17.1396 33.9102 17.7122C34.1859 18.2849 34.6101 18.7726 35.1827 19.1756C35.7765 19.5573 36.4234 19.7482 37.1232 19.7482C38.226 19.7482 39.244 19.2816 40.1772 18.3485L40.6225 17.8713L44.4718 19.9709C43.4326 21.9008 42.1601 23.1096 40.6544 23.5974C39.1486 24.0639 37.9715 24.2972 37.1232 24.2972C34.8964 24.2972 32.9877 23.5125 31.3971 21.9432C29.8277 20.3526 29.043 18.3909 29.043 16.0581C29.043 14.2978 29.5308 12.7178 30.5063 11.3181C31.4819 9.89723 32.6377 8.94289 33.9738 8.45511C35.3099 7.96734 36.4764 7.72345 37.4732 7.72345C39.1698 7.72345 40.6862 8.19002 42.0223 9.12315C43.3584 10.0563 44.2915 11.3181 44.8217 12.9087Z" fill="#0C2D3E"/>
<path d="M28.0483 12.9087L19.7135 18.9211L17.9321 16.567L22.8947 12.9723C22.3009 12.3785 21.548 12.0816 20.6361 12.0816C19.9362 12.0816 19.2682 12.2831 18.6319 12.686C17.9957 13.0678 17.5185 13.5768 17.2004 14.213C16.9035 14.8492 16.755 15.4536 16.755 16.0262C16.755 16.5776 16.8823 17.1396 17.1368 17.7122C17.4125 18.2849 17.8366 18.7726 18.4093 19.1756C19.0031 19.5573 19.6499 19.7482 20.3498 19.7482C21.4526 19.7482 22.4706 19.2816 23.4037 18.3485L23.8491 17.8713L27.6984 19.9709C26.6592 21.9008 25.3867 23.1096 23.8809 23.5974C22.3752 24.0639 21.1981 24.2972 20.3498 24.2972C18.1229 24.2972 16.2142 23.5125 14.6236 21.9432C13.0542 20.3526 12.2695 18.3909 12.2695 16.0581C12.2695 14.2978 12.7573 12.7178 13.7329 11.3181C14.7085 9.89723 15.8643 8.94289 17.2004 8.45511C18.5365 7.96734 19.7029 7.72345 20.6997 7.72345C22.3964 7.72345 23.9127 8.19002 25.2488 9.12315C26.5849 10.0563 27.5181 11.3181 28.0483 12.9087Z" fill="#0C2D3E"/>
<path d="M1 18.2212V1.10663H6.50348V17.4259C6.50348 18.0409 6.68375 18.5287 7.04429 18.8892C7.40482 19.2498 7.89261 19.43 8.50764 19.43H11.9115V24.0109H6.78979C5.85664 24.0109 4.65838 23.6185 3.19503 22.8339C1.73168 22.028 1 20.4904 1 18.2212Z" fill="#0C2D3E"/>
</g>
<path fill-rule="evenodd" clip-rule="evenodd" d="M119.551 10.364C117.221 13.6803 117.96 17.9887 118.721 20.4945C119.344 18.8347 121.41 17.5963 123.454 16.8244C124.989 16.2445 126.711 15.5939 128.299 14.39C130.373 12.8184 131.344 11.2403 132.39 8.82706C130.524 8.50409 125.766 8.97407 121.666 13.4378C124.125 9.18775 126.075 7.28964 133.072 6.88922C130.262 5.05161 122.625 5.98712 119.551 10.364Z" fill="url(#paint0_linear_905_6037)"/>
<path d="M133.335 9.45612C134.406 11.3699 134.842 13.6849 134.561 15.9099C134.259 18.308 133.146 20.5013 131.436 22.0693C129.725 23.6372 127.538 24.4693 125.294 24.4059C123.149 24.3453 120.799 22.9974 119.197 21.4686C119.076 21.3527 119.082 21.1585 119.206 21.0457C120.34 19.6777 121.305 19.5048 122.595 18.7149C122.726 18.5964 122.931 18.6184 123.037 18.7591C123.875 19.8663 124.649 20.5148 125.588 20.5148C129.822 20.1834 130.178 16.5036 129.904 14.5611C131.433 12.9628 132.014 11.8029 132.833 9.52659C132.941 9.26679 133.224 9.25743 133.335 9.45612Z" fill="#0C2D3E"/>
<path d="M1.25568 31.6206H2.26421L4.28126 35.0155H4.36649L6.38354 31.6206H7.39207L4.76422 35.8961V38.8933H3.88353V35.8961L1.25568 31.6206ZM9.86189 39.0069C9.36947 39.0069 8.93741 38.8898 8.56572 38.6554C8.19641 38.421 7.90758 38.0931 7.69924 37.6717C7.49328 37.2503 7.39029 36.7579 7.39029 36.1944C7.39029 35.6263 7.49328 35.1303 7.69924 34.7065C7.90758 34.2827 8.19641 33.9537 8.56572 33.7193C8.93741 33.4849 9.36947 33.3677 9.86189 33.3677C10.3543 33.3677 10.7852 33.4849 11.1545 33.7193C11.5262 33.9537 11.815 34.2827 12.021 34.7065C12.2293 35.1303 12.3335 35.6263 12.3335 36.1944C12.3335 36.7579 12.2293 37.2503 12.021 37.6717C11.815 38.0931 11.5262 38.421 11.1545 38.6554C10.7852 38.8898 10.3543 39.0069 9.86189 39.0069ZM9.86189 38.2541C10.2359 38.2541 10.5437 38.1582 10.7852 37.9665C11.0267 37.7747 11.2054 37.5226 11.3214 37.2101C11.4374 36.8976 11.4954 36.559 11.4954 36.1944C11.4954 35.8299 11.4374 35.4901 11.3214 35.1753C11.2054 34.8604 11.0267 34.6059 10.7852 34.4118C10.5437 34.2176 10.2359 34.1206 9.86189 34.1206C9.48784 34.1206 9.18007 34.2176 8.9386 34.4118C8.69712 34.6059 8.51838 34.8604 8.40237 35.1753C8.28637 35.4901 8.22837 35.8299 8.22837 36.1944C8.22837 36.559 8.28637 36.8976 8.40237 37.2101C8.51838 37.5226 8.69712 37.7747 8.9386 37.9665C9.18007 38.1582 9.48784 38.2541 9.86189 38.2541ZM17.0503 36.6632V33.4387H17.8884V38.8933H17.0503V37.97H16.9935C16.8657 38.247 16.6668 38.4826 16.3969 38.6767C16.127 38.8685 15.7861 38.9643 15.3742 38.9643C15.0333 38.9643 14.7302 38.8898 14.4651 38.7406C14.1999 38.5891 13.9916 38.3618 13.8401 38.0588C13.6886 37.7534 13.6128 37.3687 13.6128 36.9047V33.4387H14.4509V36.8478C14.4509 37.2456 14.5621 37.5628 14.7847 37.7996C15.0096 38.0363 15.296 38.1547 15.6441 38.1547C15.8524 38.1547 16.0643 38.1014 16.2797 37.9949C16.4975 37.8883 16.6798 37.725 16.8266 37.5048C16.9757 37.2846 17.0503 37.0041 17.0503 36.6632ZM19.4234 38.8933V33.4387H20.233V34.2626H20.2898C20.3893 33.9927 20.5692 33.7737 20.8296 33.6056C21.09 33.4376 21.3836 33.3535 21.7103 33.3535C21.7719 33.3535 21.8488 33.3547 21.9411 33.3571C22.0335 33.3594 22.1033 33.363 22.1506 33.3677V34.22C22.1222 34.2129 22.0571 34.2022 21.9553 34.188C21.8559 34.1715 21.7506 34.1632 21.6393 34.1632C21.3741 34.1632 21.1374 34.2188 20.9291 34.3301C20.7231 34.439 20.5597 34.5905 20.439 34.7846C20.3206 34.9764 20.2614 35.1954 20.2614 35.4416V38.8933H19.4234ZM26.0702 38.8933V31.6206H26.9509V34.8592H30.8288V31.6206H31.7095V38.8933H30.8288V35.6405H26.9509V38.8933H26.0702ZM33.359 38.8933V33.4387H34.197V38.8933H33.359ZM33.7851 32.5297C33.6218 32.5297 33.4809 32.474 33.3625 32.3627C33.2465 32.2515 33.1885 32.1177 33.1885 31.9615C33.1885 31.8052 33.2465 31.6715 33.3625 31.5602C33.4809 31.4489 33.6218 31.3933 33.7851 31.3933C33.9485 31.3933 34.0881 31.4489 34.2041 31.5602C34.3225 31.6715 34.3817 31.8052 34.3817 31.9615C34.3817 32.1177 34.3225 32.2515 34.2041 32.3627C34.0881 32.474 33.9485 32.5297 33.7851 32.5297ZM35.732 38.8933V33.4387H36.5417V34.2626H36.5985C36.6979 33.9927 36.8779 33.7737 37.1383 33.6056C37.3987 33.4376 37.6923 33.3535 38.019 33.3535C38.0805 33.3535 38.1575 33.3547 38.2498 33.3571C38.3421 33.3594 38.412 33.363 38.4593 33.3677V34.22C38.4309 34.2129 38.3658 34.2022 38.264 34.188C38.1646 34.1715 38.0592 34.1632 37.9479 34.1632C37.6828 34.1632 37.446 34.2188 37.2377 34.3301C37.0317 34.439 36.8684 34.5905 36.7477 34.7846C36.6293 34.9764 36.5701 35.1954 36.5701 35.4416V38.8933H35.732ZM39.4527 38.8933V33.4387H40.2908V38.8933H39.4527ZM39.8789 32.5297C39.7155 32.5297 39.5747 32.474 39.4563 32.3627C39.3403 32.2515 39.2823 32.1177 39.2823 31.9615C39.2823 31.8052 39.3403 31.6715 39.4563 31.5602C39.5747 31.4489 39.7155 31.3933 39.8789 31.3933C40.0422 31.3933 40.1819 31.4489 40.2979 31.5602C40.4163 31.6715 40.4755 31.8052 40.4755 31.9615C40.4755 32.1177 40.4163 32.2515 40.2979 32.3627C40.1819 32.474 40.0422 32.5297 39.8789 32.5297ZM42.6639 35.612V38.8933H41.8258V33.4387H42.6355V34.291H42.7065C42.8343 34.014 43.0285 33.7915 43.2889 33.6234C43.5493 33.4529 43.8855 33.3677 44.2974 33.3677C44.6667 33.3677 44.9899 33.4435 45.2669 33.595C45.5438 33.7441 45.7593 33.9714 45.9132 34.2768C46.0671 34.5798 46.144 34.9634 46.144 35.4274V38.8933H45.3059V35.4842C45.3059 35.0557 45.1947 34.7219 44.9721 34.4828C44.7496 34.2413 44.4442 34.1206 44.0559 34.1206C43.7884 34.1206 43.5493 34.1786 43.3386 34.2946C43.1303 34.4106 42.9657 34.5798 42.845 34.8024C42.7242 35.0249 42.6639 35.2948 42.6639 35.612ZM49.8771 41.0524C49.4723 41.0524 49.1243 41.0003 48.8331 40.8962C48.5419 40.7944 48.2992 40.6594 48.1051 40.4913C47.9134 40.3256 47.7607 40.1481 47.647 39.9587L48.3146 39.4899C48.3904 39.5893 48.4863 39.703 48.6023 39.8308C48.7183 39.961 48.8769 40.0735 49.0781 40.1682C49.2817 40.2652 49.5481 40.3138 49.8771 40.3138C50.3175 40.3138 50.6809 40.2072 50.9673 39.9942C51.2538 39.7811 51.397 39.4473 51.397 38.9927V37.8848H51.326C51.2645 37.9842 51.1769 38.1073 51.0632 38.2541C50.952 38.3985 50.791 38.5275 50.5803 38.6412C50.3719 38.7524 50.0902 38.8081 49.7351 38.8081C49.2948 38.8081 48.8994 38.7039 48.549 38.4956C48.201 38.2872 47.9252 37.9842 47.7216 37.5865C47.5204 37.1888 47.4197 36.7058 47.4197 36.1376C47.4197 35.5789 47.518 35.0924 47.7145 34.6781C47.911 34.2614 48.1844 33.9395 48.5348 33.7122C48.8852 33.4825 49.29 33.3677 49.7493 33.3677C50.1044 33.3677 50.3861 33.4269 50.5945 33.5453C50.8052 33.6613 50.9662 33.7939 51.0774 33.943C51.1911 34.0898 51.2787 34.2105 51.3402 34.3052H51.4254V33.4387H52.2351V39.0496C52.2351 39.5183 52.1286 39.8995 51.9155 40.193C51.7048 40.489 51.4207 40.7056 51.0632 40.8429C50.7081 40.9826 50.3127 41.0524 49.8771 41.0524ZM49.8487 38.0552C50.1849 38.0552 50.469 37.9783 50.701 37.8244C50.933 37.6705 51.1094 37.4492 51.2301 37.1603C51.3509 36.8715 51.4112 36.5259 51.4112 36.1234C51.4112 35.7304 51.3521 35.3836 51.2337 35.0829C51.1153 34.7823 50.9401 34.5467 50.7081 34.3762C50.4761 34.2058 50.1896 34.1206 49.8487 34.1206C49.4936 34.1206 49.1977 34.2105 48.9609 34.3905C48.7266 34.5704 48.5502 34.8119 48.4318 35.1149C48.3158 35.4179 48.2578 35.7541 48.2578 36.1234C48.2578 36.5022 48.317 36.8372 48.4354 37.1284C48.5561 37.4172 48.7337 37.6445 48.968 37.8102C49.2048 37.9736 49.4984 38.0552 49.8487 38.0552ZM56.6953 38.8933V31.6206H59.1527C59.7233 31.6206 60.1897 31.7235 60.5519 31.9295C60.9165 32.1331 61.1864 32.4089 61.3616 32.7569C61.5367 33.1049 61.6243 33.4932 61.6243 33.9217C61.6243 34.3502 61.5367 34.7396 61.3616 35.09C61.1887 35.4404 60.9212 35.7198 60.559 35.9281C60.1968 36.1341 59.7328 36.2371 59.1669 36.2371H57.4056V35.4558H59.1385C59.5292 35.4558 59.8429 35.3883 60.0796 35.2534C60.3163 35.1184 60.488 34.9361 60.5945 34.7065C60.7034 34.4745 60.7579 34.2129 60.7579 33.9217C60.7579 33.6305 60.7034 33.3701 60.5945 33.1404C60.488 32.9108 60.3152 32.7309 60.076 32.6007C59.8369 32.4681 59.5197 32.4018 59.1243 32.4018H57.576V38.8933H56.6953ZM64.5345 39.0212C64.1889 39.0212 63.8752 38.956 63.5935 38.8258C63.3117 38.6933 63.088 38.5027 62.9223 38.2541C62.7566 38.0032 62.6737 37.7001 62.6737 37.345C62.6737 37.0325 62.7353 36.7792 62.8584 36.5851C62.9815 36.3886 63.146 36.2347 63.352 36.1234C63.5579 36.0121 63.7852 35.9293 64.0338 35.8748C64.2847 35.818 64.5369 35.773 64.7902 35.7399C65.1216 35.6973 65.3903 35.6653 65.5963 35.644C65.8046 35.6203 65.9562 35.5813 66.0509 35.5268C66.1479 35.4724 66.1964 35.3777 66.1964 35.2427V35.2143C66.1964 34.8639 66.1006 34.5917 65.9088 34.3976C65.7194 34.2034 65.4318 34.1064 65.0459 34.1064C64.6458 34.1064 64.3321 34.194 64.1048 34.3691C63.8775 34.5443 63.7177 34.7314 63.6254 34.9302L62.83 34.6461C62.972 34.3147 63.1614 34.0566 63.3981 33.872C63.6373 33.685 63.8977 33.5547 64.1794 33.4814C64.4635 33.4056 64.7428 33.3677 65.0175 33.3677C65.1927 33.3677 65.3939 33.389 65.6212 33.4316C65.8508 33.4719 66.0722 33.5559 66.2852 33.6838C66.5007 33.8116 66.6794 34.0046 66.8215 34.2626C66.9635 34.5207 67.0345 34.8663 67.0345 35.2995V38.8933H66.1964V38.1547H66.1538C66.097 38.273 66.0023 38.3997 65.8697 38.5346C65.7372 38.6696 65.5608 38.7844 65.3406 38.8791C65.1205 38.9738 64.8517 39.0212 64.5345 39.0212ZM64.6624 38.2683C64.9938 38.2683 65.2731 38.2032 65.5004 38.073C65.7301 37.9428 65.9029 37.7747 66.0189 37.5687C66.1373 37.3628 66.1964 37.1461 66.1964 36.9189V36.1518C66.1609 36.1944 66.0828 36.2335 65.9621 36.269C65.8437 36.3022 65.7064 36.3317 65.5501 36.3578C65.3963 36.3815 65.2459 36.4028 65.0991 36.4217C64.9547 36.4383 64.8375 36.4525 64.7476 36.4643C64.5298 36.4927 64.3262 36.5389 64.1368 36.6028C63.9498 36.6644 63.7982 36.7579 63.6822 36.8834C63.5686 37.0065 63.5118 37.1746 63.5118 37.3876C63.5118 37.6788 63.6195 37.899 63.8349 38.0481C64.0527 38.1949 64.3285 38.2683 64.6624 38.2683ZM68.5642 38.8933V33.4387H69.3738V34.2626H69.4307C69.5301 33.9927 69.71 33.7737 69.9704 33.6056C70.2308 33.4376 70.5244 33.3535 70.8511 33.3535C70.9127 33.3535 70.9896 33.3547 71.0819 33.3571C71.1743 33.3594 71.2441 33.363 71.2915 33.3677V34.22C71.263 34.2129 71.1979 34.2022 71.0961 34.188C70.9967 34.1715 70.8914 34.1632 70.7801 34.1632C70.5149 34.1632 70.2782 34.2188 70.0699 34.3301C69.8639 34.439 69.7005 34.5905 69.5798 34.7846C69.4614 34.9764 69.4022 35.1954 69.4022 35.4416V38.8933H68.5642ZM74.9989 33.4387V34.149H72.1721V33.4387H74.9989ZM72.996 32.1319H73.8341V37.3308C73.8341 37.5675 73.8684 37.7451 73.9371 37.8635C74.0081 37.9795 74.0981 38.0576 74.207 38.0979C74.3182 38.1357 74.4354 38.1547 74.5585 38.1547C74.6508 38.1547 74.7266 38.1499 74.7858 38.1405C74.845 38.1286 74.8923 38.1192 74.9278 38.1121L75.0983 38.8649C75.0415 38.8862 74.9622 38.9075 74.8604 38.9288C74.7586 38.9525 74.6295 38.9643 74.4733 38.9643C74.2365 38.9643 74.0045 38.9134 73.7773 38.8116C73.5524 38.7098 73.3653 38.5548 73.2162 38.3464C73.0694 38.1381 72.996 37.8753 72.996 37.5581V32.1319ZM77.0976 35.612V38.8933H76.2595V33.4387H77.0692V34.291H77.1402C77.268 34.014 77.4622 33.7915 77.7226 33.6234C77.983 33.4529 78.3192 33.3677 78.7311 33.3677C79.1004 33.3677 79.4236 33.4435 79.7006 33.595C79.9776 33.7441 80.193 33.9714 80.3469 34.2768C80.5008 34.5798 80.5777 34.9634 80.5777 35.4274V38.8933H79.7396V35.4842C79.7396 35.0557 79.6284 34.7219 79.4058 34.4828C79.1833 34.2413 78.8779 34.1206 78.4896 34.1206C78.2221 34.1206 77.983 34.1786 77.7723 34.2946C77.564 34.4106 77.3994 34.5798 77.2787 34.8024C77.158 35.0249 77.0976 35.2948 77.0976 35.612ZM84.3961 39.0069C83.8705 39.0069 83.4172 38.8909 83.036 38.6589C82.6572 38.4246 82.3648 38.0979 82.1589 37.6788C81.9553 37.2574 81.8535 36.7674 81.8535 36.2086C81.8535 35.6499 81.9553 35.1575 82.1589 34.7314C82.3648 34.3029 82.6513 33.969 83.0182 33.7299C83.3876 33.4885 83.8184 33.3677 84.3109 33.3677C84.595 33.3677 84.8755 33.4151 85.1525 33.5098C85.4295 33.6045 85.6816 33.7583 85.9089 33.9714C86.1362 34.1821 86.3173 34.4615 86.4522 34.8095C86.5872 35.1575 86.6546 35.586 86.6546 36.095V36.4501H82.4501V35.7257H85.8023C85.8023 35.4179 85.7408 35.1433 85.6177 34.9018C85.4969 34.6603 85.3241 34.4698 85.0992 34.3301C84.8767 34.1904 84.6139 34.1206 84.3109 34.1206C83.9771 34.1206 83.6882 34.2034 83.4444 34.3691C83.2029 34.5325 83.0171 34.7456 82.8869 35.0084C82.7566 35.2711 82.6915 35.5529 82.6915 35.8535V36.3365C82.6915 36.7484 82.7626 37.0976 82.9046 37.3841C83.049 37.6682 83.2491 37.8848 83.5048 38.0339C83.7604 38.1807 84.0575 38.2541 84.3961 38.2541C84.6163 38.2541 84.8151 38.2233 84.9927 38.1618C85.1726 38.0979 85.3277 38.0032 85.4579 37.8777C85.5881 37.7498 85.6887 37.5912 85.7597 37.4018L86.5694 37.6291C86.4842 37.9037 86.3409 38.1452 86.1397 38.3535C85.9385 38.5595 85.6899 38.7205 85.394 38.8365C85.098 38.9501 84.7654 39.0069 84.3961 39.0069ZM87.9295 38.8933V33.4387H88.7391V34.2626H88.796C88.8954 33.9927 89.0753 33.7737 89.3357 33.6056C89.5962 33.4376 89.8897 33.3535 90.2164 33.3535C90.278 33.3535 90.3549 33.3547 90.4473 33.3571C90.5396 33.3594 90.6094 33.363 90.6568 33.3677V34.22C90.6284 34.2129 90.5633 34.2022 90.4615 34.188C90.362 34.1715 90.2567 34.1632 90.1454 34.1632C89.8803 34.1632 89.6435 34.2188 89.4352 34.3301C89.2292 34.439 89.0659 34.5905 88.9451 34.7846C88.8267 34.9764 88.7676 35.1954 88.7676 35.4416V38.8933H87.9295Z" fill="#0C2D3E"/>
<defs>
<filter id="filter0_d_905_6037" x="0.333331" y="0.939961" width="151.333" height="30.9818" filterUnits="userSpaceOnUse" color-interpolation-filters="sRGB">
<feFlood flood-opacity="0" result="BackgroundImageFix"/>
<feColorMatrix in="SourceAlpha" type="matrix" values="0 0 0 0 0 0 0 0 0 0 0 0 0 0 0 0 0 0 127 0" result="hardAlpha"/>
<feOffset dy="0.500002"/>
<feGaussianBlur stdDeviation="0.333335"/>
<feComposite in2="hardAlpha" operator="out"/>
<feColorMatrix type="matrix" values="0 0 0 0 0 0 0 0 0 0 0 0 0 0 0 0 0 0 0.25 0"/>
<feBlend mode="normal" in2="BackgroundImageFix" result="effect1_dropShadow_905_6037"/>
<feBlend mode="normal" in="SourceGraphic" in2="effect1_dropShadow_905_6037" result="shape"/>
</filter>
<linearGradient id="paint0_linear_905_6037" x1="125.524" y1="5.9989" x2="125.524" y2="20.4945" gradientUnits="userSpaceOnUse">
<stop stop-color="#0C2D3E"/>
<stop offset="1" stop-color="#71CAD0" stop-opacity="0.53"/>
</linearGradient>
</defs>
</svg>
