<svg width="61" height="34" viewBox="0 0 61 34" fill="none" xmlns="http://www.w3.org/2000/svg">
<g clip-path="url(#clip0_747_1545)">
<g clip-path="url(#clip1_747_1545)">
<path d="M55.1543 24.3174H56.0503L55.1543 25.2025" fill="#1B1C1D"/>
<path d="M39.5449 24.3174V26.7599H51.856V24.3174" fill="#1B1C1D"/>
<path d="M46.5086 13.0918H50.4145C50.4196 13.1926 50.428 13.2825 50.428 13.3724C50.4279 15.4126 50.4464 17.4531 50.4189 19.493C50.4021 20.736 50.0889 21.8906 49.0578 22.7523C48.1962 23.4722 47.1844 23.8181 46.0576 23.9306C44.9967 24.0366 43.9728 23.929 42.9967 23.5304C41.3895 22.8743 40.4385 21.7217 40.3975 20.0083C40.3429 17.7297 40.353 15.4496 40.3359 13.1702C40.3358 13.1528 40.345 13.1354 40.3552 13.0987H44.252V13.4081C44.252 15.2536 44.2465 17.0992 44.2572 18.9446C44.259 19.2646 44.3051 19.589 44.3727 19.903C44.474 20.374 44.799 20.6231 45.2757 20.6453C45.8432 20.672 46.1954 20.4829 46.3371 19.995C46.4388 19.6451 46.498 19.2724 46.5012 18.9093C46.5172 17.0918 46.5086 15.274 46.5086 13.4563V13.0918Z" fill="#1B1C1D"/>
<mask id="mask0_747_1545" style="mask-type:alpha" maskUnits="userSpaceOnUse" x="0" y="12" width="11" height="12">
<path fill-rule="evenodd" clip-rule="evenodd" d="M0.980469 12.8418H10.0564V23.9605H0.980469V12.8418Z" fill="white"/>
</mask>
<g mask="url(#mask0_747_1545)">
<path d="M0.982734 22.7959C0.982734 22.7622 0.977135 22.7425 0.983542 22.7275C1.38935 21.7751 1.79615 20.823 2.20703 19.8611C2.64518 20.0978 3.06911 20.3445 3.50956 20.5599C3.99959 20.7996 4.52004 20.949 5.07975 20.9231C5.156 20.9196 5.23434 20.9177 5.30748 20.8993C5.57989 20.8308 5.83197 20.7157 5.8613 20.4119C5.89068 20.1075 5.64368 19.9598 5.39788 19.8837C4.93728 19.741 4.46093 19.6464 3.99393 19.5222C2.92382 19.2377 2.04165 18.7164 1.71568 17.6248C1.27731 16.1569 1.77727 14.5569 3.21389 13.6201C4.0938 13.0463 5.07623 12.8523 6.12152 12.8421C7.40558 12.8297 8.59214 13.1621 9.72277 13.7202C9.76394 13.7406 9.79964 13.7712 9.85784 13.8105C9.46387 14.7196 9.07237 15.6231 8.71057 16.4579C8.10249 16.2214 7.53315 15.9651 6.93909 15.7843C6.65912 15.6991 6.3287 15.7312 6.02668 15.7614C5.78042 15.786 5.56089 15.9295 5.52978 16.1916C5.50167 16.428 5.69372 16.5693 5.89443 16.6374C6.3776 16.8015 6.86295 16.9734 7.36199 17.0769C8.40764 17.2935 9.31139 17.7194 9.74467 18.707C10.2987 19.9699 10.1011 21.1947 9.25537 22.2849C8.43067 23.3481 7.26282 23.8113 5.91285 23.931C4.12808 24.0891 2.51576 23.6013 0.982734 22.7959Z" fill="#1B1C1D"/>
</g>
<mask id="mask1_747_1545" style="mask-type:alpha" maskUnits="userSpaceOnUse" x="51" y="15" width="10" height="12">
<path fill-rule="evenodd" clip-rule="evenodd" d="M51.8457 15.9546H60.9794V26.9125H51.8457V15.9546Z" fill="white"/>
</mask>
<g mask="url(#mask1_747_1545)">
<path fill-rule="evenodd" clip-rule="evenodd" d="M55.5276 22.7821C55.5275 22.9321 55.5265 23.0814 55.5254 23.2302C55.5228 23.6089 55.5202 23.9842 55.5334 24.3591C55.542 24.6031 55.4953 24.7632 55.2562 24.9028C54.9128 25.1035 54.5772 25.3166 54.2417 25.5296C53.9349 25.7243 53.6282 25.919 53.3156 26.1043C53.0813 26.2431 52.9646 26.3955 53.0077 26.66C53.0163 26.7128 53.0088 26.7681 53.0008 26.8266C52.997 26.8545 52.9931 26.883 52.9908 26.9124H51.8457V16.2146H55.4031V17.1801C55.471 17.1147 55.5326 17.0543 55.5905 16.9976C55.7048 16.8857 55.8044 16.7881 55.908 16.6948C57.203 15.5301 59.4566 15.6927 60.4186 17.5192C60.7436 18.1366 60.8859 18.7908 60.9513 19.478C61.0306 20.3113 60.9471 21.1184 60.64 21.8938C60.2845 22.7914 59.7104 23.5266 58.7109 23.8118C57.6149 24.1245 56.6271 23.9156 55.8193 23.0938C55.755 23.0284 55.6929 22.961 55.6308 22.8935C55.5965 22.8563 55.5623 22.819 55.5276 22.7821ZM55.5112 22.7652C55.5095 22.7646 55.5066 22.7652 55.5066 22.7652C55.5066 22.7652 55.5067 22.7658 55.5112 22.7652ZM57.4144 19.9545C57.4085 20.6218 57.0116 21.0483 56.3972 21.0474C55.7959 21.0464 55.3928 20.5914 55.4087 19.9317C55.4247 19.2654 55.8458 18.7989 56.4204 18.8105C56.9954 18.8222 57.4202 19.311 57.4144 19.9545Z" fill="#1B1C1D"/>
</g>
<path fill-rule="evenodd" clip-rule="evenodd" d="M21.9665 16.2118V17.1399C21.94 17.1308 21.9204 17.125 21.9057 17.1207C21.883 17.114 21.8719 17.1107 21.865 17.1036C21.8336 17.0708 21.8034 17.0369 21.7732 17.0031C21.7471 16.9738 21.721 16.9446 21.694 16.916C20.8579 16.0272 19.8231 15.7516 18.6483 16.0902C17.6526 16.3773 17.0777 17.1173 16.7347 18.0216C16.4329 18.8171 16.3465 19.6431 16.4225 20.4937C16.4903 21.2521 16.6753 21.9636 17.1046 22.6053C17.6839 23.4712 18.4895 23.9832 19.5811 23.9673C20.5002 23.9538 21.2224 23.5284 21.805 22.8621C21.8558 22.8039 21.91 22.7485 21.9643 22.693C21.9895 22.6673 22.0147 22.6415 22.0396 22.6154L22.1078 22.6471V23.6757H25.5359V16.2118H21.9665ZM19.9979 20.0164C19.9976 20.0059 19.9974 19.9979 19.9971 19.9932C19.9957 19.1196 20.55 18.6485 21.2686 18.8403C21.5707 18.921 21.7645 19.1154 21.8762 19.3867C22.0121 19.7171 22.0186 20.0552 21.8957 20.3913C21.7324 20.8382 21.3755 21.0339 20.821 20.9868C20.4217 20.9529 20.0809 20.6235 20.0124 20.1998C20.0009 20.1282 19.999 20.0552 19.9979 20.0164Z" fill="#1B1C1D"/>
<path d="M10.166 16.1802H11.2203V13.7549H14.9796V16.188H16.019V18.9126H14.9935V23.676H11.2305V23.3636C11.2305 22.0289 11.2313 20.6942 11.23 19.3595C11.2295 18.8676 11.2797 18.9228 10.7596 18.9195C10.5683 18.9182 10.377 18.9193 10.166 18.9193V16.1802Z" fill="#1B1C1D"/>
<path d="M38.4903 23.6789H34.7453V18.9251H33.7109V16.1993H34.7313V13.748H38.4792V16.1768H39.5571V18.9185C39.2931 18.9185 39.0355 18.9317 38.7801 18.9146C38.5487 18.8991 38.4844 18.9812 38.4858 19.1997C38.4946 20.5991 38.4903 21.9986 38.4903 23.398C38.4902 23.481 38.4903 23.564 38.4903 23.6789Z" fill="#1B1C1D"/>
<path d="M30.4547 23.6781H26.7285V16.2081H30.3389V17.1542C31.0649 16.3706 31.8867 15.8638 33.028 15.9727V19.5248C32.77 19.4477 32.5077 19.3387 32.234 19.2929C31.1684 19.1146 30.4664 19.7324 30.4566 20.6873C30.4476 21.577 30.4547 22.4669 30.4547 23.3567V23.6781Z" fill="#1B1C1D"/>
<path fill-rule="evenodd" clip-rule="evenodd" d="M47.344 24.9584L46.4216 26.2025C46.3727 26.0875 46.3253 25.975 46.2785 25.8644C46.1296 25.5119 45.989 25.1795 45.8435 24.8491C45.8179 24.7911 45.7542 24.7394 45.6947 24.7099C45.673 24.6992 45.59 24.7529 45.5726 24.7925C45.407 25.1714 45.2458 25.5521 45.0846 25.9329C45.0415 26.0348 44.9984 26.1367 44.9551 26.2386L45.0491 26.3012C45.0716 26.2755 45.0981 26.2508 45.1246 26.2259C45.1825 26.1716 45.2405 26.1173 45.2569 26.0531C45.3166 25.8205 45.4766 25.8194 45.6563 25.8182C45.6708 25.818 45.6855 25.8179 45.7003 25.8177C45.9043 25.8146 46.0715 25.82 46.1403 26.0618C46.1647 26.1474 46.2963 26.258 46.3856 26.2637C46.7489 26.2875 47.115 26.2797 47.4797 26.272L47.4807 26.2719C47.5259 26.2709 47.5707 26.2444 47.6154 26.2178C47.6361 26.2055 47.6568 26.1932 47.6775 26.1834L47.6519 26.0855H46.7975C46.9218 25.8686 47.07 25.6776 47.2166 25.4885C47.4061 25.2442 47.593 25.0031 47.7223 24.7144H46.5155L46.4933 24.8006C46.6116 24.9374 46.7761 24.9252 46.946 24.9127C47.0822 24.9026 47.2219 24.8924 47.344 24.9584ZM45.4466 25.6335L45.6942 25.0347L45.9418 25.6335H45.4466Z" fill="#1B1C1D"/>
<path d="M41.8703 24.7258C41.8703 25.187 41.874 25.6481 41.8651 26.1092C41.8642 26.1611 41.7919 26.2118 41.7526 26.2632C41.7205 26.2082 41.6625 26.1542 41.6605 26.0983C41.6509 25.8212 41.6562 25.5437 41.6062 25.2415C41.4412 25.5056 41.2761 25.7696 41.0689 26.101C40.8554 25.7735 40.6825 25.5083 40.5095 25.2431L40.4501 25.2527C40.4501 25.5426 40.4545 25.8326 40.4458 26.1223C40.4443 26.1694 40.385 26.215 40.3525 26.2613C40.3204 26.2233 40.261 26.1858 40.2604 26.1476C40.2541 25.6699 40.2563 25.1922 40.2992 24.6968C40.6839 24.9379 40.7786 25.3778 41.0632 25.6954C41.344 25.3808 41.4352 24.9392 41.7628 24.6699L41.8703 24.7258Z" fill="#1B1C1D"/>
<path d="M48.7754 25.1334C48.7754 25.488 48.7812 25.7717 48.7712 26.0549C48.7689 26.1237 48.7146 26.1908 48.6843 26.2587C48.6486 26.197 48.5833 26.1359 48.582 26.0736C48.5732 25.6218 48.5773 25.1697 48.616 24.6968C49.0442 24.9876 49.2598 25.4508 49.6629 25.8561C49.6629 25.5099 49.6566 25.2212 49.667 24.9331C49.6699 24.8556 49.7238 24.7797 49.7542 24.703C49.79 24.7827 49.8548 24.8619 49.8567 24.9424C49.8669 25.3757 49.8616 25.8093 49.8143 26.271C49.3892 25.9899 49.1727 25.5312 48.7754 25.1334Z" fill="#1B1C1D"/>
<path d="M44.6788 25.75C44.5549 25.6994 44.4577 25.6598 44.3605 25.6202C44.3679 25.5945 44.3753 25.5687 44.3826 25.5431H44.8516C44.9785 25.9867 44.9187 26.1657 44.6104 26.253C44.1061 26.3956 43.6393 26.2119 43.5241 25.7971C43.4347 25.4754 43.4406 25.1492 43.7152 24.8918C43.938 24.6828 44.3599 24.624 44.6584 24.7686C44.7325 24.8045 44.774 24.9027 44.8306 24.9723C44.7472 24.9653 44.6568 24.9759 44.5817 24.9481C44.2897 24.8403 44.0123 24.8819 43.84 25.0733C43.6675 25.265 43.6378 25.5905 43.7756 25.8305C43.9173 26.0771 44.1473 26.1249 44.4164 26.0957C44.6443 26.0708 44.7491 25.9723 44.6788 25.75Z" fill="#1B1C1D"/>
<path d="M50.2109 26.2725V24.6979C50.5072 24.6979 50.7919 24.6934 51.0761 24.7023C51.1228 24.7038 51.1675 24.764 51.2131 24.797C51.1673 24.8324 51.1231 24.8955 51.0752 24.8983C50.8754 24.9098 50.6744 24.9032 50.4529 24.9032V25.3351C50.6189 25.4868 50.9497 25.2421 51.1311 25.5825H50.4509V26.0886C50.6493 26.0886 50.856 26.0829 51.062 26.0927C51.1132 26.0951 51.1619 26.1479 51.2117 26.1774C51.1625 26.2091 51.1143 26.2665 51.0641 26.2682C50.7881 26.2771 50.5117 26.2725 50.2109 26.2725Z" fill="#1B1C1D"/>
<path fill-rule="evenodd" clip-rule="evenodd" d="M43.31 26.2301C43.3342 26.2492 43.3585 26.2682 43.3791 26.2882L43.4614 26.2086C43.4059 26.0772 43.3509 25.9457 43.2958 25.8141C43.1541 25.4759 43.0125 25.1378 42.8642 24.8024C42.7957 24.6472 42.6733 24.635 42.6013 24.7969C42.4505 25.1357 42.3078 25.4778 42.165 25.82C42.1089 25.9545 42.0527 26.0891 41.9961 26.2235L42.0696 26.2891C42.0911 26.2703 42.1171 26.2525 42.1429 26.2347C42.1994 26.1959 42.2559 26.157 42.2674 26.1083C42.3304 25.8409 42.5031 25.8078 42.7525 25.8047C42.9946 25.8017 43.1199 25.8741 43.1881 26.0949C43.2042 26.147 43.2571 26.1886 43.31 26.2301ZM42.4855 25.6293L42.7306 25.0228L42.979 25.6293H42.4855Z" fill="#1B1C1D"/>
<path d="M48.1865 24.7291C48.1865 25.1993 48.1893 25.6697 48.182 26.1398C48.1812 26.1835 48.116 26.226 48.0809 26.2691C48.0434 26.2257 47.9742 26.1828 47.9735 26.1388C47.9652 25.704 47.9635 25.2689 47.9748 24.8343C47.9761 24.7835 48.0674 24.7348 48.1169 24.6851C48.14 24.6998 48.1634 24.7144 48.1865 24.7291Z" fill="#1B1C1D"/>
<mask id="mask2_747_1545" style="mask-type:alpha" maskUnits="userSpaceOnUse" x="52" y="24" width="5" height="5">
<path fill-rule="evenodd" clip-rule="evenodd" d="M52.8535 24.3291H56.0535V28.844H52.8535V24.3291Z" fill="white"/>
</mask>
<g mask="url(#mask2_747_1545)">
<path d="M56.0535 24.3291L52.8535 26.3768V28.844L55.9511 26.9196" fill="#1B1C1D"/>
</g>
</g>
</g>
<defs>
<clipPath id="clip0_747_1545">
<rect width="60" height="32.25" fill="white" transform="translate(0.980469 0.840332)"/>
</clipPath>
<clipPath id="clip1_747_1545">
<rect width="60" height="32.25" fill="white" transform="translate(0.980469 0.840332)"/>
</clipPath>
</defs>
</svg>
