<svg width="309" height="308" viewBox="0 0 309 308" fill="none" xmlns="http://www.w3.org/2000/svg">
<g clip-path="url(#clip0_43_3814)">
<path d="M292.875 262.655H270.024V262.827H292.875V262.655Z" fill="#EBEBEB"/>
<path d="M210.994 264.531H204.998V264.704H210.994V264.531Z" fill="#EBEBEB"/>
<path d="M269.335 256.252H256.095V256.424H269.335V256.252Z" fill="#EBEBEB"/>
<path d="M48.4653 257.411H18.667V257.584H48.4653V257.411Z" fill="#EBEBEB"/>
<path d="M58.9796 257.411H54.6123V257.584H58.9796V257.411Z" fill="#EBEBEB"/>
<path d="M137.812 260.323H73.1787V260.495H137.812V260.323Z" fill="#EBEBEB"/>
<path d="M146.953 220.782H13.7266C12.6818 220.782 11.6798 220.367 10.941 219.628C10.2022 218.89 9.78711 217.888 9.78711 216.843V29.5735C9.79621 28.5347 10.2153 27.5415 10.9531 26.8101C11.6909 26.0788 12.6878 25.6684 13.7266 25.6685H146.953C147.471 25.6685 147.983 25.7704 148.461 25.9684C148.939 26.1663 149.373 26.4565 149.739 26.8223C150.105 27.1882 150.395 27.6225 150.593 28.1004C150.791 28.5784 150.893 29.0907 150.893 29.608V216.843C150.893 217.36 150.791 217.872 150.593 218.35C150.395 218.828 150.105 219.263 149.739 219.628C149.373 219.994 148.939 220.284 148.461 220.482C147.983 220.68 147.471 220.782 146.953 220.782ZM13.7266 25.8065C12.7281 25.8083 11.771 26.2058 11.065 26.9118C10.3589 27.6179 9.96142 28.575 9.95959 29.5735V216.843C9.96142 217.841 10.3589 218.798 11.065 219.504C11.771 220.211 12.7281 220.608 13.7266 220.61H146.953C147.952 220.608 148.909 220.211 149.615 219.504C150.321 218.798 150.718 217.841 150.72 216.843V29.5735C150.718 28.575 150.321 27.6179 149.615 26.9118C148.909 26.2058 147.952 25.8083 146.953 25.8065H13.7266Z" fill="#EBEBEB"/>
<path d="M296.186 220.782H162.959C161.914 220.782 160.912 220.367 160.173 219.628C159.435 218.89 159.02 217.888 159.02 216.843V29.5735C159.029 28.5347 159.448 27.5415 160.186 26.8101C160.923 26.0788 161.92 25.6684 162.959 25.6685H296.186C297.231 25.6685 298.233 26.0835 298.971 26.8223C299.71 27.5612 300.125 28.5632 300.125 29.608V216.843C300.125 217.888 299.71 218.89 298.971 219.628C298.233 220.367 297.231 220.782 296.186 220.782ZM162.959 25.8065C161.961 25.8083 161.003 26.2058 160.297 26.9118C159.591 27.6179 159.194 28.575 159.192 29.5735V216.843C159.194 217.841 159.591 218.798 160.297 219.504C161.003 220.211 161.961 220.608 162.959 220.61H296.186C297.184 220.608 298.141 220.211 298.847 219.504C299.553 218.798 299.951 217.841 299.953 216.843V29.5735C299.951 28.575 299.553 27.6179 298.847 26.9118C298.141 26.2058 297.184 25.8083 296.186 25.8065H162.959Z" fill="#EBEBEB"/>
<path d="M327.441 251.553H-17.5273V251.726H327.441V251.553Z" fill="#EBEBEB"/>
<path d="M50.6936 251.726C50.5391 251.712 50.3965 251.637 50.2969 251.518C50.1973 251.399 50.1489 251.246 50.1624 251.091L61.8913 110.144H63.0642V111.31H62.9676L51.3283 251.188C51.3143 251.343 51.2399 251.486 51.1211 251.587C51.0024 251.687 50.8488 251.737 50.6936 251.726Z" fill="#E0E0E0"/>
<path d="M102.97 251.726C103.125 251.712 103.268 251.637 103.369 251.519C103.469 251.4 103.519 251.246 103.508 251.091L91.7444 110.144H90.5715V111.31H90.6681L98.1884 201.443H60.3455L52.7217 110.144H51.5557V111.31H51.6523L63.326 251.188C63.3383 251.342 63.4113 251.486 63.5289 251.586C63.6465 251.687 63.7993 251.737 63.9538 251.726C64.1088 251.712 64.2521 251.637 64.3528 251.519C64.4535 251.4 64.5035 251.246 64.492 251.091L60.4351 202.616H98.2781L102.335 251.188C102.349 251.343 102.423 251.486 102.542 251.587C102.661 251.687 102.814 251.737 102.97 251.726Z" fill="#E0E0E0"/>
<path d="M105.675 182.829H49.7836L42.7324 98.2773H98.6241L105.675 182.829Z" fill="#EBEBEB"/>
<path d="M103.135 180.49L96.4706 100.616H45.2705L51.9353 180.49H103.135Z" fill="#FAFAFA"/>
<path d="M106.082 184.685H50.1488C49.6578 184.683 49.1875 184.487 48.8409 184.139C48.4944 183.791 48.2998 183.32 48.2998 182.829C48.2998 182.338 48.4944 181.867 48.8409 181.519C49.1875 181.171 49.6578 180.975 50.1488 180.973H106.082C106.573 180.975 107.043 181.171 107.39 181.519C107.736 181.867 107.931 182.338 107.931 182.829C107.931 183.32 107.736 183.791 107.39 184.139C107.043 184.487 106.573 184.683 106.082 184.685Z" fill="#E6E6E6"/>
<path d="M216.457 231.269C215.678 221.886 212.449 216.339 209.868 213.331C208.4 211.506 206.539 210.034 204.425 209.026L204.673 208.377C204.784 208.419 215.616 212.807 217.147 231.207L216.457 231.269Z" fill="#E6E6E6"/>
<path d="M219.045 229.434H218.355C218.714 198.746 197.505 189.597 197.291 189.508L197.553 188.866C197.774 188.956 219.403 198.284 219.045 229.434Z" fill="#E6E6E6"/>
<path d="M221.066 229.427C221.018 217.836 223.777 210.109 229.276 206.528C236.272 201.947 245.29 205.838 245.379 205.88L245.103 206.514C245.014 206.473 236.327 202.734 229.656 207.108C224.364 210.558 221.708 218.085 221.756 229.427H221.066Z" fill="#E6E6E6"/>
<path d="M220.052 234.533C217.982 217.229 218.354 197.78 218.361 197.587H219.051C219.051 197.78 218.686 217.181 220.742 234.436L220.052 234.533Z" fill="#E6E6E6"/>
<path d="M223.84 229.434H223.15C223.716 199.622 227.663 182.518 234.555 180.042C238.495 178.613 241.82 182.374 241.958 182.539L241.434 182.988C241.434 182.953 238.281 179.421 234.783 180.69C230.16 182.346 224.551 192.164 223.84 229.434Z" fill="#E6E6E6"/>
<path d="M246.98 204.051C246.98 204.051 255.873 189.646 262.552 202.754C267.968 213.393 259.033 222.355 259.033 222.355C259.033 222.355 220.735 216.436 230.159 203.113C236.003 194.91 246.98 204.051 246.98 204.051Z" fill="#F0F0F0"/>
<path d="M248.097 205.052C248.097 205.052 259.64 205.342 259.55 206.225C259.46 207.108 249.477 205.693 250.167 207.122C250.857 208.55 260.233 211.296 260.116 212.489C259.999 213.683 251.478 209.191 251.692 210.295C251.906 211.399 257.08 217.36 256.942 218.678C256.804 219.996 252.257 212.165 251.423 212.8C250.588 213.435 249.132 219.52 248.808 218.002C248.484 216.484 250.305 210.413 249.132 208.964C247.959 207.515 238.383 213.759 236.713 212.379C235.044 210.999 246.766 208.57 248.097 205.052Z" fill="#E0E0E0"/>
<path d="M242.102 204.576C242.102 204.576 232.733 203.01 231.995 205.466C231.256 207.922 233.788 205.652 242.102 204.576Z" fill="#E0E0E0"/>
<path d="M192.62 188.162C192.62 188.162 185.245 172.922 177.262 185.285C170.79 195.31 178.759 205.142 178.759 205.142C178.759 205.142 217.458 203.161 209.42 188.942C204.473 180.214 192.62 188.162 192.62 188.162Z" fill="#F0F0F0"/>
<path d="M191.414 189.011C191.414 189.011 179.906 188.114 179.906 189.011C179.906 189.908 189.986 189.542 189.144 190.86C188.302 192.178 178.705 193.978 178.705 195.179C178.705 196.379 187.633 192.778 187.309 193.861C186.984 194.944 181.223 200.34 181.223 201.657C181.223 202.975 186.55 195.662 187.309 196.379C188.068 197.097 188.902 203.279 189.378 201.816C189.854 200.353 188.688 194.123 189.979 192.792C191.269 191.46 200.176 198.663 201.977 197.463C203.777 196.262 192.373 192.674 191.414 189.011Z" fill="#E0E0E0"/>
<path d="M197.423 189.183C197.423 189.183 206.903 188.583 207.379 191.101C207.855 193.62 205.578 191.101 197.423 189.183Z" fill="#E0E0E0"/>
<path d="M240.115 179.973C240.115 179.973 244.538 170.824 249.326 178.241C253.21 184.257 248.429 190.156 248.429 190.156C248.429 190.156 225.213 188.969 230.035 180.435C233.002 175.184 240.115 179.973 240.115 179.973Z" fill="#F0F0F0"/>
<path d="M240.833 180.476C240.833 180.476 247.732 179.945 247.732 180.476C247.732 181.008 241.689 180.794 242.213 181.587C242.737 182.381 248.478 183.457 248.478 184.181C248.478 184.906 243.117 182.739 243.317 183.388C243.517 184.036 246.967 187.272 246.967 188.066C246.967 188.859 243.765 184.471 243.317 184.899C242.868 185.327 242.358 189.038 242.068 188.162C241.778 187.286 242.503 183.547 241.709 182.746C240.916 181.946 235.59 186.265 234.513 185.547C233.437 184.83 240.267 182.677 240.833 180.476Z" fill="#E0E0E0"/>
<path d="M237.231 180.58C237.231 180.58 231.546 180.221 231.256 181.732C230.967 183.243 232.34 181.732 237.231 180.58Z" fill="#E0E0E0"/>
<path d="M227.324 218.989C227.324 218.989 230.18 213.09 233.271 217.878C235.776 221.755 232.692 225.564 232.692 225.564C232.692 225.564 217.713 224.798 220.825 219.292C222.736 215.904 227.324 218.989 227.324 218.989Z" fill="#F0F0F0"/>
<path d="M227.793 219.32C227.793 219.32 232.25 218.975 232.25 219.32C232.25 219.665 228.345 219.52 228.669 220.01C228.993 220.499 232.712 221.217 232.712 221.679C232.712 222.142 229.263 220.748 229.38 221.169C229.497 221.59 231.739 223.673 231.739 224.184C231.739 224.694 229.67 221.866 229.38 222.114C229.09 222.362 228.766 224.791 228.58 224.218C228.393 223.646 228.856 221.245 228.345 220.727C227.834 220.21 224.399 222.997 223.702 222.535C223.005 222.073 227.4 220.734 227.793 219.32Z" fill="#E0E0E0"/>
<path d="M225.467 219.382C225.467 219.382 221.797 219.154 221.611 220.127C221.424 221.1 222.307 220.127 225.467 219.382Z" fill="#E0E0E0"/>
<path d="M201.804 209.805C201.804 209.805 193.083 204.603 193.159 213.428C193.221 220.589 200.458 222.887 200.458 222.887C200.458 222.887 219.197 209.136 210.483 204.659C205.122 201.906 201.804 209.805 201.804 209.805Z" fill="#F0F0F0"/>
<path d="M201.48 210.626C201.48 210.626 195.415 213.98 195.712 214.421C196.008 214.863 200.935 211.365 200.948 212.303C200.962 213.241 196.747 217.312 197.14 217.912C197.533 218.512 200.831 213.773 201.017 214.414C201.204 215.056 200.107 219.665 200.541 220.327C200.976 220.989 201.231 215.566 201.852 215.677C202.473 215.787 204.929 218.623 204.681 217.747C204.433 216.87 201.79 214.131 202.011 213.027C202.232 211.924 209.055 212.607 209.559 211.413C210.062 210.219 203.17 212.151 201.48 210.626Z" fill="#E0E0E0"/>
<path d="M204.55 208.736C204.55 208.736 209.103 205.286 210.173 206.418C211.242 207.549 209.269 207.011 204.55 208.736Z" fill="#E0E0E0"/>
<path d="M222.481 192.391C222.481 192.391 230.443 187.638 230.374 195.696C230.318 202.23 223.716 204.327 223.716 204.327C223.716 204.327 206.605 191.784 214.56 187.693C219.459 185.182 222.481 192.391 222.481 192.391Z" fill="#F0F0F0"/>
<path d="M222.777 193.144C222.777 193.144 228.297 196.2 228.042 196.593C227.786 196.986 223.274 193.833 223.26 194.661C223.247 195.489 227.096 199.229 226.71 199.781C226.324 200.333 223.343 195.993 223.171 196.586C222.998 197.18 224.006 201.381 223.605 201.982C223.205 202.582 222.971 197.635 222.412 197.738C221.853 197.842 219.597 200.422 219.824 199.601C220.052 198.78 222.467 196.297 222.267 195.289C222.067 194.282 215.837 194.91 215.368 193.82C214.898 192.73 221.239 194.537 222.777 193.144Z" fill="#E0E0E0"/>
<path d="M219.976 191.412C219.976 191.412 215.836 188.286 214.843 189.294C213.849 190.301 215.671 189.873 219.976 191.412Z" fill="#E0E0E0"/>
<path d="M201.92 228.165L207.874 251.636H234.161L240.108 228.165H201.92Z" fill="#E6E6E6"/>
<path d="M154.956 282.332C228.836 282.332 288.728 278.835 288.728 274.521C288.728 270.208 228.836 266.711 154.956 266.711C81.0762 266.711 21.1846 270.208 21.1846 274.521C21.1846 278.835 81.0762 282.332 154.956 282.332Z" fill="#F5F5F5"/>
<path d="M233.195 170.914V170.224C234.554 170.224 235.912 170.132 237.259 169.948L237.349 170.638C235.972 170.822 234.584 170.914 233.195 170.914ZM230.435 170.783C229.04 170.658 227.656 170.428 226.296 170.093L226.468 169.403C227.783 169.733 229.121 169.963 230.47 170.093L230.435 170.783ZM240.095 170.148L239.943 169.458C241.271 169.161 242.58 168.783 243.862 168.327L244.089 168.975C242.78 169.451 241.441 169.843 240.081 170.148H240.095ZM223.667 169.251C222.36 168.764 221.102 168.156 219.907 167.437L220.266 166.85C221.425 167.545 222.644 168.134 223.909 168.609L223.667 169.251ZM246.663 167.961L246.38 167.333C247.616 166.768 248.817 166.127 249.974 165.415L250.333 166.001C249.148 166.732 247.917 167.387 246.649 167.961H246.663ZM217.616 165.85C217.026 165.384 216.462 164.887 215.926 164.359C215.471 163.911 215.022 163.442 214.595 162.98L215.105 162.51C215.526 162.973 215.961 163.428 216.409 163.89C216.928 164.402 217.474 164.886 218.044 165.339L217.616 165.85ZM252.624 164.428L252.21 163.876C253.294 163.062 254.316 162.167 255.266 161.199L255.321 161.144L255.811 161.634L255.756 161.682C254.777 162.675 253.726 163.593 252.61 164.428H252.624ZM212.821 160.848C211.98 159.75 211.212 158.597 210.524 157.398L211.124 157.06C211.795 158.24 212.544 159.374 213.366 160.454L212.821 160.848ZM257.667 159.544L257.122 159.116C257.96 158.054 258.699 156.918 259.33 155.721L259.944 156.039C259.28 157.265 258.506 158.429 257.633 159.516L257.667 159.544ZM209.296 154.893C208.733 153.621 208.272 152.306 207.916 150.961L208.606 150.781C208.968 152.091 209.429 153.371 209.986 154.611L209.296 154.893ZM261.075 153.514L260.427 153.272C260.896 152.006 261.234 150.695 261.434 149.36L262.124 149.464C261.901 150.84 261.538 152.19 261.041 153.493L261.075 153.514ZM207.336 148.256C207.164 147.103 207.076 145.938 207.074 144.772C207.074 144.544 207.074 144.317 207.074 144.082H207.764C207.764 144.303 207.764 144.524 207.764 144.772C207.767 145.904 207.852 147.034 208.019 148.153L207.336 148.256ZM262.352 146.683H261.662V146.318C261.662 145.087 261.555 143.859 261.345 142.647L262.035 142.53C262.248 143.781 262.356 145.048 262.359 146.318L262.352 146.683ZM208.026 141.419L207.336 141.316C207.55 139.936 207.894 138.58 208.364 137.266L209.013 137.5C208.55 138.764 208.208 140.07 207.992 141.398L208.026 141.419ZM260.737 139.998C260.354 138.698 259.872 137.429 259.295 136.203L259.916 135.913C260.514 137.169 261.01 138.47 261.4 139.805L260.737 139.998ZM210.089 135.016L209.461 134.678C210.095 133.436 210.836 132.252 211.676 131.139L212.221 131.553C211.4 132.635 210.675 133.787 210.055 134.996L210.089 135.016ZM258.026 133.809C257.332 132.642 256.564 131.519 255.728 130.449L256.267 130.021C257.124 131.12 257.91 132.272 258.619 133.471L258.026 133.809ZM213.987 129.511L213.484 129.042C213.615 128.897 213.753 128.759 213.891 128.614C214.73 127.765 215.622 126.97 216.561 126.234L216.982 126.772C216.069 127.494 215.2 128.27 214.381 129.097L213.987 129.511ZM253.969 128.372C253.548 127.917 253.114 127.462 252.665 126.992C252.145 126.48 251.599 125.994 251.03 125.537L251.458 124.999C252.047 125.468 252.611 125.968 253.148 126.496C253.603 126.944 254.052 127.406 254.473 127.876L253.969 128.372ZM219.196 125.206L218.824 124.626C219.994 123.877 221.213 123.209 222.474 122.625L222.763 123.253C221.521 123.815 220.317 124.46 219.162 125.185L219.196 125.206ZM248.788 123.991C247.634 123.284 246.423 122.677 245.166 122.177L245.414 121.535C246.712 122.045 247.961 122.671 249.146 123.405L248.788 123.991ZM225.24 122.197L225.013 121.549C226.321 121.084 227.658 120.701 229.014 120.404L229.159 121.094C227.831 121.378 226.522 121.747 225.24 122.197ZM242.578 121.328C241.271 120.972 239.937 120.718 238.59 120.569L238.666 119.879C240.048 120.029 241.416 120.287 242.758 120.652L242.578 121.328ZM231.822 120.638L231.733 119.948C232.973 119.795 234.222 119.717 235.472 119.714H235.893V120.404H235.486C234.266 120.402 233.047 120.475 231.836 120.624L231.822 120.638Z" fill="#00A8CD"/>
<path d="M210.544 133.443C209.334 132.747 208.166 131.98 207.046 131.146L207.454 130.587C208.557 131.406 209.709 132.157 210.903 132.836L210.544 133.443ZM204.852 129.435C203.783 128.552 202.741 127.613 201.755 126.641L202.238 126.151C203.21 127.103 204.238 128.034 205.287 128.91L204.852 129.435ZM199.823 124.605C198.94 123.632 198.098 122.618 197.318 121.597L197.863 121.176C198.636 122.184 199.464 123.184 200.333 124.143L199.823 124.605Z" fill="#00A8CD"/>
<g opacity="0.3">
<path d="M233.195 170.914V170.224C234.554 170.224 235.912 170.132 237.259 169.948L237.349 170.638C235.972 170.822 234.584 170.914 233.195 170.914ZM230.435 170.783C229.04 170.658 227.656 170.428 226.296 170.093L226.468 169.403C227.783 169.733 229.121 169.963 230.47 170.093L230.435 170.783ZM240.095 170.148L239.943 169.458C241.271 169.161 242.58 168.783 243.862 168.327L244.089 168.975C242.78 169.451 241.441 169.843 240.081 170.148H240.095ZM223.667 169.251C222.36 168.764 221.102 168.156 219.907 167.437L220.266 166.85C221.425 167.545 222.644 168.134 223.909 168.609L223.667 169.251ZM246.663 167.961L246.38 167.333C247.616 166.768 248.817 166.127 249.974 165.415L250.333 166.001C249.148 166.732 247.917 167.387 246.649 167.961H246.663ZM217.616 165.85C217.026 165.384 216.462 164.887 215.926 164.359C215.471 163.911 215.022 163.442 214.595 162.98L215.105 162.51C215.526 162.973 215.961 163.428 216.409 163.89C216.928 164.402 217.474 164.886 218.044 165.339L217.616 165.85ZM252.624 164.428L252.21 163.876C253.294 163.062 254.316 162.167 255.266 161.199L255.321 161.144L255.811 161.634L255.756 161.682C254.777 162.675 253.726 163.593 252.61 164.428H252.624ZM212.821 160.848C211.98 159.75 211.212 158.597 210.524 157.398L211.124 157.06C211.795 158.24 212.544 159.374 213.366 160.454L212.821 160.848ZM257.667 159.544L257.122 159.116C257.96 158.054 258.699 156.918 259.33 155.721L259.944 156.039C259.28 157.265 258.506 158.429 257.633 159.516L257.667 159.544ZM209.296 154.893C208.733 153.621 208.272 152.306 207.916 150.961L208.606 150.781C208.968 152.091 209.429 153.371 209.986 154.611L209.296 154.893ZM261.075 153.514L260.427 153.272C260.896 152.006 261.234 150.695 261.434 149.36L262.124 149.464C261.901 150.84 261.538 152.19 261.041 153.493L261.075 153.514ZM207.336 148.256C207.164 147.103 207.076 145.938 207.074 144.772C207.074 144.544 207.074 144.317 207.074 144.082H207.764C207.764 144.303 207.764 144.524 207.764 144.772C207.767 145.904 207.852 147.034 208.019 148.153L207.336 148.256ZM262.352 146.683H261.662V146.318C261.662 145.087 261.555 143.859 261.345 142.647L262.035 142.53C262.248 143.781 262.356 145.048 262.359 146.318L262.352 146.683ZM208.026 141.419L207.336 141.316C207.55 139.936 207.894 138.58 208.364 137.266L209.013 137.5C208.55 138.764 208.208 140.07 207.992 141.398L208.026 141.419ZM260.737 139.998C260.354 138.698 259.872 137.429 259.295 136.203L259.916 135.913C260.514 137.169 261.01 138.47 261.4 139.805L260.737 139.998ZM210.089 135.016L209.461 134.678C210.095 133.436 210.836 132.252 211.676 131.139L212.221 131.553C211.4 132.635 210.675 133.787 210.055 134.996L210.089 135.016ZM258.026 133.809C257.332 132.642 256.564 131.519 255.728 130.449L256.267 130.021C257.124 131.12 257.91 132.272 258.619 133.471L258.026 133.809ZM213.987 129.511L213.484 129.042C213.615 128.897 213.753 128.759 213.891 128.614C214.73 127.765 215.622 126.97 216.561 126.234L216.982 126.772C216.069 127.494 215.2 128.27 214.381 129.097L213.987 129.511ZM253.969 128.372C253.548 127.917 253.114 127.462 252.665 126.992C252.145 126.48 251.599 125.994 251.03 125.537L251.458 124.999C252.047 125.468 252.611 125.968 253.148 126.496C253.603 126.944 254.052 127.406 254.473 127.876L253.969 128.372ZM219.196 125.206L218.824 124.626C219.994 123.877 221.213 123.209 222.474 122.625L222.763 123.253C221.521 123.815 220.317 124.46 219.162 125.185L219.196 125.206ZM248.788 123.991C247.634 123.284 246.423 122.677 245.166 122.177L245.414 121.535C246.712 122.045 247.961 122.671 249.146 123.405L248.788 123.991ZM225.24 122.197L225.013 121.549C226.321 121.084 227.658 120.701 229.014 120.404L229.159 121.094C227.831 121.378 226.522 121.747 225.24 122.197ZM242.578 121.328C241.271 120.972 239.937 120.718 238.59 120.569L238.666 119.879C240.048 120.029 241.416 120.287 242.758 120.652L242.578 121.328ZM231.822 120.638L231.733 119.948C232.973 119.795 234.222 119.717 235.472 119.714H235.893V120.404H235.486C234.266 120.402 233.047 120.475 231.836 120.624L231.822 120.638Z" fill="black"/>
<path d="M210.544 133.443C209.334 132.747 208.166 131.98 207.046 131.146L207.454 130.587C208.557 131.406 209.709 132.157 210.903 132.836L210.544 133.443ZM204.852 129.435C203.783 128.552 202.741 127.613 201.755 126.641L202.238 126.151C203.21 127.103 204.238 128.034 205.287 128.91L204.852 129.435ZM199.823 124.605C198.94 123.632 198.098 122.618 197.318 121.597L197.863 121.176C198.636 122.184 199.464 123.184 200.333 124.143L199.823 124.605Z" fill="black"/>
</g>
<path d="M253.382 126.589L223.872 120.719L216.349 158.539L245.859 164.409L253.382 126.589Z" fill="#00A8CD"/>
<path opacity="0.7" d="M253.382 126.589L223.872 120.719L216.349 158.539L245.859 164.409L253.382 126.589Z" fill="white"/>
<path d="M248.441 130.34L225.764 125.712L223.212 138.213L245.89 142.841L248.441 130.34Z" fill="#00A8CD"/>
<path d="M245.704 144.068L227.013 140.35C226.846 140.317 226.672 140.352 226.53 140.446C226.388 140.54 226.289 140.686 226.254 140.853C226.237 140.937 226.237 141.023 226.253 141.107C226.27 141.191 226.303 141.271 226.35 141.342C226.398 141.414 226.459 141.475 226.53 141.522C226.601 141.57 226.681 141.603 226.765 141.619L245.455 145.338C245.539 145.355 245.625 145.355 245.708 145.339C245.792 145.322 245.871 145.289 245.942 145.242C246.012 145.194 246.073 145.133 246.119 145.062C246.166 144.991 246.198 144.911 246.214 144.827C246.231 144.744 246.231 144.658 246.215 144.574C246.198 144.491 246.165 144.412 246.118 144.341C246.07 144.27 246.009 144.21 245.938 144.163C245.867 144.116 245.787 144.084 245.704 144.068Z" fill="#263238"/>
<path d="M223.391 144.248L242.281 148.008C242.365 148.025 242.452 148.025 242.536 148.009C242.619 147.992 242.699 147.959 242.771 147.912C242.842 147.865 242.903 147.804 242.95 147.732C242.998 147.661 243.031 147.581 243.047 147.497C243.064 147.414 243.064 147.328 243.048 147.244C243.031 147.161 242.998 147.082 242.951 147.011C242.903 146.94 242.842 146.88 242.771 146.833C242.7 146.786 242.62 146.754 242.537 146.738L223.646 142.958C223.563 142.941 223.477 142.94 223.393 142.957C223.31 142.973 223.23 143.006 223.16 143.054C223.089 143.101 223.029 143.163 222.982 143.234C222.935 143.305 222.903 143.384 222.887 143.468C222.868 143.552 222.866 143.64 222.881 143.725C222.896 143.81 222.928 143.891 222.975 143.964C223.022 144.037 223.083 144.099 223.154 144.148C223.226 144.197 223.306 144.231 223.391 144.248Z" fill="#263238"/>
<path d="M242.751 150.078L223.012 146.152C222.844 146.12 222.67 146.155 222.527 146.251C222.385 146.346 222.287 146.494 222.253 146.663C222.236 146.746 222.236 146.832 222.252 146.915C222.269 146.999 222.302 147.078 222.349 147.149C222.397 147.22 222.458 147.28 222.529 147.327C222.6 147.374 222.68 147.406 222.764 147.421L242.496 151.347C242.663 151.372 242.833 151.334 242.975 151.241C243.116 151.148 243.218 151.007 243.262 150.844C243.279 150.76 243.279 150.673 243.263 150.589C243.246 150.505 243.213 150.426 243.166 150.354C243.118 150.283 243.057 150.222 242.986 150.175C242.915 150.127 242.835 150.094 242.751 150.078Z" fill="#263238"/>
<path d="M242.965 153.424L225.117 149.857C224.948 149.824 224.774 149.86 224.632 149.956C224.49 150.051 224.391 150.199 224.358 150.367C224.341 150.451 224.34 150.537 224.357 150.62C224.373 150.704 224.406 150.783 224.454 150.854C224.502 150.925 224.563 150.985 224.634 151.032C224.705 151.079 224.785 151.111 224.868 151.126L242.717 154.686C242.885 154.719 243.059 154.683 243.202 154.588C243.344 154.492 243.442 154.344 243.476 154.176C243.492 154.093 243.491 154.008 243.474 153.925C243.457 153.842 243.424 153.764 243.377 153.694C243.329 153.624 243.268 153.564 243.198 153.518C243.127 153.472 243.048 153.44 242.965 153.424Z" fill="#263238"/>
<path d="M221.5 153.776L241.232 157.702C241.316 157.719 241.403 157.719 241.486 157.702C241.57 157.686 241.65 157.653 241.722 157.606C241.793 157.558 241.854 157.497 241.901 157.426C241.949 157.355 241.982 157.275 241.998 157.191C242.015 157.108 242.015 157.022 241.999 156.938C241.982 156.855 241.949 156.775 241.902 156.705C241.854 156.634 241.793 156.573 241.722 156.527C241.651 156.48 241.571 156.448 241.488 156.432L221.749 152.506C221.581 152.474 221.408 152.508 221.266 152.602C221.124 152.697 221.025 152.843 220.99 153.01C220.973 153.094 220.972 153.18 220.989 153.264C221.005 153.348 221.038 153.428 221.085 153.499C221.133 153.57 221.194 153.631 221.265 153.679C221.336 153.726 221.416 153.759 221.5 153.776Z" fill="#263238"/>
<path d="M242.212 160.537C242.237 160.369 242.198 160.198 242.104 160.057C242.009 159.915 241.866 159.814 241.702 159.771L221.121 155.68C220.957 155.657 220.791 155.697 220.656 155.793C220.521 155.888 220.427 156.032 220.395 156.194C220.362 156.357 220.393 156.525 220.48 156.666C220.568 156.806 220.706 156.907 220.866 156.949L241.447 161.041C241.614 161.065 241.784 161.027 241.925 160.935C242.066 160.842 242.169 160.7 242.212 160.537Z" fill="#263238"/>
<g opacity="0.5">
<path d="M245.704 144.068L227.013 140.35C226.846 140.317 226.672 140.352 226.53 140.446C226.388 140.54 226.289 140.686 226.254 140.853C226.237 140.937 226.237 141.023 226.253 141.107C226.27 141.191 226.303 141.271 226.35 141.342C226.398 141.414 226.459 141.475 226.53 141.522C226.601 141.57 226.681 141.603 226.765 141.619L245.455 145.338C245.539 145.355 245.625 145.355 245.708 145.339C245.792 145.322 245.871 145.289 245.942 145.242C246.012 145.194 246.073 145.133 246.119 145.062C246.166 144.991 246.198 144.911 246.214 144.827C246.231 144.744 246.231 144.658 246.215 144.574C246.198 144.491 246.165 144.412 246.118 144.341C246.07 144.27 246.009 144.21 245.938 144.163C245.867 144.116 245.787 144.084 245.704 144.068Z" fill="white"/>
<path d="M223.391 144.248L242.281 148.008C242.365 148.025 242.452 148.025 242.536 148.009C242.619 147.992 242.699 147.959 242.771 147.912C242.842 147.865 242.903 147.803 242.95 147.732C242.998 147.661 243.031 147.581 243.047 147.497C243.064 147.414 243.064 147.328 243.048 147.244C243.031 147.161 242.998 147.082 242.951 147.011C242.903 146.94 242.842 146.88 242.771 146.833C242.7 146.786 242.62 146.754 242.537 146.738L223.646 142.958C223.563 142.941 223.477 142.94 223.393 142.957C223.31 142.973 223.23 143.006 223.16 143.054C223.089 143.101 223.029 143.162 222.982 143.234C222.935 143.305 222.903 143.384 222.887 143.468C222.868 143.552 222.866 143.64 222.881 143.725C222.896 143.81 222.928 143.891 222.975 143.964C223.022 144.037 223.083 144.099 223.154 144.148C223.226 144.197 223.306 144.231 223.391 144.248Z" fill="white"/>
<path d="M242.751 150.078L223.012 146.152C222.844 146.12 222.67 146.155 222.527 146.251C222.385 146.346 222.287 146.494 222.253 146.663C222.236 146.746 222.236 146.832 222.252 146.915C222.269 146.999 222.302 147.078 222.349 147.149C222.397 147.22 222.458 147.28 222.529 147.327C222.6 147.374 222.68 147.406 222.764 147.421L242.496 151.347C242.663 151.372 242.833 151.334 242.975 151.241C243.116 151.148 243.218 151.007 243.262 150.844C243.279 150.76 243.279 150.673 243.263 150.589C243.246 150.505 243.213 150.426 243.166 150.354C243.118 150.283 243.057 150.222 242.986 150.175C242.915 150.127 242.835 150.094 242.751 150.078Z" fill="white"/>
<path d="M242.964 153.424L225.116 149.857C224.947 149.824 224.773 149.86 224.631 149.956C224.489 150.051 224.39 150.199 224.357 150.367C224.34 150.451 224.339 150.537 224.356 150.62C224.373 150.704 224.405 150.783 224.453 150.854C224.501 150.925 224.562 150.985 224.633 151.032C224.704 151.079 224.784 151.111 224.867 151.126L242.716 154.686C242.884 154.719 243.058 154.683 243.201 154.588C243.343 154.492 243.441 154.344 243.475 154.176C243.491 154.093 243.49 154.008 243.473 153.925C243.456 153.842 243.423 153.764 243.376 153.694C243.328 153.624 243.267 153.564 243.197 153.518C243.126 153.472 243.047 153.44 242.964 153.424Z" fill="white"/>
<path d="M221.5 153.776L241.232 157.702C241.316 157.719 241.403 157.719 241.486 157.702C241.57 157.686 241.65 157.653 241.722 157.606C241.793 157.558 241.854 157.497 241.901 157.426C241.949 157.355 241.982 157.275 241.998 157.191C242.015 157.108 242.015 157.022 241.999 156.938C241.982 156.855 241.949 156.775 241.902 156.705C241.854 156.634 241.793 156.573 241.722 156.527C241.651 156.48 241.571 156.448 241.488 156.432L221.749 152.506C221.581 152.474 221.408 152.508 221.266 152.602C221.124 152.697 221.025 152.843 220.99 153.01C220.973 153.094 220.972 153.18 220.989 153.264C221.005 153.348 221.038 153.428 221.085 153.499C221.133 153.57 221.194 153.631 221.265 153.679C221.336 153.726 221.416 153.759 221.5 153.776Z" fill="white"/>
<path d="M242.212 160.537C242.237 160.369 242.198 160.198 242.104 160.057C242.009 159.915 241.866 159.814 241.702 159.771L221.121 155.68C220.957 155.657 220.791 155.697 220.656 155.793C220.521 155.888 220.427 156.032 220.395 156.194C220.362 156.357 220.393 156.525 220.48 156.666C220.568 156.806 220.706 156.907 220.866 156.949L241.447 161.041C241.614 161.065 241.784 161.027 241.925 160.935C242.066 160.842 242.169 160.7 242.212 160.537Z" fill="white"/>
</g>
<path d="M250.947 135.465C249.99 134.506 248.774 133.846 247.449 133.568C246.123 133.29 244.744 133.404 243.483 133.898C242.221 134.391 241.131 135.242 240.345 136.346C239.56 137.45 239.114 138.759 239.062 140.113C239.01 141.466 239.354 142.806 240.051 143.967C240.749 145.128 241.771 146.061 242.991 146.65C244.211 147.239 245.576 147.459 246.92 147.284C248.263 147.108 249.526 146.545 250.554 145.662C250.411 145.957 250.363 146.288 250.417 146.611C250.472 146.934 250.626 147.232 250.857 147.463L255.438 152.044C255.74 152.322 256.137 152.472 256.546 152.464C256.956 152.455 257.346 152.289 257.636 151.999C257.926 151.71 258.092 151.319 258.1 150.91C258.109 150.5 257.958 150.103 257.681 149.802L253.1 145.221C252.866 144.992 252.568 144.841 252.246 144.787C251.924 144.734 251.593 144.782 251.299 144.924C252.44 143.592 253.038 141.879 252.973 140.126C252.908 138.373 252.184 136.708 250.947 135.465ZM249.967 144.337C249.187 145.118 248.192 145.65 247.109 145.865C246.027 146.081 244.904 145.97 243.884 145.548C242.864 145.125 241.993 144.41 241.379 143.492C240.766 142.574 240.439 141.495 240.439 140.391C240.439 139.287 240.766 138.208 241.379 137.29C241.993 136.372 242.864 135.657 243.884 135.234C244.904 134.812 246.027 134.701 247.109 134.917C248.192 135.132 249.187 135.664 249.967 136.445C251.014 137.491 251.602 138.911 251.602 140.391C251.602 141.871 251.014 143.291 249.967 144.337Z" fill="#263238"/>
<path d="M249.726 95.7315C249.098 95.7315 248.457 95.7315 247.822 95.6763L247.863 94.9863C249.242 95.0706 250.626 95.059 252.003 94.9518L252.058 95.6418C251.306 95.7039 250.513 95.7315 249.726 95.7315ZM244.993 95.352C243.593 95.1376 242.21 94.824 240.854 94.4137L241.054 93.7238C242.382 94.1285 243.738 94.4352 245.111 94.6414L244.993 95.352ZM254.901 95.2692L254.777 94.5793C256.144 94.3356 257.491 93.9873 258.806 93.5375L259.096 94.1653H259.027C257.683 94.6472 256.304 95.021 254.901 95.283V95.2692ZM238.156 93.4616C236.839 92.9183 235.568 92.27 234.354 91.5229L234.713 90.9364C235.897 91.6611 237.135 92.2909 238.418 92.8199L238.156 93.4616ZM261.724 93.089L261.421 92.475C262.665 91.8719 263.846 91.1462 264.946 90.3086L265.367 90.8536C264.23 91.7225 263.01 92.4759 261.724 93.1028V93.089ZM232.016 89.8877C230.897 88.9996 229.871 88.001 228.952 86.9072L229.477 86.4656C230.369 87.524 231.365 88.4901 232.45 89.3496L232.016 89.8877ZM267.506 88.9632L267.009 88.4802C267.971 87.4918 268.82 86.3996 269.541 85.2237L270.128 85.5825C269.381 86.8072 268.502 87.9456 267.506 88.977V88.9632ZM227.283 84.589C226.607 83.481 226.051 82.3037 225.627 81.0772L225.503 80.6978L226.151 80.477L226.282 80.8565C226.689 82.0344 227.221 83.1654 227.869 84.2302L227.283 84.589ZM271.438 83.0366L270.804 82.7676C271.342 81.4953 271.747 80.1704 272.011 78.8142L272.701 78.9453C272.425 80.3549 271.999 81.731 271.432 83.0504L271.438 83.0366ZM224.751 77.9518C224.443 76.5601 224.249 75.1457 224.171 73.7225H224.861C224.937 75.1154 225.126 76.4998 225.427 77.8621L224.751 77.9518ZM273.046 76.1166L272.356 76.0683C272.391 75.5232 272.411 74.9713 272.411 74.4193C272.411 73.5983 272.37 72.7566 272.287 71.9218L272.977 71.8528C273.065 72.7055 273.109 73.5621 273.108 74.4193C273.115 74.9989 273.094 75.5715 273.06 76.1304L273.046 76.1166ZM224.854 70.9214L224.164 70.8731C224.264 69.4474 224.495 68.0339 224.854 66.6507L225.544 66.8232C225.191 68.1698 224.965 69.5464 224.868 70.9352L224.854 70.9214ZM271.866 69.1758C271.61 67.9125 271.269 66.6678 270.845 65.4502L270.742 65.1742L271.39 64.9327L271.494 65.2225C271.925 66.4703 272.276 67.7447 272.542 69.0378L271.866 69.1758ZM226.33 64.2014L225.689 63.9392C226.226 62.6165 226.896 61.3519 227.69 60.1653L228.262 60.5447C227.508 61.7001 226.874 62.9301 226.372 64.2152L226.33 64.2014ZM269.583 62.6628C268.919 61.4529 268.128 60.3172 267.223 59.2753L267.74 58.8199C268.681 59.8986 269.502 61.0761 270.19 62.3317L269.583 62.6628ZM229.96 58.3714L229.449 57.9092C230.406 56.8489 231.47 55.8895 232.623 55.0459L233.03 55.5979C231.928 56.4219 230.913 57.3558 230.001 58.3852L229.96 58.3714ZM265.346 57.3296C264.306 56.4149 263.183 55.5974 261.993 54.8873L262.352 54.2939C263.574 55.0294 264.729 55.8721 265.802 56.8122L265.346 57.3296ZM235.403 54.1283L235.072 53.5281C236.27 52.8683 237.524 52.3143 238.818 51.8722L238.977 51.8171L239.198 52.4656L239.046 52.5208C237.789 52.9539 236.57 53.4916 235.403 54.1283ZM259.509 53.5971C258.246 53.0183 256.941 52.5363 255.604 52.1551L255.798 51.4652C257.167 51.8548 258.505 52.3484 259.799 52.9416L259.509 53.5971ZM241.889 51.7274L241.744 51.0374C243.133 50.728 244.545 50.5273 245.966 50.4372L246.007 51.1271C244.621 51.2182 243.243 51.4189 241.889 51.7274ZM252.927 51.5342C251.56 51.2868 250.177 51.1392 248.788 51.0926V50.4027C250.209 50.452 251.624 50.6018 253.024 50.8511L252.927 51.5342Z" fill="#00A8CD"/>
<path d="M215.442 92.3922H214.062V91.7022C215.511 91.7022 216.864 91.7022 218.202 91.6539V92.3439C217.333 92.3646 216.394 92.3922 215.442 92.3922ZM221.003 92.1093L220.927 91.4194C222.288 91.278 223.64 91.0638 224.977 90.7777L225.122 91.4677C223.761 91.7537 222.387 91.9679 221.003 92.1093ZM227.82 90.7294L227.613 90.074C228.908 89.7054 230.148 89.1623 231.297 88.4595L231.697 89.0184C230.495 89.777 229.189 90.3579 227.82 90.7432V90.7294Z" fill="#00A8CD"/>
<g opacity="0.3">
<path d="M249.725 95.7315C249.097 95.7315 248.456 95.7315 247.821 95.6763L247.862 94.9863C249.241 95.0706 250.625 95.059 252.002 94.9518L252.057 95.6418C251.305 95.7039 250.512 95.7315 249.725 95.7315ZM244.992 95.352C243.592 95.1376 242.209 94.824 240.853 94.4137L241.053 93.7238C242.381 94.1285 243.737 94.4352 245.11 94.6414L244.992 95.352ZM254.9 95.2692L254.776 94.5793C256.143 94.3356 257.49 93.9873 258.805 93.5375L259.095 94.1653H259.026C257.682 94.6472 256.303 95.021 254.9 95.283V95.2692ZM238.155 93.4616C236.838 92.9183 235.567 92.27 234.353 91.5229L234.712 90.9364C235.896 91.6611 237.134 92.2909 238.417 92.8199L238.155 93.4616ZM261.723 93.089L261.42 92.475C262.664 91.8719 263.845 91.1462 264.945 90.3086L265.366 90.8536C264.229 91.7225 263.009 92.4759 261.723 93.1028V93.089ZM232.015 89.8877C230.896 88.9996 229.87 88.001 228.951 86.9072L229.476 86.4656C230.368 87.524 231.364 88.4901 232.449 89.3496L232.015 89.8877ZM267.505 88.9632L267.008 88.4802C267.97 87.4918 268.819 86.3996 269.54 85.2237L270.127 85.5825C269.381 86.8072 268.501 87.9456 267.505 88.977V88.9632ZM227.282 84.589C226.606 83.481 226.05 82.3037 225.626 81.0772L225.502 80.6978L226.15 80.477L226.281 80.8565C226.688 82.0344 227.22 83.1654 227.868 84.2302L227.282 84.589ZM271.437 83.0366L270.803 82.7676C271.341 81.4953 271.746 80.1704 272.01 78.8142L272.7 78.9453C272.424 80.3549 271.998 81.731 271.431 83.0504L271.437 83.0366ZM224.75 77.9518C224.442 76.5601 224.248 75.1457 224.17 73.7225H224.86C224.936 75.1154 225.125 76.4998 225.426 77.8621L224.75 77.9518ZM273.045 76.1166L272.355 76.0683C272.39 75.5232 272.41 74.9713 272.41 74.4193C272.41 73.5983 272.369 72.7566 272.286 71.9218L272.976 71.8528C273.064 72.7055 273.108 73.5621 273.107 74.4193C273.114 74.9989 273.093 75.5715 273.059 76.1304L273.045 76.1166ZM224.853 70.9214L224.163 70.8731C224.263 69.4474 224.494 68.0339 224.853 66.6507L225.543 66.8232C225.19 68.1698 224.964 69.5464 224.867 70.9352L224.853 70.9214ZM271.865 69.1758C271.609 67.9125 271.268 66.6678 270.844 65.4502L270.741 65.1742L271.389 64.9327L271.493 65.2225C271.924 66.4703 272.275 67.7447 272.541 69.0378L271.865 69.1758ZM226.329 64.2014L225.688 63.9392C226.225 62.6165 226.895 61.3519 227.689 60.1653L228.261 60.5447C227.507 61.7001 226.873 62.9301 226.371 64.2152L226.329 64.2014ZM269.582 62.6628C268.918 61.4529 268.127 60.3172 267.222 59.2753L267.739 58.8199C268.68 59.8986 269.502 61.0761 270.189 62.3317L269.582 62.6628ZM229.959 58.3714L229.448 57.9092C230.405 56.8489 231.469 55.8895 232.622 55.0459L233.029 55.5979C231.927 56.4219 230.912 57.3558 230 58.3852L229.959 58.3714ZM265.345 57.3296C264.305 56.4149 263.182 55.5974 261.992 54.8873L262.351 54.2939C263.573 55.0294 264.728 55.8721 265.801 56.8122L265.345 57.3296ZM235.402 54.1283L235.071 53.5281C236.269 52.8683 237.523 52.3143 238.817 51.8722L238.976 51.8171L239.197 52.4656L239.045 52.5208C237.788 52.9539 236.569 53.4916 235.402 54.1283ZM259.509 53.5971C258.245 53.0183 256.94 52.5363 255.603 52.1551L255.797 51.4652C257.166 51.8548 258.504 52.3484 259.798 52.9416L259.509 53.5971ZM241.888 51.7274L241.743 51.0374C243.132 50.728 244.544 50.5273 245.965 50.4372L246.006 51.1271C244.62 51.2182 243.243 51.4189 241.888 51.7274ZM252.927 51.5342C251.559 51.2868 250.176 51.1392 248.787 51.0926V50.4027C250.208 50.452 251.623 50.6018 253.023 50.8511L252.927 51.5342Z" fill="black"/>
<path d="M215.442 92.3922H214.062V91.7022C215.511 91.7022 216.864 91.7022 218.202 91.6539V92.3439C217.333 92.3646 216.394 92.3922 215.442 92.3922ZM221.003 92.1093L220.927 91.4194C222.288 91.278 223.64 91.0638 224.977 90.7777L225.122 91.4677C223.761 91.7537 222.387 91.9679 221.003 92.1093ZM227.82 90.7294L227.613 90.074C228.908 89.7054 230.148 89.1622 231.297 88.4595L231.697 89.0184C230.495 89.777 229.189 90.3579 227.82 90.7432V90.7294Z" fill="black"/>
</g>
<path d="M246.782 55.1465L225.116 64.1208L231.308 79.0682L252.973 70.094L246.782 55.1465Z" fill="#00A8CD"/>
<path opacity="0.6" d="M246.782 55.1465L225.116 64.1208L231.308 79.0682L252.973 70.094L246.782 55.1465Z" fill="white"/>
<path d="M232.201 78.6142L234.837 69.1482L243.392 73.9778L232.201 78.6142Z" fill="#00A8CD"/>
<path opacity="0.3" d="M232.201 78.6142L234.837 69.1482L243.392 73.9778L232.201 78.6142Z" fill="white"/>
<path d="M236.927 76.6547L240.549 63.6563L252.299 70.2866L236.927 76.6547Z" fill="#00A8CD"/>
<path opacity="0.6" d="M234.299 65.1052C234.451 65.4723 234.49 65.876 234.412 66.2654C234.334 66.6547 234.142 67.0122 233.861 67.2926C233.58 67.573 233.222 67.7637 232.832 67.8407C232.443 67.9176 232.039 67.8773 231.672 67.7249C231.306 67.5724 230.993 67.3147 230.772 66.9842C230.552 66.6537 230.435 66.2654 230.436 65.8683C230.436 65.4712 230.554 65.0832 230.775 64.7534C230.996 64.4235 231.31 64.1666 231.677 64.0151C231.921 63.9136 232.182 63.8613 232.446 63.8612C232.71 63.8611 232.971 63.9132 233.215 64.0145C233.459 64.1158 233.68 64.2644 233.866 64.4516C234.052 64.6388 234.199 64.8609 234.299 65.1052Z" fill="white"/>
<path d="M265.397 79.2275L246.795 75.5273L244.242 88.3639L262.843 92.0641L265.397 79.2275Z" fill="#00A8CD"/>
<path opacity="0.6" d="M265.397 79.2275L246.795 75.5273L244.242 88.3639L262.843 92.0641L265.397 79.2275Z" fill="white"/>
<path d="M245.047 88.4595L251.077 83.2781L254.658 90.3707L245.047 88.4595Z" fill="#00A8CD"/>
<path opacity="0.3" d="M245.047 88.4595L251.077 83.2781L254.658 90.3707L245.047 88.4595Z" fill="white"/>
<path d="M249.111 89.2668L257.384 82.1466L262.303 91.8885L249.111 89.2668Z" fill="#00A8CD"/>
<path opacity="0.6" d="M252.548 80.3252C252.518 80.5456 252.443 80.7577 252.329 80.9482C252.214 81.1387 252.061 81.3037 251.88 81.433C251.699 81.5622 251.494 81.6531 251.276 81.6998C251.059 81.7466 250.834 81.7483 250.616 81.7049C250.398 81.6614 250.191 81.5737 250.008 81.4472C249.825 81.3208 249.67 81.1581 249.552 80.9694C249.435 80.7806 249.357 80.5698 249.324 80.3498C249.291 80.1298 249.303 79.9054 249.36 79.6905C249.39 79.47 249.464 79.258 249.579 79.0675C249.694 78.877 249.846 78.712 250.027 78.5827C250.208 78.4534 250.414 78.3626 250.631 78.3158C250.849 78.2691 251.074 78.2674 251.292 78.3108C251.51 78.3542 251.717 78.4419 251.9 78.5684C252.083 78.6949 252.238 78.8575 252.356 79.0463C252.473 79.235 252.551 79.4459 252.584 79.6659C252.617 79.8858 252.605 80.1102 252.548 80.3252Z" fill="white"/>
<path d="M83.8936 165.353C83.2037 165.353 82.5551 165.353 81.879 165.291L81.9273 164.601C83.3055 164.695 84.6886 164.695 86.0669 164.601L86.1221 165.291C85.3494 165.325 84.5835 165.353 83.8936 165.353ZM79.064 164.973C77.6641 164.757 76.2809 164.443 74.9244 164.035L75.1245 163.345C76.443 163.743 77.7868 164.052 79.1468 164.27L79.064 164.973ZM88.868 164.925L88.7507 164.235C90.1042 163.998 91.4374 163.656 92.7386 163.214H92.8007L93.0214 163.87H92.9662C91.6306 164.33 90.2601 164.683 88.868 164.925ZM72.3096 163.097C71.0038 162.567 69.7399 161.94 68.5287 161.22L68.8806 160.627C70.0647 161.328 71.2984 161.941 72.5717 162.462L72.3096 163.097ZM95.6363 162.773L95.3327 162.152C96.5648 161.558 97.7323 160.839 98.8169 160.006L99.2378 160.551C98.1097 161.41 96.8986 162.154 95.6225 162.773H95.6363ZM66.1898 159.647C65.0613 158.797 64.0107 157.848 63.0506 156.811L63.5612 156.342C64.4904 157.352 65.5087 158.275 66.6038 159.102L66.1898 159.647ZM101.377 158.667L100.88 158.191C101.831 157.21 102.67 156.127 103.384 154.962L103.978 155.321C103.226 156.529 102.345 157.651 101.349 158.667H101.377ZM61.2982 154.617C60.4784 153.462 59.7846 152.222 59.2284 150.919L59.8631 150.65C60.3987 151.906 61.0647 153.101 61.8501 154.217L61.2982 154.617ZM105.282 152.817L104.647 152.541C105.188 151.282 105.606 149.975 105.896 148.636L106.586 148.781C106.282 150.165 105.845 151.516 105.282 152.817ZM58.297 148.263C57.8942 146.907 57.5898 145.524 57.3863 144.124L58.0762 144.02C58.2764 145.38 58.5738 146.725 58.9662 148.042L58.297 148.263ZM107 145.993L106.31 145.931C106.386 145.152 106.42 144.351 106.42 143.551C106.42 142.971 106.42 142.392 106.365 141.819L107.055 141.771C107.089 142.364 107.11 142.958 107.11 143.551C107.082 144.372 107.048 145.193 106.972 145.993H107ZM57.1172 141.336C57.1172 140.936 57.1172 140.536 57.1172 140.136C57.1177 139.128 57.1776 138.121 57.2966 137.121L57.9865 137.197C57.87 138.172 57.8124 139.153 57.814 140.136C57.814 140.522 57.814 140.915 57.814 141.309L57.1172 141.336ZM106.054 139.087C105.835 137.73 105.526 136.388 105.13 135.072L105.82 134.872C106.222 136.218 106.538 137.589 106.765 138.977L106.054 139.087ZM58.4488 134.499L57.7588 134.34C58.0906 132.966 58.5526 131.626 59.1387 130.339L59.7665 130.622C59.1882 131.867 58.7329 133.165 58.4074 134.499H58.4488ZM104.233 132.484C103.698 131.224 103.039 130.02 102.267 128.89L102.832 128.497C103.648 129.662 104.342 130.908 104.902 132.215L104.233 132.484ZM61.0636 128.214L60.4772 127.848C61.2281 126.649 62.0996 125.53 63.0782 124.509L63.575 124.985C62.6139 125.969 61.7583 127.051 61.0222 128.214H61.0636ZM100.583 126.737C99.6694 125.713 98.6649 124.773 97.5819 123.929L98.0097 123.391C99.1219 124.258 100.154 125.223 101.094 126.275L100.583 126.737ZM65.5965 123.15L65.1687 122.604C66.2804 121.731 67.4751 120.968 68.7357 120.328L69.0462 120.942C67.8136 121.563 66.6444 122.302 65.5551 123.15H65.5965ZM95.3327 122.363C94.1645 121.641 92.942 121.012 91.6761 120.479L91.9451 119.845C93.2446 120.39 94.4994 121.036 95.6984 121.777L95.3327 122.363ZM71.5575 119.838L71.3161 119.189L71.8335 119.01C72.9933 118.607 74.1808 118.289 75.3867 118.058L75.5178 118.748C74.3476 118.974 73.1948 119.283 72.0681 119.672L71.5575 119.838ZM89.0957 119.534C87.7817 119.127 86.4396 118.815 85.0803 118.603L85.1907 117.913C86.5922 118.131 87.9758 118.451 89.3303 118.872L89.0957 119.534ZM78.2361 118.354L78.174 117.665C78.9882 117.596 79.8161 117.561 80.6371 117.561C81.2442 117.561 81.81 117.561 82.3964 117.616L82.3481 118.306C81.7824 118.306 81.2097 118.251 80.6371 118.258C79.7954 118.251 78.9882 118.285 78.1947 118.354H78.2361Z" fill="#00A8CD"/>
<path d="M97.1259 122.149L96.8154 121.535C96.8154 121.535 98.1953 120.845 100.355 119.465L100.727 120.045C98.5265 121.438 97.1811 122.122 97.1259 122.149ZM103.032 118.486L102.638 117.92C103.742 117.147 104.86 116.319 105.95 115.464L106.371 116.009C105.281 116.871 104.149 117.706 103.032 118.486ZM108.551 114.263L108.11 113.732C109.158 112.856 110.179 111.931 111.194 110.972L111.663 111.476C110.628 112.442 109.579 113.373 108.524 114.263H108.551ZM113.657 109.572L113.167 109.089C114.14 108.109 115.092 107.102 116.003 106.087L116.513 106.55C115.575 107.571 114.609 108.592 113.629 109.572H113.657Z" fill="#00A8CD"/>
<g opacity="0.3">
<path d="M83.8936 165.353C83.2037 165.353 82.5551 165.353 81.879 165.291L81.9273 164.601C83.3055 164.695 84.6886 164.695 86.0669 164.601L86.1221 165.291C85.3494 165.325 84.5835 165.353 83.8936 165.353ZM79.064 164.973C77.6641 164.757 76.2809 164.443 74.9244 164.035L75.1245 163.345C76.443 163.743 77.7868 164.052 79.1468 164.27L79.064 164.973ZM88.868 164.925L88.7507 164.235C90.1042 163.998 91.4374 163.656 92.7386 163.214H92.8007L93.0214 163.87H92.9662C91.6306 164.33 90.2601 164.683 88.868 164.925ZM72.3096 163.097C71.0038 162.567 69.7399 161.94 68.5287 161.22L68.8806 160.627C70.0647 161.328 71.2984 161.941 72.5717 162.462L72.3096 163.097ZM95.6363 162.773L95.3327 162.152C96.5648 161.558 97.7323 160.839 98.8169 160.006L99.2378 160.551C98.1097 161.41 96.8986 162.154 95.6225 162.773H95.6363ZM66.1898 159.647C65.0613 158.797 64.0107 157.848 63.0506 156.811L63.5612 156.342C64.4904 157.352 65.5087 158.275 66.6038 159.102L66.1898 159.647ZM101.377 158.667L100.88 158.191C101.831 157.21 102.67 156.127 103.384 154.962L103.978 155.321C103.226 156.529 102.345 157.651 101.349 158.667H101.377ZM61.2982 154.617C60.4784 153.462 59.7846 152.222 59.2284 150.919L59.8631 150.65C60.3987 151.906 61.0647 153.101 61.8501 154.217L61.2982 154.617ZM105.282 152.817L104.647 152.541C105.188 151.282 105.606 149.975 105.896 148.636L106.586 148.781C106.282 150.165 105.845 151.516 105.282 152.817ZM58.297 148.263C57.8942 146.907 57.5898 145.524 57.3863 144.124L58.0762 144.02C58.2764 145.38 58.5738 146.725 58.9662 148.042L58.297 148.263ZM107 145.993L106.31 145.931C106.386 145.152 106.42 144.351 106.42 143.551C106.42 142.971 106.42 142.392 106.365 141.819L107.055 141.771C107.089 142.364 107.11 142.958 107.11 143.551C107.082 144.372 107.048 145.193 106.972 145.993H107ZM57.1172 141.336C57.1172 140.936 57.1172 140.536 57.1172 140.136C57.1177 139.128 57.1776 138.121 57.2966 137.121L57.9865 137.197C57.87 138.172 57.8124 139.153 57.814 140.136C57.814 140.522 57.814 140.915 57.814 141.309L57.1172 141.336ZM106.054 139.087C105.835 137.73 105.526 136.388 105.13 135.072L105.82 134.872C106.222 136.218 106.538 137.589 106.765 138.977L106.054 139.087ZM58.4488 134.499L57.7588 134.34C58.0906 132.966 58.5526 131.626 59.1387 130.339L59.7665 130.622C59.1882 131.867 58.7329 133.165 58.4074 134.499H58.4488ZM104.233 132.484C103.698 131.224 103.039 130.02 102.267 128.89L102.832 128.497C103.648 129.662 104.342 130.908 104.902 132.215L104.233 132.484ZM61.0636 128.214L60.4772 127.848C61.2281 126.649 62.0996 125.53 63.0782 124.509L63.575 124.985C62.6139 125.969 61.7583 127.051 61.0222 128.214H61.0636ZM100.583 126.737C99.6694 125.713 98.6649 124.773 97.5819 123.929L98.0097 123.391C99.1219 124.258 100.154 125.223 101.094 126.275L100.583 126.737ZM65.5965 123.15L65.1687 122.604C66.2804 121.731 67.4751 120.968 68.7357 120.328L69.0462 120.942C67.8136 121.563 66.6444 122.302 65.5551 123.15H65.5965ZM95.3327 122.363C94.1645 121.641 92.942 121.012 91.6761 120.479L91.9451 119.845C93.2446 120.39 94.4994 121.036 95.6984 121.777L95.3327 122.363ZM71.5575 119.838L71.3161 119.189L71.8335 119.01C72.9933 118.607 74.1808 118.289 75.3867 118.058L75.5178 118.748C74.3476 118.974 73.1948 119.283 72.0681 119.672L71.5575 119.838ZM89.0957 119.534C87.7817 119.127 86.4396 118.815 85.0803 118.603L85.1907 117.913C86.5922 118.131 87.9758 118.451 89.3303 118.872L89.0957 119.534ZM78.2361 118.354L78.174 117.665C78.9882 117.596 79.8161 117.561 80.6371 117.561C81.2442 117.561 81.81 117.561 82.3964 117.616L82.3481 118.306C81.7824 118.306 81.2097 118.251 80.6371 118.258C79.7954 118.251 78.9882 118.285 78.1947 118.354H78.2361Z" fill="black"/>
<path d="M97.1259 122.149L96.8154 121.535C96.8154 121.535 98.1953 120.845 100.355 119.465L100.727 120.045C98.5265 121.438 97.1811 122.122 97.1259 122.149ZM103.032 118.486L102.638 117.92C103.742 117.147 104.86 116.319 105.95 115.464L106.371 116.009C105.281 116.871 104.149 117.706 103.032 118.486ZM108.551 114.263L108.11 113.732C109.158 112.856 110.179 111.931 111.194 110.972L111.663 111.476C110.628 112.442 109.579 113.373 108.524 114.263H108.551ZM113.657 109.572L113.167 109.089C114.14 108.109 115.092 107.102 116.003 106.087L116.513 106.55C115.575 107.571 114.609 108.592 113.629 109.572H113.657Z" fill="black"/>
</g>
<path d="M67.9354 141.571H63.5957V145.911H67.9354V141.571Z" fill="#00A8CD"/>
<path d="M76.6141 137.231H72.2744V145.911H76.6141V137.231Z" fill="#00A8CD"/>
<path d="M85.2948 133.381H80.9551V145.911H85.2948V133.381Z" fill="#00A8CD"/>
<path d="M93.9735 129.435H89.6338V145.911H93.9735V129.435Z" fill="#00A8CD"/>
<path opacity="0.5" d="M76.6141 137.231H72.2744V145.911H76.6141V137.231Z" fill="white"/>
<path opacity="0.5" d="M93.9735 129.435H89.6338V145.911H93.9735V129.435Z" fill="white"/>
<path d="M97.0852 148.926H63.5957V148.063H96.2159V129.435H97.0852V148.926Z" fill="#00A8CD"/>
<g opacity="0.5">
<path d="M97.0852 148.926H63.5957V148.063H96.2159V129.435H97.0852V148.926Z" fill="white"/>
</g>
<path d="M65.6102 100.658C64.8444 100.658 64.0647 100.623 63.3058 100.561L63.361 99.8711C64.7149 99.9987 66.0777 99.9987 67.4316 99.8711L67.5006 100.561C66.8727 100.628 66.2416 100.66 65.6102 100.658ZM60.5392 100.188C59.1619 99.9324 57.8093 99.5585 56.4961 99.0707L56.7376 98.4222C58.0125 98.8975 59.3259 99.2622 60.6633 99.5123L60.5392 100.188ZM70.2673 100.044L70.0879 99.3536C71.3969 99.0028 72.6644 98.5124 73.8687 97.891L74.1861 98.505C72.9387 99.1568 71.6249 99.6726 70.2673 100.044ZM53.9365 97.9393C52.6926 97.288 51.5143 96.5186 50.4178 95.6418L50.8525 95.1036C51.9098 95.9551 53.0492 96.6993 54.2538 97.3252L53.9365 97.9393ZM76.5871 97.0906L76.1938 96.518C77.3149 95.7452 78.3654 94.8748 79.333 93.9169L79.816 94.4137C78.8181 95.3966 77.7378 96.2922 76.5871 97.0906ZM48.3687 93.7237C47.4133 92.6922 46.5777 91.5557 45.878 90.3362L46.4783 89.9912C47.1485 91.1774 47.9542 92.2818 48.8792 93.2822L48.3687 93.7237ZM81.7064 92.3439L81.1682 91.9092C82.0331 90.8543 82.8172 89.7357 83.514 88.563L84.1074 88.9149C83.3938 90.1163 82.5912 91.2625 81.7064 92.3439ZM44.6637 87.8041C44.1611 86.4937 43.798 85.1339 43.5805 83.7473L44.2705 83.6369C44.4788 84.9769 44.8304 86.2907 45.3192 87.5557L44.6637 87.8041ZM85.4044 86.4242L84.7835 86.1345C85.3549 84.8973 85.8346 83.6198 86.2186 82.3122L86.9085 82.5054C86.5097 83.8532 86.0068 85.168 85.4044 86.438V86.4242ZM43.3184 80.9047C43.3184 80.7392 43.3184 80.5736 43.3184 80.4011C43.3214 79.1694 43.4206 77.9399 43.615 76.7237L44.305 76.8272C44.1131 78.0089 44.0162 79.204 44.0152 80.4011C44.0152 80.5667 44.0152 80.7254 44.0152 80.8909L43.3184 80.9047ZM87.4743 79.7525L86.7843 79.6284C87.0245 78.2894 87.1469 76.9319 87.15 75.5715V75.4956H87.8399V75.5715C87.8567 76.9881 87.7482 78.4034 87.5156 79.8008L87.4743 79.7525ZM44.8431 74.171L44.1532 73.9847C44.5299 72.638 45.012 71.3231 45.5951 70.0521L46.223 70.3418C45.6756 71.5971 45.228 72.8936 44.8845 74.2193L44.8431 74.171ZM86.9706 72.7911C86.7903 71.448 86.4618 70.1291 85.9909 68.8585L86.6325 68.617C87.1228 69.9342 87.4653 71.3017 87.6536 72.6945L86.9706 72.7911ZM47.5201 67.9615L46.9267 67.6097C47.6398 66.3965 48.4496 65.2428 49.3484 64.16L49.8796 64.6016C49.0166 65.6637 48.2413 66.7944 47.5615 67.9822L47.5201 67.9615ZM84.8456 66.4437C84.1707 65.27 83.3576 64.1814 82.4239 63.201L82.9276 62.7249C83.8957 63.7458 84.7387 64.8784 85.4389 66.0987L84.8456 66.4437ZM51.7287 62.6421L51.2526 62.1454C52.2648 61.1756 53.3615 60.2982 54.5298 59.5236L54.9093 60.0963C53.7931 60.8599 52.7451 61.7186 51.777 62.6628L51.7287 62.6421ZM80.4438 61.4072C79.3693 60.5793 78.2134 59.8627 76.9941 59.2684L77.3046 58.6474C78.5633 59.2669 79.7581 60.0087 80.8716 60.8621L80.4438 61.4072ZM57.3103 58.7854L57.0067 58.1645C58.2675 57.5478 59.5874 57.0601 60.9462 56.7087L61.1118 57.3986C59.8001 57.7284 58.5262 58.1931 57.3103 58.7854ZM74.5035 58.2472C73.218 57.8017 71.8981 57.4625 70.557 57.233L70.6743 56.5431C72.0513 56.786 73.4075 57.1342 74.7311 57.5849L74.5035 58.2472ZM63.775 56.9088L63.706 56.2188C65.1016 56.0981 66.5051 56.0981 67.9008 56.2188L67.8525 56.9088C66.4966 56.7811 65.1321 56.7742 63.775 56.8881V56.9088Z" fill="#00A8CD"/>
<path d="M99.4995 96.0419C98.1197 96.0419 96.7398 95.9247 95.3599 95.766L95.4427 95.076C96.8008 95.2385 98.1664 95.3306 99.534 95.352L99.4995 96.0419ZM102.259 95.9936L102.225 95.3037C103.587 95.2285 104.944 95.0742 106.289 94.8415L106.413 95.5314C105.046 95.7724 103.666 95.9291 102.28 96.0005L102.259 95.9936ZM92.5795 95.352C91.1996 95.1174 89.8611 94.8139 88.5089 94.4551L88.6883 93.7652C90.0198 94.117 91.3721 94.4206 92.7037 94.6552L92.5795 95.352ZM109.138 94.9036L108.959 94.2136C109.904 93.9583 110.835 93.6548 111.718 93.3167L111.967 93.9583C111.045 94.325 110.106 94.6451 109.152 94.9173L109.138 94.9036ZM85.8319 93.6686C84.4964 93.255 83.1877 92.7596 81.9131 92.1852L82.2029 91.5643C83.453 92.1196 84.7338 92.6034 86.0389 93.0131L85.8319 93.6686Z" fill="#00A8CD"/>
<g opacity="0.3">
<path d="M65.6102 100.658C64.8444 100.658 64.0647 100.623 63.3058 100.561L63.361 99.8711C64.7149 99.9987 66.0777 99.9987 67.4316 99.8711L67.5006 100.561C66.8727 100.628 66.2416 100.66 65.6102 100.658ZM60.5392 100.188C59.1619 99.9324 57.8093 99.5585 56.4961 99.0707L56.7376 98.4222C58.0125 98.8975 59.3259 99.2622 60.6633 99.5123L60.5392 100.188ZM70.2673 100.044L70.0879 99.3536C71.3969 99.0028 72.6644 98.5124 73.8687 97.891L74.1861 98.505C72.9387 99.1568 71.6249 99.6726 70.2673 100.044ZM53.9365 97.9393C52.6926 97.288 51.5143 96.5186 50.4178 95.6418L50.8525 95.1036C51.9098 95.9551 53.0492 96.6993 54.2538 97.3252L53.9365 97.9393ZM76.5871 97.0906L76.1938 96.518C77.3149 95.7452 78.3654 94.8748 79.333 93.9169L79.816 94.4137C78.8181 95.3966 77.7378 96.2922 76.5871 97.0906ZM48.3687 93.7237C47.4133 92.6922 46.5777 91.5557 45.878 90.3362L46.4783 89.9912C47.1485 91.1774 47.9542 92.2818 48.8792 93.2822L48.3687 93.7237ZM81.7064 92.3439L81.1682 91.9092C82.0331 90.8543 82.8172 89.7357 83.514 88.563L84.1074 88.9149C83.3938 90.1163 82.5912 91.2625 81.7064 92.3439ZM44.6637 87.8041C44.1611 86.4937 43.798 85.1339 43.5805 83.7473L44.2705 83.6369C44.4788 84.9769 44.8304 86.2907 45.3192 87.5557L44.6637 87.8041ZM85.4044 86.4242L84.7835 86.1345C85.3549 84.8973 85.8346 83.6198 86.2186 82.3122L86.9085 82.5054C86.5097 83.8532 86.0068 85.1681 85.4044 86.438V86.4242ZM43.3184 80.9047C43.3184 80.7392 43.3184 80.5736 43.3184 80.4011C43.3214 79.1695 43.4206 77.9399 43.615 76.7237L44.305 76.8272C44.1131 78.0089 44.0162 79.204 44.0152 80.4011C44.0152 80.5667 44.0152 80.7254 44.0152 80.8909L43.3184 80.9047ZM87.4743 79.7525L86.7843 79.6284C87.0245 78.2894 87.1469 76.9319 87.15 75.5715V75.4956H87.8399V75.5715C87.8567 76.9881 87.7482 78.4034 87.5156 79.8008L87.4743 79.7525ZM44.8431 74.171L44.1532 73.9847C44.5299 72.638 45.012 71.3231 45.5951 70.0521L46.223 70.3418C45.6756 71.5971 45.228 72.8936 44.8845 74.2193L44.8431 74.171ZM86.9706 72.7911C86.7903 71.4481 86.4618 70.1291 85.9909 68.8585L86.6325 68.617C87.1228 69.9342 87.4653 71.3017 87.6536 72.6945L86.9706 72.7911ZM47.5201 67.9615L46.9267 67.6097C47.6398 66.3965 48.4496 65.2428 49.3484 64.16L49.8796 64.6016C49.0166 65.6638 48.2413 66.7944 47.5615 67.9822L47.5201 67.9615ZM84.8456 66.4437C84.1707 65.27 83.3576 64.1814 82.4239 63.201L82.9276 62.7249C83.8957 63.7458 84.7387 64.8784 85.4389 66.0987L84.8456 66.4437ZM51.7287 62.6421L51.2526 62.1454C52.2648 61.1756 53.3615 60.2982 54.5298 59.5236L54.9093 60.0963C53.7931 60.8599 52.7451 61.7186 51.777 62.6628L51.7287 62.6421ZM80.4438 61.4072C79.3693 60.5793 78.2134 59.8627 76.9941 59.2684L77.3046 58.6474C78.5633 59.2669 79.7581 60.0087 80.8716 60.8621L80.4438 61.4072ZM57.3103 58.7854L57.0067 58.1645C58.2675 57.5478 59.5874 57.0601 60.9462 56.7087L61.1118 57.3986C59.8001 57.7284 58.5262 58.1931 57.3103 58.7854ZM74.5035 58.2473C73.218 57.8017 71.8981 57.4625 70.557 57.233L70.6743 56.5431C72.0513 56.786 73.4075 57.1342 74.7311 57.5849L74.5035 58.2473ZM63.775 56.9088L63.706 56.2188C65.1016 56.0981 66.5051 56.0981 67.9008 56.2188L67.8525 56.9088C66.4966 56.7811 65.1321 56.7742 63.775 56.8881V56.9088Z" fill="black"/>
<path d="M99.4995 96.0419C98.1197 96.0419 96.7398 95.9247 95.3599 95.766L95.4427 95.076C96.8008 95.2385 98.1664 95.3306 99.534 95.352L99.4995 96.0419ZM102.259 95.9936L102.225 95.3037C103.587 95.2285 104.944 95.0742 106.289 94.8414L106.413 95.5314C105.046 95.7724 103.666 95.9291 102.28 96.0005L102.259 95.9936ZM92.5795 95.352C91.1996 95.1174 89.8611 94.8139 88.5089 94.4551L88.6883 93.7651C90.0198 94.117 91.3721 94.4206 92.7037 94.6552L92.5795 95.352ZM109.138 94.9036L108.959 94.2136C109.904 93.9583 110.835 93.6548 111.718 93.3167L111.967 93.9583C111.045 94.325 110.106 94.6451 109.152 94.9173L109.138 94.9036ZM85.8319 93.6686C84.4964 93.255 83.1877 92.7596 81.9131 92.1852L82.2029 91.5643C83.453 92.1196 84.7338 92.6034 86.0389 93.0131L85.8319 93.6686Z" fill="black"/>
</g>
<path d="M70.9569 73.005C70.9569 68.0443 64.8993 64.0358 57.4204 64.0358C49.9415 64.0358 43.877 68.0443 43.877 73.005C43.877 77.9656 49.9346 81.9741 57.4135 81.9741C58.6637 81.9748 59.9112 81.857 61.1391 81.6223C61.9009 82.4681 62.832 83.1441 63.8721 83.6065C64.9121 84.0689 66.0379 84.3073 67.1761 84.3061C67.3337 84.3171 67.4903 84.2737 67.6197 84.1831C67.7492 84.0925 67.8436 83.9602 67.8872 83.8083C67.9308 83.6565 67.921 83.4943 67.8594 83.3488C67.7977 83.2033 67.6881 83.0834 67.5486 83.0091C66.5194 82.3446 65.6519 81.4582 65.0097 80.4149C68.6111 78.7935 70.9569 76.089 70.9569 73.005Z" fill="#00A8CD"/>
<path d="M50.9218 73.4948C50.9232 73.7574 50.8465 74.0145 50.7014 74.2334C50.5564 74.4523 50.3496 74.6231 50.1072 74.7242C49.8649 74.8254 49.598 74.8522 49.3404 74.8013C49.0828 74.7504 48.8461 74.6241 48.6605 74.4384C48.4748 74.2527 48.3485 74.0161 48.2976 73.7585C48.2467 73.5009 48.2735 73.2339 48.3746 72.9916C48.4757 72.7493 48.6466 72.5425 48.8655 72.3974C49.0844 72.2524 49.3414 72.1757 49.604 72.1771C49.9535 72.1771 50.2887 72.3159 50.5358 72.563C50.783 72.8102 50.9218 73.1453 50.9218 73.4948Z" fill="white"/>
<path d="M56.2958 73.4948C56.2972 73.7571 56.2207 74.0139 56.0759 74.2327C55.9312 74.4514 55.7248 74.6223 55.4829 74.7236C55.2409 74.8249 54.9744 74.8521 54.717 74.8018C54.4596 74.7515 54.2229 74.6258 54.0369 74.4409C53.851 74.2559 53.7241 74.0199 53.6724 73.7627C53.6208 73.5056 53.6466 73.2389 53.7467 72.9964C53.8467 72.754 54.0165 72.5467 54.2345 72.4008C54.4525 72.2549 54.7089 72.1771 54.9711 72.1771C55.3213 72.1771 55.6572 72.3157 55.9054 72.5626C56.1536 72.8095 56.294 73.1447 56.2958 73.4948Z" fill="white"/>
<path d="M61.5946 73.4948C61.596 73.7574 61.5193 74.0145 61.3743 74.2334C61.2292 74.4523 61.0224 74.6231 60.7801 74.7242C60.5378 74.8254 60.2709 74.8522 60.0132 74.8013C59.7556 74.7504 59.519 74.6241 59.3333 74.4384C59.1476 74.2527 59.0213 74.0161 58.9704 73.7585C58.9195 73.5009 58.9464 73.2339 59.0475 72.9916C59.1486 72.7493 59.3194 72.5425 59.5383 72.3974C59.7572 72.2524 60.0143 72.1757 60.2769 72.1771C60.6258 72.1789 60.9599 72.3183 61.2067 72.565C61.4534 72.8118 61.5928 73.1459 61.5946 73.4948Z" fill="white"/>
<path d="M66.9285 73.4948C66.9285 73.7555 66.8512 74.0102 66.7064 74.227C66.5616 74.4437 66.3558 74.6126 66.115 74.7123C65.8742 74.812 65.6093 74.8381 65.3537 74.7873C65.098 74.7364 64.8632 74.6109 64.6789 74.4266C64.4946 74.2423 64.3691 74.0075 64.3183 73.7519C64.2674 73.4963 64.2935 73.2313 64.3933 72.9905C64.493 72.7498 64.6619 72.5439 64.8786 72.3991C65.0953 72.2543 65.3501 72.1771 65.6107 72.1771C65.9602 72.1771 66.2954 72.3159 66.5426 72.563C66.7897 72.8102 66.9285 73.1453 66.9285 73.4948Z" fill="white"/>
<path d="M69.7637 81.436C69.7637 78.1105 73.8343 75.406 78.857 75.406C83.8798 75.406 87.9504 78.1105 87.9504 81.436C87.9504 84.7615 83.8798 87.466 78.857 87.466C78.0167 87.4668 77.1782 87.3883 76.3526 87.2315C75.8413 87.7985 75.2166 88.2519 74.5189 88.5621C73.8212 88.8723 73.0662 89.0324 72.3026 89.0322C72.2007 89.0314 72.1017 88.9975 72.0208 88.9355C71.9398 88.8735 71.8813 88.7869 71.854 88.6886C71.8267 88.5904 71.8322 88.4859 71.8696 88.3911C71.9069 88.2962 71.9742 88.2161 72.0612 88.1629C72.7508 87.7159 73.3309 87.1193 73.7584 86.4173C71.3436 85.3341 69.7637 83.5058 69.7637 81.436Z" fill="#00A8CD"/>
<path opacity="0.6" d="M69.7637 81.436C69.7637 78.1105 73.8343 75.406 78.857 75.406C83.8798 75.406 87.9504 78.1105 87.9504 81.436C87.9504 84.7615 83.8798 87.466 78.857 87.466C78.0167 87.4668 77.1782 87.3883 76.3526 87.2315C75.8413 87.7985 75.2166 88.2519 74.5189 88.5621C73.8212 88.8723 73.0662 89.0324 72.3026 89.0322C72.2007 89.0314 72.1017 88.9975 72.0208 88.9355C71.9398 88.8735 71.8813 88.7869 71.854 88.6886C71.8267 88.5904 71.8322 88.4859 71.8696 88.3911C71.9069 88.2962 71.9742 88.2161 72.0612 88.1629C72.7508 87.7159 73.3309 87.1193 73.7584 86.4173C71.3436 85.3341 69.7637 83.5058 69.7637 81.436Z" fill="white"/>
<path d="M73.7239 81.2635C73.7239 81.4562 73.6667 81.6446 73.5595 81.8047C73.4523 81.9648 73.3 82.0895 73.1218 82.1629C72.9436 82.2363 72.7477 82.2552 72.5588 82.2171C72.3699 82.179 72.1966 82.0857 72.0608 81.9489C71.925 81.8122 71.8329 81.6382 71.7962 81.449C71.7594 81.2599 71.7797 81.0641 71.8544 80.8864C71.9291 80.7088 72.0548 80.5574 72.2157 80.4513C72.3766 80.3452 72.5653 80.2893 72.758 80.2907C72.8855 80.2907 73.0116 80.3159 73.1293 80.3649C73.2469 80.4139 73.3537 80.4856 73.4435 80.576C73.5333 80.6665 73.6043 80.7738 73.6524 80.8918C73.7005 81.0097 73.7248 81.1361 73.7239 81.2635Z" fill="#00A8CD"/>
<path d="M77.6849 81.2635C77.6849 81.4559 77.6278 81.644 77.5209 81.804C77.414 81.964 77.2621 82.0886 77.0843 82.1623C76.9066 82.2359 76.711 82.2552 76.5223 82.2176C76.3336 82.1801 76.1602 82.0874 76.0242 81.9514C75.8881 81.8153 75.7955 81.642 75.758 81.4533C75.7204 81.2646 75.7397 81.069 75.8133 80.8912C75.8869 80.7135 76.0116 80.5615 76.1716 80.4546C76.3316 80.3478 76.5197 80.2907 76.7121 80.2907C76.9701 80.2907 77.2175 80.3932 77.3999 80.5756C77.5824 80.7581 77.6849 81.0055 77.6849 81.2635Z" fill="#00A8CD"/>
<path d="M81.5687 81.2635C81.5687 81.4559 81.5116 81.644 81.4047 81.804C81.2978 81.964 81.1459 82.0886 80.9681 82.1623C80.7904 82.2359 80.5948 82.2552 80.4061 82.2176C80.2174 82.1801 80.044 82.0874 79.908 81.9514C79.7719 81.8153 79.6793 81.642 79.6417 81.4533C79.6042 81.2646 79.6235 81.069 79.6971 80.8912C79.7707 80.7135 79.8954 80.5615 80.0554 80.4546C80.2154 80.3478 80.4035 80.2907 80.5959 80.2907C80.8539 80.2907 81.1013 80.3932 81.2837 80.5756C81.4662 80.7581 81.5687 81.0055 81.5687 81.2635Z" fill="#00A8CD"/>
<path d="M85.4876 81.2635C85.4876 81.4562 85.4304 81.6446 85.3232 81.8047C85.216 81.9648 85.0636 82.0895 84.8855 82.1629C84.7073 82.2363 84.5114 82.2552 84.3225 82.2171C84.1336 82.179 83.9603 82.0857 83.8245 81.9489C83.6887 81.8122 83.5966 81.6382 83.5599 81.449C83.5231 81.2599 83.5433 81.0641 83.618 80.8864C83.6927 80.7088 83.8185 80.5574 83.9794 80.4513C84.1403 80.3452 84.329 80.2893 84.5217 80.2907C84.6491 80.2907 84.7753 80.3159 84.8929 80.3649C85.0106 80.4139 85.1174 80.4856 85.2072 80.576C85.2969 80.6665 85.3679 80.7738 85.4161 80.8918C85.4642 81.0097 85.4885 81.1361 85.4876 81.2635Z" fill="#00A8CD"/>
<path d="M180.333 138.266L183.314 156.756L169.577 152.341C169.577 152.341 161.912 125.82 149.769 119.341C149.769 119.341 130.278 119.638 127.401 105.791C127.401 105.791 97.0439 111.386 97.0439 88.4043C97.0439 65.4226 116.1 39.7915 161.898 39.7915C211.773 39.7915 224.841 88.9908 214.933 101.368C214.933 101.368 221.446 123.384 188.212 128.227C183.058 128.979 179.56 133.499 180.333 138.266Z" fill="#00A8CD"/>
<path opacity="0.4" d="M180.333 138.266L183.314 156.756L169.577 152.341C169.577 152.341 161.912 125.82 149.769 119.341C149.769 119.341 130.278 119.638 127.401 105.791C127.401 105.791 97.0439 111.386 97.0439 88.4043C97.0439 65.4226 116.1 39.7915 161.898 39.7915C211.773 39.7915 224.841 88.9908 214.933 101.368C214.933 101.368 221.446 123.384 188.212 128.227C183.058 128.979 179.56 133.499 180.333 138.266Z" fill="white"/>
<path d="M201.127 71.2663C201.204 70.6415 201.243 70.0125 201.244 69.3828C201.243 68.7555 201.204 68.1287 201.127 67.5062L197.47 66.2022C197.205 65.2151 196.813 64.2666 196.304 63.3804L197.967 59.8755C197.191 58.8864 196.3 57.9945 195.31 57.2193L191.806 58.882C190.919 58.3741 189.97 57.9822 188.984 57.716L187.68 54.0593C186.431 53.903 185.168 53.903 183.92 54.0593L182.623 57.716C181.633 57.9809 180.682 58.3728 179.794 58.882L176.289 57.2193C175.3 57.9945 174.408 58.8864 173.633 59.8755L175.295 63.3804C174.789 64.268 174.397 65.2161 174.129 66.2022L170.473 67.5062C170.395 68.1287 170.356 68.7555 170.355 69.3828C170.356 70.0125 170.395 70.6415 170.473 71.2663L174.129 72.5634C174.399 73.5513 174.79 74.5016 175.295 75.3922L173.633 78.8901C174.408 79.8814 175.3 80.7756 176.289 81.5533L179.794 79.8836C180.684 80.3921 181.634 80.7862 182.623 81.0565L183.92 84.7132C185.168 84.8695 186.431 84.8695 187.68 84.7132L188.984 81.0565C189.97 80.785 190.918 80.391 191.806 79.8836L195.31 81.5533C196.3 80.7756 197.192 79.8814 197.967 78.8901L196.304 75.3922C196.812 74.503 197.204 73.5523 197.47 72.5634L201.127 71.2663ZM185.803 75.8406C184.526 75.842 183.276 75.4644 182.213 74.7556C181.151 74.0469 180.322 73.0388 179.832 71.8589C179.342 70.679 179.213 69.3803 179.462 68.1272C179.71 66.8741 180.325 65.7227 181.227 64.8189C182.13 63.9151 183.281 63.2993 184.534 63.0496C185.787 62.7999 187.086 62.9274 188.266 63.4159C189.446 63.9045 190.455 64.7322 191.165 65.7943C191.875 66.8565 192.254 68.1053 192.254 69.3828C192.254 71.0943 191.575 72.7359 190.365 73.9467C189.155 75.1576 187.515 75.8388 185.803 75.8406Z" fill="#263238"/>
<path d="M200.147 95.0898C200.212 94.4337 200.212 93.7728 200.147 93.1166L196.829 92.3094C196.688 91.8171 196.491 91.3426 196.242 90.895L198.016 87.9835C197.604 87.4776 197.142 87.0152 196.636 86.6036L193.724 88.3836C193.276 88.1308 192.799 87.9339 192.303 87.7972L191.523 84.4579C191.196 84.4221 190.866 84.4037 190.537 84.4027C190.207 84.4035 189.878 84.422 189.55 84.4579L188.708 87.7627C188.215 87.9006 187.74 88.0975 187.294 88.3492L184.376 86.5691C183.87 86.9808 183.407 87.4431 182.996 87.949L184.776 90.8605C184.524 91.3067 184.327 91.7816 184.189 92.2749L180.864 93.0821C180.864 93.4064 180.815 93.7721 180.815 94.0687C180.815 94.3654 180.815 94.7587 180.864 95.0553L184.189 95.8626C184.327 96.3559 184.524 96.8308 184.776 97.2769L182.996 100.188C183.409 100.693 183.871 101.155 184.376 101.568L187.294 99.7883C187.741 100.037 188.216 100.234 188.708 100.375L189.516 103.693C189.843 103.729 190.172 103.748 190.502 103.749C190.832 103.748 191.161 103.729 191.489 103.693L192.289 100.375C192.784 100.235 193.261 100.038 193.71 99.7883L196.622 101.568C197.126 101.155 197.588 100.693 198.002 100.188L196.229 97.2769C196.477 96.8294 196.674 96.3548 196.815 95.8626L200.147 95.0898ZM190.488 96.8078C189.953 96.8078 189.431 96.6491 188.986 96.352C188.541 96.0548 188.194 95.6324 187.99 95.1382C187.785 94.644 187.731 94.1002 187.836 93.5756C187.94 93.051 188.198 92.569 188.576 92.1908C188.954 91.8126 189.436 91.555 189.961 91.4506C190.485 91.3463 191.029 91.3998 191.523 91.6045C192.018 91.8092 192.44 92.1559 192.737 92.6007C193.034 93.0454 193.193 93.5683 193.193 94.1032C193.193 94.8181 192.91 95.504 192.406 96.0108C191.901 96.5176 191.217 96.8041 190.502 96.8078H190.488Z" fill="#263238"/>
<path d="M173.798 57.5228C173.854 56.9861 173.854 56.4451 173.798 55.9084L171.087 55.2184C170.973 54.8175 170.813 54.4309 170.611 54.0662L172.06 51.686C171.719 51.2695 171.338 50.8881 170.921 50.5476L168.541 51.9964C168.177 51.7944 167.79 51.6346 167.389 51.5204L166.699 48.8089C166.433 48.7812 166.166 48.7674 165.899 48.7675C165.629 48.7676 165.36 48.7814 165.091 48.8089L164.402 51.5204C163.999 51.6359 163.61 51.7955 163.242 51.9964L160.869 50.5476C160.47 50.9018 160.107 51.2947 159.786 51.7205L161.235 54.1007C161.033 54.4654 160.873 54.852 160.759 55.2529L158.047 55.9429C157.992 56.4796 157.992 57.0206 158.047 57.5573L160.759 58.2473C160.873 58.6482 161.033 59.0348 161.235 59.3994L159.786 61.7797C160.126 62.1962 160.508 62.5775 160.924 62.9181L163.298 61.4693C163.665 61.6702 164.054 61.8298 164.457 61.9453L165.147 64.6568C165.415 64.6843 165.684 64.6981 165.954 64.6982C166.221 64.6983 166.488 64.6845 166.754 64.6568L167.444 61.9453C167.845 61.831 168.232 61.6713 168.596 61.4693L170.977 62.9181C171.393 62.5775 171.774 62.1962 172.115 61.7797L170.666 59.3994C170.868 59.0348 171.028 58.6482 171.142 58.2473L173.798 57.5228ZM165.926 58.9027C165.49 58.9027 165.063 58.7732 164.7 58.5306C164.337 58.288 164.054 57.9432 163.887 57.5398C163.719 57.1364 163.676 56.6924 163.761 56.2642C163.846 55.8359 164.056 55.4425 164.365 55.1338C164.674 54.825 165.067 54.6147 165.496 54.5295C165.924 54.4443 166.368 54.4881 166.771 54.6552C167.175 54.8223 167.519 55.1052 167.762 55.4683C168.005 55.8314 168.134 56.2582 168.134 56.6949C168.137 56.9866 168.082 57.2759 167.972 57.5461C167.862 57.8164 167.7 58.0622 167.495 58.2694C167.29 58.4767 167.045 58.6411 166.776 58.7534C166.507 58.8656 166.218 58.9234 165.926 58.9234V58.9027Z" fill="#263238"/>
<path d="M120.535 82.809L118.203 83.1746C117.678 83.2598 117.14 83.2037 116.644 83.0121C116.148 82.8206 115.712 82.5004 115.381 82.0845L122.88 80.8979C122.691 81.3941 122.375 81.8319 121.963 82.1673C121.552 82.5028 121.059 82.724 120.535 82.809Z" fill="#263238"/>
<path d="M122.08 75.8306L114.584 77.0178L115.262 81.2973L122.758 80.11L122.08 75.8306Z" fill="#263238"/>
<path d="M127.021 61.5451C126.779 60.0152 126.216 58.5538 125.37 57.2567C124.523 55.9596 123.412 54.8562 122.109 54.019C120.806 53.1817 119.34 52.6296 117.809 52.3987C116.277 52.1678 114.714 52.2635 113.222 52.6795C108.751 53.9007 105.046 58.8889 105.184 63.5322C105.233 65.3555 105.736 67.138 106.646 68.7185C107.557 70.2989 108.847 71.6275 110.4 72.5841C112.129 73.6834 113.446 75.323 114.147 77.2481C114.201 77.3821 114.298 77.4943 114.423 77.5668C114.548 77.6393 114.693 77.6679 114.837 77.6483L121.888 76.5306C122.033 76.5056 122.166 76.4319 122.263 76.3215C122.361 76.2111 122.419 76.0707 122.426 75.9234C122.531 73.8357 123.311 71.8384 124.647 70.2314C125.636 69.0341 126.358 67.6407 126.767 66.1432C127.176 64.6458 127.263 63.0785 127.021 61.5451Z" fill="#00A8CD"/>
<path opacity="0.7" d="M127.021 61.5451C126.779 60.0152 126.216 58.5538 125.37 57.2567C124.523 55.9596 123.412 54.8562 122.109 54.019C120.806 53.1817 119.34 52.6296 117.809 52.3987C116.277 52.1678 114.714 52.2635 113.222 52.6795C108.751 53.9007 105.046 58.8889 105.184 63.5322C105.233 65.3555 105.736 67.138 106.646 68.7185C107.557 70.2989 108.847 71.6275 110.4 72.5841C112.129 73.6834 113.446 75.323 114.147 77.2481C114.201 77.3821 114.298 77.4943 114.423 77.5668C114.548 77.6393 114.693 77.6679 114.837 77.6483L121.888 76.5306C122.033 76.5056 122.166 76.4319 122.263 76.3215C122.361 76.2111 122.419 76.0707 122.426 75.9234C122.531 73.8357 123.311 71.8384 124.647 70.2314C125.636 69.0341 126.358 67.6407 126.767 66.1432C127.176 64.6458 127.263 63.0785 127.021 61.5451Z" fill="white"/>
<path d="M122.294 78.7935L115.16 79.925C114.914 79.9628 114.662 79.9012 114.46 79.7538C114.258 79.6064 114.123 79.3852 114.084 79.1385C114.065 79.017 114.069 78.8929 114.098 78.7732C114.126 78.6535 114.179 78.5407 114.251 78.4413C114.324 78.3418 114.415 78.2578 114.52 78.1939C114.625 78.13 114.742 78.0876 114.864 78.0691L122.005 76.9376C122.126 76.918 122.25 76.9226 122.37 76.9513C122.49 76.9799 122.602 77.032 122.702 77.1045C122.801 77.177 122.885 77.2684 122.949 77.3736C123.013 77.4788 123.056 77.5956 123.074 77.7173C123.112 77.9632 123.051 78.2141 122.905 78.4155C122.759 78.617 122.54 78.7529 122.294 78.7935Z" fill="#263238"/>
<path d="M122.661 81.0841L115.52 82.2432C115.273 82.2809 115.021 82.2194 114.819 82.072C114.618 81.9246 114.482 81.7034 114.443 81.4567C114.425 81.3348 114.43 81.2105 114.46 81.0908C114.489 80.9711 114.542 80.8583 114.615 80.759C114.688 80.6597 114.78 80.5758 114.885 80.512C114.991 80.4482 115.108 80.4058 115.23 80.3873L122.364 79.2558C122.61 79.2179 122.861 79.2786 123.062 79.4245C123.264 79.5705 123.399 79.79 123.44 80.0354C123.47 80.277 123.406 80.5208 123.261 80.7162C123.116 80.9116 122.901 81.0434 122.661 81.0841Z" fill="#263238"/>
<g opacity="0.5">
<path d="M122.294 78.7935L115.16 79.925C114.914 79.9628 114.662 79.9012 114.46 79.7538C114.258 79.6064 114.123 79.3852 114.084 79.1385C114.065 79.017 114.069 78.8929 114.098 78.7732C114.126 78.6535 114.179 78.5407 114.251 78.4413C114.324 78.3418 114.415 78.2578 114.52 78.1939C114.625 78.13 114.742 78.0876 114.864 78.0691L122.005 76.9376C122.126 76.918 122.25 76.9226 122.37 76.9513C122.49 76.9799 122.602 77.032 122.702 77.1045C122.801 77.177 122.885 77.2684 122.949 77.3736C123.013 77.4788 123.056 77.5956 123.074 77.7173C123.112 77.9632 123.051 78.2141 122.905 78.4155C122.759 78.617 122.54 78.7529 122.294 78.7935Z" fill="white"/>
<path d="M122.661 81.0841L115.52 82.2432C115.273 82.2809 115.021 82.2194 114.819 82.072C114.618 81.9246 114.482 81.7034 114.443 81.4567C114.425 81.3348 114.43 81.2105 114.46 81.0908C114.489 80.9711 114.542 80.8583 114.615 80.759C114.688 80.6597 114.78 80.5757 114.885 80.512C114.991 80.4482 115.108 80.4058 115.23 80.3873L122.364 79.2558C122.61 79.2179 122.861 79.2786 123.062 79.4245C123.264 79.5705 123.399 79.79 123.44 80.0354C123.47 80.277 123.406 80.5208 123.261 80.7162C123.116 80.9116 122.901 81.0434 122.661 81.0841Z" fill="white"/>
</g>
<path opacity="0.5" d="M122.694 58.468C122.239 60.3585 120.39 59.5236 118.01 58.9372C115.629 58.3507 113.601 58.2473 114.063 56.3568C114.525 54.4664 116.823 53.4108 119.217 53.9904C121.611 54.5699 123.157 56.5776 122.694 58.468Z" fill="white"/>
<path d="M109.944 50.9408L108.488 47.4153C108.438 47.2949 108.411 47.1656 108.411 47.035C108.411 46.9043 108.436 46.7749 108.486 46.6542C108.537 46.5336 108.61 46.4241 108.703 46.332C108.795 46.24 108.906 46.1673 109.027 46.1182C109.148 46.0674 109.277 46.041 109.408 46.0405C109.54 46.0401 109.669 46.0656 109.791 46.1157C109.912 46.1657 110.022 46.2392 110.115 46.332C110.207 46.4248 110.281 46.535 110.331 46.6563L111.786 50.175C111.837 50.2959 111.864 50.4257 111.864 50.5568C111.864 50.6879 111.839 50.8179 111.789 50.9391C111.739 51.0603 111.665 51.1704 111.573 51.2631C111.48 51.3557 111.37 51.4291 111.248 51.479C111.004 51.5779 110.73 51.5769 110.486 51.4763C110.242 51.3756 110.048 51.1834 109.944 50.9408Z" fill="#00A8CD"/>
<path d="M128.048 58.4404C127.949 58.1959 127.95 57.9223 128.051 57.6785C128.151 57.4347 128.344 57.2401 128.586 57.1365L132.112 55.6807C132.232 55.63 132.361 55.6037 132.492 55.6033C132.623 55.603 132.752 55.6286 132.873 55.6787C132.993 55.7287 133.103 55.8023 133.195 55.895C133.287 55.9877 133.36 56.0978 133.409 56.2188C133.46 56.3397 133.486 56.4695 133.487 56.6006C133.487 56.7318 133.461 56.8617 133.411 56.9829C133.361 57.1041 133.288 57.2143 133.195 57.3069C133.102 57.3996 132.992 57.473 132.871 57.5228L129.352 58.9786C129.231 59.0294 129.101 59.0558 128.97 59.0562C128.839 59.0567 128.709 59.0311 128.588 58.9811C128.467 58.9311 128.357 58.8575 128.264 58.7647C128.171 58.6719 128.098 58.5617 128.048 58.4404Z" fill="#00A8CD"/>
<path d="M98.9263 70.5143C98.8755 70.3934 98.8491 70.2637 98.8486 70.1325C98.8482 70.0014 98.8737 69.8715 98.9238 69.7502C98.9738 69.629 99.0473 69.5189 99.1401 69.4262C99.2329 69.3336 99.3432 69.2602 99.4644 69.2103L102.983 67.7546C103.104 67.7037 103.234 67.6774 103.365 67.6769C103.496 67.6765 103.626 67.702 103.747 67.752C103.868 67.8021 103.979 67.8756 104.071 67.9684C104.164 68.0612 104.237 68.1714 104.287 68.2927C104.386 68.5373 104.385 68.8108 104.284 69.0546C104.184 69.2985 103.992 69.4931 103.749 69.5967L100.223 71.0525C100.103 71.1032 99.9737 71.1295 99.8431 71.1298C99.7124 71.1302 99.583 71.1046 99.4624 71.0545C99.3417 71.0044 99.2322 70.9309 99.1401 70.8382C99.0481 70.7454 98.9754 70.6354 98.9263 70.5143Z" fill="#00A8CD"/>
<path d="M121.094 51.479C120.973 51.4291 120.863 51.3557 120.77 51.2631C120.677 51.1704 120.604 51.0603 120.554 50.9391C120.504 50.8179 120.478 50.6879 120.479 50.5568C120.479 50.4257 120.505 50.2959 120.556 50.175L122.012 46.6563C122.062 46.535 122.135 46.4248 122.228 46.332C122.321 46.2392 122.431 46.1657 122.552 46.1157C122.673 46.0656 122.803 46.0401 122.934 46.0405C123.065 46.041 123.195 46.0674 123.316 46.1182C123.437 46.1673 123.547 46.24 123.64 46.332C123.732 46.4241 123.806 46.5336 123.856 46.6542C123.906 46.7749 123.932 46.9043 123.931 47.035C123.931 47.1656 123.905 47.2949 123.854 47.4153L122.398 50.9408C122.295 51.1834 122.1 51.3756 121.856 51.4763C121.612 51.5769 121.339 51.5779 121.094 51.479Z" fill="#00A8CD"/>
<path d="M132.12 71.0456L128.594 69.5898C128.351 69.4862 128.159 69.2916 128.059 69.0477C127.958 68.8039 127.957 68.5303 128.056 68.2858C128.106 68.1645 128.179 68.0543 128.272 67.9615C128.364 67.8687 128.475 67.7952 128.596 67.7451C128.717 67.6951 128.847 67.6696 128.978 67.67C129.109 67.6704 129.239 67.6968 129.36 67.7477L132.879 69.2034C133 69.2533 133.11 69.3267 133.203 69.4193C133.296 69.512 133.369 69.6221 133.419 69.7433C133.469 69.8646 133.495 69.9945 133.494 70.1256C133.494 70.2568 133.468 70.3865 133.417 70.5074C133.368 70.6285 133.295 70.7385 133.203 70.8313C133.111 70.924 133.001 70.9975 132.881 71.0476C132.76 71.0976 132.631 71.1232 132.5 71.1229C132.369 71.1226 132.24 71.0963 132.12 71.0456Z" fill="#00A8CD"/>
<path d="M102.983 58.9786L99.4644 57.5228C99.3432 57.473 99.2329 57.3996 99.1401 57.3069C99.0473 57.2143 98.9738 57.1041 98.9238 56.9829C98.8737 56.8617 98.8482 56.7318 98.8486 56.6006C98.8491 56.4695 98.8755 56.3397 98.9263 56.2188C98.9754 56.0978 99.0481 55.9877 99.1401 55.895C99.2322 55.8023 99.3417 55.7287 99.4624 55.6787C99.583 55.6286 99.7124 55.603 99.8431 55.6033C99.9737 55.6037 100.103 55.63 100.223 55.6807L103.749 57.1365C103.992 57.2401 104.184 57.4347 104.284 57.6785C104.385 57.9223 104.386 58.1959 104.287 58.4404C104.237 58.5617 104.164 58.6719 104.071 58.7647C103.979 58.8575 103.868 58.9311 103.747 58.9811C103.626 59.0311 103.496 59.0567 103.365 59.0562C103.234 59.0558 103.104 59.0294 102.983 58.9786Z" fill="#00A8CD"/>
<path d="M140.64 276.095L135.638 276.019L135.369 264.407L140.364 264.483L140.64 276.095Z" fill="#FF8B7B"/>
<path d="M135.453 274.501L140.91 274.59C141.008 274.589 141.103 274.624 141.178 274.687C141.253 274.75 141.302 274.839 141.317 274.935L142.007 279.406C142.023 279.516 142.015 279.628 141.983 279.735C141.952 279.842 141.897 279.94 141.824 280.023C141.75 280.107 141.659 280.173 141.558 280.218C141.456 280.263 141.346 280.285 141.234 280.282C139.268 280.22 136.405 280.055 133.949 280.02C131.051 279.972 131.341 280.089 127.946 280.02C125.876 279.986 125.456 277.902 126.325 277.723C130.299 276.929 130.699 276.888 134.211 274.853C134.587 274.629 135.015 274.508 135.453 274.501Z" fill="#263238"/>
<path opacity="0.2" d="M135.369 264.407L135.507 270.396L140.509 270.472L140.371 264.49L135.369 264.407Z" fill="black"/>
<path d="M134.569 274.949C134.59 274.943 134.608 274.93 134.62 274.913C134.633 274.895 134.639 274.874 134.638 274.853C134.641 274.829 134.636 274.805 134.625 274.784C134.614 274.763 134.597 274.746 134.576 274.735C134.342 274.611 132.292 273.562 131.699 273.887C131.643 273.918 131.596 273.964 131.563 274.02C131.53 274.076 131.513 274.139 131.513 274.204C131.504 274.313 131.522 274.422 131.564 274.523C131.606 274.624 131.671 274.713 131.754 274.784C132.32 275.273 133.748 275.101 134.514 274.956L134.569 274.949ZM131.865 274.08C132.237 273.956 133.341 274.39 134.148 274.77C133.051 274.935 132.223 274.88 131.906 274.597C131.851 274.551 131.808 274.493 131.781 274.427C131.753 274.361 131.742 274.289 131.747 274.218C131.746 274.192 131.753 274.166 131.767 274.144C131.78 274.122 131.8 274.105 131.823 274.094L131.865 274.08Z" fill="#00A8CD"/>
<path d="M134.569 274.949C134.586 274.937 134.599 274.92 134.606 274.9C134.613 274.88 134.615 274.859 134.611 274.839C134.534 274.122 134.24 273.446 133.769 272.9C133.674 272.82 133.565 272.759 133.446 272.722C133.327 272.686 133.203 272.673 133.079 272.686C132.755 272.686 132.665 272.879 132.644 273.01C132.575 273.576 133.81 274.68 134.424 274.956C134.447 274.969 134.472 274.974 134.498 274.973C134.523 274.972 134.548 274.964 134.569 274.949ZM133.045 272.935C133.085 272.926 133.128 272.926 133.169 272.935C133.255 272.925 133.343 272.934 133.426 272.96C133.509 272.986 133.586 273.029 133.652 273.086C134.033 273.525 134.273 274.068 134.342 274.646C133.707 274.266 132.865 273.397 132.913 273.059C132.941 273.017 132.948 272.962 133.045 272.935Z" fill="#00A8CD"/>
<path d="M143.67 206.949C147.733 177.427 152.804 165.436 150.5 151.064L135.618 151.306C135.618 151.306 128.657 190.687 130.14 207.674C131.679 225.329 133.928 266.428 133.928 266.428L141.986 266.56C141.986 266.56 146.678 226.674 143.67 206.949Z" fill="#00A8CD"/>
<path opacity="0.2" d="M150.749 164.504C149.942 172.466 147.775 181.546 145.533 194.813C143.477 183.602 142.911 170.355 150.749 164.504Z" fill="black"/>
<path d="M132.699 264.407L133.368 268.319L142.234 268.498L142.586 264.8L132.699 264.407Z" fill="#00A8CD"/>
<path d="M168.982 276.095L163.973 276.019L162.317 264.407L167.326 264.483L168.982 276.095Z" fill="#FF8B7B"/>
<path d="M163.616 274.501L169.073 274.59C169.169 274.59 169.261 274.625 169.333 274.689C169.404 274.752 169.449 274.84 169.459 274.935L169.935 279.406C169.944 279.519 169.929 279.632 169.892 279.738C169.854 279.845 169.795 279.943 169.718 280.025C169.641 280.107 169.547 280.173 169.443 280.217C169.339 280.261 169.227 280.284 169.114 280.282C167.148 280.22 166.527 280.055 164.057 280.02C161.159 279.972 162.498 280.089 159.103 280.02C157.034 279.986 156.723 277.909 157.599 277.723C160.359 277.143 161.111 276.032 162.367 274.853C162.724 274.582 163.17 274.457 163.616 274.501Z" fill="#263238"/>
<path opacity="0.2" d="M162.325 264.407L163.174 270.396L168.183 270.472L167.334 264.49L162.325 264.407Z" fill="black"/>
<path d="M164.616 274.88C164.638 274.883 164.66 274.879 164.68 274.869C164.699 274.86 164.715 274.844 164.726 274.825C164.738 274.804 164.745 274.78 164.745 274.756C164.745 274.732 164.738 274.708 164.726 274.687C164.554 274.494 163.043 272.824 162.353 272.921C162.289 272.929 162.228 272.954 162.176 272.993C162.124 273.031 162.083 273.083 162.056 273.142C162.008 273.238 161.982 273.344 161.982 273.452C161.982 273.56 162.008 273.666 162.056 273.763C162.394 274.411 163.802 274.742 164.616 274.88ZM162.415 273.155C162.815 273.155 163.684 273.942 164.292 274.584C163.195 274.356 162.443 274.018 162.222 273.652C162.19 273.589 162.173 273.519 162.173 273.449C162.173 273.378 162.19 273.308 162.222 273.245C162.232 273.221 162.248 273.2 162.268 273.184C162.289 273.168 162.313 273.158 162.339 273.155H162.415Z" fill="#00A8CD"/>
<path d="M164.616 274.88C164.636 274.876 164.655 274.865 164.669 274.851C164.684 274.836 164.694 274.818 164.699 274.797C164.918 274.125 164.918 273.4 164.699 272.728C164.644 272.623 164.567 272.531 164.475 272.457C164.382 272.384 164.275 272.33 164.161 272.3C163.843 272.217 163.698 272.334 163.629 272.452C163.34 272.948 164.071 274.383 164.54 274.853C164.561 274.871 164.588 274.881 164.616 274.88ZM163.974 272.5H164.099C164.183 272.523 164.262 272.563 164.331 272.618C164.4 272.672 164.457 272.74 164.499 272.817C164.687 273.357 164.708 273.941 164.561 274.494C164.119 273.928 163.664 272.838 163.871 272.541C163.83 272.548 163.857 272.5 163.961 272.5H163.974Z" fill="#00A8CD"/>
<path d="M165.085 206.949C167.845 177.972 167.307 164.394 164.319 150.754L145.926 151.313C145.926 151.313 148.182 190.694 151.638 207.68C155.226 225.336 160.856 266.435 160.856 266.435L168.921 266.566C168.921 266.566 170.384 226.674 165.085 206.949Z" fill="#00A8CD"/>
<path d="M159.676 264.407L160.207 268.319L169.252 268.498L169.763 264.8L159.676 264.407Z" fill="#00A8CD"/>
<path d="M145.297 111.034L144.89 111.407L144.545 111.717L143.855 112.283C143.393 112.649 142.931 112.973 142.476 113.318C141.54 113.982 140.571 114.597 139.571 115.16C137.55 116.292 135.409 117.196 133.189 117.858C130.927 118.531 128.587 118.909 126.228 118.982C125.634 118.982 125.041 118.982 124.448 118.982L123.557 118.927H123.302L122.881 118.886C122.564 118.841 122.251 118.774 121.943 118.686C121.088 118.438 120.309 117.977 119.68 117.347C119.04 116.678 118.591 115.849 118.383 114.946C118.167 113.896 118.207 112.81 118.5 111.779C118.854 110.529 119.359 109.326 120.004 108.199C120.541 107.221 121.128 106.272 121.764 105.356C122.985 103.562 124.268 101.906 125.6 100.285C128.247 97.0918 131.071 94.049 134.058 91.171L137.142 93.8548C134.859 97.132 132.575 100.485 130.436 103.811C129.381 105.487 128.366 107.164 127.435 108.833C126.986 109.675 126.566 110.503 126.207 111.303C125.893 111.963 125.662 112.658 125.517 113.373C125.462 113.594 125.572 113.718 125.517 113.228C125.426 112.824 125.223 112.453 124.93 112.159C124.673 111.879 124.347 111.67 123.985 111.552C123.923 111.552 123.792 111.51 123.792 111.496H123.868H124.503C124.924 111.496 125.351 111.448 125.765 111.386C127.465 111.189 129.137 110.795 130.747 110.213C132.393 109.617 133.981 108.874 135.493 107.992C136.259 107.55 137.011 107.081 137.729 106.57C138.094 106.322 138.419 106.06 138.784 105.798L139.288 105.411L139.681 105.087L145.297 111.034Z" fill="#CE7A63"/>
<path d="M127.028 110.393L129.429 120.431C129.429 120.431 142.462 118.272 148.058 111.717C152.004 107.095 146.678 103.134 138.398 104.756C133.3 105.763 127.028 110.393 127.028 110.393Z" fill="#00A8CD"/>
<path opacity="0.7" d="M127.028 110.393L129.429 120.431C129.429 120.431 142.462 118.272 148.058 111.717C152.004 107.095 146.678 103.134 138.398 104.756C133.3 105.763 127.028 110.393 127.028 110.393Z" fill="white"/>
<path d="M133.3 92.5923L133.493 86.3207L139.137 88.4458C139.137 88.4458 138.005 94.2964 136.142 94.3171L133.3 92.5923Z" fill="#CE7A63"/>
<path d="M137.811 82.7469L141.351 85.2444L139.129 88.4526L133.492 86.3276L137.811 82.7469Z" fill="#CE7A63"/>
<path d="M135.252 151.989L139.357 154.059L144.476 151.299L149.568 154.749L164.36 151.989C164.567 149.388 163.967 140.95 164.416 130.159C164.687 122.168 165.655 114.215 167.306 106.391C167.438 105.805 167.569 105.225 167.707 104.632C167.707 104.632 166.237 104.335 164.119 104.025C162.367 103.769 160.166 103.507 158.006 103.404C153.886 103.165 149.756 103.165 145.636 103.404C143.731 103.576 141.875 103.893 140.392 104.176C138.495 104.563 137.377 104.866 137.377 104.866C137.377 104.866 130.209 121.376 135.252 151.989Z" fill="#263238"/>
<path opacity="0.3" d="M164.415 130.166C164.687 122.172 165.654 114.217 167.306 106.391C165.361 106.225 162.035 106.391 161.483 109.558C160.89 112.959 161.635 120.88 164.415 130.166Z" fill="black"/>
<path d="M169.396 108.137C169.969 109.027 170.452 109.813 170.928 110.662C171.404 111.51 171.88 112.338 172.308 113.187C173.228 114.884 174.067 116.618 174.826 118.389C176.447 122.001 177.668 125.779 178.469 129.656L178.538 130.028L178.579 130.214L178.627 130.525C178.692 130.936 178.724 131.351 178.724 131.767C178.718 132.463 178.642 133.156 178.496 133.837C178.249 134.96 177.891 136.055 177.427 137.107C176.603 138.954 175.622 140.727 174.495 142.406C172.362 145.593 169.934 148.573 167.243 151.306L164.022 148.788C165.788 145.676 167.582 142.482 169.051 139.322C169.783 137.816 170.406 136.26 170.914 134.665C171.128 134.003 171.274 133.321 171.349 132.629C171.37 132.4 171.37 132.169 171.349 131.939C171.345 131.893 171.331 131.848 171.307 131.808L171.266 131.656L171.176 131.36L170.831 130.173L170.417 128.979C170.148 128.179 169.838 127.379 169.52 126.585C168.879 124.992 168.14 123.405 167.402 121.832C166.664 120.259 165.829 118.693 164.994 117.133C164.58 116.361 164.153 115.588 163.711 114.822L162.428 112.6L169.396 108.137Z" fill="#CE7A63"/>
<path d="M160.476 114.574C161.704 118.216 166.389 125.916 166.389 125.916L177.428 119.81C177.428 119.81 172.598 105.763 167.714 104.632C162.284 103.452 158.255 107.971 160.476 114.574Z" fill="#00A8CD"/>
<path opacity="0.7" d="M160.476 114.574C161.704 118.216 166.389 125.916 166.389 125.916L177.428 119.81C177.428 119.81 172.598 105.763 167.714 104.632C162.284 103.452 158.255 107.971 160.476 114.574Z" fill="white"/>
<path d="M165.498 147.587L160.075 146.642L162.835 152.913C162.835 152.913 167.782 152.913 167.554 150.333L165.498 147.587Z" fill="#CE7A63"/>
<path d="M156.033 149.795L158.579 154.859L162.864 152.913L160.083 146.642L156.033 149.795Z" fill="#CE7A63"/>
<path d="M146.401 114.47C146.401 114.47 141.958 111.669 144.718 103.528L145.636 103.431C149.756 103.193 153.886 103.193 158.006 103.431C158.489 103.431 158.979 103.486 159.462 103.521C154.809 106.797 150.44 110.46 146.401 114.47Z" fill="#00A8CD"/>
<path opacity="0.7" d="M146.401 114.47C146.401 114.47 141.958 111.669 144.718 103.528L145.636 103.431C149.756 103.193 153.886 103.193 158.006 103.431C158.489 103.431 158.979 103.486 159.462 103.521C154.809 106.797 150.44 110.46 146.401 114.47Z" fill="white"/>
<path d="M150.645 106.791C157.544 106.667 158.482 103.459 158.482 103.459C155.785 100.802 156.82 93.5375 157.737 89.5496L154.426 92.3094L149.92 96.0419C150.053 96.6428 150.15 97.251 150.21 97.8634C150.452 100.306 149.817 102.534 146.222 103.383C146.222 103.383 141.952 106.212 148.292 106.722L150.645 106.791Z" fill="#CE7A63"/>
<path opacity="0.2" d="M149.92 96.0419C150.052 96.6428 150.149 97.251 150.21 97.8634C151.886 97.5253 154.135 95.7315 154.349 94.0135C154.434 93.4449 154.452 92.8685 154.405 92.2956L149.92 96.0419Z" fill="black"/>
<path d="M142.538 78.4624C140.407 80.4908 141.469 88.1215 145.229 88.5354C148.989 88.9494 146.575 74.6539 142.538 78.4624Z" fill="#263238"/>
<path d="M156.771 82.1742C157.42 87.5488 158.075 90.6535 155.916 93.9652C155.224 95.0452 154.25 95.9158 153.1 96.483C151.949 97.0502 150.666 97.2926 149.388 97.184C148.11 97.0753 146.886 96.6198 145.847 95.8666C144.809 95.1133 143.996 94.0909 143.497 92.9096C141.489 88.3906 140.737 80.3597 145.567 77.117C146.58 76.397 147.764 75.9549 149.002 75.8347C150.239 75.7144 151.486 75.9203 152.619 76.4317C153.753 76.9431 154.732 77.7423 155.46 78.7498C156.189 79.7573 156.641 80.9379 156.771 82.1742Z" fill="#CE7A63"/>
<path d="M160.856 75.1921C163.657 75.4336 163.437 79.2351 162.519 81.9259C161.243 85.6653 158.6 89.2599 156.475 88.4802C155.62 88.3699 154.061 90.2948 153.44 88.3975C153.115 87.4177 154.412 85.6377 154.433 83.906C154.454 82.1742 153.191 80.4908 153.281 79.6905C150.48 79.0005 143.553 84.2647 138.903 78.9384C136.833 76.5513 137.426 67.8236 142.166 69.6933C145.16 70.88 149.334 74.3711 152.425 72.453C157.193 69.4863 162.285 71.4733 160.856 75.1921Z" fill="#263238"/>
<path d="M159.739 86.99C159.268 88.2461 158.379 89.3014 157.22 89.9774C155.737 90.7984 154.875 89.46 155.185 87.7696C155.468 86.2449 156.565 83.9888 158.11 83.8715C159.656 83.7542 160.332 85.4031 159.739 86.99Z" fill="#CE7A63"/>
<path d="M149.058 85.41C149.133 85.8378 148.975 86.238 148.692 86.3C148.409 86.3621 148.119 86.0655 148.043 85.6101C147.967 85.1548 148.126 84.7753 148.409 84.7132C148.692 84.6511 148.975 85.003 149.058 85.41Z" fill="#263238"/>
<path d="M144.207 86.4725C144.29 86.9003 144.124 87.3005 143.848 87.3625C143.572 87.4246 143.275 87.128 143.158 86.6726C143.041 86.2173 143.241 85.8378 143.524 85.7757C143.807 85.7136 144.131 86.0379 144.207 86.4725Z" fill="#263238"/>
<path d="M145.787 86.3828C145.512 87.8175 145.048 89.2095 144.407 90.5225C144.743 90.668 145.107 90.7379 145.473 90.7272C145.839 90.7164 146.198 90.6254 146.525 90.4604L145.787 86.3828Z" fill="#BA4D3C"/>
<path d="M150.264 83.4989C150.306 83.4853 150.344 83.4616 150.375 83.4299C150.422 83.381 150.449 83.3154 150.449 83.2471C150.449 83.1788 150.422 83.1132 150.375 83.0643C150.078 82.7876 149.717 82.5881 149.325 82.4834C148.933 82.3788 148.521 82.3721 148.126 82.464C148.06 82.4848 148.005 82.53 147.971 82.5903C147.938 82.6507 147.929 82.7215 147.946 82.7883C147.967 82.8538 148.012 82.9085 148.073 82.9408C148.134 82.973 148.205 82.9802 148.27 82.9608C148.581 82.8928 148.904 82.9019 149.211 82.9873C149.518 83.0727 149.799 83.2317 150.03 83.4506C150.062 83.4778 150.1 83.4965 150.141 83.5049C150.182 83.5133 150.224 83.5113 150.264 83.4989Z" fill="#263238"/>
<path d="M141.848 85.2513C141.887 85.2357 141.922 85.2115 141.951 85.1804C141.98 85.1494 142.001 85.1123 142.014 85.072C142.093 84.7544 142.244 84.459 142.454 84.2081C142.665 83.9571 142.929 83.7571 143.228 83.6231C143.292 83.6002 143.344 83.5528 143.373 83.4914C143.402 83.4299 143.406 83.3594 143.383 83.2954C143.36 83.2313 143.313 83.179 143.251 83.1499C143.19 83.1208 143.119 83.1173 143.055 83.1401C142.675 83.3031 142.338 83.5517 142.07 83.8664C141.802 84.1812 141.61 84.5536 141.51 84.9547C141.493 85.0214 141.503 85.0922 141.538 85.1515C141.573 85.2109 141.63 85.2542 141.696 85.272C141.748 85.2792 141.8 85.2721 141.848 85.2513Z" fill="#263238"/>
<path d="M140.283 86.5346L140.745 88.6044C140.776 88.7408 140.852 88.8626 140.961 88.9503C141.07 89.0379 141.205 89.0862 141.345 89.0874C141.391 89.0941 141.437 89.0941 141.483 89.0874L144.816 88.3423C144.973 88.306 145.111 88.2088 145.197 88.0718C145.284 87.9348 145.313 87.7692 145.278 87.6109L144.898 85.9344C145.058 85.7714 145.261 85.6566 145.483 85.603C145.705 85.5493 145.937 85.5589 146.154 85.6308L146.533 87.328C146.565 87.4644 146.641 87.5862 146.75 87.6739C146.859 87.7615 146.994 87.8098 147.134 87.811C147.177 87.8176 147.221 87.8176 147.265 87.811L151.598 86.8451C151.756 86.8073 151.893 86.7087 151.98 86.5706C152.066 86.4325 152.095 86.266 152.06 86.1069L151.591 84.0371C151.561 83.9001 151.485 83.7776 151.376 83.6897C151.267 83.6019 151.131 83.554 150.99 83.5541H150.859L146.533 84.5269C146.455 84.5441 146.38 84.5766 146.314 84.6227C146.247 84.6687 146.191 84.7274 146.147 84.7953C146.104 84.8633 146.074 84.9391 146.06 85.0185C146.045 85.098 146.047 85.1794 146.064 85.2582C145.847 85.2141 145.624 85.2158 145.407 85.2634C145.191 85.3109 144.987 85.4032 144.809 85.5342C144.778 85.3979 144.701 85.276 144.592 85.1884C144.484 85.1008 144.348 85.0524 144.208 85.0513C144.165 85.0446 144.121 85.0446 144.077 85.0513L140.745 85.7964C140.666 85.8143 140.591 85.8476 140.525 85.8945C140.459 85.9413 140.403 86.0007 140.36 86.0694C140.317 86.138 140.288 86.2144 140.275 86.2942C140.262 86.3741 140.264 86.4558 140.283 86.5346ZM146.609 84.8581L150.935 83.8853H150.99C151.049 83.8851 151.106 83.9048 151.153 83.9411C151.199 83.9774 151.232 84.0282 151.246 84.0854L151.708 86.1552C151.721 86.1857 151.728 86.2186 151.728 86.2517C151.728 86.2849 151.721 86.3178 151.708 86.3483C151.691 86.3767 151.667 86.4011 151.64 86.4201C151.613 86.4391 151.582 86.4523 151.549 86.4587L147.223 87.4315H147.168C147.111 87.4301 147.055 87.4098 147.01 87.3736C146.965 87.3374 146.933 87.2875 146.92 87.2315L146.451 85.1616C146.433 85.1004 146.44 85.0346 146.469 84.9781C146.499 84.9216 146.549 84.8786 146.609 84.8581ZM140.821 86.1552L144.153 85.4031H144.208C144.267 85.4042 144.323 85.4243 144.37 85.4604C144.416 85.4965 144.449 85.5466 144.464 85.6032L144.926 87.673C144.934 87.7058 144.936 87.74 144.93 87.7734C144.924 87.8067 144.911 87.8384 144.891 87.8662C144.874 87.8945 144.851 87.919 144.824 87.938C144.796 87.957 144.765 87.9701 144.733 87.9766L141.4 88.7286H141.345C141.287 88.7272 141.232 88.7069 141.187 88.6707C141.142 88.6345 141.11 88.5846 141.097 88.5285L140.628 86.4587C140.613 86.3929 140.625 86.324 140.662 86.2671C140.698 86.2102 140.755 86.17 140.821 86.1552Z" fill="#00A8CD"/>
<path opacity="0.5" d="M140.283 86.5346L140.745 88.6044C140.776 88.7408 140.852 88.8626 140.961 88.9503C141.07 89.0379 141.205 89.0862 141.345 89.0874C141.391 89.0941 141.437 89.0941 141.483 89.0874L144.816 88.3423C144.973 88.306 145.111 88.2088 145.197 88.0718C145.284 87.9348 145.313 87.7692 145.278 87.6109L144.898 85.9344C145.058 85.7714 145.261 85.6566 145.483 85.603C145.705 85.5493 145.937 85.5589 146.154 85.6308L146.533 87.328C146.565 87.4644 146.641 87.5862 146.75 87.6739C146.859 87.7615 146.994 87.8098 147.134 87.811C147.177 87.8176 147.221 87.8176 147.265 87.811L151.598 86.8451C151.756 86.8073 151.893 86.7087 151.98 86.5706C152.066 86.4325 152.095 86.266 152.06 86.1069L151.591 84.0371C151.561 83.9001 151.485 83.7776 151.376 83.6897C151.267 83.6019 151.131 83.554 150.99 83.5541H150.859L146.533 84.5269C146.455 84.5441 146.38 84.5766 146.314 84.6227C146.247 84.6687 146.191 84.7274 146.147 84.7953C146.104 84.8633 146.074 84.9391 146.06 85.0185C146.045 85.098 146.047 85.1794 146.064 85.2582C145.847 85.2141 145.624 85.2158 145.407 85.2634C145.191 85.3109 144.987 85.4032 144.809 85.5342C144.778 85.3979 144.701 85.276 144.592 85.1884C144.484 85.1008 144.348 85.0524 144.208 85.0513C144.165 85.0446 144.121 85.0446 144.077 85.0513L140.745 85.7964C140.666 85.8143 140.591 85.8476 140.525 85.8945C140.459 85.9413 140.403 86.0007 140.36 86.0694C140.317 86.138 140.288 86.2144 140.275 86.2942C140.262 86.3741 140.264 86.4558 140.283 86.5346ZM146.609 84.8581L150.935 83.8853H150.99C151.049 83.8851 151.106 83.9048 151.153 83.9411C151.199 83.9774 151.232 84.0282 151.246 84.0854L151.708 86.1552C151.721 86.1857 151.728 86.2186 151.728 86.2517C151.728 86.2849 151.721 86.3178 151.708 86.3483C151.691 86.3767 151.667 86.4011 151.64 86.4201C151.613 86.4391 151.582 86.4523 151.549 86.4587L147.223 87.4315H147.168C147.111 87.4301 147.055 87.4098 147.01 87.3736C146.965 87.3374 146.933 87.2875 146.92 87.2315L146.451 85.1616C146.433 85.1004 146.44 85.0346 146.469 84.9781C146.499 84.9216 146.549 84.8786 146.609 84.8581ZM140.821 86.1552L144.153 85.4031H144.208C144.267 85.4042 144.323 85.4243 144.37 85.4604C144.416 85.4965 144.449 85.5466 144.464 85.6032L144.926 87.673C144.934 87.7058 144.936 87.74 144.93 87.7734C144.924 87.8067 144.911 87.8384 144.891 87.8662C144.874 87.8945 144.851 87.919 144.824 87.938C144.796 87.957 144.765 87.9701 144.733 87.9766L141.4 88.7286H141.345C141.287 88.7272 141.232 88.7069 141.187 88.6707C141.142 88.6345 141.11 88.5846 141.097 88.5285L140.628 86.4587C140.613 86.3929 140.625 86.324 140.662 86.2671C140.698 86.2102 140.755 86.17 140.821 86.1552Z" fill="white"/>
<path d="M146.746 91.033C147.712 91.1848 149.802 88.0594 150.582 90.2258C151.362 92.3922 151.065 97.3666 149.892 96.0419C149.892 96.0419 149.851 97.8013 148.512 96.2627C148.512 96.2627 148.823 97.6426 147.401 96.2627C147.401 96.2627 147.464 97.3942 145.911 95.904C144.359 94.4137 142.13 90.3224 146.746 91.033Z" fill="#263238"/>
<path opacity="0.4" d="M146.746 91.033C147.712 91.1848 149.802 88.0594 150.582 90.2258C151.362 92.3922 151.065 97.3666 149.892 96.0419C149.892 96.0419 149.851 97.8013 148.512 96.2627C148.512 96.2627 148.823 97.6426 147.401 96.2627C147.401 96.2627 147.464 97.3942 145.911 95.904C144.359 94.4137 142.13 90.3224 146.746 91.033Z" fill="white"/>
<path d="M146.077 92.2956C146.583 92.315 147.088 92.2328 147.562 92.0538C148.036 91.8749 148.469 91.6029 148.836 91.2538C148.86 91.2282 148.873 91.1941 148.871 91.1592C148.87 91.1243 148.855 91.0913 148.829 91.0675C148.804 91.0437 148.77 91.0311 148.735 91.0324C148.7 91.0337 148.667 91.0488 148.643 91.0744C148.239 91.4527 147.753 91.7328 147.223 91.8931C146.693 92.0535 146.133 92.0897 145.587 91.9989C145.57 91.996 145.554 91.9963 145.537 91.9999C145.521 92.0036 145.506 92.0104 145.492 92.0201C145.479 92.0297 145.467 92.042 145.459 92.0561C145.45 92.0703 145.444 92.086 145.442 92.1024C145.439 92.1367 145.449 92.1708 145.469 92.1986C145.489 92.2264 145.519 92.2461 145.552 92.2542L146.077 92.2956Z" fill="#263238"/>
</g>
<defs>
<clipPath id="clip0_43_3814">
<rect width="308" height="308" fill="white" transform="translate(0.957031)"/>
</clipPath>
</defs>
</svg>
