<svg width="385" height="384" viewBox="0 0 385 384" fill="none" xmlns="http://www.w3.org/2000/svg">
<path d="M69.4648 109.365V186.188C69.4648 189.062 71.4457 191.392 73.8852 191.392H92.8551" stroke="#B7E5FA" stroke-width="1.53437" stroke-miterlimit="10"/>
<path d="M74.4582 159.425C74.4582 162.278 72.1416 164.592 69.2887 164.592C66.4327 164.592 64.1191 162.278 64.1191 159.425C64.1191 156.569 66.4327 154.253 69.2887 154.253C72.1416 154.253 74.4582 156.569 74.4582 159.425Z" fill="#00B2E9"/>
<path d="M75.0324 159.425C75.0324 162.278 72.7159 164.592 69.8629 164.592C67.0069 164.592 64.6934 162.278 64.6934 159.425C64.6934 156.569 67.0069 154.253 69.8629 154.253C72.7159 154.253 75.0324 156.569 75.0324 159.425Z" stroke="#B7E5FA" stroke-width="1.53437" stroke-miterlimit="10"/>
<path d="M72.3786 159.38C72.3786 160.786 71.2398 161.924 69.8373 161.924C68.4318 161.924 67.293 160.786 67.293 159.38C67.293 157.978 68.4318 156.839 69.8373 156.839C71.2398 156.839 72.3786 157.978 72.3786 159.38Z" fill="white"/>
<path d="M94.9833 287.123H66.933C62.8304 287.123 59.5039 283.793 59.5039 279.691V253.4H103.56V278.543C103.56 283.281 99.7213 287.123 94.9833 287.123Z" stroke="#B7E5FA" stroke-width="1.53437" stroke-miterlimit="10"/>
<path d="M84.7844 286.47C84.7844 289.326 82.4708 291.642 79.6148 291.642C76.7589 291.642 74.4453 289.326 74.4453 286.47C74.4453 283.617 76.7589 281.3 79.6148 281.3C82.4708 281.3 84.7844 283.617 84.7844 286.47Z" fill="#00B2E9"/>
<path d="M84.7844 286.47C84.7844 289.326 82.4708 291.642 79.6148 291.642C76.7589 291.642 74.4453 289.326 74.4453 286.47C74.4453 283.617 76.7589 281.3 79.6148 281.3C82.4708 281.3 84.7844 283.617 84.7844 286.47Z" stroke="#B7E5FA" stroke-width="1.53437" stroke-miterlimit="10"/>
<path d="M82.1316 286.431C82.1316 287.833 80.9928 288.972 79.5873 288.972C78.1818 288.972 77.043 287.833 77.043 286.431C77.043 285.025 78.1818 283.886 79.5873 283.886C80.9928 283.886 82.1316 285.025 82.1316 286.431Z" fill="white"/>
<path d="M237.177 302.11L236.146 310.007C236.146 314.745 232.304 318.584 227.566 318.584H199.519C195.416 318.584 192.09 315.257 192.09 311.154V284.863H202.86" stroke="#B7E5FA" stroke-width="1.53437" stroke-miterlimit="10"/>
<path d="M211.984 319.177C211.984 322.033 209.67 324.349 206.814 324.349C203.958 324.349 201.645 322.033 201.645 319.177C201.645 316.324 203.958 314.007 206.814 314.007C209.67 314.007 211.984 316.324 211.984 319.177Z" fill="#00B2E9"/>
<path d="M211.984 319.177C211.984 322.033 209.67 324.349 206.814 324.349C203.958 324.349 201.645 322.033 201.645 319.177C201.645 316.324 203.958 314.007 206.814 314.007C209.67 314.007 211.984 316.324 211.984 319.177Z" stroke="#B7E5FA" stroke-width="1.53437" stroke-miterlimit="10"/>
<path d="M209.33 319.138C209.33 320.541 208.191 321.679 206.788 321.679C205.383 321.679 204.244 320.541 204.244 319.138C204.244 317.732 205.383 316.594 206.788 316.594C208.191 316.594 209.33 317.732 209.33 319.138Z" fill="white"/>
<path d="M247.355 301.4C247.355 304.13 213.677 306.345 172.132 306.345C130.587 306.345 96.9082 304.13 96.9082 301.4C96.9082 298.67 130.587 296.458 172.132 296.458C213.677 296.458 247.355 298.67 247.355 301.4Z" fill="#00A3E1"/>
<path d="M305.197 70.9649C305.197 73.5452 304.705 75.9996 303.812 78.2382H269.981C269.091 75.9996 268.6 73.5452 268.6 70.9649C268.6 68.975 268.89 67.054 269.433 65.2499C271.77 57.5211 278.705 51.9201 286.898 51.9201C294.54 51.9201 301.082 56.7839 303.821 63.7096C304.705 65.9482 305.197 68.3936 305.197 70.9649Z" fill="white"/>
<path d="M322.435 78.2381H292.191C293.028 72.0077 297.337 66.9311 303.022 65.2079C304.385 64.7854 305.827 64.5636 307.313 64.5636C315.021 64.5636 321.401 70.5063 322.435 78.2381Z" fill="white"/>
<path d="M279.662 78.2381H257.146C257.158 71.78 262.19 66.5475 268.403 66.5475C268.717 66.5475 269.029 66.5625 269.338 66.5895C275.103 67.084 279.647 72.1036 279.662 78.2381Z" fill="white"/>
<path d="M288.865 90.5701V71.6451H277.657V90.5701H273.848L278.556 95.9524L283.261 101.338L287.966 95.9524L292.674 90.5701H288.865Z" fill="#0096D9"/>
<path d="M326.785 177.034V229.158C326.785 233.944 322.907 237.822 318.121 237.822H294.219" stroke="#B7E5FA" stroke-width="1.53437" stroke-miterlimit="10"/>
<path d="M331.642 207.32C331.642 210.176 329.328 212.49 326.472 212.49C323.616 212.49 321.303 210.176 321.303 207.32C321.303 204.467 323.616 202.151 326.472 202.151C329.328 202.151 331.642 204.467 331.642 207.32Z" fill="#00B2E9"/>
<path d="M331.642 207.32C331.642 210.176 329.328 212.49 326.472 212.49C323.616 212.49 321.303 210.176 321.303 207.32C321.303 204.467 323.616 202.151 326.472 202.151C329.328 202.151 331.642 204.467 331.642 207.32Z" stroke="#B7E5FA" stroke-width="1.53437" stroke-miterlimit="10"/>
<path d="M328.989 207.281C328.989 208.684 327.85 209.823 326.445 209.823C325.039 209.823 323.9 208.684 323.9 207.281C323.9 205.876 325.039 204.737 326.445 204.737C327.85 204.737 328.989 205.876 328.989 207.281Z" fill="white"/>
<path d="M144.418 91.2053L133.848 86.2816V72.3673C133.848 69.4724 131.501 67.1258 128.606 67.1258H91.05C88.1551 67.1258 85.8086 69.4724 85.8086 72.3673V97.184C85.8086 100.079 88.1551 102.428 91.05 102.428H128.606C131.501 102.428 133.848 100.079 133.848 97.184V93.5878L144.418 91.2053Z" fill="white"/>
<path d="M212.766 296.368H174.287V248.269H212.766V296.368Z" fill="#E7E7E7"/>
<path d="M310.142 119.462V265.818C310.142 268.396 308.053 270.482 305.485 270.482H81.6102C79.0419 270.482 76.9531 268.396 76.9531 265.818V119.462C76.9531 116.882 79.0419 114.796 81.6102 114.796H305.485C308.053 114.796 310.142 116.882 310.142 119.462Z" fill="white"/>
<path d="M310.718 119.462V237.154H77.5293V119.462C77.5293 116.882 79.6181 114.796 82.1864 114.796H306.061C308.63 114.796 310.718 116.882 310.718 119.462Z" fill="#101011"/>
<path d="M233.267 300.084H154.852C154.897 297.084 157.345 294.669 160.36 294.669H227.755C230.773 294.669 233.219 297.084 233.267 300.084Z" fill="white"/>
<path d="M300.845 125.882V226.368C300.845 227.75 299.724 228.868 298.342 228.868H87.7043C86.3228 228.868 85.2109 227.75 85.2109 226.368V125.882C85.2109 124.5 86.3228 123.382 87.7043 123.382H298.342C299.724 123.382 300.845 124.5 300.845 125.882Z" fill="#222C39"/>
<path d="M198.93 252.318C198.93 255.18 196.611 257.499 193.749 257.499C190.887 257.499 188.564 255.18 188.564 252.318C188.564 249.456 190.887 247.136 193.749 247.136C196.611 247.136 198.93 249.456 198.93 252.318Z" fill="#E7E7E7"/>
<path d="M300.845 125.882V138.594H85.2109V125.882C85.2109 124.5 86.3228 123.382 87.7043 123.382H298.342C299.724 123.382 300.845 124.5 300.845 125.882Z" fill="white"/>
<path d="M276.883 131.369C276.883 132.454 276.005 133.332 274.92 133.332C273.835 133.332 272.957 132.454 272.957 131.369C272.957 130.284 273.835 129.406 274.92 129.406C276.005 129.406 276.883 130.284 276.883 131.369Z" fill="#F5851F"/>
<path d="M285.502 131.369C285.502 132.454 284.621 133.332 283.539 133.332C282.454 133.332 281.576 132.454 281.576 131.369C281.576 130.284 282.454 129.406 283.539 129.406C284.621 129.406 285.502 130.284 285.502 131.369Z" fill="#0096D9"/>
<path d="M294.118 131.369C294.118 132.454 293.24 133.332 292.158 133.332C291.073 133.332 290.195 132.454 290.195 131.369C290.195 130.284 291.073 129.406 292.158 129.406C293.24 129.406 294.118 130.284 294.118 131.369Z" fill="#00A3E1"/>
<path d="M113.018 150.923H97.5098V146.542H113.018V150.923Z" fill="#0096D9"/>
<path d="M155.449 150.923H118.273V146.799H155.449V150.923Z" fill="#0096D9"/>
<path d="M113.018 162.137H97.5098V157.756H113.018V162.137Z" fill="#FFD820"/>
<path d="M145.482 162.137H118.273V158.014H145.482V162.137Z" fill="#00A77D"/>
<path d="M187.647 162.137H150.969V158.014H187.647V162.137Z" fill="#0096D9"/>
<path d="M145.482 172.06H118.273V167.936H145.482V172.06Z" fill="#0096D9"/>
<path d="M187.647 172.06H150.969V167.936H187.647V172.06Z" fill="#00A3E1"/>
<path d="M145.482 181.985H118.273V177.862H145.482V181.985Z" fill="#0096D9"/>
<path d="M187.647 181.985H150.969V177.862H187.647V181.985Z" fill="#0096D9"/>
<path d="M113.018 191.911H97.5098V187.532H113.018V191.911Z" fill="#FFD820"/>
<path d="M145.482 191.911H118.273V187.787H145.482V191.911Z" fill="#00A77D"/>
<path d="M145.482 201.836H118.273V197.713H145.482V201.836Z" fill="#0096D9"/>
<path d="M187.647 201.836H150.969V197.713H187.647V201.836Z" fill="#0096D9"/>
<path d="M145.482 211.759H118.273V207.635H145.482V211.759Z" fill="#0096D9"/>
<path d="M187.647 211.759H150.969V207.635H187.647V211.759Z" fill="#0096D9"/>
<path d="M145.482 221.684H118.273V217.561H145.482V221.684Z" fill="#0096D9"/>
<path d="M187.647 221.684H150.969V217.561H187.647V221.684Z" fill="#0096D9"/>
<path d="M214.457 150.923H198.945V146.542H214.457V150.923Z" fill="#0096D9"/>
<path d="M256.89 150.923H219.711V146.8H256.89V150.923Z" fill="#0096D9"/>
<path d="M214.457 162.137H198.945V157.756H214.457V162.137Z" fill="#FFD820"/>
<path d="M246.922 162.137H219.711V158.014H246.922V162.137Z" fill="#00A77D"/>
<path d="M289.083 162.137H252.408V158.014H289.083V162.137Z" fill="#0096D9"/>
<path d="M246.922 172.06H219.711V167.936H246.922V172.06Z" fill="#0096D9"/>
<path d="M289.083 172.06H252.408V167.936H289.083V172.06Z" fill="#00A3E1"/>
<path d="M246.922 181.985H219.711V177.862H246.922V181.985Z" fill="#0096D9"/>
<path d="M289.083 181.985H252.408V177.862H289.083V181.985Z" fill="#0096D9"/>
<path d="M214.457 191.911H198.945V187.532H214.457V191.911Z" fill="#FFD820"/>
<path d="M246.922 191.911H219.711V187.787H246.922V191.911Z" fill="#00A77D"/>
<path d="M289.083 191.911H252.408V187.787H289.083V191.911Z" fill="#0096D9"/>
<path d="M289.083 201.836H252.408V197.713H289.083V201.836Z" fill="#0096D9"/>
<path d="M246.922 211.759H219.711V207.635H246.922V211.759Z" fill="#0096D9"/>
<path d="M289.083 211.759H252.408V207.635H289.083V211.759Z" fill="#0096D9"/>
<path d="M246.922 221.684H219.711V217.561H246.922V221.684Z" fill="#0096D9"/>
<path d="M289.083 221.684H252.408V217.561H289.083V221.684Z" fill="#0096D9"/>
<path d="M212.766 280.881L174.338 273.421V270.419H212.766V280.881Z" fill="#101011"/>
<path d="M123.627 117.574H76.2642C71.7132 117.574 68.0215 114.835 68.0215 111.455V76.2752C68.0215 72.8918 71.7132 70.1527 76.2642 70.1527H123.627C128.178 70.1527 131.87 72.8918 131.87 76.2752V111.455C131.87 114.835 128.178 117.574 123.627 117.574Z" fill="#0096D9"/>
<path d="M76.8827 88.734H79.5013L82.2671 95.4818H82.3848L85.1506 88.734H87.7693V98.7772H85.7097V92.2403H85.6263L83.0272 98.7282H81.6247L79.0257 92.2158H78.9423V98.7772H76.8827V88.734ZM90.7693 101.602C90.5045 101.602 90.256 101.581 90.0239 101.538C89.795 101.499 89.6054 101.448 89.455 101.386L89.9258 99.8266C90.171 99.9018 90.3917 99.9427 90.5878 99.9492C90.7873 99.9558 90.9589 99.91 91.1027 99.8119C91.2499 99.7139 91.3692 99.5471 91.4607 99.3117L91.5833 98.993L88.8813 91.2448H91.0782L92.6377 96.7764H92.7161L94.2903 91.2448H96.5019L93.5743 99.5913C93.4337 99.9966 93.2425 100.35 93.0005 100.651C92.7619 100.955 92.4595 101.188 92.0933 101.352C91.7272 101.518 91.2858 101.602 90.7693 101.602ZM103.058 91.6224C103.019 91.2268 102.851 90.9195 102.553 90.7005C102.256 90.4815 101.852 90.3719 101.342 90.3719C100.996 90.3719 100.703 90.421 100.464 90.5191C100.226 90.6139 100.043 90.7463 99.915 90.9163C99.7908 91.0863 99.7287 91.2792 99.7287 91.4949C99.7222 91.6747 99.7597 91.8317 99.8415 91.9657C99.9265 92.0997 100.043 92.2158 100.19 92.3139C100.337 92.4087 100.507 92.4921 100.7 92.564C100.893 92.6326 101.099 92.6915 101.318 92.7405L102.22 92.9563C102.658 93.0544 103.06 93.1851 103.426 93.3486C103.792 93.5121 104.11 93.7131 104.378 93.9518C104.646 94.1904 104.853 94.4716 105 94.7952C105.151 95.1189 105.228 95.49 105.231 95.9084C105.228 96.5231 105.071 97.0559 104.76 97.5071C104.453 97.955 104.008 98.3032 103.426 98.5516C102.848 98.7968 102.15 98.9194 101.332 98.9194C100.521 98.9194 99.8153 98.7952 99.2138 98.5467C98.6155 98.2983 98.148 97.9305 97.8113 97.4434C97.4778 96.953 97.3029 96.3465 97.2865 95.624H99.3413C99.3642 95.9607 99.4606 96.2419 99.6306 96.4675C99.8039 96.6898 100.034 96.8582 100.322 96.9726C100.613 97.0837 100.942 97.1393 101.308 97.1393C101.667 97.1393 101.98 97.087 102.244 96.9824C102.512 96.8778 102.72 96.7323 102.867 96.5459C103.014 96.3596 103.088 96.1455 103.088 95.9035C103.088 95.678 103.021 95.4883 102.887 95.3347C102.756 95.181 102.563 95.0503 102.308 94.9424C102.056 94.8345 101.747 94.7364 101.381 94.6481L100.288 94.3735C99.441 94.1676 98.7724 93.8455 98.282 93.4074C97.7917 92.9694 97.5481 92.3793 97.5514 91.6371C97.5481 91.0291 97.7099 90.4978 98.0368 90.0434C98.367 89.5889 98.8198 89.2342 99.3952 88.9792C99.9706 88.7242 100.624 88.5967 101.357 88.5967C102.102 88.5967 102.753 88.7242 103.309 88.9792C103.868 89.2342 104.302 89.5889 104.613 90.0434C104.924 90.4978 105.084 91.0242 105.094 91.6224H103.058ZM111.597 101.602V97.5709H111.534C111.436 97.7801 111.297 97.9877 111.117 98.1937C110.94 98.3963 110.71 98.5647 110.425 98.6988C110.144 98.8328 109.801 98.8998 109.395 98.8998C108.823 98.8998 108.305 98.7527 107.841 98.4585C107.38 98.161 107.014 97.7245 106.742 97.1491C106.474 96.5705 106.34 95.861 106.34 95.0208C106.34 94.1577 106.479 93.4401 106.757 92.868C107.035 92.2926 107.405 91.8627 107.865 91.5783C108.33 91.2906 108.838 91.1467 109.391 91.1467C109.812 91.1467 110.164 91.2187 110.445 91.3625C110.729 91.5031 110.958 91.6796 111.131 91.8921C111.308 92.1014 111.442 92.3073 111.534 92.51H111.622V91.2448H113.682V101.602H111.597ZM110.058 97.2374C110.394 97.2374 110.679 97.1459 110.911 96.9628C111.146 96.7764 111.326 96.5165 111.45 96.1831C111.578 95.8496 111.641 95.4589 111.641 95.011C111.641 94.5631 111.579 94.1741 111.455 93.8439C111.331 93.5137 111.151 93.2587 110.916 93.0789C110.68 92.8991 110.394 92.8092 110.058 92.8092C109.714 92.8092 109.425 92.9023 109.19 93.0887C108.954 93.275 108.776 93.5333 108.655 93.8635C108.534 94.1937 108.474 94.5762 108.474 95.011C108.474 95.4491 108.534 95.8365 108.655 96.1732C108.779 96.5067 108.957 96.7683 109.19 96.9579C109.425 97.1442 109.714 97.2374 110.058 97.2374ZM117.448 88.734V98.7772H115.359V88.734H117.448Z" fill="white"/>
<path d="M129.697 80.0453C129.697 80.0453 129.598 114.826 129.598 113.517L127.141 82.6016C127.141 79.2181 124.402 76.479 121.019 76.479L91.2151 73.9167C89.9025 73.9167 123.575 73.9227 123.575 73.9227C126.952 73.9227 129.697 76.6708 129.697 80.0453Z" fill="#00A3E1"/>
<path d="M346.083 180.966H301.628C297.356 180.966 293.891 178.224 293.891 174.844V139.664C293.891 136.284 297.356 133.542 301.628 133.542H346.083C350.359 133.542 353.82 136.284 353.82 139.664V174.844C353.82 178.224 350.359 180.966 346.083 180.966Z" fill="#00A8CD"/>
<path d="M300.273 160.075V150.032H304.236C304.997 150.032 305.646 150.178 306.182 150.469C306.719 150.756 307.127 151.157 307.408 151.67C307.693 152.18 307.835 152.769 307.835 153.436C307.835 154.103 307.691 154.691 307.404 155.201C307.116 155.711 306.699 156.108 306.153 156.393C305.61 156.677 304.953 156.819 304.182 156.819H301.656V155.118H303.838C304.247 155.118 304.584 155.047 304.849 154.907C305.117 154.763 305.316 154.565 305.447 154.313C305.581 154.058 305.648 153.766 305.648 153.436C305.648 153.102 305.581 152.811 305.447 152.563C305.316 152.311 305.117 152.116 304.849 151.979C304.581 151.839 304.241 151.768 303.829 151.768H302.397V160.075H300.273ZM310.465 162.9C310.2 162.9 309.952 162.879 309.719 162.836C309.491 162.797 309.301 162.746 309.151 162.684L309.621 161.125C309.867 161.2 310.087 161.241 310.283 161.248C310.483 161.254 310.654 161.208 310.798 161.11C310.945 161.012 311.065 160.845 311.156 160.61L311.279 160.291L308.577 152.543H310.774L312.333 158.075H312.412L313.986 152.543H316.197L313.27 160.89C313.129 161.295 312.938 161.648 312.696 161.949C312.457 162.253 312.155 162.487 311.789 162.65C311.423 162.817 310.981 162.9 310.465 162.9ZM321.273 152.543V154.112H316.737V152.543H321.273ZM317.767 150.738H319.856V157.761C319.856 157.954 319.885 158.104 319.944 158.212C320.003 158.317 320.085 158.39 320.189 158.433C320.297 158.475 320.421 158.496 320.562 158.496C320.66 158.496 320.758 158.488 320.856 158.472C320.954 158.452 321.029 158.438 321.082 158.428L321.41 159.982C321.306 160.015 321.159 160.053 320.969 160.095C320.779 160.141 320.549 160.169 320.278 160.178C319.774 160.198 319.333 160.131 318.953 159.977C318.577 159.824 318.285 159.585 318.076 159.261C317.866 158.938 317.763 158.529 317.767 158.035V150.738ZM324.885 155.721V160.075H322.796V150.032H324.826V153.872H324.914C325.084 153.427 325.359 153.079 325.738 152.828C326.117 152.573 326.593 152.445 327.165 152.445C327.688 152.445 328.144 152.559 328.533 152.788C328.926 153.014 329.23 153.339 329.445 153.764C329.664 154.186 329.772 154.691 329.769 155.279V160.075H327.68V155.652C327.683 155.188 327.566 154.827 327.327 154.568C327.091 154.31 326.761 154.181 326.336 154.181C326.052 154.181 325.8 154.241 325.581 154.362C325.365 154.483 325.195 154.66 325.071 154.892C324.95 155.121 324.888 155.397 324.885 155.721ZM334.816 160.223C334.055 160.223 333.396 160.061 332.84 159.737C332.288 159.41 331.861 158.956 331.56 158.374C331.259 157.789 331.109 157.11 331.109 156.339C331.109 155.561 331.259 154.881 331.56 154.299C331.861 153.713 332.288 153.259 332.84 152.935C333.396 152.608 334.055 152.445 334.816 152.445C335.578 152.445 336.235 152.608 336.788 152.935C337.343 153.259 337.772 153.713 338.073 154.299C338.373 154.881 338.524 155.561 338.524 156.339C338.524 157.11 338.373 157.789 338.073 158.374C337.772 158.956 337.343 159.41 336.788 159.737C336.235 160.061 335.578 160.223 334.816 160.223ZM334.826 158.604C335.173 158.604 335.462 158.506 335.694 158.31C335.926 158.111 336.101 157.839 336.219 157.496C336.34 157.153 336.4 156.762 336.4 156.324C336.4 155.886 336.34 155.495 336.219 155.152C336.101 154.809 335.926 154.537 335.694 154.338C335.462 154.138 335.173 154.039 334.826 154.039C334.476 154.039 334.182 154.138 333.943 154.338C333.708 154.537 333.53 154.809 333.409 155.152C333.291 155.495 333.232 155.886 333.232 156.324C333.232 156.762 333.291 157.153 333.409 157.496C333.53 157.839 333.708 158.111 333.943 158.31C334.182 158.506 334.476 158.604 334.826 158.604ZM341.971 155.721V160.075H339.882V152.543H341.873V153.872H341.961C342.128 153.434 342.408 153.087 342.8 152.832C343.192 152.574 343.668 152.445 344.227 152.445C344.75 152.445 345.206 152.559 345.595 152.788C345.984 153.017 346.287 153.344 346.502 153.769C346.718 154.191 346.826 154.694 346.826 155.279V160.075H344.737V155.652C344.74 155.191 344.622 154.832 344.384 154.573C344.145 154.312 343.817 154.181 343.398 154.181C343.117 154.181 342.869 154.241 342.653 154.362C342.44 154.483 342.274 154.66 342.153 154.892C342.035 155.121 341.974 155.397 341.971 155.721Z" fill="white"/>
<path d="M350.82 141.67C350.82 141.67 350.718 176.451 350.718 175.139L348.263 144.226C348.263 140.843 345.524 138.104 342.141 138.104L312.334 135.542C311.022 135.542 344.697 135.547 344.697 135.547C348.071 135.547 350.82 138.296 350.82 141.67Z" fill="#00A3E1"/>
<path d="M245.193 105.033H201.123C196.888 105.033 193.453 102.294 193.453 98.9132V63.7335C193.453 60.3531 196.888 57.611 201.123 57.611H245.193C249.427 57.611 252.862 60.3531 252.862 63.7335V98.9132C252.862 102.294 249.427 105.033 245.193 105.033Z" fill="#0096D9"/>
<path d="M203.591 85.02H200.031V74.9768H203.621C204.631 74.9768 205.501 75.1779 206.23 75.58C206.959 75.9789 207.519 76.5526 207.912 77.3013C208.307 78.0499 208.505 78.9457 208.505 79.9886C208.505 81.0348 208.307 81.9338 207.912 82.6858C207.519 83.4377 206.955 84.0147 206.22 84.4168C205.487 84.819 204.611 85.02 203.591 85.02ZM202.154 83.2007H203.503C204.131 83.2007 204.659 83.0895 205.087 82.8672C205.519 82.6416 205.842 82.2935 206.058 81.8227C206.277 81.3486 206.387 80.7373 206.387 79.9886C206.387 79.2465 206.277 78.64 206.058 78.1693C205.842 77.6985 205.52 77.352 205.092 77.1296C204.664 76.9073 204.136 76.7962 203.508 76.7962H202.154V83.2007ZM210.039 77.4876H212.128V85.3927C212.128 85.9746 212.013 86.4454 211.785 86.805C211.556 87.1647 211.227 87.4278 210.799 87.5946C210.374 87.7613 209.865 87.8447 209.274 87.8447C209.202 87.8447 209.133 87.843 209.068 87.8398C208.999 87.8398 208.927 87.8381 208.852 87.8349V86.2019C208.908 86.2051 208.957 86.2068 208.999 86.2068C209.038 86.21 209.081 86.2117 209.127 86.2117C209.463 86.2117 209.699 86.1397 209.833 85.9959C209.97 85.8553 210.039 85.6428 210.039 85.3584V77.4876ZM211.078 76.5167C210.771 76.5167 210.506 76.4137 210.284 76.2077C210.062 75.9985 209.95 75.7484 209.95 75.4574C209.95 75.1697 210.062 74.9229 210.284 74.7169C210.506 74.5077 210.771 74.4031 211.078 74.4031C211.392 74.4031 211.659 74.5077 211.878 74.7169C212.1 74.9229 212.211 75.1697 212.211 75.4574C212.211 75.7484 212.1 75.9985 211.878 76.2077C211.659 76.4137 211.392 76.5167 211.078 76.5167ZM215.949 85.1622C215.469 85.1622 215.04 85.0789 214.664 84.9121C214.288 84.7421 213.991 84.492 213.772 84.1618C213.556 83.8284 213.448 83.4132 213.448 82.9162C213.448 82.4978 213.525 82.1463 213.679 81.8619C213.832 81.5775 214.042 81.3486 214.306 81.1754C214.571 81.0021 214.872 80.8713 215.209 80.7831C215.549 80.6948 215.905 80.6327 216.278 80.5967C216.716 80.5509 217.069 80.5084 217.337 80.4692C217.605 80.4267 217.8 80.3646 217.921 80.2829C218.041 80.2011 218.102 80.0802 218.102 79.92V79.8905C218.102 79.58 218.004 79.3397 217.808 79.1697C217.615 78.9997 217.34 78.9147 216.984 78.9147C216.608 78.9147 216.309 78.998 216.086 79.1648C215.864 79.3282 215.717 79.5342 215.645 79.7827L213.713 79.6257C213.811 79.168 214.004 78.7725 214.292 78.439C214.579 78.1023 214.95 77.844 215.405 77.6642C215.863 77.4811 216.392 77.3896 216.994 77.3896C217.412 77.3896 217.813 77.4386 218.195 77.5367C218.581 77.6348 218.923 77.7868 219.22 77.9927C219.521 78.1987 219.758 78.4635 219.931 78.7872C220.104 79.1076 220.191 79.4917 220.191 79.9396V85.02H218.21V83.9755H218.151C218.03 84.2109 217.868 84.4185 217.666 84.5983C217.463 84.7748 217.219 84.9138 216.935 85.0151C216.65 85.1132 216.322 85.1622 215.949 85.1622ZM216.547 83.7205C216.855 83.7205 217.126 83.66 217.361 83.539C217.597 83.4148 217.782 83.2481 217.916 83.0388C218.05 82.8296 218.117 82.5926 218.117 82.3278V81.5284C218.051 81.5709 217.961 81.6102 217.847 81.6461C217.736 81.6788 217.61 81.7099 217.469 81.7393C217.329 81.7655 217.188 81.79 217.048 81.8129C216.907 81.8325 216.78 81.8505 216.665 81.8668C216.42 81.9028 216.206 81.96 216.023 82.0384C215.84 82.1169 215.697 82.2232 215.596 82.3572C215.495 82.488 215.444 82.6514 215.444 82.8476C215.444 83.132 215.547 83.3494 215.753 83.4998C215.962 83.6469 216.227 83.7205 216.547 83.7205ZM223.901 80.6654V85.02H221.812V77.4876H223.803V78.8166H223.891C224.058 78.3785 224.337 78.032 224.73 77.777C225.122 77.5187 225.598 77.3896 226.157 77.3896C226.68 77.3896 227.136 77.504 227.525 77.7328C227.914 77.9617 228.216 78.2886 228.432 78.7136C228.648 79.1353 228.756 79.6388 228.756 80.224V85.02H226.667V80.5967C226.67 80.1357 226.552 79.7761 226.314 79.5178C226.075 79.2563 225.746 79.1255 225.328 79.1255C225.047 79.1255 224.798 79.186 224.582 79.307C224.37 79.4279 224.203 79.6045 224.082 79.8366C223.965 80.0654 223.904 80.3417 223.901 80.6654ZM233.796 88.0016C233.119 88.0016 232.539 87.9084 232.055 87.7221C231.574 87.539 231.192 87.2889 230.907 86.9718C230.623 86.6547 230.438 86.2983 230.353 85.9027L232.285 85.6428C232.344 85.7932 232.437 85.9338 232.565 86.0645C232.692 86.1953 232.861 86.2999 233.07 86.3784C233.282 86.4601 233.541 86.501 233.845 86.501C234.299 86.501 234.673 86.3898 234.968 86.1675C235.265 85.9485 235.414 85.5807 235.414 85.0642V83.6862H235.326C235.234 83.8954 235.097 84.0932 234.914 84.2795C234.731 84.4659 234.495 84.6179 234.208 84.7356C233.92 84.8533 233.577 84.9121 233.178 84.9121C232.612 84.9121 232.097 84.7814 231.633 84.5198C231.172 84.255 230.804 83.8513 230.53 83.3086C230.258 82.7626 230.123 82.0728 230.123 81.2391C230.123 80.3858 230.262 79.6731 230.539 79.101C230.817 78.5289 231.187 78.1006 231.648 77.8162C232.112 77.5318 232.62 77.3896 233.173 77.3896C233.595 77.3896 233.948 77.4615 234.232 77.6053C234.517 77.7459 234.745 77.9224 234.919 78.1349C235.095 78.3442 235.231 78.5501 235.326 78.7528H235.404V77.4876H237.478V85.0936C237.478 85.7344 237.322 86.2705 237.008 86.7021C236.694 87.1336 236.259 87.4573 235.703 87.673C235.151 87.8921 234.515 88.0016 233.796 88.0016ZM233.84 83.3429C234.177 83.3429 234.461 83.2595 234.693 83.0928C234.928 82.9228 235.108 82.6809 235.232 82.367C235.36 82.0499 235.424 81.6707 235.424 81.2293C235.424 80.788 235.362 80.4055 235.237 80.0818C235.113 79.7549 234.933 79.5015 234.698 79.3217C234.463 79.1419 234.177 79.052 233.84 79.052C233.497 79.052 233.207 79.1452 232.972 79.3315C232.736 79.5146 232.558 79.7696 232.437 80.0965C232.316 80.4234 232.256 80.801 232.256 81.2293C232.256 81.6641 232.316 82.0401 232.437 82.3572C232.562 82.6711 232.74 82.9146 232.972 83.0879C233.207 83.2579 233.497 83.3429 233.84 83.3429ZM242.544 85.1671C241.782 85.1671 241.124 85.0053 240.568 84.6817C240.015 84.3547 239.589 83.9003 239.288 83.3184C238.987 82.7332 238.837 82.0548 238.837 81.2832C238.837 80.5052 238.987 79.8252 239.288 79.2432C239.589 78.658 240.015 78.2036 240.568 77.8799C241.124 77.553 241.782 77.3896 242.544 77.3896C243.306 77.3896 243.963 77.553 244.516 77.8799C245.071 78.2036 245.5 78.658 245.8 79.2432C246.101 79.8252 246.252 80.5052 246.252 81.2832C246.252 82.0548 246.101 82.7332 245.8 83.3184C245.5 83.9003 245.071 84.3547 244.516 84.6817C243.963 85.0053 243.306 85.1671 242.544 85.1671ZM242.554 83.5489C242.901 83.5489 243.19 83.4508 243.422 83.2546C243.654 83.0552 243.829 82.7838 243.947 82.4406C244.068 82.0973 244.128 81.7066 244.128 81.2685C244.128 80.8305 244.068 80.4398 243.947 80.0965C243.829 79.7532 243.654 79.4819 243.422 79.2825C243.19 79.083 242.901 78.9833 242.554 78.9833C242.204 78.9833 241.91 79.083 241.671 79.2825C241.436 79.4819 241.258 79.7532 241.137 80.0965C241.019 80.4398 240.96 80.8305 240.96 81.2685C240.96 81.7066 241.019 82.0973 241.137 82.4406C241.258 82.7838 241.436 83.0552 241.671 83.2546C241.91 83.4508 242.204 83.5489 242.554 83.5489Z" fill="white"/>
<path d="M250.622 66.182C250.622 66.182 250.52 100.963 250.52 99.6506L248.066 68.7383C248.066 65.3549 245.327 62.6158 241.943 62.6158L212.137 60.0535C210.824 60.0535 244.5 60.0595 244.5 60.0595C247.877 60.0595 250.622 62.8046 250.622 66.182Z" fill="#00A3E1"/>
<path d="M269.829 335.564H221.721V302.23H269.829V335.564Z" fill="#FFD820"/>
<path d="M245.773 318.898L221.721 302.23H269.829L245.773 318.898Z" fill="#101011"/>
<path d="M245.773 285.472L221.721 302.137H269.829L245.773 285.472Z" fill="#333E4F"/>
<path d="M231.998 290.53V309.359L245.774 318.898L259.494 309.575V290.318C259.494 290.318 232.157 290.692 231.998 290.53Z" fill="white"/>
<path d="M254.346 297.555H237.135V295.493H254.346V297.555Z" fill="#E7E7E7"/>
<path d="M254.346 302.901H237.135V300.842H254.346V302.901Z" fill="#E7E7E7"/>
<path d="M254.346 308.251H237.135V306.192H254.346V308.251Z" fill="#E7E7E7"/>
<path d="M116.094 302.455H110.361L126.955 198.063H132.688L116.094 302.455Z" fill="#FFE989"/>
<path d="M114.588 302.455H108.855L125.449 198.063H131.182L114.588 302.455Z" fill="#FFD820"/>
<path d="M137.819 302.455H132.086L148.679 198.063H154.412L137.819 302.455Z" fill="#FFE989"/>
<path d="M136.309 302.455H130.576L147.173 198.063H152.906L136.309 302.455Z" fill="#FFD820"/>
<path d="M137.53 282.778H114.203V286.733H137.53V282.778Z" fill="#FFD820"/>
<path d="M140.669 260.814H117.342V264.77H140.669V260.814Z" fill="#FFD820"/>
<path d="M143.811 238.847H120.48V242.803H143.811V238.847Z" fill="#FFD820"/>
<path d="M146.944 216.88H123.617V220.839H146.944V216.88Z" fill="#FFD820"/>
<path d="M87.1616 262.387H51.9819C48.5985 262.387 45.8594 259.648 45.8594 256.268V221.088C45.8594 217.707 48.5985 214.965 51.9819 214.965H87.1616C90.5421 214.965 93.2812 217.707 93.2812 221.088V256.268C93.2812 259.648 90.5421 262.387 87.1616 262.387Z" fill="#0096D9"/>
<path d="M52.4432 242.868V232.824H59.0929V234.575H54.5666V236.968H58.6515V238.719H54.5666V242.868H52.4432ZM62.571 232.824V242.868H60.4819V232.824H62.571ZM66.3923 243.01C65.9118 243.01 65.4835 242.926 65.1075 242.76C64.7316 242.59 64.4341 242.34 64.215 242.009C63.9992 241.676 63.8914 241.261 63.8914 240.764C63.8914 240.345 63.9682 239.994 64.1218 239.71C64.2755 239.425 64.4847 239.196 64.7495 239.023C65.0143 238.85 65.3151 238.719 65.6519 238.631C65.9919 238.542 66.3482 238.48 66.7209 238.444C67.159 238.399 67.5121 238.356 67.7801 238.317C68.0482 238.274 68.2427 238.212 68.3637 238.13C68.4847 238.049 68.5452 237.928 68.5452 237.768V237.738C68.5452 237.428 68.4471 237.187 68.2509 237.017C68.058 236.847 67.7834 236.762 67.4271 236.762C67.0511 236.762 66.752 236.846 66.5297 237.012C66.3073 237.176 66.1602 237.382 66.0883 237.63L64.1562 237.473C64.2542 237.016 64.4471 236.62 64.7348 236.287C65.0225 235.95 65.3936 235.692 65.848 235.512C66.3057 235.329 66.8353 235.237 67.4369 235.237C67.8553 235.237 68.2558 235.286 68.6383 235.384C69.0241 235.482 69.3657 235.634 69.6632 235.84C69.964 236.046 70.201 236.311 70.3743 236.635C70.5476 236.955 70.6342 237.339 70.6342 237.787V242.868H68.653V241.823H68.5942C68.4732 242.059 68.3114 242.266 68.1087 242.446C67.906 242.622 67.6625 242.761 67.378 242.863C67.0936 242.961 66.765 243.01 66.3923 243.01ZM66.9906 241.568C67.2979 241.568 67.5693 241.508 67.8047 241.387C68.0401 241.262 68.2248 241.096 68.3588 240.886C68.4928 240.677 68.5599 240.44 68.5599 240.175V239.376C68.4945 239.419 68.4046 239.458 68.2902 239.494C68.179 239.526 68.0531 239.558 67.9126 239.587C67.772 239.613 67.6314 239.638 67.4908 239.66C67.3502 239.68 67.2227 239.698 67.1083 239.714C66.8631 239.75 66.649 239.808 66.4659 239.886C66.2828 239.965 66.1406 240.071 66.0393 240.205C65.9379 240.336 65.8872 240.499 65.8872 240.695C65.8872 240.98 65.9902 241.197 66.1962 241.347C66.4054 241.495 66.6702 241.568 66.9906 241.568ZM78.5221 237.483L76.6096 237.601C76.5769 237.437 76.5066 237.29 76.3987 237.16C76.2909 237.025 76.1486 236.919 75.9721 236.841C75.7988 236.759 75.5912 236.718 75.3493 236.718C75.0257 236.718 74.7527 236.787 74.5304 236.924C74.3081 237.058 74.1969 237.238 74.1969 237.464C74.1969 237.643 74.2688 237.795 74.4127 237.92C74.5565 238.044 74.8033 238.144 75.1532 238.219L76.5164 238.493C77.2488 238.644 77.7947 238.886 78.1543 239.219C78.514 239.553 78.6938 239.991 78.6938 240.533C78.6938 241.027 78.5483 241.46 78.2573 241.833C77.9696 242.206 77.574 242.497 77.0706 242.706C76.5704 242.912 75.9934 243.015 75.3395 243.015C74.3424 243.015 73.5479 242.807 72.9562 242.392C72.3677 241.974 72.0228 241.405 71.9215 240.685L73.9762 240.578C74.0383 240.882 74.1887 241.114 74.4274 241.274C74.666 241.431 74.9717 241.509 75.3444 241.509C75.7106 241.509 76.0048 241.439 76.2271 241.298C76.4527 241.155 76.5671 240.97 76.5704 240.744C76.5671 240.555 76.487 240.399 76.3301 240.278C76.1732 240.154 75.9312 240.059 75.6043 239.994L74.2999 239.734C73.5643 239.587 73.0167 239.332 72.6571 238.969C72.3007 238.606 72.1225 238.144 72.1225 237.581C72.1225 237.097 72.2533 236.681 72.5149 236.331C72.7797 235.981 73.1507 235.711 73.628 235.522C74.1086 235.332 74.6709 235.237 75.315 235.237C76.2663 235.237 77.015 235.438 77.561 235.84C78.1102 236.242 78.4306 236.79 78.5221 237.483ZM81.9021 240.7L81.907 238.194H82.2111L84.6238 235.335H87.0218L83.7803 239.121H83.285L81.9021 240.7ZM80.0092 242.868V232.824H82.0983V242.868H80.0092ZM84.717 242.868L82.5004 239.587L83.8931 238.111L87.164 242.868H84.717Z" fill="white"/>
<path d="M91.5791 223.006C91.5791 223.006 91.4772 257.787 91.4772 256.474L89.0228 225.562C89.0228 222.179 86.2837 219.44 82.9003 219.44L53.0939 216.877C51.7843 216.877 85.4566 216.883 85.4566 216.883C88.834 216.883 91.5791 219.628 91.5791 223.006Z" fill="#00A3E1"/>
<path d="M227.232 105.033V115.739" stroke="#B7E5FA" stroke-width="1.53437" stroke-miterlimit="10"/>
</svg>
