<svg width="202" height="43" viewBox="0 0 202 43" fill="none" xmlns="http://www.w3.org/2000/svg">
<g filter="url(#filter0_d_231_80)">
<path d="M180.811 31.5972V19.4663C180.811 16.8083 181.758 14.5603 183.652 12.7223C185.575 10.856 187.993 9.92285 190.905 9.92285C193.79 9.92285 196.193 10.8419 198.116 12.6799C200.039 14.5179 201 16.78 201 19.4663V31.5972H194.511V19.7208C194.511 18.6463 194.186 17.7697 193.535 17.0911C192.885 16.4124 192.022 16.0731 190.948 16.0731C189.873 16.0731 188.983 16.4124 188.276 17.0911C187.597 17.7414 187.258 18.618 187.258 19.7208V31.5972H180.811Z" fill="white"/>
<path d="M139.375 24.5554L146.289 16.3693H138.273V10.3887H151.252C151.789 10.3887 152.383 10.4876 153.033 10.6856C153.684 10.8835 154.235 11.3077 154.687 11.958C155.14 12.6084 155.366 13.3153 155.366 14.0788C155.366 14.6444 155.267 15.1392 155.069 15.5634C154.871 15.9875 154.702 16.2986 154.56 16.4965C154.447 16.6662 154.32 16.8217 154.178 16.9631L146.544 25.6158H154.687V31.5964H141.581C138.838 31.5964 137.467 30.4653 137.467 28.2032C137.467 27.6376 137.566 27.1428 137.764 26.7186C137.99 26.2945 138.527 25.5734 139.375 24.5554Z" fill="white"/>
<path d="M116.035 10.3887H122.61L124.73 23.283C124.843 23.8485 125.027 24.3434 125.282 24.7675C125.536 25.1634 125.946 25.3613 126.512 25.3613C126.795 25.3613 127.049 25.2906 127.275 25.1493C127.53 25.0079 127.728 24.7958 127.869 24.513C128.039 24.2303 128.18 23.8061 128.293 23.2406L130.456 10.3887H137.031L134.316 25.1917C134.288 25.5027 134.231 25.7572 134.147 25.9552C134.09 26.1531 133.949 26.5772 133.722 27.2276C133.496 27.878 133.03 28.5991 132.323 29.3908C131.616 30.1543 130.782 30.734 129.82 31.1298V40.5885H123.246V31.1298C121.21 30.4512 119.796 28.8818 119.004 26.4217L118.665 25.1493L116.035 10.3887Z" fill="white"/>
<path d="M114.874 21.2471V31.5965H108.385V21.5016C108.385 19.8898 107.975 18.6032 107.155 17.6418C106.335 16.6804 105.274 16.1997 103.974 16.1997C102.616 16.1997 101.499 16.6662 100.623 17.5994C99.7462 18.5325 99.3079 19.6919 99.3079 21.0774C99.3079 22.3216 99.8028 23.382 100.792 24.2586C101.782 25.1352 102.956 25.5735 104.313 25.5735C104.652 25.5735 105.02 25.5311 105.416 25.4462C105.84 25.3614 106.264 25.2059 106.688 24.9797V31.4692C106.236 31.6106 105.769 31.7379 105.289 31.851C104.836 31.9641 104.384 32.0206 103.931 32.0206C100.821 32.0206 98.191 30.9744 96.0419 28.8819C93.8929 26.7894 92.8184 24.1455 92.8184 20.9502C92.8184 18.6315 93.4405 16.5531 94.6846 14.7151C95.9571 12.8488 97.3003 11.6329 98.7141 11.0674C100.128 10.5018 101.217 10.1484 101.98 10.007C102.744 9.86561 103.479 9.79492 104.186 9.79492C107.183 9.79492 109.714 10.8694 111.778 13.0185C113.842 15.1675 114.874 17.9104 114.874 21.2471Z" fill="white"/>
<path d="M61.3086 22.9012V10.3887H67.7557V23.1981C67.7557 23.3961 67.7699 23.6082 67.7982 23.8344C67.8264 24.0323 67.883 24.3151 67.9678 24.6827C68.0527 25.022 68.3213 25.3613 68.7737 25.7007C69.2544 26.0117 69.7775 26.1672 70.3431 26.1672C70.7672 26.1672 71.3045 25.9976 71.9549 25.6582C72.6052 25.3189 72.9304 24.4989 72.9304 23.1981V10.3887H79.1655V23.1981C79.1655 24.4989 79.4907 25.3189 80.1411 25.6582C80.8197 25.9976 81.3711 26.1672 81.7953 26.1672C82.3608 26.1672 82.8698 26.0117 83.3222 25.7007C83.7747 25.3613 84.0716 24.9372 84.2129 24.4282L84.3402 23.1981V10.3887H90.8298V22.9012C90.8298 24.9655 90.3773 26.7045 89.4725 28.1183C88.5959 29.5322 87.3941 30.5502 85.8672 31.1723C84.3402 31.7661 82.9263 32.063 81.6256 32.063C80.3814 32.063 79.2927 31.8509 78.3596 31.4268C77.4265 30.9743 76.663 30.3522 76.0692 29.5605C75.4754 30.3522 74.7119 30.9743 73.7787 31.4268C72.8456 31.8509 71.7428 32.063 70.4703 32.063C69.1696 32.063 67.7557 31.7661 66.2288 31.1723C64.7301 30.5784 63.5283 29.5746 62.6235 28.1608C61.7469 26.7186 61.3086 24.9655 61.3086 22.9012Z" fill="white"/>
<path d="M59.4287 16.7936L48.3158 24.8101L45.9406 21.6714L52.5574 16.8784C51.7656 16.0867 50.7618 15.6908 49.5459 15.6908C48.6128 15.6908 47.722 15.9594 46.8737 16.4967C46.0254 17.0057 45.3892 17.6843 44.965 18.5326C44.5691 19.381 44.3712 20.1868 44.3712 20.9503C44.3712 21.6855 44.5409 22.4349 44.8802 23.1983C45.2478 23.9618 45.8133 24.6122 46.5768 25.1495C47.3686 25.6584 48.231 25.9129 49.1642 25.9129C50.6346 25.9129 51.9919 25.2908 53.236 24.0467L53.8299 23.4104L58.9621 26.2098C57.5766 28.7831 55.8799 30.3948 53.8723 31.0452C51.8646 31.6673 50.2952 31.9784 49.1642 31.9784C46.1951 31.9784 43.6501 30.9321 41.5294 28.8396C39.4369 26.7188 38.3906 24.1032 38.3906 20.9927C38.3906 18.6458 39.041 16.5391 40.3417 14.6728C41.6425 12.7783 43.1836 11.5058 44.965 10.8554C46.7465 10.2051 48.3017 9.87988 49.6307 9.87988C51.8929 9.87988 53.9147 10.502 55.6961 11.7462C57.4776 12.9904 58.7218 14.6728 59.4287 16.7936Z" fill="white"/>
<path d="M37.0615 16.7936L25.9487 24.8101L23.5734 21.6714L30.1902 16.8784C29.3985 16.0867 28.3946 15.6908 27.1787 15.6908C26.2456 15.6908 25.3548 15.9594 24.5065 16.4967C23.6582 17.0057 23.022 17.6843 22.5978 18.5326C22.202 19.381 22.004 20.1868 22.004 20.9503C22.004 21.6855 22.1737 22.4349 22.513 23.1983C22.8806 23.9618 23.4461 24.6122 24.2096 25.1495C25.0014 25.6584 25.8638 25.9129 26.797 25.9129C28.2674 25.9129 29.6247 25.2908 30.8689 24.0467L31.4627 23.4104L36.5949 26.2098C35.2094 28.7831 33.5128 30.3948 31.5051 31.0452C29.4974 31.6673 27.928 31.9784 26.797 31.9784C23.8279 31.9784 21.283 30.9321 19.1622 28.8396C17.0697 26.7188 16.0234 24.1032 16.0234 20.9927C16.0234 18.6458 16.6738 16.5391 17.9745 14.6728C19.2753 12.7783 20.8164 11.5058 22.5978 10.8554C24.3793 10.2051 25.9345 9.87988 27.2635 9.87988C29.5257 9.87988 31.5475 10.502 33.329 11.7462C35.1104 12.9904 36.3546 14.6728 37.0615 16.7936Z" fill="white"/>
<path d="M1 23.8772V1.05762H8.33788V22.8168C8.33788 23.6368 8.57823 24.2872 9.05894 24.7679C9.53965 25.2486 10.19 25.4889 11.0101 25.4889H15.5485V31.5968H8.71962C7.47543 31.5968 5.87778 31.0736 3.92667 30.0274C1.97556 28.9529 1 26.9028 1 23.8772Z" fill="white"/>
</g>
<g filter="url(#filter1_d_231_80)">
<path d="M160.45 31.5883C161.933 32.5512 163.806 33.0327 166.069 33.0327C168.294 33.0327 170.292 32.5609 172.064 31.6172C173.835 30.6639 175.304 29.335 176.469 27.6306C177.634 25.9261 178.405 23.9424 178.78 21.6795C179.156 19.378 179.04 17.3607 178.434 15.6273C178.001 14.3922 177.346 12.5393 176.469 11.6953C176.469 12.9776 173.906 16.4246 172.569 17.5254C172.63 17.7282 172.572 17.8301 172.613 18.054C172.795 19.0458 172.781 20.1821 172.569 21.4628C172.357 22.7628 171.982 23.928 171.443 24.9584C170.913 25.9791 170.244 26.788 169.435 27.385C168.636 27.9724 167.716 28.2661 166.676 28.2661C165.665 28.2661 164.866 27.982 164.278 27.4139C163.691 26.8361 163.31 26.0513 163.137 25.0595C163.006 24.3049 162.982 23.4738 163.065 22.5662C161.12 22.464 158.092 23.6888 156.773 24.4644C156.811 25.5749 156.991 26.6014 157.316 27.5439C157.923 29.2676 158.967 30.6157 160.45 31.5883Z" fill="white"/>
<g filter="url(#filter2_d_231_80)">
<path d="M156.95 23.1444C157.142 6.58094 170.119 6.034 176.583 7.83096C165.053 9.62568 162.441 13.2287 162.576 14.8059C166.982 9.9963 173.48 10.3483 176.179 11.1255C172.779 17.3963 161.943 21.7509 156.95 23.1444Z" fill="#04D2FF"/>
</g>
</g>
<defs>
<filter id="filter0_d_231_80" x="0.111111" y="0.835395" width="201.778" height="41.309" filterUnits="userSpaceOnUse" color-interpolation-filters="sRGB">
<feFlood flood-opacity="0" result="BackgroundImageFix"/>
<feColorMatrix in="SourceAlpha" type="matrix" values="0 0 0 0 0 0 0 0 0 0 0 0 0 0 0 0 0 0 127 0" result="hardAlpha"/>
<feOffset dy="0.666666"/>
<feGaussianBlur stdDeviation="0.444444"/>
<feComposite in2="hardAlpha" operator="out"/>
<feColorMatrix type="matrix" values="0 0 0 0 0 0 0 0 0 0 0 0 0 0 0 0 0 0 0.25 0"/>
<feBlend mode="normal" in2="BackgroundImageFix" result="effect1_dropShadow_231_80"/>
<feBlend mode="normal" in="SourceGraphic" in2="effect1_dropShadow_231_80" result="shape"/>
</filter>
<filter id="filter1_d_231_80" x="155.885" y="7.12891" width="24.0004" height="27.6821" filterUnits="userSpaceOnUse" color-interpolation-filters="sRGB">
<feFlood flood-opacity="0" result="BackgroundImageFix"/>
<feColorMatrix in="SourceAlpha" type="matrix" values="0 0 0 0 0 0 0 0 0 0 0 0 0 0 0 0 0 0 127 0" result="hardAlpha"/>
<feOffset dy="0.888889"/>
<feGaussianBlur stdDeviation="0.444444"/>
<feComposite in2="hardAlpha" operator="out"/>
<feColorMatrix type="matrix" values="0 0 0 0 0 0 0 0 0 0 0 0 0 0 0 0 0 0 0.25 0"/>
<feBlend mode="normal" in2="BackgroundImageFix" result="effect1_dropShadow_231_80"/>
<feBlend mode="normal" in="SourceGraphic" in2="effect1_dropShadow_231_80" result="shape"/>
</filter>
<filter id="filter2_d_231_80" x="156.06" y="6.24002" width="21.4116" height="17.7934" filterUnits="userSpaceOnUse" color-interpolation-filters="sRGB">
<feFlood flood-opacity="0" result="BackgroundImageFix"/>
<feColorMatrix in="SourceAlpha" type="matrix" values="0 0 0 0 0 0 0 0 0 0 0 0 0 0 0 0 0 0 127 0" result="hardAlpha"/>
<feOffset/>
<feGaussianBlur stdDeviation="0.444444"/>
<feComposite in2="hardAlpha" operator="out"/>
<feColorMatrix type="matrix" values="0 0 0 0 0 0 0 0 0 0 0 0 0 0 0 0 0 0 0.25 0"/>
<feBlend mode="normal" in2="BackgroundImageFix" result="effect1_dropShadow_231_80"/>
<feBlend mode="normal" in="SourceGraphic" in2="effect1_dropShadow_231_80" result="shape"/>
</filter>
</defs>
</svg>
