<svg width="33" height="32" viewBox="0 0 33 32" fill="none" xmlns="http://www.w3.org/2000/svg">
<path d="M2 20C1.724 20 1.5 19.776 1.5 19.5V3.5C1.5 2.673 2.173 2 3 2H30C30.827 2 31.5 2.673 31.5 3.5V5C31.5 5.276 31.276 5.5 31 5.5C30.724 5.5 30.5 5.276 30.5 5V3.5C30.5 3.225 30.275 3 30 3H3C2.725 3 2.5 3.225 2.5 3.5V19.5C2.5 19.776 2.276 20 2 20Z" fill="white"/>
<path d="M16.5 31H11C10.724 31 10.5 30.776 10.5 30.5C10.5 30.224 10.724 30 11 30H12C12.827 30 13.5 29.327 13.5 28.5V26C13.5 25.724 13.724 25.5 14 25.5C14.276 25.5 14.5 25.724 14.5 26V28.5C14.5 29.063 14.313 29.582 13.999 30H16.5C16.776 30 17 30.224 17 30.5C17 30.776 16.776 31 16.5 31Z" fill="white"/>
<path d="M16 26H3C2.173 26 1.5 25.327 1.5 24.5V21.5C1.5 21.224 1.724 21 2 21H16C16.276 21 16.5 21.224 16.5 21.5C16.5 21.776 16.276 22 16 22H2.5V24.5C2.5 24.775 2.725 25 3 25H16C16.276 25 16.5 25.224 16.5 25.5C16.5 25.776 16.276 26 16 26Z" fill="white"/>
<path d="M22 9H27C27.276 9 27.5 8.776 27.5 8.5C27.5 8.224 27.276 8 27 8H22C21.724 8 21.5 8.224 21.5 8.5C21.5 8.776 21.724 9 22 9Z" fill="white"/>
<path d="M24 29H25C25.276 29 25.5 28.776 25.5 28.5C25.5 28.224 25.276 28 25 28H24C23.724 28 23.5 28.224 23.5 28.5C23.5 28.776 23.724 29 24 29Z" fill="white"/>
<path d="M29 31H20C18.621 31 17.5 29.879 17.5 28.5V8.5C17.5 7.121 18.621 6 20 6H29C30.379 6 31.5 7.121 31.5 8.5V28.5C31.5 29.879 30.379 31 29 31ZM20 7C19.173 7 18.5 7.673 18.5 8.5V28.5C18.5 29.327 19.173 30 20 30H29C29.827 30 30.5 29.327 30.5 28.5V8.5C30.5 7.673 29.827 7 29 7H20Z" fill="white"/>
</svg>
