<svg width="464" height="308" viewBox="0 0 464 308" fill="none" xmlns="http://www.w3.org/2000/svg">
<g clip-path="url(#clip0_20_1371)">
<path d="M404.391 235.768C402.918 235.774 401.477 235.344 400.249 234.532C399.022 233.72 398.064 232.563 397.496 231.207C396.928 229.851 396.777 228.358 397.06 226.916C397.344 225.474 398.05 224.148 399.089 223.107C400.128 222.066 401.453 221.356 402.897 221.067C404.341 220.778 405.838 220.923 407.199 221.484C408.56 222.045 409.724 222.997 410.543 224.218C411.362 225.439 411.799 226.876 411.799 228.345C411.797 230.308 411.017 232.19 409.629 233.581C408.241 234.972 406.358 235.758 404.391 235.768ZM404.391 224.902C403.708 224.9 403.04 225.101 402.472 225.479C401.903 225.857 401.46 226.394 401.198 227.023C400.936 227.652 400.867 228.345 400.999 229.013C401.132 229.681 401.46 230.296 401.942 230.778C402.425 231.26 403.039 231.588 403.709 231.722C404.379 231.855 405.073 231.787 405.704 231.527C406.335 231.267 406.874 230.825 407.253 230.259C407.633 229.692 407.835 229.026 407.835 228.345C407.834 227.433 407.47 226.559 406.825 225.914C406.18 225.269 405.304 224.905 404.391 224.902Z" fill="#EBEBEB"/>
<path d="M404.391 271.071C402.918 271.077 401.477 270.647 400.249 269.835C399.022 269.023 398.064 267.866 397.496 266.51C396.928 265.154 396.777 263.661 397.06 262.219C397.344 260.777 398.05 259.451 399.089 258.41C400.128 257.369 401.453 256.659 402.897 256.37C404.341 256.081 405.838 256.226 407.199 256.787C408.56 257.348 409.724 258.3 410.543 259.521C411.362 260.742 411.799 262.179 411.799 263.648C411.797 265.611 411.017 267.493 409.629 268.884C408.241 270.275 406.358 271.061 404.391 271.071ZM404.391 260.211C403.709 260.211 403.043 260.412 402.477 260.79C401.91 261.168 401.469 261.705 401.208 262.333C400.947 262.961 400.879 263.652 401.012 264.319C401.145 264.985 401.473 265.598 401.955 266.079C402.437 266.559 403.05 266.887 403.719 267.019C404.387 267.152 405.079 267.084 405.709 266.824C406.338 266.563 406.876 266.123 407.255 265.558C407.633 264.992 407.835 264.328 407.835 263.648C407.834 262.737 407.47 261.864 406.825 261.219C406.179 260.575 405.304 260.212 404.391 260.211Z" fill="#EBEBEB"/>
<path d="M434.547 271.071C433.075 271.077 431.634 270.647 430.406 269.835C429.179 269.023 428.221 267.866 427.653 266.51C427.085 265.154 426.933 263.661 427.217 262.219C427.5 260.777 428.206 259.451 429.246 258.41C430.285 257.369 431.61 256.659 433.054 256.37C434.498 256.081 435.995 256.226 437.356 256.787C438.717 257.348 439.881 258.3 440.7 259.521C441.518 260.742 441.955 262.179 441.955 263.648C441.952 265.61 441.172 267.492 439.784 268.882C438.396 270.273 436.514 271.059 434.547 271.071ZM434.547 260.211C433.866 260.212 433.201 260.415 432.635 260.793C432.07 261.171 431.629 261.709 431.369 262.337C431.11 262.965 431.042 263.656 431.176 264.322C431.309 264.989 431.638 265.601 432.12 266.081C432.602 266.561 433.216 266.888 433.884 267.02C434.552 267.152 435.244 267.083 435.873 266.823C436.502 266.563 437.04 266.122 437.418 265.557C437.796 264.992 437.998 264.328 437.998 263.648C437.998 263.196 437.909 262.749 437.735 262.331C437.562 261.914 437.308 261.535 436.987 261.215C436.667 260.896 436.286 260.643 435.868 260.471C435.449 260.298 435 260.21 434.547 260.211Z" fill="#EBEBEB"/>
<path d="M406.199 233.871H402.205V258.812H406.199V233.871Z" fill="#EBEBEB"/>
<path d="M437.251 259.761H433.263V239.008C433.26 236.702 432.341 234.492 430.707 232.861C429.073 231.231 426.857 230.313 424.547 230.31H419.349V226.325H424.547C427.916 226.329 431.145 227.668 433.527 230.045C435.909 232.423 437.248 235.646 437.251 239.008V259.761Z" fill="#EBEBEB"/>
<path d="M422.188 221.021V235.195L414.441 228.345L422.188 221.021Z" fill="#EBEBEB"/>
<path d="M55.054 72.0905H24.249V123.095H55.054V72.0905Z" fill="#F5F5F5"/>
<path d="M89.5259 72.0905H56.2393V123.095H89.5259V72.0905Z" fill="#F5F5F5"/>
<path d="M89.5259 126.662H56.2393V175.942H89.5259V126.662Z" fill="#F5F5F5"/>
<path d="M93.7856 71.2096H128.838V25.9644H130.023V71.2096H158.55V24.9603H93.7856V71.2096Z" fill="#F5F5F5"/>
<path d="M158.55 72.0905H130.023V123.095H158.55V72.0905Z" fill="#F5F5F5"/>
<path d="M158.55 126.662H130.023V175.942H158.55V126.662Z" fill="#F5F5F5"/>
<path d="M55.054 126.662H24.249V175.942H55.054V126.662Z" fill="#F5F5F5"/>
<path d="M128.838 126.662H93.7856V175.942H128.838V126.662Z" fill="#F5F5F5"/>
<path d="M55.054 176.823H24.249V221.23H55.054V176.823Z" fill="#F5F5F5"/>
<path d="M158.55 176.823H130.023V221.23H158.55V176.823Z" fill="#F5F5F5"/>
<path d="M55.054 71.2096V25.9644H56.2392V71.2096H89.5197V24.9603H24.249V71.2096H55.054Z" fill="#F5F5F5"/>
<path d="M128.838 176.823H93.7856V221.23H128.838V176.823Z" fill="#F5F5F5"/>
<path d="M89.5259 176.823H56.2393V221.23H89.5259V176.823Z" fill="#F5F5F5"/>
<path d="M128.838 72.0905H93.7856V123.095H128.838V72.0905Z" fill="#F5F5F5"/>
<path d="M290.258 70.0022H260.817V118.746H290.258V70.0022Z" fill="#F5F5F5"/>
<path d="M323.193 70.0022H291.388V118.746H323.193V70.0022Z" fill="#F5F5F5"/>
<path d="M323.193 122.147H291.388V169.24H323.193V122.147Z" fill="#F5F5F5"/>
<path d="M327.267 69.1583H360.764V25.9151H361.899V69.1583H389.161V24.9603H327.267V69.1583Z" fill="#F5F5F5"/>
<path d="M389.161 70.0022H361.899V118.746H389.161V70.0022Z" fill="#F5F5F5"/>
<path d="M389.161 122.147H361.899V169.24H389.161V122.147Z" fill="#F5F5F5"/>
<path d="M290.258 122.147H260.817V169.24H290.258V122.147Z" fill="#F5F5F5"/>
<path d="M360.764 122.147H327.267V169.24H360.764V122.147Z" fill="#F5F5F5"/>
<path d="M290.252 69.1583V25.9151H291.382V69.1583H323.193V24.9603H260.817V69.1583H290.252Z" fill="#F5F5F5"/>
<path d="M360.764 70.0022H327.267V118.746H360.764V70.0022Z" fill="#F5F5F5"/>
<path d="M234.667 97.0816L226.302 93.3055C221.778 95.6697 216.535 96.2739 211.59 95.0009C206.645 93.7279 202.35 90.6685 199.536 86.4154C196.723 82.1624 195.592 77.0186 196.363 71.981C197.133 66.9433 199.751 62.3705 203.707 59.1487C207.664 55.9269 212.679 54.2855 217.779 54.5427C222.88 54.7998 227.703 56.9372 231.315 60.5406C234.926 64.144 237.068 68.9568 237.326 74.0463C237.584 79.1358 235.939 84.1396 232.71 88.088L234.667 97.0816ZM226.278 92.5355L233.686 95.8866L231.951 87.9217L232.056 87.7923C235.11 84.131 236.744 79.4956 236.658 74.7323C236.572 69.969 234.772 65.3953 231.588 61.846C228.403 58.2968 224.045 56.0086 219.31 55.3991C214.575 54.7897 209.778 55.8995 205.795 58.5262C201.811 61.1528 198.908 65.1211 197.613 69.7068C196.319 74.2924 196.72 79.1897 198.744 83.5046C200.767 87.8196 204.278 91.2647 208.636 93.211C212.994 95.1573 217.908 95.4751 222.481 94.1063C223.739 93.7292 224.957 93.2299 226.117 92.6156L226.278 92.5355Z" fill="#E0E0E0"/>
<path d="M218.49 82.8177C220.98 73.1186 215.12 63.2416 205.399 60.7567C195.679 58.2719 185.781 64.1201 183.291 73.8191C180.8 83.5182 186.661 93.3952 196.381 95.8801C206.101 98.365 216 92.5167 218.49 82.8177Z" fill="#E0E0E0"/>
<path d="M187.645 88.3467L185.787 97.9255L194.374 93.7983L187.645 88.3467Z" fill="#E0E0E0"/>
<path d="M193.343 80.7514C194.693 80.7514 195.787 79.6593 195.787 78.3121C195.787 76.9648 194.693 75.8727 193.343 75.8727C191.992 75.8727 190.898 76.9648 190.898 78.3121C190.898 79.6593 191.992 80.7514 193.343 80.7514Z" fill="white"/>
<path d="M202.523 78.3121C202.523 78.7994 202.378 79.2758 202.106 79.681C201.835 80.0862 201.449 80.402 200.998 80.5885C200.547 80.775 200.051 80.8238 199.572 80.7287C199.093 80.6337 198.653 80.399 198.307 80.0544C197.962 79.7098 197.727 79.2708 197.631 78.7928C197.536 78.3148 197.585 77.8194 197.772 77.3692C197.959 76.9189 198.275 76.5341 198.681 76.2633C199.087 75.9926 199.565 75.8481 200.053 75.8481C200.708 75.8481 201.336 76.1077 201.799 76.5698C202.262 77.0319 202.523 77.6586 202.523 78.3121Z" fill="white"/>
<path d="M206.77 80.7514C208.12 80.7514 209.214 79.6593 209.214 78.3121C209.214 76.9648 208.12 75.8727 206.77 75.8727C205.42 75.8727 204.325 76.9648 204.325 78.3121C204.325 79.6593 205.42 80.7514 206.77 80.7514Z" fill="white"/>
<path d="M445.641 187.88C445.641 187.966 416.206 188.04 379.901 188.04C343.595 188.04 314.155 187.966 314.155 187.88C314.155 187.794 343.583 187.72 379.901 187.72C416.219 187.72 445.641 187.757 445.641 187.88Z" fill="#263238"/>
<path d="M350.812 76.1253L344.836 72.1952C344.386 66.5233 341.826 61.2247 337.659 57.3408C333.492 53.4568 328.02 51.2684 322.319 51.2056C316.617 51.1428 311.098 53.2102 306.846 57.0015C302.595 60.7928 299.918 66.0337 299.342 71.6943C298.766 77.3549 300.333 83.0257 303.734 87.5921C307.135 92.1586 312.126 95.2906 317.723 96.3724C323.321 97.4542 329.122 96.4077 333.986 93.4385C338.85 90.4693 342.426 85.7922 344.009 80.3264L350.812 76.1253Z" fill="white"/>
<path d="M350.812 76.1253L350.355 76.3963L349.034 77.1971L343.972 80.2771L344.077 80.3387C344.078 80.3293 344.077 80.3198 344.074 80.3109C344.071 80.302 344.066 80.2937 344.059 80.2868C344.053 80.2798 344.045 80.2743 344.037 80.2705C344.028 80.2667 344.019 80.2648 344.009 80.2648C343.994 80.2642 343.979 80.2688 343.967 80.2777C343.954 80.2866 343.945 80.2995 343.941 80.3141C342.869 83.9586 340.902 87.2785 338.218 89.973C337.392 90.8061 336.5 91.5723 335.552 92.2645C334.527 92.9902 333.45 93.6388 332.329 94.2049C327.897 96.4368 322.852 97.1549 317.971 96.249C313.09 95.3431 308.642 92.8631 305.31 89.1902C301.979 85.5172 299.947 80.8543 299.529 75.9178C299.11 70.9813 300.327 66.0442 302.993 61.8649C304.902 58.9077 307.46 56.4239 310.476 54.6022C313.319 52.9021 316.505 51.8503 319.803 51.5222C325.671 50.9393 331.538 52.6433 336.175 56.2778L336.928 56.8938C337.18 57.0815 337.417 57.2873 337.638 57.5098C338.089 57.9533 338.527 58.3968 338.959 58.828C339.732 59.7205 340.454 60.6563 341.12 61.6308C343.198 64.7879 344.452 68.413 344.768 72.1767C344.768 72.1871 344.77 72.1975 344.776 72.2064C344.781 72.2152 344.79 72.2221 344.799 72.226L349.25 75.1027L350.405 75.8481L350.812 76.1006C350.812 76.1006 350.695 76.0144 350.442 75.8481L349.318 75.0904L344.873 72.1151V72.1644C344.594 68.3794 343.364 64.7253 341.299 61.5384C340.627 60.5528 339.902 59.6047 339.126 58.6986L337.799 57.3619C337.582 57.1297 337.349 56.9135 337.101 56.7151L336.342 56.0991C334.136 54.3498 331.624 53.0235 328.934 52.1875C325.973 51.2594 322.855 50.9368 319.766 51.2389C316.424 51.5533 313.194 52.6053 310.309 54.3189C307.25 56.1568 304.654 58.671 302.722 61.6678C300.697 64.8145 299.484 68.412 299.191 72.1398C299.137 72.5997 299.114 73.0628 299.123 73.5258V74.9056L299.24 76.2793C299.266 76.7344 299.324 77.1872 299.413 77.6345C299.499 78.0842 299.58 78.5277 299.66 78.9712C299.74 79.4147 299.894 79.8459 300.012 80.2833C300.129 80.7206 300.246 81.1518 300.401 81.5769L300.901 82.8089C302.233 86.0404 304.303 88.9174 306.944 91.2111C310.388 94.2269 314.66 96.142 319.206 96.7086C323.753 97.2753 328.365 96.4675 332.446 94.3897C333.577 93.8125 334.662 93.1515 335.694 92.4123C336.65 91.7114 337.548 90.9348 338.379 90.09C341.073 87.3615 343.035 83.9993 344.083 80.3141H343.941C343.941 80.3327 343.948 80.3506 343.961 80.3643C343.973 80.378 343.991 80.3865 344.009 80.388H344.052L349.114 77.2033L350.398 76.3902L350.812 76.1253Z" fill="#263238"/>
<path d="M317.587 70.2856C317.047 70.2856 316.519 70.1258 316.07 69.8263C315.622 69.5269 315.272 69.1013 315.066 68.6034C314.859 68.1055 314.805 67.5578 314.911 67.0294C315.017 66.5011 315.278 66.016 315.66 65.6354C316.042 65.2549 316.529 64.9961 317.058 64.8917C317.588 64.7874 318.137 64.8422 318.635 65.0492C319.134 65.2562 319.56 65.6061 319.859 66.0547C320.158 66.5033 320.317 67.0303 320.316 67.569C320.314 68.2901 320.026 68.981 319.514 69.4903C319.003 69.9996 318.31 70.2856 317.587 70.2856ZM317.587 66.3062C317.344 66.3123 317.109 66.3897 316.91 66.5287C316.711 66.6677 316.557 66.8621 316.469 67.0877C316.38 67.3133 316.36 67.56 316.411 67.7969C316.462 68.0338 316.582 68.2505 316.756 68.4197C316.93 68.5889 317.15 68.7032 317.388 68.7483C317.627 68.7934 317.873 68.7673 318.097 68.6732C318.321 68.5791 318.512 68.4213 318.646 68.2194C318.781 68.0175 318.852 67.7806 318.853 67.5382C318.853 67.3738 318.82 67.2111 318.756 67.0595C318.692 66.908 318.598 66.7708 318.48 66.656C318.362 66.5412 318.222 66.4511 318.069 66.391C317.916 66.331 317.752 66.3021 317.587 66.3062Z" fill="#263238"/>
<path d="M317.587 83.2216C317.047 83.2216 316.52 83.0619 316.071 82.7627C315.622 82.4636 315.273 82.0383 315.066 81.5408C314.86 81.0433 314.806 80.4959 314.911 79.9677C315.016 79.4396 315.276 78.9544 315.658 78.5736C316.039 78.1928 316.525 77.9335 317.055 77.8285C317.584 77.7234 318.133 77.7773 318.631 77.9834C319.13 78.1895 319.556 78.5385 319.856 78.9862C320.156 79.434 320.316 79.9604 320.316 80.4989C320.316 81.221 320.028 81.9135 319.516 82.4241C319.005 82.9347 318.311 83.2216 317.587 83.2216ZM317.587 79.2422C317.344 79.2483 317.109 79.3257 316.91 79.4647C316.711 79.6037 316.557 79.7981 316.469 80.0237C316.38 80.2493 316.36 80.496 316.411 80.7329C316.462 80.9698 316.582 81.1865 316.756 81.3557C316.93 81.5249 317.15 81.6392 317.388 81.6843C317.627 81.7294 317.873 81.7033 318.097 81.6092C318.321 81.5151 318.512 81.3573 318.646 81.1554C318.781 80.9535 318.852 80.7166 318.853 80.4742C318.853 80.3098 318.82 80.1471 318.756 79.9955C318.692 79.844 318.598 79.7068 318.48 79.592C318.362 79.4772 318.222 79.3871 318.069 79.327C317.916 79.267 317.752 79.2381 317.587 79.2422Z" fill="#263238"/>
<path d="M328.631 83.2216C328.091 83.2228 327.563 83.0642 327.114 82.7657C326.664 82.4673 326.313 82.0425 326.106 81.5451C325.898 81.0477 325.844 80.5001 325.948 79.9715C326.053 79.4429 326.312 78.9572 326.693 78.5758C327.075 78.1944 327.561 77.9345 328.09 77.8289C328.62 77.7234 329.169 77.7769 329.668 77.9828C330.167 78.1887 330.593 78.5377 330.893 78.9856C331.194 79.4335 331.354 79.9601 331.354 80.4989C331.354 81.2199 331.067 81.9115 330.557 82.422C330.046 82.9324 329.354 83.22 328.631 83.2216ZM328.631 79.2422C328.387 79.2422 328.148 79.3145 327.945 79.4499C327.742 79.5853 327.584 79.7777 327.491 80.0028C327.397 80.2279 327.373 80.4756 327.42 80.7146C327.468 80.9536 327.586 81.1731 327.758 81.3454C327.931 81.5177 328.151 81.635 328.39 81.6826C328.63 81.7301 328.878 81.7057 329.104 81.6125C329.329 81.5192 329.522 81.3613 329.658 81.1587C329.794 80.9561 329.866 80.7179 329.866 80.4742C329.858 80.15 329.726 79.8411 329.496 79.6117C329.266 79.3824 328.956 79.2501 328.631 79.2422Z" fill="#263238"/>
<path d="M318.241 69.5895H316.778V78.731H318.241V69.5895Z" fill="#263238"/>
<path d="M329.619 79.0759H328.156V71.456C328.154 70.6119 327.818 69.8028 327.219 69.2059C326.621 68.609 325.81 68.2729 324.964 68.2713H323.063V66.836H324.964C326.198 66.8376 327.381 67.3275 328.254 68.1982C329.126 69.0689 329.617 70.2493 329.619 71.4806V79.0759Z" fill="#263238"/>
<path d="M324.1 64.8833V70.0762L321.267 67.569L324.1 64.8833Z" fill="#263238"/>
<path d="M389.778 253.571H158.464V254.149H389.778V253.571Z" fill="#263238"/>
<path d="M268.972 126.114H207.949V126.73H268.972V126.114Z" fill="#263238"/>
<path d="M418.009 253.552H403.606V254.168H418.009V253.552Z" fill="#263238"/>
<path d="M399.582 253.552H392.044V254.168H399.582V253.552Z" fill="#263238"/>
<path d="M194.343 136.395H193.726V237.548H194.343V136.395Z" fill="#263238"/>
<path d="M353.615 231.154H352.997V223.762H353.615V231.154ZM352.812 216.419C352.478 214.012 351.688 211.689 350.485 209.576L351.022 209.268C352.264 211.452 353.079 213.851 353.423 216.339L352.812 216.419ZM345.805 204.056C343.914 202.52 341.748 201.356 339.422 200.625L339.607 200.04C342.008 200.791 344.244 201.991 346.194 203.576L345.805 204.056ZM332.224 199.744H324.816V199.128H332.224V199.744ZM317.408 199.744H310V199.128H317.408V199.744ZM302.592 199.744C300.078 199.686 297.598 199.153 295.283 198.173L295.524 197.607C297.769 198.555 300.173 199.071 302.611 199.128L302.592 199.744ZM289.036 194.04C287.236 192.285 285.786 190.205 284.764 187.911L285.325 187.664C286.32 189.884 287.725 191.896 289.468 193.596L289.036 194.04ZM283.047 180.648C283.047 180.359 283.047 180.063 283.047 179.767V173.213H283.665V179.736C283.665 180.026 283.665 180.309 283.665 180.593L283.047 180.648ZM283.665 165.864H283.047V158.472H283.665V165.864ZM283.665 151.08H283.047V143.688H283.665V151.08Z" fill="#263238"/>
<path d="M164.157 127.375L169.584 123.581C169.855 118.326 172.086 113.362 175.838 109.665C179.59 105.968 184.592 103.805 189.862 103.601C195.131 103.397 200.286 105.166 204.314 108.562C208.342 111.958 210.952 116.734 211.63 121.953C212.309 127.171 211.007 132.453 207.98 136.762C204.954 141.071 200.422 144.095 195.275 145.239C190.128 146.384 184.738 145.566 180.164 142.946C175.591 140.327 172.165 136.095 170.559 131.083L164.157 127.375Z" fill="white"/>
<path d="M164.157 127.375L164.589 127.609L165.824 128.318L170.59 131.034L170.491 131.096C170.49 131.087 170.491 131.078 170.494 131.07C170.497 131.062 170.501 131.055 170.507 131.048C170.513 131.042 170.52 131.037 170.528 131.033C170.536 131.03 170.544 131.028 170.553 131.028C170.567 131.028 170.581 131.032 170.593 131.04C170.605 131.047 170.615 131.058 170.621 131.071C171.708 134.416 173.619 137.436 176.177 139.855C176.963 140.606 177.81 141.292 178.708 141.907C179.675 142.547 180.686 143.119 181.733 143.619C185.104 145.205 188.839 145.865 192.552 145.531C196.264 145.197 199.82 143.881 202.853 141.719C205.886 139.557 208.287 136.627 209.807 133.23C211.327 129.834 211.911 126.095 211.501 122.398C211.131 119.001 209.924 115.748 207.988 112.93C206.148 110.246 203.718 108.016 200.882 106.413C198.21 104.912 195.237 104.024 192.178 103.813C189.349 103.612 186.509 103.981 183.825 104.897C181.393 105.724 179.135 106.992 177.164 108.636L176.485 109.252C176.253 109.44 176.036 109.646 175.837 109.868L174.652 111.1C173.964 111.948 173.323 112.832 172.732 113.749C170.897 116.727 169.837 120.115 169.645 123.605C169.651 123.621 169.651 123.639 169.645 123.654L165.577 126.408L164.528 127.129L164.157 127.375L164.491 127.129L165.515 126.408L169.547 123.544V123.593C169.71 120.073 170.761 116.651 172.602 113.644C173.193 112.715 173.836 111.821 174.528 110.965L175.726 109.696C175.915 109.475 176.122 109.269 176.343 109.08L177.029 108.464C181.256 104.918 186.7 103.151 192.209 103.536C195.31 103.748 198.325 104.644 201.037 106.16C203.913 107.781 206.38 110.038 208.247 112.757C210.199 115.616 211.414 118.91 211.784 122.349C211.848 122.773 211.881 123.201 211.883 123.63L211.933 124.905L211.859 126.174C211.849 126.597 211.807 127.019 211.735 127.437C211.667 127.849 211.605 128.268 211.538 128.669C211.465 129.084 211.37 129.495 211.254 129.901C211.142 130.301 211.056 130.714 210.926 131.133L210.5 132.297C209.347 135.318 207.509 138.031 205.13 140.225C202.972 142.213 200.426 143.735 197.651 144.694C194.876 145.654 191.933 146.03 189.005 145.8C186.446 145.597 183.946 144.929 181.628 143.828C180.556 143.327 179.524 142.744 178.541 142.085C177.641 141.459 176.791 140.765 175.998 140.009C173.424 137.561 171.513 134.503 170.442 131.12H170.571C170.572 131.129 170.571 131.138 170.569 131.146C170.566 131.154 170.561 131.162 170.556 131.168C170.55 131.174 170.543 131.179 170.535 131.183C170.527 131.186 170.518 131.188 170.51 131.188H170.473L165.707 128.373L164.472 127.652L164.157 127.375Z" fill="#263238"/>
<path d="M183.208 124.985L185.387 122.811L189.591 126.537L197.839 118.616L199.864 120.79L189.283 130.732L183.208 124.985Z" fill="#263238"/>
<path d="M292.332 269.574H265.348C264.465 269.585 263.614 269.247 262.981 268.632C262.348 268.018 261.985 267.178 261.972 266.297V230.051C261.985 229.17 262.348 228.33 262.981 227.716C263.614 227.101 264.465 226.763 265.348 226.774H282.461L295.74 240.024V266.297C295.733 266.736 295.64 267.169 295.465 267.572C295.29 267.975 295.037 268.339 294.72 268.643C294.403 268.948 294.029 269.187 293.619 269.347C293.209 269.507 292.772 269.584 292.332 269.574Z" fill="#455A64"/>
<g opacity="0.2">
<path d="M282.461 226.774V236.975C282.465 237.382 282.55 237.784 282.71 238.157C282.87 238.531 283.103 238.869 283.396 239.153C283.688 239.436 284.033 239.659 284.412 239.809C284.791 239.959 285.196 240.032 285.603 240.024H295.74L282.461 226.774Z" fill="white"/>
</g>
<g opacity="0.2">
<path d="M282.603 237.868C282.603 237.868 282.467 240.332 285.368 241.158L285.702 241.232C287.023 241.46 295.709 242.957 295.709 242.766V240.024H285.603C285.603 240.024 283.078 239.938 282.603 237.868Z" fill="black"/>
</g>
<g opacity="0.3">
<path d="M261.971 256.084H295.739V267.122C295.739 267.776 295.479 268.402 295.016 268.865C294.553 269.327 293.925 269.586 293.27 269.586H264.428C263.773 269.586 263.145 269.327 262.682 268.865C262.219 268.402 261.959 267.776 261.959 267.122V256.084H261.971Z" fill="black"/>
</g>
<path d="M273.806 260.137V264.658H272.756V262.81H270.694V264.658H269.645V260.137H270.694V261.917H272.756V260.137H273.806Z" fill="#FAFAFA"/>
<path d="M275.818 260.987H274.368V260.137H278.319V260.987H276.868V264.683H275.818V260.987Z" fill="#FAFAFA"/>
<path d="M283.01 264.658V261.942L281.67 264.178H281.201L279.874 262.003V264.658H278.886V260.137H279.757L281.454 262.946L283.121 260.137H284.01V264.658H283.01Z" fill="#FAFAFA"/>
<path d="M285.066 260.137H286.115V263.833H288.387V264.683H285.066V260.137Z" fill="#FAFAFA"/>
<path d="M275.621 244.133L271.571 245.981L275.621 247.829V249.739L269.812 247.016V245.032L275.602 242.273L275.621 244.133Z" fill="white"/>
<path d="M282.158 247.86L286.208 246.012L282.158 244.164V242.254L287.949 245.014V247.016L282.158 249.751V247.86Z" fill="white"/>
<path d="M278.566 240.363L280.356 240.326L278.998 251.827L277.22 251.784L278.566 240.363Z" fill="white"/>
<path d="M214.301 269.574H187.317C186.434 269.585 185.583 269.247 184.949 268.632C184.316 268.018 183.953 267.178 183.94 266.297V230.051C183.953 229.17 184.316 228.33 184.949 227.716C185.583 227.101 186.434 226.763 187.317 226.774H204.43L217.678 240.024V266.297C217.665 267.178 217.302 268.018 216.669 268.632C216.036 269.247 215.184 269.585 214.301 269.574Z" fill="#455A64"/>
<g opacity="0.2">
<path d="M204.43 226.774V236.975C204.434 237.381 204.518 237.783 204.678 238.156C204.838 238.529 205.071 238.867 205.362 239.151C205.654 239.434 205.998 239.657 206.376 239.807C206.755 239.957 207.159 240.031 207.566 240.024H217.678L204.43 226.774Z" fill="white"/>
</g>
<g opacity="0.2">
<path d="M204.566 237.868C204.566 237.868 204.436 240.332 207.338 241.158C207.443 241.189 207.56 241.207 207.671 241.232C208.986 241.46 217.678 242.957 217.678 242.766V240.024H207.566C207.566 240.024 205.047 239.938 204.566 237.868Z" fill="black"/>
</g>
<g opacity="0.3">
<path d="M183.941 256.084H217.678V267.122C217.678 267.776 217.418 268.402 216.955 268.865C216.491 269.327 215.863 269.586 215.208 269.586H186.398C185.743 269.586 185.115 269.327 184.651 268.865C184.188 268.402 183.928 267.776 183.928 267.122V256.084H183.941Z" fill="black"/>
</g>
<path d="M195.769 260.137V264.658H194.719V262.81H192.645V264.658H191.596V260.137H192.645V261.917H194.701V260.137H195.769Z" fill="#FAFAFA"/>
<path d="M197.787 260.987H196.349V260.137H200.3V260.987H198.818V264.683H197.769L197.787 260.987Z" fill="#FAFAFA"/>
<path d="M204.992 264.658V261.942L203.658 264.178H203.14L201.813 262.003V264.658H200.831V260.137H201.695L203.393 262.946L205.066 260.137H205.93V264.658H204.992Z" fill="#FAFAFA"/>
<path d="M207.035 260.137H208.078V263.833H210.35V264.683H207.029L207.035 260.137Z" fill="#FAFAFA"/>
<path d="M197.584 244.133L193.534 245.981L197.584 247.829V249.739L191.799 247.016V245.032L197.59 242.273L197.584 244.133Z" fill="white"/>
<path d="M204.109 247.86L208.159 246.012L204.109 244.164V242.254L209.899 245.014V247.016L204.109 249.782V247.86Z" fill="white"/>
<path d="M200.535 240.363L202.319 240.326L200.961 251.827L199.183 251.784L200.535 240.363Z" fill="white"/>
<path d="M295.332 154.468H269.404C268.556 154.48 267.737 154.155 267.128 153.565C266.519 152.974 266.17 152.167 266.157 151.32V116.467C266.17 115.62 266.519 114.813 267.128 114.223C267.737 113.633 268.556 113.308 269.404 113.319L288.338 113.646L298.598 126.058V151.314C298.592 151.736 298.503 152.152 298.336 152.539C298.169 152.926 297.926 153.276 297.623 153.569C297.319 153.862 296.961 154.092 296.568 154.247C296.174 154.401 295.755 154.476 295.332 154.468Z" fill="#455A64"/>
<g opacity="0.3">
<path d="M266.138 141.501H298.579V152.023C298.579 152.676 298.319 153.303 297.856 153.765C297.393 154.227 296.765 154.487 296.11 154.487H268.577C267.922 154.487 267.294 154.227 266.831 153.765C266.368 153.303 266.107 152.676 266.107 152.023V141.501H266.138Z" fill="black"/>
</g>
<path d="M277.516 145.376V149.725H276.51V147.963H274.528V149.743H273.516V145.376H274.522V147.095H276.504V145.376H277.516Z" fill="#FAFAFA"/>
<path d="M279.454 146.214H278.059V145.376H281.856V146.195H280.461V149.725H279.454V146.214Z" fill="#FAFAFA"/>
<path d="M286.369 149.743V147.138L285.084 149.288H284.628L283.35 147.193V149.743H282.405V145.376H283.239L284.868 148.08L286.48 145.376H287.307V149.725L286.369 149.743Z" fill="#FAFAFA"/>
<path d="M288.332 145.376H289.344V148.906H291.529V149.725H288.332V145.376Z" fill="#FAFAFA"/>
<path d="M279.263 130.013L275.368 131.824L279.263 133.604V135.452L273.707 132.797V130.894L279.263 128.233V130.013Z" fill="white"/>
<path d="M285.535 133.592L289.424 131.799L285.535 130.025V128.177L291.091 130.838V132.742L285.535 135.397V133.592Z" fill="white"/>
<path d="M282.097 126.391L283.813 126.348L282.51 137.436L280.8 137.368L282.097 126.391Z" fill="white"/>
<path d="M296.067 128.473C301.355 128.473 305.642 124.195 305.642 118.919C305.642 113.642 301.355 109.365 296.067 109.365C290.779 109.365 286.492 113.642 286.492 118.919C286.492 124.195 290.779 128.473 296.067 128.473Z" fill="white"/>
<path d="M305.617 118.919C305.553 118.139 305.431 117.365 305.253 116.603C305.026 115.714 304.666 114.864 304.185 114.083C303.054 112.202 301.3 110.773 299.227 110.043C297.153 109.313 294.89 109.328 292.826 110.085C291.077 110.723 289.556 111.863 288.455 113.362C287.27 114.969 286.631 116.912 286.631 118.906C286.631 120.901 287.27 122.844 288.455 124.45C289.556 125.95 291.077 127.09 292.826 127.728C294.891 128.475 297.151 128.485 299.222 127.756C301.293 127.027 303.047 125.604 304.185 123.73C304.666 122.949 305.026 122.099 305.253 121.21C305.431 120.448 305.553 119.674 305.617 118.894C305.624 118.945 305.624 118.997 305.617 119.048C305.617 119.171 305.617 119.319 305.617 119.504C305.618 119.752 305.597 119.999 305.555 120.243C305.522 120.58 305.462 120.914 305.376 121.241C305.168 122.15 304.818 123.021 304.339 123.822C303.199 125.764 301.413 127.246 299.292 128.011C297.171 128.776 294.848 128.776 292.727 128.011C291.842 127.698 291.01 127.254 290.258 126.693C289.464 126.122 288.768 125.428 288.196 124.635C286.961 122.975 286.294 120.962 286.294 118.894C286.294 116.826 286.961 114.814 288.196 113.153C288.488 112.755 288.808 112.379 289.153 112.026C289.5 111.691 289.869 111.38 290.258 111.096C291.008 110.532 291.841 110.088 292.727 109.777C294.363 109.192 296.125 109.053 297.833 109.377C299.192 109.634 300.479 110.178 301.609 110.974C302.739 111.77 303.685 112.799 304.382 113.991C304.862 114.792 305.212 115.663 305.42 116.572C305.506 116.899 305.566 117.233 305.599 117.57C305.64 117.814 305.661 118.061 305.66 118.309C305.66 118.494 305.66 118.642 305.66 118.765C305.653 118.818 305.638 118.87 305.617 118.919Z" fill="#263238"/>
<path d="M291.344 119.744L292.641 118.444L295.147 120.668L300.061 115.95L301.265 117.243L294.956 123.163L291.344 119.744Z" fill="#00A8CD"/>
<path d="M370.369 269.574H343.386C342.502 269.585 341.651 269.247 341.018 268.632C340.385 268.018 340.022 267.178 340.009 266.297V230.051C340.022 229.17 340.385 228.33 341.018 227.716C341.651 227.101 342.502 226.763 343.386 226.774H360.498L373.746 240.024V266.297C373.733 267.178 373.37 268.018 372.737 268.632C372.104 269.247 371.252 269.585 370.369 269.574Z" fill="#455A64"/>
<g opacity="0.2">
<path d="M360.498 226.774V236.975C360.502 237.381 360.586 237.783 360.747 238.156C360.907 238.529 361.139 238.867 361.43 239.151C361.722 239.434 362.067 239.657 362.445 239.807C362.823 239.957 363.227 240.031 363.634 240.024H373.746L360.498 226.774Z" fill="white"/>
</g>
<g opacity="0.2">
<path d="M360.634 237.868C360.634 237.868 360.504 240.332 363.406 241.158C363.51 241.189 363.622 241.207 363.739 241.232C365.054 241.46 373.746 242.957 373.746 242.766V240.024H363.646C363.646 240.024 361.115 239.938 360.634 237.868Z" fill="black"/>
</g>
<g opacity="0.3">
<path d="M340.008 256.084H373.746V267.122C373.746 267.776 373.486 268.402 373.022 268.865C372.559 269.327 371.931 269.586 371.276 269.586H342.465C341.811 269.586 341.182 269.327 340.719 268.865C340.256 268.402 339.996 267.776 339.996 267.122V256.084H340.008Z" fill="black"/>
</g>
<path d="M351.837 260.137V264.658H350.787V262.81H348.732V264.658H347.682V260.137H348.732V261.917H350.787V260.137H351.837Z" fill="#FAFAFA"/>
<path d="M353.856 260.987H352.405V260.137H356.356V260.987H354.905V264.683H353.856V260.987Z" fill="#FAFAFA"/>
<path d="M361.041 264.658V261.942L359.708 264.178H359.232L357.905 262.003V264.658H356.917V260.137H357.782L359.479 262.946L361.177 260.137H362.041V264.658H361.041Z" fill="#FAFAFA"/>
<path d="M363.103 260.137H364.153V263.833H366.424V264.683H363.103V260.137Z" fill="#FAFAFA"/>
<path d="M353.658 244.133L349.608 245.981L353.658 247.829V249.739L347.867 247.016V245.032L353.658 242.273V244.133Z" fill="white"/>
<path d="M360.177 247.86L364.226 246.012L360.177 244.164V242.254L365.967 245.014V247.016L360.177 249.782V247.86Z" fill="white"/>
<path d="M356.602 240.363L358.387 240.326L357.028 251.827L355.25 251.784L356.602 240.363Z" fill="white"/>
<path d="M379.975 32.8513C378.631 32.6627 377.262 32.8291 376.003 33.3339C374.744 33.8387 373.64 34.6642 372.801 35.728C371.859 35.5206 370.877 35.5892 369.973 35.9257C369.069 36.2622 368.282 36.8522 367.706 37.6247C367.13 38.3972 366.79 39.3192 366.727 40.2799C366.664 41.2407 366.88 42.1991 367.35 43.0399C366.661 43.5292 366.094 44.169 365.69 44.9105C365.286 45.6519 365.058 46.4756 365.021 47.3186C364.985 48.1616 365.142 49.0018 365.48 49.7751C365.819 50.5484 366.33 51.2345 366.974 51.781L385.982 37.7238C385.496 36.4578 384.685 35.3412 383.631 34.4861C382.577 33.6309 381.316 33.0672 379.975 32.8513Z" fill="#263238"/>
<path d="M366.832 52.6803C367.464 47.8568 369.893 43.4477 373.636 40.3312C377.38 37.2147 382.162 35.6196 387.031 35.8635L388.031 35.9128C398.816 37.077 403.853 46.8714 402.384 57.596L399.026 93.4657L398.847 95.209L373.635 98.9666L374.129 89.8005C374.129 89.8005 363.807 87.6753 364.196 77.2895C364.381 72.2753 365.609 61.9819 366.832 52.6803Z" fill="#AE7461"/>
<path d="M374.042 89.782C378.871 90.0234 383.668 88.8775 387.864 86.4802C387.864 86.4802 384.29 93.786 373.962 92.3384L374.042 89.782Z" fill="#6F4439"/>
<path d="M369.603 62.2653C369.579 62.6512 369.707 63.0313 369.96 63.3247C370.212 63.6181 370.569 63.8015 370.955 63.8361C371.142 63.8603 371.331 63.8476 371.512 63.7987C371.693 63.7498 371.863 63.6658 372.011 63.5513C372.16 63.4368 372.284 63.2943 372.377 63.1317C372.471 62.9692 372.531 62.7899 372.554 62.6041C372.575 62.4087 372.556 62.2112 372.498 62.0232C372.441 61.8352 372.347 61.6606 372.221 61.5096C372.095 61.3587 371.94 61.2344 371.765 61.1441C371.59 61.0538 371.399 60.9994 371.202 60.984C371.012 60.9592 370.819 60.973 370.635 61.0245C370.45 61.0761 370.278 61.1644 370.129 61.2841C369.979 61.4038 369.856 61.5525 369.766 61.7211C369.675 61.8897 369.62 62.0748 369.603 62.2653Z" fill="#263238"/>
<path d="M368.813 57.867C368.986 58.0703 370.153 57.2942 371.752 57.3804C373.351 57.4666 374.481 58.3167 374.666 58.1319C374.752 58.0518 374.585 57.6946 374.092 57.2942C373.423 56.7818 372.612 56.489 371.77 56.4564C370.941 56.4082 370.117 56.6239 369.418 57.0724C368.912 57.4358 368.727 57.7808 368.813 57.867Z" fill="#263238"/>
<path d="M384.475 63.448C384.451 63.8333 384.579 64.2127 384.832 64.5051C385.084 64.7974 385.442 64.9796 385.827 65.0126C386.013 65.0368 386.202 65.0241 386.383 64.9753C386.564 64.9264 386.734 64.8423 386.883 64.7279C387.031 64.6134 387.156 64.4708 387.249 64.3083C387.342 64.1457 387.402 63.9664 387.426 63.7806C387.448 63.3941 387.319 63.014 387.066 62.7208C386.812 62.4277 386.454 62.2444 386.068 62.2098C385.882 62.1857 385.692 62.1987 385.511 62.248C385.33 62.2974 385.161 62.3821 385.012 62.4972C384.864 62.6124 384.741 62.7557 384.648 62.9189C384.556 63.0821 384.497 63.2619 384.475 63.448Z" fill="#263238"/>
<path d="M384.506 58.945C384.679 59.1483 385.846 58.3722 387.444 58.4584C389.043 58.5446 390.173 59.3947 390.358 59.2099C390.445 59.1237 390.278 58.7664 389.784 58.3722C389.115 57.8611 388.305 57.5666 387.463 57.5282C386.633 57.48 385.81 57.6957 385.111 58.1442C384.636 58.52 384.42 58.8526 384.506 58.945Z" fill="#263238"/>
<path d="M378.117 70.4827C378.117 70.3903 377.147 70.1686 375.548 69.8667C375.141 69.8051 374.758 69.7066 374.703 69.4232C374.691 69.0004 374.807 68.5839 375.036 68.2282L376.394 65.1913C378.289 60.8793 379.685 57.288 379.512 57.1833C379.339 57.0786 377.66 60.559 375.758 64.8894L374.45 67.9694C374.149 68.4595 374.039 69.0425 374.141 69.608C374.192 69.7495 374.274 69.878 374.381 69.9844C374.488 70.0909 374.616 70.1726 374.758 70.224C374.98 70.2982 375.21 70.3418 375.443 70.3534C377.104 70.5135 378.104 70.569 378.117 70.4827Z" fill="#263238"/>
<path d="M382.783 71.8194C382.524 71.8194 382.431 73.5196 380.888 74.6777C379.345 75.8358 377.505 75.5462 377.48 75.7865C377.48 75.8974 377.876 76.1438 378.653 76.2054C379.669 76.2703 380.674 75.9758 381.493 75.3738C382.279 74.794 382.81 73.9331 382.975 72.9714C383.055 72.2506 382.882 71.8133 382.783 71.8194Z" fill="#263238"/>
<path d="M384.401 52.6742C384.537 53.1177 386.148 52.9883 388.006 53.2902C389.864 53.592 391.365 54.1957 391.63 53.8199C391.753 53.6351 391.507 53.2039 390.92 52.7666C390.132 52.2044 389.223 51.8351 388.266 51.6886C387.313 51.5248 386.335 51.5924 385.413 51.8857C384.71 52.1444 384.345 52.4647 384.401 52.6742Z" fill="#263238"/>
<path d="M369.628 53.284C369.894 53.6598 371.011 53.3394 372.338 53.3887C373.666 53.438 374.77 53.7522 375.048 53.3887C375.172 53.2101 375.011 52.8405 374.536 52.477C373.909 52.0106 373.151 51.754 372.369 51.744C371.59 51.7175 370.822 51.9327 370.171 52.36C369.69 52.7358 369.517 53.0992 369.628 53.284Z" fill="#263238"/>
<path d="M368.066 47.9741C368.066 47.9741 371.153 41.6108 374.351 40.2494C378.24 38.6047 379.672 42.849 383.345 42.0174C387.019 41.1858 390.753 39.6026 394.297 42.5841C398.199 45.8427 396.192 47.894 396.211 52.5078C396.297 71.2219 399.452 76.6735 400.859 67.9078C401.014 66.953 403.73 66.3186 404.329 62.2714C405.106 57.017 405.631 50.6229 404.637 46.816C403.798 43.6128 402.106 41.3398 398.989 38.7772C394.05 34.7301 387.068 34.2989 382.277 34.5453C377.487 34.7917 368.042 39.8182 368.066 47.9741Z" fill="#263238"/>
<path d="M400.211 67.6122C400.243 67.2324 400.351 66.863 400.53 66.5263C400.709 66.1895 400.955 65.8925 401.252 65.653C401.549 65.4135 401.891 65.2366 402.259 65.1329C402.626 65.0292 403.011 65.0008 403.39 65.0496C405.322 65.333 407.427 66.5342 407.094 70.5258C406.514 77.6098 399.507 75.5709 399.513 75.3614C399.519 75.152 399.939 70.5751 400.211 67.6122Z" fill="#AE7461"/>
<path d="M401.303 72.8235C401.34 72.8235 401.421 72.9221 401.624 73.033C401.907 73.1835 402.236 73.2189 402.544 73.1315C403.316 72.9159 404.044 71.7825 404.186 70.5074C404.251 69.9001 404.181 69.2862 403.983 68.7086C403.934 68.4821 403.832 68.2706 403.683 68.0925C403.535 67.9143 403.345 67.7749 403.131 67.6861C402.991 67.6339 402.837 67.6339 402.698 67.686C402.558 67.738 402.442 67.8387 402.371 67.9694C402.26 68.1604 402.297 68.3021 402.26 68.3144C402.223 68.3267 402.112 68.1789 402.199 67.8955C402.249 67.721 402.361 67.5703 402.513 67.4705C402.721 67.34 402.971 67.2958 403.211 67.3473C403.501 67.4305 403.764 67.5879 403.974 67.8041C404.184 68.0202 404.334 68.2875 404.409 68.5793C404.664 69.2159 404.758 69.9059 404.68 70.5874C404.513 72.0166 403.674 73.2917 402.624 73.5011C402.429 73.5421 402.227 73.5384 402.034 73.4904C401.84 73.4424 401.66 73.3513 401.507 73.2239C401.303 72.996 401.254 72.8358 401.303 72.8235Z" fill="#6F4439"/>
<path d="M402.89 55.6248C401.912 56.3379 400.77 56.7953 399.569 56.9554C398.334 57.017 397.025 56.2593 396.883 55.0642C396.815 54.5283 396.976 53.9185 396.649 53.4873C396.322 53.0561 395.47 53.093 394.797 53.13C393.667 53.1622 392.56 52.8066 391.661 52.1228C390.763 51.4389 390.126 50.4681 389.858 49.3724C389.241 50.1978 387.926 50.0931 387.092 49.4956C386.259 48.8981 385.753 47.9679 385.117 47.1671C384.481 46.3663 383.567 45.6271 382.549 45.7195C381.981 45.775 381.431 46.083 380.864 46.0029C379.863 45.8674 379.431 44.6662 379.326 43.6621C379.221 42.658 379.16 41.4876 378.339 40.9024C377.518 40.3172 376.536 40.6006 375.598 40.693C374.659 40.7854 373.48 40.5082 373.289 39.5903C373.263 39.3454 373.286 39.0977 373.357 38.8618C373.428 38.6259 373.545 38.4065 373.702 38.2166C374.374 37.3138 375.333 36.6654 376.422 36.3778C377.511 36.0901 378.666 36.1803 379.697 36.6335C380.157 35.3904 380.966 34.3061 382.028 33.5106C383.091 32.7152 384.36 32.2424 385.685 32.149C388.321 32.0012 390.778 31.2497 391.926 33.6274C393.618 32.2414 396.204 34.0586 398.316 34.65C399.369 34.9558 400.336 35.5057 401.136 36.2551C401.937 37.0045 402.548 37.932 402.921 38.962C403.875 38.7527 404.869 38.8303 405.779 39.1849C406.688 39.5395 407.472 40.1553 408.031 40.9544C408.59 41.7534 408.899 42.6999 408.919 43.6741C408.939 44.6484 408.669 45.6067 408.144 46.4279C409.483 47.278 410.613 48.7071 410.545 50.2902C410.477 51.8734 408.872 53.3702 407.359 52.8836C407.604 53.5174 407.605 54.2194 407.36 54.8535C407.116 55.4876 406.645 56.0085 406.037 56.3154C405.43 56.6223 404.73 56.6932 404.073 56.5144C403.416 56.3355 402.85 55.9197 402.483 55.3476" fill="#263238"/>
<path d="M421.947 155.232L442.937 150.711C442.937 150.711 440.06 134.953 436.48 118.974C433.621 106.229 419.509 102.693 419.509 102.693L403.156 95.48L400.952 87.01C391.964 91.4452 383.241 95.7141 377.981 97.8516L373.166 92.5417L371.122 98.9173L369.4 99.0959C369.4 99.0959 362.282 101.252 361.566 101.307C355.053 101.825 346.559 109.1 343.379 116.707C342.065 119.855 336.972 138.68 333.243 158.17C330.539 172.271 328.977 185.958 328.304 187.812L349.294 187.855L354.133 158.17L355.553 188.022L426.997 187.8L421.917 157.801L421.947 155.232Z" fill="#00A8CD"/>
<path d="M351.003 123.095C350.942 123.095 351.534 130.955 352.331 140.639C353.127 150.322 353.825 158.17 353.893 158.164C353.96 158.158 353.362 150.304 352.565 140.62C351.769 130.937 351.071 123.089 351.003 123.095Z" fill="#263238"/>
<path d="M403.156 95.7449L381.913 106.389L377.956 97.7654C377.956 97.7654 385.068 94.6854 391.537 91.2727C398.137 87.7615 400.705 87.0162 400.705 87.0162" fill="#E0E0E0"/>
<path d="M372.937 92.5478L377.752 97.8516L373.412 105.576L370.894 98.9234" fill="#E0E0E0"/>
<path d="M424.077 105.644C424.114 105.687 423.411 106.26 422.417 107.252C419.824 109.925 418.027 113.265 417.225 116.898C416.922 118.284 416.848 119.165 416.793 119.165C416.764 118.961 416.764 118.754 416.793 118.549C416.823 117.983 416.891 117.419 416.996 116.861C417.676 113.135 419.517 109.719 422.256 107.098C422.663 106.702 423.096 106.334 423.552 105.995C423.707 105.851 423.885 105.732 424.077 105.644Z" fill="#263238"/>
<path d="M377.981 97.7654C378.024 97.7654 377.512 98.5785 376.746 99.8721C375.981 101.166 374.944 102.989 373.962 105.071C373.882 105.244 373.808 105.416 373.734 105.57L373.579 105.903L373.425 105.576C372.623 103.901 371.934 102.175 371.363 100.408C371.153 99.7366 370.999 99.176 370.906 98.8064C370.837 98.6082 370.802 98.4001 370.801 98.1904C370.844 98.1904 371.11 98.9974 371.585 100.322C372.061 101.646 372.777 103.451 373.715 105.416H373.413L373.641 104.911C374.484 103.12 375.449 101.389 376.53 99.7304C376.944 99.1144 377.302 98.5908 377.555 98.252C377.674 98.0714 377.818 97.9077 377.981 97.7654Z" fill="#263238"/>
<path d="M401.304 96.712C401.201 96.7444 401.102 96.7857 401.007 96.8352L400.186 97.2233L397.192 98.6832L387.315 103.58L381.895 106.303L382.043 106.359L379.154 100.162C378.802 99.4224 378.536 98.831 378.308 98.3998L378.079 97.9317C378.055 97.8767 378.024 97.8249 377.987 97.7777C377.998 97.8381 378.019 97.8964 378.049 97.9502L378.246 98.4245L379.036 100.217C379.734 101.763 380.709 103.913 381.845 106.445L381.895 106.543L381.993 106.494L387.42 103.79L397.241 98.831L400.205 97.3034L401.007 96.8783C401.113 96.8357 401.212 96.7798 401.304 96.712Z" fill="#263238"/>
<path d="M440.64 139.894C440.64 139.894 444.999 160.905 445.35 165.766C446.048 175.283 441.474 180.987 437.159 183.691C432.677 186.494 407.384 187.818 407.384 187.818L405.854 172.726L422.293 162.79L420.065 145.592L440.64 139.894Z" fill="#00A8CD"/>
<path d="M422.2 162.211C422.197 162.096 422.187 161.981 422.169 161.866C422.132 161.62 422.089 161.293 422.028 160.881C421.898 160 421.713 158.768 421.484 157.259C420.997 154.179 420.336 149.965 419.601 145.314C418.157 136.216 417.132 129.662 416.922 128.43C416.911 128.545 416.911 128.66 416.922 128.775C416.922 129.009 416.978 129.342 417.027 129.767C417.132 130.629 417.305 131.867 417.527 133.401C417.972 136.481 418.62 140.688 419.379 145.351C420.138 150.014 420.811 154.234 421.33 157.283C421.583 158.786 421.799 160.018 421.947 160.893C422.021 161.3 422.083 161.626 422.126 161.872C422.14 161.987 422.165 162.101 422.2 162.211Z" fill="#263238"/>
<path d="M438.517 182.816C438.47 182.845 438.427 182.878 438.387 182.915C438.276 183.023 438.151 183.116 438.017 183.192C437.504 183.509 436.954 183.764 436.381 183.95C434.257 184.644 432.078 185.159 429.868 185.49C422.42 186.655 414.911 187.388 407.378 187.683L407.502 187.781C407.347 186.297 407.193 184.701 407.026 183.137C406.656 179.478 406.298 175.948 405.965 172.696L405.909 172.8L421.842 163.197L426.442 160.4L427.676 159.643L427.985 159.445L428.09 159.372C428.09 159.372 428.053 159.372 427.979 159.427L427.652 159.612L426.417 160.332L421.781 163.08L405.81 172.609L405.749 172.646V172.714C406.076 175.973 406.434 179.49 406.804 183.186C406.965 184.775 407.125 186.346 407.28 187.831V187.942H407.384C414.924 187.643 422.439 186.886 429.886 185.675C432.102 185.325 434.283 184.785 436.405 184.061C436.98 183.863 437.528 183.594 438.035 183.26C438.167 183.175 438.289 183.076 438.399 182.964C438.443 182.919 438.482 182.869 438.517 182.816Z" fill="#263238"/>
<g opacity="0.3">
<path d="M433.405 156.563C433.251 156.37 433.031 156.241 432.788 156.199C431.553 155.922 430.318 156.365 429.195 156.883C425.795 158.506 422.818 160.893 420.497 163.856L420.781 163.696C424.633 161.423 428.04 159.119 432.17 158.022C432.543 157.953 432.895 157.802 433.201 157.579C433.348 157.46 433.449 157.293 433.487 157.107C433.524 156.922 433.495 156.729 433.405 156.563Z" fill="black"/>
</g>
<path d="M406.082 173.644L403.952 173.841C403.952 173.841 403.674 170.761 403.193 169.566C402.711 168.371 401.81 164.675 401.81 164.675C401.81 164.675 392.284 160.677 392.075 160.677C391.865 160.677 382.549 163.24 382.549 163.24C382.549 163.24 382.759 165.784 385.932 165.926C387.832 166.01 389.735 165.848 391.593 165.445L394.562 166.548L388.624 166.924L378.203 173.158C378.203 173.158 378.271 175.006 382.345 174.051C386.42 173.096 388.519 171.365 388.519 171.365L396.18 172.48L388.074 172.862L382 175.893C382 175.893 382.049 178.406 384.537 177.784C387.025 177.162 388.692 176.792 388.692 176.792L395.939 177.648L389.797 177.987C389.797 177.987 385.654 178.098 385.864 179.219C386.074 180.34 389.111 181.283 389.111 181.283L393.433 182.046C393.433 182.046 393.593 183.975 394.353 184.591C395.112 185.207 396.285 186.075 396.976 186.087C397.668 186.1 407.397 186.617 407.397 186.617L406.082 173.644Z" fill="#AE7461"/>
<path d="M400.773 183.057C400.905 182.991 401.029 182.91 401.143 182.816C401.456 182.571 401.744 182.294 402.001 181.991C402.86 180.973 403.403 179.727 403.563 178.406C403.65 177.681 403.617 176.946 403.465 176.231C403.323 175.578 403.094 174.999 403.026 174.537C402.959 174.156 402.991 173.764 403.119 173.398C403.174 173.265 403.236 173.136 403.304 173.01C403.187 173.104 403.098 173.227 403.045 173.367C402.879 173.74 402.824 174.152 402.884 174.556C402.934 175.067 403.15 175.634 403.279 176.275C403.416 176.968 403.443 177.679 403.36 178.381C403.2 179.665 402.692 180.882 401.89 181.899C401.544 182.309 401.17 182.695 400.773 183.057Z" fill="#6F4439"/>
<path d="M399.6 182.336C398.548 182.196 397.488 182.124 396.426 182.12C395.37 182.054 394.31 182.054 393.253 182.12C394.303 182.26 395.361 182.332 396.42 182.336C397.479 182.402 398.541 182.402 399.6 182.336Z" fill="#6F4439"/>
<path d="M399.131 177.759C398.574 177.666 398.008 177.641 397.445 177.685C396.883 177.659 396.319 177.7 395.766 177.808C396.32 177.906 396.884 177.933 397.445 177.888C398.01 177.914 398.576 177.871 399.131 177.759Z" fill="#6F4439"/>
<path d="M399.452 167.133C399.452 167.072 398.396 167.25 397.106 167.133C395.816 167.016 394.822 166.634 394.803 166.696C395.51 167.066 396.29 167.276 397.087 167.312C397.879 167.423 398.686 167.362 399.452 167.133Z" fill="#6F4439"/>
<path d="M309.938 143.109L319.063 187.806H398.266C398.686 187.806 399.089 187.64 399.386 187.345C399.683 187.049 399.851 186.648 399.853 186.229C399.853 185.809 399.686 185.407 399.388 185.11C399.091 184.813 398.687 184.646 398.266 184.646H382.327L373.863 143.078C373.785 142.692 373.577 142.344 373.272 142.092C372.967 141.841 372.585 141.702 372.19 141.698L311.661 141.064C311.404 141.06 311.151 141.114 310.918 141.22C310.685 141.327 310.478 141.483 310.313 141.679C310.149 141.875 310.029 142.105 309.965 142.352C309.9 142.599 309.891 142.858 309.938 143.109Z" fill="#E0E0E0"/>
<path d="M309.938 143.109C309.935 143.064 309.935 143.019 309.938 142.974C309.918 142.839 309.918 142.702 309.938 142.567C309.968 142.299 310.059 142.042 310.204 141.816C310.35 141.589 310.546 141.399 310.778 141.261C310.94 141.165 311.118 141.096 311.303 141.058C311.506 141.019 311.713 141.004 311.92 141.015H313.346L316.908 141.046L339.793 141.261L355.744 141.421L364.683 141.514L369.375 141.563H371.77C371.974 141.563 372.166 141.563 372.388 141.563C372.602 141.588 372.811 141.648 373.005 141.742C373.393 141.934 373.701 142.257 373.876 142.653C373.951 142.853 374.007 143.059 374.042 143.269L374.166 143.885C374.246 144.286 374.326 144.686 374.413 145.117C374.573 145.924 374.74 146.737 374.906 147.581C375.24 149.224 375.577 150.881 375.919 152.552C376.606 155.908 377.306 159.339 378.018 162.846C379.45 169.85 380.932 177.143 382.463 184.652L382.358 184.566H398.032C398.238 184.554 398.446 184.566 398.649 184.603C399.071 184.692 399.442 184.939 399.686 185.293C399.825 185.488 399.921 185.711 399.967 185.945C400.013 186.18 400.008 186.422 399.953 186.655C399.898 186.888 399.794 187.107 399.648 187.297C399.502 187.487 399.317 187.644 399.106 187.757C398.875 187.877 398.62 187.945 398.359 187.954H356.238H319.056H318.988V187.886C316.204 174.143 313.932 162.969 312.358 155.238L310.556 146.232C310.352 145.216 310.198 144.434 310.093 143.904C309.988 143.374 309.945 143.109 309.945 143.109C309.945 143.109 310.006 143.374 310.117 143.898C310.228 144.421 310.389 145.204 310.605 146.226C311.025 148.271 311.648 151.277 312.457 155.146C314.05 162.889 316.34 174.057 319.161 187.794L319.081 187.726H356.263H398.328C398.555 187.716 398.777 187.655 398.976 187.547C399.156 187.446 399.313 187.309 399.436 187.143C399.559 186.978 399.646 186.789 399.691 186.588C399.736 186.386 399.738 186.178 399.696 185.976C399.655 185.774 399.572 185.584 399.452 185.416C399.24 185.105 398.918 184.885 398.55 184.8C398.36 184.771 398.168 184.76 397.976 184.769H382.234V184.683C380.703 177.174 379.222 169.899 377.796 162.877L375.709 152.583C375.372 150.899 375.034 149.24 374.697 147.606C374.53 146.787 374.363 145.974 374.203 145.142C374.122 144.742 374.036 144.335 373.956 143.91L373.832 143.294C373.805 143.099 373.753 142.909 373.678 142.727C373.526 142.373 373.252 142.085 372.906 141.914C372.735 141.828 372.548 141.773 372.357 141.754C372.172 141.754 371.962 141.754 371.74 141.754L369.344 141.723L364.659 141.668L355.72 141.569L339.768 141.378L316.883 141.101L313.315 141.052H311.895C311.689 141.042 311.482 141.054 311.278 141.089C310.927 141.162 310.608 141.343 310.366 141.607C310.125 141.872 309.973 142.205 309.932 142.561C309.907 142.743 309.91 142.928 309.938 143.109Z" fill="#263238"/>
<path d="M346.441 163.566C346.441 164.083 346.288 164.588 346 165.018C345.712 165.447 345.304 165.782 344.825 165.98C344.347 166.177 343.821 166.229 343.313 166.128C342.805 166.027 342.339 165.779 341.973 165.413C341.607 165.048 341.357 164.583 341.256 164.076C341.155 163.569 341.207 163.044 341.405 162.567C341.603 162.09 341.939 161.682 342.369 161.395C342.8 161.108 343.306 160.955 343.824 160.955C344.168 160.954 344.508 161.021 344.826 161.152C345.144 161.283 345.433 161.475 345.676 161.718C345.919 161.961 346.112 162.249 346.243 162.566C346.375 162.883 346.442 163.223 346.441 163.566Z" fill="white"/>
<path d="M310.025 143.473H310.297H314.173L325.501 143.528L362.856 143.793L368.258 143.836H369.585C369.812 143.829 370.04 143.844 370.264 143.879C370.483 143.929 370.692 144.017 370.882 144.138C371.278 144.387 371.564 144.777 371.684 145.228C371.783 145.666 371.857 146.078 371.95 146.503C372.616 149.867 373.265 153.119 373.876 156.211C375.11 162.371 376.209 167.971 377.135 172.652C378.061 177.334 378.796 181.116 379.308 183.74L379.926 186.759C379.987 187.098 380.037 187.375 380.068 187.541C380.098 187.708 380.111 187.812 380.111 187.812C380.111 187.812 380.111 187.72 380.049 187.547C379.987 187.375 379.95 187.104 379.882 186.765C379.734 186.069 379.524 185.059 379.265 183.759C378.734 181.135 377.969 177.353 377.018 172.671C376.067 167.989 374.962 162.421 373.715 156.236C373.098 153.156 372.48 149.897 371.771 146.534C371.69 146.115 371.61 145.678 371.517 145.302C371.41 144.903 371.154 144.559 370.801 144.341C370.629 144.229 370.436 144.151 370.233 144.113C370.03 144.077 369.823 144.065 369.616 144.076H368.289L362.887 144.033L325.526 143.707L314.204 143.583L311.118 143.54H310.321L310.025 143.473Z" fill="#263238"/>
<path d="M101.506 220.757C102.902 220.83 104.302 220.756 105.682 220.536C106.672 220.277 107.614 219.861 108.473 219.304C108.473 219.304 111.51 219.722 111.996 219.045C112.291 218.617 112.45 218.11 112.452 217.591L114.682 217.314L116.703 217.696L117.818 219.057C117.818 219.057 118.655 219.057 118.692 218.552C118.692 218.552 119.807 218.047 119.702 217.696C119.598 217.345 118.982 215.675 118.982 215.675L118.132 213.852C118.132 213.852 112.625 213.507 112.415 213.643C112.206 213.778 105.233 217.031 105.233 217.031L102.652 217.647L101.506 220.757Z" fill="#EB996E"/>
<path d="M104.364 211.758L113.099 209.799L119.197 209.472C119.197 209.472 124.397 211.887 124.249 214.049L125.339 214.634C125.339 214.634 125.247 216.248 123.947 215.866C123.314 215.684 122.696 215.453 122.099 215.176L123.497 217.308C123.204 217.474 122.874 217.564 122.538 217.57C122.201 217.577 121.868 217.499 121.569 217.345C121.132 217.135 118.064 214.813 118.064 214.813L115.471 214.739C115.471 214.739 110.654 218.053 108.417 218.435C106.181 218.817 102.375 218.028 102.375 218.028L104.364 211.758Z" fill="#FFBE9D"/>
<path d="M123.947 215.891C123.947 215.854 124.168 215.928 124.526 215.891C124.628 215.868 124.724 215.824 124.808 215.762C124.892 215.699 124.962 215.619 125.012 215.528C125.139 215.272 125.19 214.986 125.16 214.702L125.209 214.788L121.44 212.324L120.306 211.585C119.955 211.357 119.561 211.092 119.277 210.969H118.766H118.206H117.201C116.542 211.004 115.881 210.985 115.224 210.914C115.871 210.801 116.526 210.743 117.183 210.741L118.169 210.692H118.723H119.013H119.228C119.273 210.686 119.319 210.686 119.364 210.692C119.752 210.891 120.129 211.113 120.491 211.357L121.631 212.096C123.084 213.064 124.396 213.944 125.327 214.653L125.376 214.69V214.745C125.398 215.074 125.32 215.403 125.154 215.688C125.088 215.795 124.998 215.887 124.891 215.955C124.784 216.023 124.664 216.067 124.538 216.082C124.385 216.101 124.229 216.086 124.082 216.039C123.996 215.922 123.947 215.903 123.947 215.891Z" fill="#EB996E"/>
<path d="M123.405 217.191C123.061 216.874 122.755 216.518 122.493 216.131C121.957 215.454 121.261 214.499 120.454 213.433H120.485L120.38 213.353C120.115 213.15 119.85 212.953 119.592 212.78L119.197 212.54C119.079 212.475 118.949 212.433 118.816 212.417C118.31 212.335 117.8 212.283 117.288 212.263C116.807 212.273 116.326 212.236 115.853 212.152C116.326 212.048 116.81 212.009 117.294 212.035C117.821 212.022 118.348 212.05 118.871 212.121C119.036 212.145 119.196 212.195 119.345 212.269C119.487 212.343 119.622 212.429 119.758 212.515C120.035 212.694 120.306 212.891 120.577 213.1L120.682 213.187C121.464 214.259 122.154 215.232 122.641 215.946C122.944 216.329 123.2 216.747 123.405 217.191Z" fill="#EB996E"/>
<path d="M157.58 282.542L157.784 298.706C157.784 298.706 174.206 302.759 174.539 305.741L143.283 308.433L141.934 283.257L157.58 282.542Z" fill="#00A8CD"/>
<g opacity="0.6">
<path d="M148.033 297.819C147.736 297.926 147.489 298.138 147.339 298.415C147.189 298.692 147.146 299.015 147.22 299.322C147.315 299.623 147.522 299.875 147.798 300.028C148.075 300.18 148.399 300.221 148.704 300.141C149.018 300.028 149.279 299.802 149.436 299.507C149.593 299.212 149.635 298.87 149.554 298.546C149.422 298.242 149.178 298.002 148.873 297.874C148.567 297.747 148.224 297.742 147.916 297.862" fill="white"/>
</g>
<g opacity="0.6">
<path d="M143.283 308.433L143.147 305.895L173.418 304.349C173.751 304.487 174.043 304.707 174.269 304.988C174.495 305.269 174.647 305.602 174.711 305.956L143.283 308.433Z" fill="white"/>
</g>
<path d="M158.283 298.521C158.283 298.675 157.525 298.78 156.798 299.31C156.071 299.839 155.695 300.505 155.566 300.449C155.437 300.394 155.597 299.476 156.502 298.86C157.408 298.244 158.313 298.38 158.283 298.521Z" fill="#263238"/>
<path d="M161.64 299.722C161.677 299.87 161.024 300.16 160.543 300.831C160.063 301.503 159.927 302.199 159.786 302.199C159.644 302.199 159.49 301.336 160.112 300.517C160.734 299.698 161.628 299.575 161.64 299.722Z" fill="#263238"/>
<path d="M163.691 303.566C163.556 303.603 163.309 302.852 163.66 301.995C164.011 301.139 164.707 300.763 164.781 300.893C164.855 301.022 164.43 301.509 164.165 302.193C163.901 302.876 163.845 303.542 163.691 303.566Z" fill="#263238"/>
<path d="M157.833 294.844C157.771 294.985 157.063 294.813 156.201 294.911C155.338 295.01 154.679 295.318 154.593 295.189C154.507 295.059 155.129 294.486 156.145 294.382C157.162 294.277 157.901 294.72 157.833 294.844Z" fill="#263238"/>
<g opacity="0.3">
<path d="M157.617 285.745L157.66 288.622L142.316 290.267L142.106 286.639L157.617 285.745Z" fill="black"/>
</g>
<path d="M157.734 291.585C157.226 291.748 156.684 291.771 156.163 291.653C155.594 291.578 155.036 291.435 154.5 291.228C154.182 291.104 153.874 290.957 153.576 290.79C153.394 290.703 153.228 290.587 153.083 290.445C152.978 290.342 152.91 290.207 152.89 290.061C152.87 289.915 152.899 289.766 152.972 289.638C153.043 289.527 153.139 289.435 153.253 289.368C153.366 289.302 153.494 289.264 153.625 289.257C153.832 289.244 154.039 289.261 154.241 289.306C155.147 289.485 155.994 289.887 156.705 290.476C157.463 291.092 157.74 291.671 157.691 291.708C157.642 291.745 157.248 291.302 156.459 290.784C156.014 290.483 155.531 290.241 155.024 290.064C154.725 289.958 154.418 289.88 154.106 289.829C153.773 289.756 153.49 289.768 153.41 289.922C153.41 289.977 153.379 290.002 153.453 290.094C153.562 290.194 153.685 290.279 153.816 290.347C154.091 290.506 154.375 290.65 154.666 290.778C155.165 290.997 155.682 291.168 156.213 291.289C156.727 291.347 157.236 291.446 157.734 291.585Z" fill="#263238"/>
<path d="M157.543 291.813C157.22 291.381 157.047 290.856 157.051 290.316C156.997 289.738 157.043 289.154 157.186 288.591C157.271 288.256 157.389 287.93 157.537 287.618C157.612 287.407 157.739 287.218 157.907 287.07C158.076 286.923 158.279 286.821 158.498 286.774C158.638 286.77 158.776 286.806 158.896 286.878C159.017 286.95 159.113 287.055 159.176 287.181C159.265 287.36 159.329 287.551 159.367 287.747C159.438 288.096 159.454 288.453 159.416 288.807C159.355 289.401 159.143 289.969 158.8 290.458C158.227 291.302 157.599 291.517 157.568 291.462C157.537 291.406 158.03 291.068 158.461 290.267C158.71 289.804 158.855 289.294 158.886 288.77C158.904 288.466 158.879 288.161 158.812 287.864C158.745 287.532 158.609 287.248 158.486 287.31C158.363 287.372 158.079 287.575 157.962 287.852C157.82 288.13 157.705 288.421 157.617 288.721C157.465 289.232 157.388 289.764 157.389 290.298C157.433 291.222 157.623 291.788 157.543 291.813Z" fill="#263238"/>
<path d="M79.3055 227.084C79.3055 227.084 130.187 218.638 132.454 218.287C141.177 216.944 151.131 218.01 154.451 224.269C156.187 228.901 157.179 233.778 157.39 238.72C157.809 246.414 160.864 291.992 160.864 291.992L139.871 295.484L132.959 245.052L121.107 247.276C121.773 247.196 90.3072 252.82 80.8085 253.812C73.472 254.557 65.0143 250.603 63.3264 244.061C62.2176 239.786 59.8091 227.884 59.8091 227.884L79.3055 227.084Z" fill="#263238"/>
<path d="M137.93 238.085C136.914 239.058 135.973 240.106 135.115 241.221C134.349 242.402 133.67 243.637 133.082 244.917C133.125 244.49 133.24 244.074 133.421 243.685C133.785 242.741 134.268 241.847 134.856 241.024C135.443 240.199 136.127 239.448 136.895 238.788C137.199 238.498 137.549 238.261 137.93 238.085Z" fill="#455A64"/>
<path d="M35.9818 140.776C35.2357 142.003 34.8752 143.426 34.947 144.86C34.947 146.258 35.9079 149.092 38.3842 149.234C37.7251 153.231 40.2877 156.182 44.5442 156.188C48.8008 156.194 53.6795 148.889 57.6281 147.287L69.0857 144.256C70.0898 144.022 70.5025 142.796 70.484 141.792C70.4655 140.788 70.2006 139.686 70.5641 138.712C71.063 137.388 72.603 136.68 73.1266 135.361C73.7426 133.864 72.8002 132.201 71.7345 130.994C70.6688 129.786 69.3752 128.635 69.0364 127.064C68.7222 125.616 69.2828 123.984 68.5559 122.69C67.6689 121.101 65.3342 120.898 64.2439 119.438C63.7203 118.723 63.554 117.799 63.0119 117.085C62.131 115.853 60.4309 115.551 58.934 115.711C57.4371 115.871 56.0018 116.419 54.505 116.53C52.4475 116.678 50.3223 116.013 48.345 116.61C46.1643 117.263 44.8399 119.197 43.417 121.07L41.569 123.238C41.1913 123.612 40.7788 123.948 40.337 124.242C39.5136 124.667 38.7319 125.168 38.0023 125.739C37.6649 126.096 37.403 126.517 37.2324 126.977C37.0617 127.437 36.986 127.927 37.0096 128.417C37.0332 128.908 37.1556 129.388 37.3696 129.83C37.5836 130.271 37.8848 130.665 38.2549 130.988C37.4656 131.259 36.785 131.778 36.3144 132.467C35.8438 133.156 35.6083 133.979 35.643 134.813C35.643 134.813 35.4398 136.71 36.641 137.554C36.1795 137.935 35.8624 138.462 35.7425 139.049C35.6225 139.635 35.707 140.244 35.9818 140.776Z" fill="#263238"/>
<path d="M43.6575 144.651C42.6317 141.771 41.8588 138.807 41.3475 135.792C40.836 132.765 41.0858 129.657 42.0744 126.75C42.2345 126.318 43.6144 123.405 44.0702 123.448C44.4029 123.485 43.5528 126.201 43.7191 126.485C45.3084 129.214 45.7457 132.503 45.487 135.651C45.2079 138.71 44.588 141.729 43.639 144.651" fill="#263238"/>
<path d="M51.2032 171.305C44.4272 170.455 43.6634 159.601 43.6634 159.601L43.3554 133.002C43.109 125.345 47.3594 118.834 55.0224 118.779L55.7308 118.816C59.1636 119.004 62.3998 120.478 64.7964 122.943C67.1929 125.408 68.5746 128.684 68.6668 132.121C68.8454 138.762 68.9563 146.104 68.7222 149.646C68.2418 156.983 60.8374 157.734 60.8374 157.734C60.8374 157.734 60.6403 164.319 60.665 166.586C60.745 174.397 53.0758 171.477 51.1786 171.311L51.2032 171.305Z" fill="#FFBE9D"/>
<path d="M60.8622 157.728C57.47 157.538 54.2034 156.38 51.4497 154.39C51.4497 154.39 53.4271 160.168 60.7944 159.897L60.8622 157.728Z" fill="#EB996E"/>
<path d="M66.7575 138.139C66.7463 138.413 66.6285 138.671 66.4293 138.859C66.2301 139.046 65.9654 139.149 65.6918 139.144C65.5579 139.147 65.4247 139.123 65.3 139.074C65.1753 139.025 65.0617 138.952 64.9658 138.858C64.87 138.765 64.7938 138.653 64.7418 138.529C64.6898 138.406 64.663 138.273 64.6631 138.139C64.6743 137.866 64.7921 137.608 64.9913 137.42C65.1904 137.233 65.4552 137.13 65.7288 137.135C65.8627 137.132 65.9959 137.156 66.1206 137.205C66.2453 137.254 66.3589 137.327 66.4547 137.421C66.5506 137.514 66.6268 137.626 66.6788 137.749C66.7308 137.873 66.7575 138.005 66.7575 138.139Z" fill="#263238"/>
<path d="M66.9607 135.084C66.8191 135.213 66.0614 134.579 64.9279 134.524C63.7945 134.468 62.9444 134.986 62.8274 134.838C62.7103 134.69 62.9198 134.536 63.2955 134.296C63.7995 133.98 64.3901 133.831 64.9834 133.871C65.5709 133.901 66.1338 134.117 66.5911 134.487C66.9238 134.77 67.0285 135.004 66.9607 135.084Z" fill="#263238"/>
<path d="M56.1501 138.139C56.1388 138.413 56.021 138.671 55.8219 138.859C55.6227 139.046 55.358 139.149 55.0844 139.144C54.9505 139.147 54.8172 139.123 54.6926 139.074C54.5679 139.025 54.4543 138.952 54.3584 138.858C54.2625 138.765 54.1864 138.653 54.1344 138.529C54.0824 138.406 54.0556 138.273 54.0557 138.139C54.0669 137.866 54.1847 137.608 54.3839 137.42C54.583 137.233 54.8477 137.13 55.1213 137.135C55.2553 137.132 55.3885 137.156 55.5132 137.205C55.6378 137.254 55.7515 137.327 55.8473 137.421C55.9432 137.514 56.0194 137.626 56.0713 137.749C56.1233 137.873 56.1501 138.005 56.1501 138.139Z" fill="#263238"/>
<path d="M55.8852 134.942C55.7435 135.078 54.9796 134.443 53.8523 134.388C52.7251 134.333 51.8688 134.85 51.7518 134.702C51.6347 134.554 51.838 134.4 52.2138 134.16C52.7199 133.844 53.3125 133.696 53.9078 133.735C54.4953 133.765 55.0582 133.981 55.5155 134.351C55.842 134.634 55.9468 134.887 55.8852 134.942Z" fill="#263238"/>
<path d="M59.464 143.831C60.0683 143.68 60.689 143.603 61.312 143.603C61.6015 143.603 61.8725 143.542 61.928 143.351C61.9689 143.053 61.9173 142.75 61.7801 142.482C61.5461 141.774 61.3058 141.028 61.0471 140.246C60.0307 137.055 59.31 134.443 59.4393 134.406C59.5687 134.37 60.4989 136.914 61.5153 140.104C61.7555 140.887 61.9896 141.638 62.2113 142.353C62.3748 142.71 62.4054 143.114 62.2976 143.492C62.2511 143.592 62.1825 143.679 62.0971 143.747C62.0116 143.815 61.9116 143.863 61.8048 143.887C61.6432 143.923 61.4774 143.938 61.312 143.93C60.6943 143.977 60.0731 143.944 59.464 143.831Z" fill="#263238"/>
<path d="M56.0942 144.435C56.279 144.435 56.2174 145.667 57.2153 146.585C58.2133 147.503 59.5315 147.447 59.5315 147.62C59.5315 147.694 59.2297 147.841 58.6753 147.823C57.9573 147.798 57.2717 147.519 56.741 147.034C56.2307 146.57 55.9214 145.925 55.8786 145.236C55.8663 144.718 56.0203 144.423 56.0942 144.435Z" fill="#263238"/>
<path d="M56.0945 130.366C55.9713 130.661 54.8625 130.458 53.5197 130.544C52.1768 130.63 51.0926 130.938 50.9325 130.655C50.8647 130.52 51.0618 130.242 51.5115 129.965C52.1074 129.631 52.7717 129.437 53.4539 129.398C54.1361 129.36 54.8181 129.478 55.4477 129.743C55.8913 129.965 56.0945 130.218 56.0945 130.366Z" fill="#263238"/>
<path d="M66.6958 131.308C66.4802 131.548 65.7164 131.246 64.7862 131.179C63.856 131.111 63.0491 131.259 62.8827 130.982C62.8088 130.846 62.9443 130.6 63.3078 130.366C63.7839 130.094 64.3331 129.977 64.8786 130.033C65.4304 130.074 65.9548 130.289 66.3755 130.649C66.6958 130.914 66.7882 131.185 66.6958 131.308Z" fill="#263238"/>
<path d="M43.6636 138.466C43.5404 138.404 38.6986 136.704 38.5877 141.731C38.4768 146.757 43.5527 145.833 43.565 145.685C43.5773 145.538 43.6636 138.466 43.6636 138.466Z" fill="#FFBE9D"/>
<path d="M42.0681 143.751C42.0681 143.751 41.9818 143.807 41.8278 143.874C41.6179 143.956 41.3848 143.956 41.1749 143.874C40.6451 143.665 40.2201 142.815 40.2139 141.903C40.2152 141.478 40.3076 141.058 40.485 140.671C40.5351 140.514 40.6232 140.372 40.7413 140.257C40.8595 140.142 41.0042 140.058 41.1626 140.012C41.2639 139.987 41.3707 139.999 41.4642 140.045C41.5577 140.091 41.6319 140.169 41.6738 140.265C41.7354 140.406 41.6738 140.505 41.7293 140.511C41.7847 140.517 41.8402 140.431 41.8032 140.222C41.778 140.096 41.7106 139.983 41.6122 139.901C41.476 139.795 41.3035 139.746 41.1318 139.766C40.9239 139.801 40.7286 139.89 40.5647 140.022C40.4007 140.155 40.2736 140.327 40.1954 140.523C39.9758 140.957 39.8618 141.436 39.8628 141.922C39.8628 142.932 40.3741 143.893 41.0948 144.121C41.2285 144.163 41.3699 144.174 41.5086 144.154C41.6473 144.134 41.7796 144.082 41.8956 144.004C42.0558 143.868 42.0866 143.757 42.0681 143.751Z" fill="#EB996E"/>
<path d="M65.5437 123.744C66.363 123.306 63.9544 120.664 61.9648 119.703C58.9587 118.298 54.3572 117.393 51.5605 118.144C48.191 119.056 45.4005 120.688 43.6572 123.719C42.001 126.804 41.1913 130.273 41.3103 133.772C41.2594 134.84 41.491 135.902 41.9817 136.852C42.6716 137.973 44.0084 138.7 43.9283 140.222C43.8873 140.781 44.0688 141.335 44.4334 141.762C45.3389 142.753 46.4785 141.848 47.0083 140.936C48.1417 138.977 48.2896 136.624 48.4189 134.37C48.5927 132.771 48.5054 131.154 48.1602 129.583C47.9261 128.745 47.5442 127.945 47.3532 127.119C47.2325 126.698 47.2047 126.256 47.2717 125.823C47.3387 125.39 47.499 124.977 47.7413 124.612C47.8665 124.464 48.0046 124.328 48.154 124.206C48.8636 123.603 49.7208 123.199 50.6376 123.037C51.5545 122.874 52.4981 122.959 53.3716 123.282C56.1928 124.316 61.01 125.875 62.2851 124.932C64.1331 123.571 64.5643 122.678 64.5643 122.678L65.5437 123.744Z" fill="#263238"/>
<path d="M51.8314 117.466C53.2144 116.998 54.6761 116.808 56.1328 116.906C57.5895 117.005 59.0124 117.39 60.3199 118.039C61.0197 118.373 61.645 118.845 62.1583 119.426C62.6716 120.007 63.0625 120.686 63.3075 121.421C63.7079 122.912 63.0488 124.741 61.6074 125.302L61.5088 125.364C59.359 126.06 57.9668 125.752 55.8354 124.988C54.0429 124.341 52.4536 123.208 50.661 122.573C48.7372 121.893 46.6539 121.805 44.6797 122.321C46.5957 120.102 49.0625 118.428 51.8314 117.466Z" fill="#263238"/>
<path d="M42.2651 122.438C42.3083 122.475 42.7148 121.994 43.5341 121.427C44.0072 121.097 44.518 120.824 45.0556 120.614C45.7025 120.346 46.4017 120.228 47.1007 120.269C48.383 120.408 49.599 120.911 50.6058 121.717C51.3881 122.333 51.7454 122.85 51.7947 122.813C51.8439 122.776 51.7392 122.659 51.5729 122.425C51.3365 122.098 51.0637 121.798 50.7598 121.532C49.7453 120.636 48.4773 120.079 47.1315 119.937C46.3821 119.89 45.6324 120.023 44.9447 120.325C44.3875 120.555 43.865 120.862 43.3924 121.236C42.9369 121.554 42.5529 121.963 42.2651 122.438Z" fill="#455A64"/>
<path d="M57.5913 117.011C58.0258 117.2 58.4699 117.367 58.9219 117.51C61.0421 118.356 62.8462 119.842 64.0839 121.76C64.5521 122.493 64.78 122.992 64.8293 122.992C64.7342 122.516 64.5503 122.063 64.2872 121.655C63.128 119.598 61.2435 118.048 59.0019 117.306C58.5541 117.121 58.0758 117.021 57.5913 117.011Z" fill="#455A64"/>
<path d="M42.7025 153.484L41.8154 157.309L62.433 170.116L61.509 163.734C59.633 161.809 57.5196 160.13 55.2196 158.738C51.2582 156.522 47.0593 154.759 42.7025 153.484Z" fill="#F5F5F5"/>
<path d="M41.0453 158.412C41.0453 158.412 34.7005 171.859 34.2693 176.966C33.8381 182.073 35.5506 199.068 35.5506 199.068L64.17 231.716L92.7339 233.613C92.7339 233.613 79.2127 205.179 76.1881 199.635C73.1636 194.091 62.9934 168.964 62.9934 168.964C62.2018 166.884 60.9801 164.995 59.4083 163.42C55.5337 159.311 48.0185 156.78 41.2548 155.412L41.0453 158.412Z" fill="#00A8CD"/>
<path d="M51.9425 164.153C56.1867 164.652 61.6383 167.849 63.5295 175.309L65.3775 184.549L74.5251 203.115L104.493 211.665L100.6 223.406C100.6 223.406 70.8783 221.047 67.0283 220.012C63.1783 218.977 47.1993 196.314 47.1993 196.314C47.1993 196.314 39.1913 182.51 41.2549 172.34C42.2775 167.264 46.7065 163.537 51.9425 164.153Z" fill="#00A8CD"/>
<path d="M51.9426 164.153H51.228C50.5286 164.136 49.8291 164.187 49.1398 164.307C48.0282 164.53 46.9647 164.947 45.9982 165.539C44.6897 166.352 43.587 167.457 42.7765 168.767C42.2973 169.538 41.9166 170.366 41.6431 171.231C41.5664 171.459 41.5027 171.692 41.4521 171.927C41.384 172.165 41.3345 172.408 41.3043 172.654C41.2365 173.153 41.1687 173.658 41.0948 174.175C40.9483 176.443 41.0953 178.721 41.5322 180.951C42.0255 183.501 42.745 186.002 43.682 188.424C44.7002 191.133 45.9149 193.764 47.3164 196.296C49.6326 199.555 52.152 202.992 54.8624 206.546C57.6544 210.287 60.6378 213.881 63.8006 217.314C64.6248 218.199 65.5535 218.981 66.5664 219.642C67.1119 219.899 67.6974 220.059 68.2974 220.117C68.9134 220.209 69.5294 220.314 70.1454 220.382C72.6094 220.708 75.1781 220.967 77.7591 221.226C82.9089 221.731 88.2311 222.199 93.615 222.655L100.6 223.221L100.44 223.332C101.759 219.341 103.054 215.427 104.327 211.591L104.438 211.795L74.4759 203.226H74.4143V203.171L65.2913 184.586C64.8806 182.557 64.5049 180.633 64.164 178.814C63.894 177.096 63.5028 175.4 62.9936 173.738C62.1158 171.098 60.5074 168.762 58.3551 166.999C56.9873 165.887 55.4099 165.062 53.7167 164.572C53.283 164.448 52.843 164.347 52.3984 164.27L51.9426 164.184C51.9426 164.184 52.1027 164.184 52.4046 164.239C52.8537 164.3 53.2982 164.39 53.7351 164.51C55.4284 164.98 57.0085 165.789 58.3798 166.888C60.5648 168.654 62.2033 171.004 63.1045 173.664C63.6379 175.33 64.0496 177.033 64.3365 178.758C64.702 180.574 65.086 182.496 65.4884 184.524L74.6607 203.078L74.5744 203.01L104.549 211.542L104.703 211.585L104.654 211.739C103.385 215.571 102.089 219.486 100.767 223.486L100.724 223.603H100.6L93.615 223.037C88.2065 222.575 82.9089 222.113 77.753 221.601C75.1719 221.343 72.6279 221.078 70.1331 220.751C69.5171 220.683 68.9011 220.579 68.2851 220.486C67.9771 220.443 67.6691 220.369 67.3611 220.308C67.0384 220.257 66.7287 220.144 66.4494 219.975C65.419 219.284 64.4758 218.471 63.6404 217.554C60.4707 214.111 57.4832 210.505 54.6899 206.75C51.9857 203.189 49.4724 199.746 47.1563 196.475C45.756 193.928 44.5433 191.282 43.528 188.559C42.5626 186.099 41.8204 183.557 41.3104 180.964C40.8783 178.718 40.7396 176.426 40.8977 174.145C40.9716 173.621 41.0455 173.104 41.1133 172.605C41.1477 172.357 41.2012 172.111 41.2735 171.872C41.3253 171.632 41.3911 171.395 41.4706 171.163C41.7508 170.281 42.142 169.439 42.6348 168.656C43.4614 167.335 44.5858 166.225 45.9181 165.416C46.8975 164.818 47.9761 164.401 49.1028 164.184C49.7985 164.066 50.5051 164.027 51.2095 164.067C51.7023 164.122 51.9426 164.153 51.9426 164.153Z" fill="#263238"/>
<path d="M69.3506 210.285C69.4426 209.853 69.6005 209.438 69.8187 209.053C70.2799 208.093 70.8284 207.178 71.4573 206.318C72.0876 205.459 72.7948 204.659 73.5702 203.928C73.8711 203.604 74.2201 203.327 74.6051 203.109C74.6728 203.183 73.1636 204.52 71.716 206.509C70.2684 208.499 69.443 210.328 69.3506 210.285Z" fill="#263238"/>
<path d="M64.1022 171.348C63.8396 171.114 63.5965 170.858 63.3754 170.584C63.1536 170.325 62.8826 170.017 62.5438 169.679C62.205 169.34 61.8415 168.933 61.3857 168.527C60.3638 167.552 59.2816 166.643 58.1455 165.804C56.747 164.785 55.2817 163.861 53.7596 163.038C50.964 161.579 48.0322 160.397 45.0062 159.508C43.8482 159.164 42.8995 158.892 42.2466 158.738C41.9017 158.667 41.5637 158.566 41.2363 158.437C41.5873 158.47 41.9353 158.53 42.2774 158.615C42.9426 158.745 43.8974 158.973 45.0678 159.287C48.1307 160.107 51.0948 161.26 53.9074 162.724C55.4445 163.551 56.9187 164.49 58.318 165.533C59.4563 166.39 60.5329 167.327 61.5397 168.336C61.9832 168.748 62.3405 169.174 62.667 169.525C62.9934 169.876 63.283 170.202 63.4678 170.473C63.7022 170.747 63.9144 171.04 64.1022 171.348Z" fill="#263238"/>
<path d="M151.901 179.658C151.771 179.619 151.634 179.606 151.499 179.62C151.364 179.634 151.232 179.675 151.113 179.739C150.993 179.804 150.888 179.891 150.802 179.997C150.716 180.102 150.652 180.224 150.613 180.354L140.191 215.207L105.276 220.628C104.735 220.713 104.249 221.009 103.926 221.451C103.602 221.893 103.468 222.446 103.551 222.987L141.798 217.024L152.585 180.939C152.662 180.679 152.633 180.398 152.505 180.158C152.377 179.919 152.16 179.739 151.901 179.658Z" fill="#E0E0E0"/>
<path d="M151.901 179.658C152.141 179.717 152.35 179.864 152.486 180.071C152.57 180.197 152.626 180.34 152.65 180.49C152.674 180.639 152.667 180.793 152.628 180.939L152.289 182.116L150.04 189.779L141.94 217.068V217.031V217.166H141.798L141.909 217.068L141.866 217.203L141.737 217.16H141.792L104.29 223.092L103.576 223.203H103.422V223.043C103.349 222.571 103.429 222.089 103.651 221.666C103.873 221.244 104.224 220.904 104.654 220.696C104.866 220.595 105.092 220.526 105.325 220.492L105.972 220.394L107.259 220.191L112.366 219.396L122.222 217.862L140.172 215.084L140.061 215.183C143.351 204.261 146.086 195.169 148.008 188.793L150.256 181.401C150.383 180.99 150.5 180.615 150.607 180.274C150.66 180.133 150.743 180.006 150.849 179.9C150.955 179.793 151.083 179.711 151.223 179.658C151.447 179.57 151.696 179.57 151.919 179.658C151.693 179.607 151.457 179.626 151.242 179.713C151.114 179.767 150.999 179.847 150.903 179.948C150.808 180.049 150.734 180.168 150.687 180.298C150.589 180.627 150.478 181.003 150.355 181.426L148.18 188.818C146.289 195.2 143.585 204.304 140.345 215.238V215.318H140.258L122.247 218.164L112.391 219.704L107.284 220.499L105.996 220.702C105.575 220.738 105.161 220.832 104.764 220.979C104.397 221.157 104.096 221.448 103.905 221.809C103.715 222.171 103.644 222.583 103.705 222.987L103.52 222.858L104.235 222.747L141.774 216.932H141.805L141.632 217.024V216.938H141.718L141.601 217.098V217.043C144.989 205.776 147.823 196.376 149.806 189.779C150.804 186.495 151.593 183.914 152.135 182.14L152.492 180.97C152.531 180.832 152.541 180.687 152.52 180.545C152.5 180.403 152.451 180.266 152.375 180.144C152.268 179.939 152.103 179.77 151.901 179.658Z" fill="#263238"/>
<path d="M141.804 217.049C141.731 217.098 141.361 216.667 140.905 216.15C140.449 215.632 140.086 215.195 140.147 215.127C140.209 215.059 140.683 215.398 141.152 215.94C141.62 216.482 141.878 217 141.804 217.049Z" fill="#455A64"/>
<path d="M136.045 216.525C136.045 216.488 136.199 216.371 136.446 216.525C136.523 216.566 136.588 216.629 136.632 216.705C136.675 216.782 136.696 216.869 136.692 216.957C136.687 217.067 136.647 217.174 136.578 217.26C136.509 217.347 136.415 217.41 136.308 217.439C136.201 217.469 136.088 217.463 135.984 217.424C135.88 217.385 135.792 217.314 135.731 217.222C135.678 217.152 135.647 217.068 135.639 216.981C135.631 216.894 135.648 216.807 135.688 216.729C135.836 216.47 136.057 216.513 136.045 216.55C136.033 216.587 135.928 216.655 135.897 216.815C135.89 216.858 135.894 216.902 135.908 216.943C135.922 216.985 135.946 217.022 135.977 217.052C136.009 217.083 136.047 217.105 136.089 217.117C136.131 217.129 136.175 217.131 136.218 217.123C136.263 217.11 136.303 217.085 136.335 217.05C136.367 217.015 136.388 216.972 136.396 216.926C136.403 216.887 136.399 216.847 136.385 216.81C136.371 216.773 136.347 216.741 136.316 216.716C136.174 216.562 136.064 216.562 136.045 216.525Z" fill="#455A64"/>
<path d="M138.275 216.18C138.275 216.144 138.429 216.026 138.675 216.18C138.754 216.221 138.819 216.283 138.863 216.36C138.906 216.436 138.927 216.524 138.922 216.612C138.914 216.721 138.873 216.826 138.803 216.911C138.734 216.996 138.64 217.057 138.534 217.086C138.428 217.112 138.318 217.106 138.216 217.068C138.114 217.031 138.025 216.964 137.961 216.877C137.908 216.807 137.877 216.723 137.869 216.636C137.861 216.549 137.878 216.462 137.918 216.384C138.072 216.125 138.287 216.162 138.275 216.199C138.263 216.236 138.158 216.31 138.127 216.464C138.119 216.504 138.121 216.547 138.133 216.586C138.144 216.626 138.166 216.662 138.195 216.692C138.226 216.727 138.266 216.753 138.31 216.768C138.354 216.783 138.402 216.787 138.448 216.778C138.492 216.764 138.532 216.738 138.563 216.703C138.595 216.669 138.616 216.627 138.626 216.581C138.634 216.541 138.63 216.5 138.616 216.462C138.602 216.424 138.578 216.39 138.546 216.365C138.417 216.224 138.294 216.224 138.275 216.18Z" fill="#455A64"/>
<path d="M52.1336 262.085L37.9595 308.648L43.1277 308.697L62.2792 261.598L52.1336 262.085Z" fill="#263238"/>
<path d="M113.087 255.74C113.05 255.74 129.103 308.568 129.103 308.568L134.228 308.642L124.347 254.68L113.087 255.74Z" fill="#263238"/>
<path d="M29.9822 188.109C29.2088 187.396 28.2459 186.92 27.209 186.74C26.1721 186.559 25.1052 186.682 24.1363 187.093C20.1631 188.787 14.3481 192.261 15.654 197.75C17.2864 204.612 36.0744 249.371 42.1358 263.748C42.6893 265.059 43.6192 266.176 44.8079 266.958C45.9966 267.739 47.3906 268.151 48.8133 268.14L127.55 267.475C128.374 267.467 129.186 267.284 129.933 266.94C130.681 266.595 131.347 266.095 131.887 265.474C132.427 264.853 132.829 264.124 133.067 263.336C133.305 262.548 133.373 261.718 133.267 260.902L130.322 238.541C129.849 234.949 128.166 231.625 125.55 229.118C122.934 226.61 119.542 225.07 115.933 224.749L65.0141 220.228L29.9822 188.109Z" fill="#455A64"/>
<path d="M39.5607 256.793C39.5401 256.74 39.5256 256.684 39.5176 256.627C39.5176 256.504 39.4622 256.35 39.4191 256.153C39.3328 255.709 39.2158 255.093 39.0679 254.305C38.7784 252.678 38.3595 250.375 37.8359 247.529C37.3123 244.683 36.7271 241.252 36.0619 237.469C35.7354 235.578 35.3843 233.589 35.027 231.531C34.8483 230.496 34.6635 229.449 34.4787 228.383C34.2307 227.293 34.2014 226.165 34.3925 225.063C34.5273 224.504 34.7863 223.981 35.1502 223.536C35.5262 223.097 35.9845 222.737 36.4992 222.476C37.4695 222.012 38.5106 221.715 39.5792 221.595C41.6736 221.361 43.6818 221.244 45.6037 221.102C49.4414 220.837 52.8971 220.665 55.8047 220.548C58.7122 220.431 61.0653 220.382 62.6915 220.357H64.5395H65.0262H65.1925C65.1373 220.364 65.0814 220.364 65.0262 220.357H64.5395L62.6915 220.431L55.817 220.727C52.9095 220.868 49.4537 221.065 45.6222 221.343C43.7126 221.49 41.6859 221.62 39.6223 221.854C38.5812 221.964 37.5666 222.252 36.6224 222.704C36.1478 222.933 35.7292 223.264 35.3961 223.673C35.063 224.082 34.8235 224.558 34.6943 225.069C34.5125 226.131 34.5439 227.217 34.7867 228.266C34.9674 229.334 35.1461 230.381 35.3227 231.408C35.6799 233.461 36.0187 235.443 36.3391 237.352C36.9551 241.141 37.5711 244.547 38.0454 247.424C38.5197 250.301 38.9016 252.586 39.1665 254.2C39.2897 254.982 39.3883 255.604 39.456 256.048C39.456 256.245 39.5053 256.405 39.5238 256.535C39.5531 256.618 39.5657 256.706 39.5607 256.793Z" fill="#263238"/>
<path d="M129.694 254.68C129.694 254.767 109.366 254.841 84.2762 254.841C59.1865 254.841 38.8462 254.767 38.8462 254.68C38.8462 254.594 59.1742 254.52 84.27 254.52C109.366 254.52 129.694 254.594 129.694 254.68Z" fill="#263238"/>
<path d="M48.6102 220.942C48.5424 221.004 42.327 213.852 34.7255 204.975C27.1241 196.099 21.0134 188.855 21.0811 188.793C21.1489 188.732 27.3643 195.883 34.9658 204.766C42.5672 213.649 48.7026 220.887 48.6102 220.942Z" fill="#263238"/>
</g>
<defs>
<clipPath id="clip0_20_1371">
<rect width="463" height="308" fill="white" transform="translate(0.0371094)"/>
</clipPath>
</defs>
</svg>
