<svg width="23" height="24" viewBox="0 0 23 24" fill="none" xmlns="http://www.w3.org/2000/svg">
<path d="M22.8744 12.2471V22.5965H16.3848V12.5016C16.3848 10.8898 15.9748 9.6032 15.1548 8.64179C14.3348 7.68037 13.2744 7.19966 11.9736 7.19966C10.6163 7.19966 9.4994 7.66623 8.62281 8.59937C7.74622 9.53251 7.30793 10.6919 7.30793 12.0774C7.30793 13.3216 7.80278 14.382 8.79247 15.2586C9.78217 16.1352 10.9557 16.5735 12.313 16.5735C12.6523 16.5735 13.0199 16.5311 13.4158 16.4462C13.8399 16.3614 14.2641 16.2059 14.6882 15.9797V22.4692C14.2358 22.6106 13.7692 22.7379 13.2885 22.851C12.8361 22.9641 12.3837 23.0206 11.9312 23.0206C8.82075 23.0206 6.19099 21.9744 4.04194 19.8819C1.89289 17.7894 0.818359 15.1455 0.818359 11.9502C0.818359 9.63148 1.44045 7.55312 2.68464 5.71512C3.95711 3.84884 5.30026 2.63292 6.71411 2.06738C8.12796 1.50185 9.21663 1.14838 9.98011 1.007C10.7436 0.865614 11.4788 0.794922 12.1857 0.794922C15.1831 0.794922 17.7139 1.86945 19.7781 4.0185C21.8423 6.16755 22.8744 8.91042 22.8744 12.2471Z" fill="white"/>
</svg>
