<svg width="57" height="56" viewBox="0 0 57 56" fill="none" xmlns="http://www.w3.org/2000/svg">
<g clip-path="url(#clip0_539_36314)">
<g clip-path="url(#clip1_539_36314)">
<g clip-path="url(#clip2_539_36314)">
<path d="M40.9492 0H16.9492C8.11266 0 0.949219 7.16344 0.949219 16V40C0.949219 48.8366 8.11266 56 16.9492 56H40.9492C49.7858 56 56.9492 48.8366 56.9492 40V16C56.9492 7.16344 49.7858 0 40.9492 0Z" fill="#F9E2E2"/>
<path d="M25.9492 38.2422H31.9492C36.9492 38.2422 38.9492 36.2422 38.9492 31.2422V25.2422C38.9492 20.2422 36.9492 18.2422 31.9492 18.2422H25.9492C20.9492 18.2422 18.9492 20.2422 18.9492 25.2422V31.2422C18.9492 36.2422 20.9492 38.2422 25.9492 38.2422Z" stroke="#FB9090" stroke-width="1.5" stroke-linecap="round" stroke-linejoin="round"/>
<path d="M24.6992 28.2421L27.5292 31.0721L33.1992 25.4121" stroke="#FB9090" stroke-width="1.5" stroke-linecap="round" stroke-linejoin="round"/>
</g>
</g>
</g>
<defs>
<clipPath id="clip0_539_36314">
<rect width="56" height="56" fill="white" transform="translate(0.949219)"/>
</clipPath>
<clipPath id="clip1_539_36314">
<rect width="56" height="56" fill="white" transform="translate(0.949219)"/>
</clipPath>
<clipPath id="clip2_539_36314">
<rect width="56" height="56" fill="white" transform="translate(0.949219)"/>
</clipPath>
</defs>
</svg>
