<svg width="350" height="257" viewBox="0 0 350 257" fill="none" xmlns="http://www.w3.org/2000/svg">
<g clip-path="url(#clip0_636_9721)">
<rect width="350" height="256.686" fill="white"/>
<path fill-rule="evenodd" clip-rule="evenodd" d="M173.693 202.374C174.355 201.281 172.726 201.252 178.773 201.348L193.529 201.308C196.463 201.594 194.936 200.946 195.774 202.374C195.156 203.431 196.622 203.501 190.771 203.412H178.773C171.641 203.522 174.592 203.105 173.693 202.374ZM173.677 198.564C174.429 197.132 174.453 197.314 178.774 197.389H190.77C197.166 197.277 195.156 197.257 195.78 198.564C194.801 199.984 196.214 199.133 194.019 199.487L176.018 199.53C172.226 199.216 174.778 199.261 173.677 198.564ZM148.193 198.564C149.095 196.629 148.443 197.4 155.376 197.404C157.542 197.405 161.22 196.8 162.731 198.02C162.39 199.983 162.823 199.44 160.342 199.528L151.52 199.513C149.089 199.522 149.158 199.997 148.192 198.564H148.193ZM101.046 171.89C101.882 169.931 107.428 170.769 111.827 170.769L190.223 170.761C196.331 170.685 195.011 170.611 195.498 171.89C194.782 173.478 192.935 172.894 190.777 172.865C188.775 172.839 186.773 172.852 184.771 172.852L103.071 172.894C99.6233 172.549 101.937 172.64 101.046 171.891V171.89ZM101.051 167.536C101.97 165.72 107.591 166.511 111.827 166.511L193.531 166.479C196.23 166.791 194.72 165.899 195.509 167.536C194.722 169.157 193.305 168.6 190.775 168.566L106.375 168.559C99.9742 168.631 101.691 168.788 101.05 167.537L101.051 167.536ZM101.051 163.181C101.818 161.559 103.596 162.144 105.822 162.174L190.778 162.172C193.858 162.123 195.154 161.353 195.478 163.725C193.587 165.078 121.32 164.125 106.376 164.309C105.679 164.318 103.609 164.409 103.065 164.342C99.5721 163.922 101.788 164.011 101.051 163.181ZM105.822 159.962C99.9102 160.054 101.446 159.817 101.051 158.825C102.032 158.114 99.6393 158.2 103.075 157.888L172.795 157.93C175.725 157.931 194.55 156.937 195.503 158.825C194.96 160.264 196.105 159.669 193.532 159.985L105.822 159.962ZM134.093 124.537C131.424 124.521 131.644 125.002 130.743 123.443C132.028 122.351 129.866 122.897 132.502 122.404L162.505 122.361C165.122 122.375 164.943 121.883 165.851 123.443C164.937 125.05 166.556 124.019 164.096 124.489L139.046 124.479C137.408 124.48 135.712 124.547 134.094 124.537H134.093ZM161.907 76.3377L163.954 76.3047C164.737 77.7989 165.32 79.8392 165.993 81.8165C168.009 87.7423 167.335 86.2395 166.807 87.1471C162.497 86.0859 167.481 84.0392 161.122 84.0339C160.418 86.9392 161.052 87.2858 158.219 86.8848L161.907 76.3377ZM122.646 76.3676C130.197 74.1748 131.234 85.574 125.896 86.9967C121.911 88.059 119.673 86.0465 119.199 82.9396C118.653 79.371 119.976 77.143 122.647 76.3676H122.646ZM150.493 76.4252C156.512 75.4098 158.26 77.6048 155.714 82.0715C156.363 83.395 156.911 85.1559 157.407 86.8954C151.911 87.6719 157.54 83.2628 152.027 82.7167C151.811 85.1772 152.558 85.9846 151.02 87.1439C149.283 86.3344 150.087 88.443 149.75 84.8583C149.636 83.6489 149.546 77.8863 150.493 76.4252ZM137.414 83.267C137.497 81.1596 136.899 77.8554 137.956 76.3217C140.255 76.6182 139.404 78.25 139.38 80.9718C139.362 82.9183 139.636 85.3564 139.045 86.984C136.188 87.0586 136.383 85.7617 135.211 83.7203C134.357 82.2346 133.382 80.7617 132.716 79.3987L132.62 85.8396C132.285 87.2229 132.616 86.3056 131.968 87.1503C130.163 86.3312 131.021 88.508 130.669 84.8594L131.001 77.2357C131.035 77.1024 131.172 77.031 131.2 76.7665C131.229 76.5009 131.336 76.4529 131.424 76.3068C135.664 76.5596 133.673 78.9571 137.415 83.267H137.414ZM180.349 78.1647C177.525 77.9514 177.611 78.7876 177.413 76.6278C177.806 76.4572 184.096 75.3693 185.548 77.1718C184.563 78.4079 183.634 77.9023 182.452 78.8046C182.441 82.9044 183.114 86.0859 181.504 87.1546C179.729 86.2576 180.763 88.1945 180.306 85.3916L180.349 78.1647ZM142.695 78.3322C141.59 77.5845 141.746 78.8185 140.483 77.1718C141.756 76.4348 139.045 76.6449 142.283 76.2588L148.616 76.6278C148.412 78.8004 148.496 77.9589 145.622 78.1562C145.605 79.8306 145.593 81.4998 145.622 83.1732C145.699 87.5578 145.472 86.6437 144.487 87.1471C141.737 85.2551 145.226 80.045 142.695 78.3322ZM176.371 85.9302C175.278 89.2472 167.517 87.1322 168.188 80.9686C168.651 76.7131 175.703 74.0201 176.361 77.6101C174.691 78.6063 176.423 77.769 174.425 77.9599C173.158 78.0805 173.377 77.6677 171.941 78.4409C170.909 78.9977 170.205 80.4012 170.327 82.0032C170.688 86.7354 174.801 84.565 176.37 85.9302H176.371ZM118.324 85.8811C117.856 87.2037 118.404 87.3263 115.661 87.3114C108.588 87.2719 106.638 74.7784 118.511 76.4102C117.49 80.2199 116.408 75.9804 113.174 79.0809C112.584 79.8146 110.682 84.7314 115.653 85.3927C117.649 85.6582 117.06 85.1143 118.324 85.8811ZM94.0059 68.6735L101.016 81.7878C102.186 82.8063 102.874 83.9944 103.073 85.8801C102.167 86.8293 100.384 88.4494 98.9983 89.3773C97.3303 90.4939 95.9214 90.832 94.2394 91.9274L94.136 159.559L94.1477 161.663L94.1989 222.696L104.969 222.99L168.696 222.997L202.256 223.309C203.396 207.572 202.213 169.717 202.461 149.016C202.502 145.508 202.726 145.422 201.734 143.995C198.473 143.193 194.55 140.233 191.593 138.571C168.54 137.789 136.158 138.511 111.282 138.511C107.449 138.511 101.93 139.25 101.042 137.592C101.75 135.789 102.77 136.365 105.264 136.403L186.977 136.277L186.459 135.61C183.668 134.646 185.01 134.287 181.537 134.173C179.802 134.116 177.828 134.205 176.059 134.206H110.737C106.421 134.206 101.984 134.984 101.044 133.238C101.882 131.299 106.182 132.138 110.737 132.138C133.661 132.139 161.434 132.706 183.177 132.096L183.137 128.98L178.237 118.599C172.673 119.229 168.44 118.223 165.402 115.042C162.608 112.115 160.786 107.495 162.466 102.328L160.705 101.664L160.785 90.7872L195.755 90.8299L195.589 102.098L187.819 102.06L187.661 102.919L187.697 103.943C190.431 104.649 192.296 104.048 194.019 104.298C194.038 104.3 193.632 103.494 195.728 104.93C195.169 106.564 195.855 105.93 194.068 106.353C191.376 106.992 188.653 104.776 188.032 107.506C190.182 107.491 193.977 106.913 195.751 108.195C195.159 109.83 195.859 109.18 194.069 109.595C192.327 109.999 189.019 108.656 186.976 110.284C186.008 113.387 183.903 115.44 181.767 116.704L187.013 128.859L189.819 131.336C189.908 131.365 190.072 131.379 190.165 131.399C191.255 131.625 191.553 131.089 192.932 132.033C194.82 133.387 199.789 135.955 202.291 136.233L202.426 65.8899L194.082 65.8461L193.207 66.0744L175.723 66.0285C175.439 68.9732 175.938 72.0822 175.009 74.4734C172.189 75.2904 126.357 75.2285 120.725 74.7326C118.099 71.3826 119.43 70.8994 119.01 65.7832L94.0933 65.9528L94.0059 68.6693V68.6735Z" fill="white"/>
<path fill-rule="evenodd" clip-rule="evenodd" d="M192.223 56.3688L192.662 63.6373L193.21 66.0808L194.084 65.8525L196.981 64.2932C198.211 63.8165 199.079 63.5093 200.547 63.5211C203.069 63.5413 205.491 64.7135 208.282 64.9908L211.783 65.4142C219.797 66.0637 225.189 61.5352 227.078 61.2579C227.397 64.7433 227.475 67.1121 229.212 69.7699C230.969 72.4555 232.806 72.8661 234.995 74.996C233.372 78.6724 230.486 82.048 229.412 85.9398C230.613 84.3688 234.306 77.48 235.264 75.3042C238.52 76.8731 238.797 80.2754 244.677 82.0661C248.671 83.283 254.921 83.0185 257.95 80.8289C254.213 76.6886 249.459 70.3565 240.932 71.9318C240.372 72.0353 240.164 72.0865 239.657 72.2657C237.373 73.0709 239.145 72.3264 238.435 72.897C235.612 69.8446 238.327 70.0195 237.458 64.209C236.978 61.0051 234.775 57.3863 233.388 55.9411C234.387 52.6775 237.082 51.7272 239.021 46.2303C235.609 44.0503 230.696 42.9805 226.131 43.117C219.709 43.3079 218.15 45.0603 213.44 46.6739C215.071 37.6425 214.161 35.679 213.422 27.1914C203.968 29.4557 196.653 35.8304 193.82 44.927C192.8 48.2002 192.199 52.8034 192.223 56.3699V56.3688ZM226.213 92.7294L226.991 93.2296L227.693 89.9596C232.075 90.9238 234.968 99.5254 251 91.1861C249.529 89.1138 245.638 86.696 242.339 85.4983C237.101 83.5955 233.458 85.238 229.624 86.7173C229.289 87.7156 230.023 86.6075 228.899 86.4198C227.103 86.1201 229.674 86.8442 228.452 86.4283C229.153 75.2061 220.491 68.3813 217.205 68.6682C214.639 86.263 222.031 85.9121 227.382 89.6951L226.212 92.7316L226.213 92.7294ZM294.564 48.1511C294.368 47.171 294.204 47.492 295.274 47.3491C296.371 45.873 296.144 46.8691 297.078 45.0549C295.507 43.8177 293.613 43.5436 291.38 42.7715L290.214 42.4195C285.839 42.3822 282.981 41.5844 278.916 43.4231C274.174 45.569 274.731 46.338 272.036 49.1163C269.141 49.8117 265.337 50.313 262.969 51.003C265.263 47.5411 271.886 39.5025 266.969 31.0896C264.077 32.1444 260.596 36.3882 258.875 39.1378C255.427 44.6475 257.383 47.925 258.756 52.8119L247.758 59.7711C250.556 52.9175 250.083 44.3404 244.649 39.5868C239.387 45.6554 237.601 58.215 244.79 62.2988C243.921 64.1738 242.89 64.8148 241.312 66.7644C239.982 68.409 239.121 69.1556 238.111 71.1693L239.663 69.4798C240.294 68.7279 240.637 68.2171 241.376 67.3638C242.344 66.2471 242.53 66.116 243.191 65.3971C244.199 64.2996 244.003 64.3658 245.194 63.4571C246.638 64.9108 247.546 69.2633 252.403 72.1313C255.79 74.1321 261.329 75.2264 265.677 74.2708C264.716 71.4199 261.457 66.4818 259.937 65.1497C256.949 62.5292 253.027 61.1288 247.535 61.5757C249.031 58.5328 256.651 54.1888 259.53 53.3718C259.439 59.5258 260.57 62.0972 263.924 65.5187C266.148 67.7872 269.908 70.541 274.35 70.9314C274.459 60.828 269.831 54.5941 261.419 52.7308C263.299 51.3059 267.324 50.3759 269.334 50.0837C273.376 49.4971 273.883 51.1492 277.418 51.9789C285.793 53.9435 289.329 49.7701 294.561 48.149L294.564 48.1511ZM228.391 53.4753C228.895 52.2157 228.718 52.6647 229.411 51.8989C231.36 52.6786 231.84 53.0625 233.035 54.8554C232.356 56.8754 232.044 56.884 230.522 58.1446C230.105 58.4902 229.405 59.1173 229.081 59.3488C227.908 60.186 228.281 59.9833 227.101 60.3342L228.391 53.4753ZM205.147 53.9968C207.122 51.6579 209.602 48.8124 212.707 47.6168C212.125 50.9188 209.859 54.2272 207.69 56.628L204.934 59.7764C204.482 60.1839 204.716 60.0036 203.978 60.4388C203.785 60.5529 202.183 61.3549 201.829 61.5256C201.12 61.8679 200.785 62.0994 199.613 62.3319L205.147 53.9958V53.9968Z" fill="url(#paint0_linear_636_9721)"/>
<path fill-rule="evenodd" clip-rule="evenodd" d="M25.3013 155.181C24.4438 160.661 25.8719 177.662 26.3924 183.875C26.7902 188.623 27.6701 192.892 27.0078 197.529C26.2964 202.502 26.3369 207.498 26.4233 212.608C26.4809 216.156 26.7945 231.3 27.8141 233.688L33.6214 233.799C33.9734 232.699 33.9318 230.253 34.6762 229C33.9787 225.996 34.7295 221.795 35.1658 218.704L38.6235 176.162C40.4132 178.677 43.312 193.984 43.5147 198.035C43.9306 206.354 44.3978 214.702 44.7977 223.059L44.8521 228.881L45.5336 233.792L52.8171 233.935L53.89 233.405L54.1598 223.603L54.3027 216.796C54.3411 209.8 54.5299 203.543 54.7976 196.391L54.3571 190.415L51.9841 171.321L49.7337 154.301C48.7525 156.105 49.9992 154.948 47.6816 155.255C46.9393 155.353 45.1614 155.289 44.3295 155.28L25.3002 155.182L25.3013 155.181Z" fill="#263238"/>
<path fill-rule="evenodd" clip-rule="evenodd" d="M297.084 240.72C297.123 243.177 298.234 249.443 297.41 250.766C295.949 252.139 293.975 252.067 292.583 250.713C291.723 248.432 293.344 244.624 293.456 241.907C286.271 241.748 275.932 241.849 268.917 242.634C265.563 243.009 248.962 244.89 245.719 242.36L245.783 245.38C244.391 245.953 230.071 246.745 227.175 246.73C227.746 242.262 229.716 244.394 232.286 242.578C227.924 243.02 223.222 242.79 218.698 242.921L218.643 246.225L200.221 246.227C200.124 244.486 200.545 244.144 201.197 243.155C196.706 244.515 188.924 244.02 186.209 246.469C189.548 254.132 229.185 252.077 239.202 251.569C243.56 251.347 253.336 249.421 257.086 250.117C262.476 251.117 267.757 253.194 273.538 253.788C279.262 254.375 284.941 255.583 290.919 255.894C303.367 256.544 316.808 257.256 328.85 255.977C330.373 253.504 328.847 252.911 333.893 252.818C336.577 252.769 339.356 252.92 342.036 252.669C345.492 252.346 352.647 250.247 348.99 246.116C344.835 241.423 332.188 242.484 324.668 241.973C323.4 241.886 323.769 242.013 322.621 241.614C319.117 240.398 324.019 243.122 321.313 240.84C323.708 246.484 320.101 253.859 317.678 251.218C317.035 249.859 317.445 244.195 316.819 241.568C318.004 240.498 315.422 241.156 318.065 240.643L316.328 240.664C315.523 242.579 314.926 241.938 312.19 241.869L301.235 241.867C299.403 241.879 298.44 241.871 297.087 240.719L297.084 240.72Z" fill="#D2EDFF"/>
<path fill-rule="evenodd" clip-rule="evenodd" d="M54.3596 190.415C54.4854 190.511 54.6529 190.633 54.735 190.706L56.6462 192.788C57.7586 194.62 57.6115 195.725 55.7482 196.378C53.597 197.131 55.5776 196.455 54.799 196.391C54.5302 203.543 54.3414 209.8 54.3041 216.796L54.895 208.525C58.3591 209.512 61.1854 207.937 64.3957 208.868C67.1069 209.655 68.7568 212.52 68.0998 215.919C65.474 218.568 61.8414 218.753 62.8951 224.806C64.7242 234.378 74.3306 233.577 83.8868 232.119L84.9971 231.759C80.9581 227.715 82.6112 215.55 82.5974 208.363C82.5803 200.008 82.8523 190.862 82.3435 182.824C80.7245 179.758 79.0746 172.098 72.3052 172.831C69.8959 176.755 70.4356 180.463 68.9349 184.869C65.9124 184.044 63.0743 179.637 60.9508 177.584C55.6735 172.48 56.2868 174.014 51.9844 171.318L54.3574 190.413L54.3596 190.415Z" fill="#6DB4EC"/>
<path fill-rule="evenodd" clip-rule="evenodd" d="M235.774 180.089L230.128 180.061L227.195 180.158C224.339 181.24 225.468 188.71 225.469 194.755C225.469 199.255 224.948 207.108 225.846 210.846C227.887 211.389 230.718 211.502 233.119 210.991L244.392 211.136C247.632 211.56 263.404 211.825 265.348 210.619C266.975 209.236 266.238 196.801 266.238 194.755C266.238 189.624 267.251 181.055 264.656 180.075L260.885 179.966C258.545 181.179 255.062 179.85 252.59 179.697L252.548 175.397C251.571 175.236 250.545 174.938 249.51 175.095C246.834 175.503 248.388 174.355 247.73 176.331L250.989 176.572L250.929 179.909L241.339 179.628C241.194 175.816 240.71 177.375 242.592 176.464L242.707 175.121L241.338 175.329L239.177 175.57L238.758 180.015L235.771 180.09L235.774 180.089Z" fill="#2A2B2A"/>
<path fill-rule="evenodd" clip-rule="evenodd" d="M33.6227 233.799L33.6601 236.791C35.262 237.535 34.6104 239.258 39.2328 240.702C42.5625 241.742 44.5356 240.237 44.847 244.254C39.1688 244.547 36.0705 244.613 30.8017 243.925L30.3335 243.895C29.7021 243.938 29.1315 244.567 26.5868 244.095C26.5185 242.772 26.5164 241.435 26.6262 240.114C26.8214 237.785 26.5324 237.979 27.8794 236.811L27.8527 234.354C23.641 234.384 17.1479 234.005 14.1967 235.997C13.8864 238.282 14.9401 236.376 15.3913 239.405C12.5297 241.529 7.27699 242.531 3.80859 243.987C4.23201 246.116 3.90458 246.692 9.33329 247.674C30.7132 251.537 90.1847 251.236 111.107 246.808C116.359 245.696 120.969 244.821 121.552 240.862C115.269 235.062 65.3012 236.284 52.5816 235.071L52.6424 236.792C54.7286 238.036 54.4086 239.566 58.2578 240.685C61.4211 241.604 63.4369 240.506 63.7814 244.328L45.4966 244.199C45.4827 241.862 45.2182 238.384 46.5684 236.84L46.641 235.04C45.9946 234.186 47.5177 234.083 45.5616 234.473L33.9576 234.376C34.4291 232.522 36.679 232.496 36.679 232.496C35.9345 233.748 33.9758 232.702 33.6249 233.801L33.6227 233.799Z" fill="#D2EDFF"/>
<path fill-rule="evenodd" clip-rule="evenodd" d="M82.79 154.275L88.7243 156.541L88.4481 147.941C88.9376 141.83 88.2209 127.617 88.3521 120.375L88.4065 119.349C87.4156 117.854 86.5763 116.39 85.562 114.871C84.616 113.451 83.4716 112.229 82.6887 110.555C78.1474 105.769 67.8819 99.0153 60.6571 98.1855C58.7064 112.244 57.4095 120.249 62.8233 133.774C66.0282 141.779 75.5301 150.904 82.79 154.276V154.275Z" fill="#85DAF3"/>
<path fill-rule="evenodd" clip-rule="evenodd" d="M211.711 136.738C212.784 137.338 213.318 135.61 213.088 142.496C212.994 145.296 211.813 157.903 213.279 159.624L213.924 160.13L209.211 195.477L210.379 234.964C211.936 236.27 217.21 235.744 219.063 235.595L219.473 223.572L219.914 217.052C219.964 211.37 220.313 198.881 221.444 193.794C222.355 189.699 224.556 176.755 226.198 174.041L227.194 180.157L230.127 180.06C230.811 179.447 229.224 179.704 231.561 179.384C231.961 179.329 233.271 179.396 233.762 179.396C236.527 179.48 235.238 179.594 235.771 180.088L238.758 180.013L239.178 175.568L241.338 175.327L239.649 160.252C241.736 160.519 240.478 160.479 240.9 159.82L239.649 160.252L230.94 160.593L230.861 157.981C229.648 158.922 231.411 158.47 228.355 158.647C227.637 158.688 226.383 158.626 225.608 158.617C223.785 158.596 221.971 158.597 220.148 158.553L219.926 161.008L213.925 160.129C214.292 159.173 214.35 159.48 213.28 159.623C212.102 155.322 213.962 141.126 213.457 135.006C211.675 136.276 213.084 134.069 211.712 136.737L211.711 136.738Z" fill="#2C3C73"/>
<path fill-rule="evenodd" clip-rule="evenodd" d="M28.2449 114.722C33.3952 118.743 25.4655 134.343 24.2539 140.812L25.3013 155.181L44.3305 155.279C45.1624 155.289 46.9403 155.354 47.6827 155.255C50.0003 154.948 48.7545 156.105 49.7347 154.3L49.7294 152.069L50.1848 142.615C50.316 137.836 50.765 119.452 47.5024 115.879C46.9211 115.242 45.4909 114.313 44.2292 114.179C42.0321 113.945 42.2668 114.589 41.0605 116.117L39.7135 115.482C39.0543 115.323 39.8617 115.229 38.3771 115.34C37.0151 115.443 37.4289 115.82 36.6311 116.098C35.33 115.106 31.4381 111.791 28.2438 114.723L28.2449 114.722Z" fill="url(#paint1_linear_636_9721)"/>
<path fill-rule="evenodd" clip-rule="evenodd" d="M85.9468 54.9934L89.5155 55.0382C89.1752 56.8908 89.0291 56.3437 88.1844 57.808C86.5878 56.7906 88.0703 58.4064 86.6795 56.5463C86.2508 55.9736 86.2199 55.5736 85.9468 54.9934ZM77.9563 47.3986L75.8787 47.5447C72.7963 51.6839 75.9032 53.3051 79.0324 58.2464C80.0606 59.8686 81.1655 61.4727 82.0859 62.8613C83.6943 65.2909 83.4628 65.18 82.0742 68.0746C79.9465 72.5114 72.3505 86.1269 71.701 89.4086L75.5224 91.3807C77.9776 88.7751 79.9422 84.3447 82.3707 81.4106C82.888 79.9623 82.2342 81.433 83.289 79.6764C83.658 79.0621 84.0718 78.4264 84.5497 77.6671C85.4263 76.2763 85.8828 75.2951 86.7851 74.059L87.2149 73.242C88.9107 70.9244 87.8389 72.0944 88.3423 72.3493C89.5016 73.0841 91.303 76.4117 93.0255 78.5672C94.3853 80.2694 93.8798 79.1432 94.413 80.999C95.2204 80.8592 94.9868 80.7121 95.0018 81.5728C96.0886 83.4733 96.2582 82.6724 96.5344 84.9548C96.6528 84.8545 96.816 84.5271 96.8714 84.6295C97.5945 85.9776 96.7637 82.6916 101.019 81.7882L94.0088 68.674L92.0059 65.7399C92.8036 63.9439 93.7529 62.471 95.3175 61.4631C97.0517 60.3496 97.5935 58.8223 99.3671 57.6342C101.106 56.4695 103.987 56.1976 106.196 55.8456C108.246 53.8917 108.884 53.2443 109.302 49.0805C109.273 48.7765 109.191 47.5895 109.1 47.2813C108.775 46.1795 108.911 46.6648 108.501 46.0558C107.827 46.4579 108.528 46.348 107.218 46.2766C107.216 46.2766 106.19 46.0857 106 46.0473C105.093 45.8638 104.467 45.6985 103.382 45.5449L92.777 45.8638L77.9584 47.3975L77.9563 47.3986Z" fill="#2C3C73"/>
<path fill-rule="evenodd" clip-rule="evenodd" d="M230.86 157.983L230.939 160.595L239.648 160.254L240.899 159.822C240.957 159.72 241.033 159.576 241.053 159.507L241.632 144.878C243.875 149.756 242.109 163.912 242.093 170.45L243.37 171.079L247.084 171.279L247.779 167.952L247.813 167.189C247.921 155.998 248.867 150.357 246.864 139.228L242.624 118.909C241.869 118.003 240.371 115.107 239.658 114.103L234.304 113.044L231.215 112.881C232.255 127.446 229.353 144.426 230.859 157.984L230.86 157.983Z" fill="#2A2B2A"/>
<path fill-rule="evenodd" clip-rule="evenodd" d="M88.7241 156.54L88.4244 228.059L89.139 228.017C90.6204 226.918 95.6983 227.455 97.7482 227.461C98.1609 225.914 97.7578 226.699 98.947 225.43C99.3021 225.051 99.5122 224.927 99.8375 224.632L93.995 223.755C96.1217 223.96 97.7471 223.869 99.8546 223.828C101.633 223.794 103.6 223.961 104.971 222.993L94.2008 222.7L94.1496 161.667C93.7017 159.185 93.1887 160.003 94.1379 159.562L94.2414 91.9307C92.7173 91.8646 93.2015 92.1814 92.007 91.326C92.4133 88.3322 93.2175 88.3386 94.5965 86.8647C93.7667 85.8717 93.9918 85.5219 94.0195 83.696C94.043 82.1559 93.9427 82.1655 94.4131 81.0008C94.1507 81.8444 94.0526 81.5746 95.0018 81.5746C94.9869 80.7128 95.2204 80.86 94.4131 81.0008C93.8798 79.145 94.3853 80.2713 93.0255 78.5691C91.303 76.4136 89.5016 73.0849 88.3423 72.3511C87.8389 72.0962 88.9118 70.9262 87.215 73.2438L86.7852 74.0608C87.6896 74.0608 87.4187 74.2379 87.215 73.2438L88.3423 72.3511L88.4052 119.347L88.3508 120.373C91.1015 123.985 92.8602 132.786 93.3199 138.187C94.0505 146.762 91.9408 156.559 93.3497 159.335C91.5878 156.849 90.8423 157.915 88.7241 156.541V156.54Z" fill="#263238"/>
<path fill-rule="evenodd" clip-rule="evenodd" d="M211.885 120.03L208.597 127.801C207.808 130.338 205.643 136.007 203.846 137.264L202.293 136.24C199.791 135.963 194.822 133.395 192.934 132.04C191.391 131.673 192.19 131.735 190.93 131.793L189.26 136.701L191.595 138.575C194.553 140.239 198.476 143.198 201.736 144L204.74 145.404C206.708 145.952 207.178 145.284 208.289 144.619C208.885 142.324 211.218 139.949 211.711 136.738C213.082 134.071 211.673 136.277 213.455 135.007C213.961 141.127 212.101 155.322 213.278 159.624C214.348 159.481 214.29 159.174 213.924 160.13L219.925 161.009L220.147 158.554C219.592 151.567 220.197 142.73 220.039 135.419C219.847 126.558 220.887 121.38 221.473 113.324L219.79 113.27C217.588 114.128 216.177 114.458 214.827 115.94C213.734 117.141 213.142 118.738 211.883 120.029L211.885 120.03Z" fill="#2A2B2A"/>
<path fill-rule="evenodd" clip-rule="evenodd" d="M305.145 125.705L303.775 147.594L299.811 149.457L300.823 152.852C302.119 154.145 301.543 153.649 304.112 153.137L304.393 160.332C305.894 162.319 306.036 162.984 307.608 164.997C308.993 166.77 309.99 168.011 311.163 169.724C312.363 169.096 312.598 168.723 313.805 168.176C314.969 165.258 312.986 160.569 312.355 154.728C312.337 154.562 312.144 152.273 312.145 152.257C312.347 149.228 311.593 150.879 313.345 149.967L314.24 151.595L314.179 149.524C323.61 147.774 321.213 145.47 317.244 132.036C313.748 120.204 315.361 122.022 310.541 120.008C309.623 120.599 308.658 119.946 307.109 119.289C305.022 118.403 305.116 118.388 304.077 116.732C305.552 120.538 305.272 121.33 305.146 125.705H305.145Z" fill="#7269E8"/>
<path fill-rule="evenodd" clip-rule="evenodd" d="M82.3445 182.824C82.8543 190.861 82.5813 200.008 82.5983 208.362C82.6133 215.55 80.9591 227.715 84.9981 231.759L90.0556 233.215L105.288 233.055C106.678 231.523 105.844 233.288 108.513 230.673C110.296 228.925 110.283 229.435 112.93 228.855C108.513 228.783 90.9728 229.296 88.4238 228.059L88.7235 156.54L82.7893 154.273L82.3445 182.824Z" fill="#CCCCCC"/>
<path fill-rule="evenodd" clip-rule="evenodd" d="M262.695 117.855C264.14 121.153 270.121 128.295 272.466 131.543L282.245 145.322L282.663 145.816C284.424 146.391 285.544 146.572 286.846 147.58C286.871 149.987 286.114 149.294 286.874 151.473C288.189 153.35 289.29 154.276 290.503 156.487C292.082 157.489 293.422 160.131 294.6 161.68C296.064 163.605 297.653 165.976 298.98 167.628L299.395 168.147L311.857 185.325L318.517 194.21C316.026 194.85 316.25 193.705 314.623 191.714C313.511 190.352 312.252 188.555 311.662 187.005C309.023 184.45 307.421 181.262 305.105 178.391C303.54 176.45 303.089 176.191 302.101 173.759C300.905 170.817 300.904 170.378 298.223 169.207L296.74 169.596C297.044 171.259 296.768 170.408 297.344 171.501C298.548 173.108 299.717 174.45 300.822 176.144C302.056 178.036 303.134 179.445 304.521 181.152C306.933 184.125 309.593 187.818 311.623 191.081C312.661 192.216 313.272 192.456 313.746 194.282C315.844 196.29 315.706 197.103 317.171 198.773C321.169 198.615 319.232 197.898 321.753 197.009C322.78 195.211 322.516 195.588 324.414 194.651C320.216 186.888 267.842 119.296 266.688 115.52C264.891 116.202 264.081 116.648 262.696 117.858L262.695 117.855Z" fill="#F09D78"/>
<path fill-rule="evenodd" clip-rule="evenodd" d="M297.084 240.719C298.437 241.871 299.401 241.879 301.232 241.867L312.187 241.869C314.924 241.937 315.52 242.578 316.326 240.664L304.367 201.334L298.241 201.452L297.084 240.72V240.719Z" fill="white"/>
<path fill-rule="evenodd" clip-rule="evenodd" d="M291.902 201.243L298.24 201.453L304.367 201.335L311.535 200.148L311.72 193.703L311.62 191.08C309.592 187.817 306.932 184.124 304.518 181.152C303.133 179.444 302.053 178.035 300.819 176.143C299.714 174.449 298.544 173.107 297.341 171.5L290.22 168.973C289.615 174.895 290.805 195.586 291.901 201.242L291.902 201.243Z" fill="#6DB4EC"/>
<path fill-rule="evenodd" clip-rule="evenodd" d="M262.695 117.856C264.078 116.646 264.89 116.2 266.687 115.517C267.841 119.294 320.214 186.886 324.412 194.648C322.514 195.586 322.778 195.209 321.751 197.006L322.701 196.985C324.994 196.312 323.752 196.712 325.143 195.768C326.774 194.661 325.346 194.953 327.158 194.965L327.521 195.697L328.403 196.433C328.333 197.356 328.084 197.175 328.925 197.175L328.403 196.433L327.521 195.697L327.158 194.965C326.614 192.232 328.269 192.431 326.107 189.546C324.971 188.029 324.235 187.572 323.15 185.957C322.192 184.532 321.55 183.677 320.461 182.096C320.132 181.619 319.248 180.372 319.123 180.171C317.957 178.294 318.375 180.71 318.369 178.044C315.803 178.402 317.495 178.119 316.29 176.994C315.736 176.478 315.483 175.855 315.158 175.379C314.358 174.21 313.575 173.539 313.373 172.138C312.131 171.316 313.016 172.118 312.023 170.902C311.3 170.016 312.075 170.688 311.164 169.722C309.991 168.009 308.994 166.769 307.609 164.995C306.037 162.983 305.895 162.317 304.394 160.33C302.813 158.833 300.674 155.366 299.385 153.552L300.824 152.85L299.811 149.456L299.144 149.466L296.233 149.463C294.743 147.612 287.708 138.371 287.387 136.487C285.052 134.828 285.608 134.523 283.645 131.825C282.469 130.208 281.365 128.847 280.144 127.162L271.576 115.578C270.789 114.298 271.301 114.642 269.931 113.456L257.724 103.311C257.534 103.166 256.891 102.663 256.831 102.615C256.56 103.5 257.66 106.097 258.593 108.465C259.551 110.896 261.237 116.047 262.695 117.856Z" fill="#FFC7C6"/>
<path fill-rule="evenodd" clip-rule="evenodd" d="M221.476 113.324C220.889 121.38 219.85 126.558 220.042 135.42C220.2 142.731 219.594 151.568 220.15 158.554C221.973 158.598 223.787 158.597 225.61 158.618C226.385 158.627 227.639 158.69 228.357 158.648C231.413 158.471 229.65 158.924 230.862 157.982C229.356 144.425 232.258 127.444 231.219 112.879L234.307 113.043C233.764 112.674 233.793 112.583 232.631 112.41C231.516 112.244 232.125 112.365 231.1 112.51C228.836 112.83 232.27 113.92 228.968 112.707C230.769 113.996 228.502 117.34 227.492 118.685C220.079 118.779 224.391 112.451 224.577 110.188L223.756 110.334L223.965 110.541L221.792 110.469L223.774 112.012C222.683 113.718 224.327 112.85 221.478 113.324H221.476Z" fill="#CCCCCC"/>
<path fill-rule="evenodd" clip-rule="evenodd" d="M194.084 65.8524L202.429 65.8961L202.293 136.239L203.846 137.263C205.643 136.006 207.807 130.339 208.598 127.8L208.283 64.9896C205.492 64.7123 203.069 63.5401 200.547 63.5199C199.08 63.5081 198.212 63.8153 196.982 64.292L194.085 65.8513L194.084 65.8524Z" fill="#263238"/>
<path fill-rule="evenodd" clip-rule="evenodd" d="M120.579 65.8042L173.941 65.8149C174.155 68.1794 174.395 70.8607 173.596 73.2615L120.451 73.414L120.579 65.8042ZM122.391 60.2763L171.774 60.303L173.972 60.3286L174.078 63.7682L171.874 63.7543L122.171 63.7586L120.445 63.653L120.504 60.7574L122.388 60.2763H122.391ZM95.3175 61.4655C93.7529 62.4745 92.8036 63.9474 92.0059 65.7424L94.0088 68.6764L94.0963 65.9599L119.013 65.7904C119.433 70.9066 118.102 71.3897 120.728 74.7397C126.36 75.2357 172.193 75.2975 175.012 74.4806C175.941 72.0894 175.442 68.9804 175.726 66.0357L193.21 66.0815L192.662 63.6381L176.062 63.5858C174.751 60.5195 175.935 58.829 171.629 58.6445L122.655 58.8962C118.937 59.0786 119.241 60.1654 119.243 63.8301L94.2317 63.8055C94.7661 62.0724 94.0814 63.1507 95.3185 61.4655H95.3175Z" fill="#263238"/>
<path fill-rule="evenodd" clip-rule="evenodd" d="M159.779 228.066L208.494 228.308L208.335 201.317L208.412 179.664L207.407 180.893C206.926 181.524 206.955 181.533 206.719 181.851C206.321 182.39 206.274 182.487 205.741 183.101C202.852 186.428 206.024 185.046 203.241 186.678L203.071 174.213C203.694 176.446 203.277 204.712 203.277 211.084C203.277 214.16 203.951 222.229 202.259 223.313L168.699 223.001L166.288 223.751C168.182 224.712 167.369 223.542 167.563 224.767C167.674 225.469 167.551 224.932 167.352 225.117L164.631 227.418L159.779 228.065V228.066Z" fill="#263238"/>
<path fill-rule="evenodd" clip-rule="evenodd" d="M120.451 73.4125L173.597 73.26C174.396 70.8581 174.155 68.1769 173.942 65.8134L120.579 65.8027L120.451 73.4125Z" fill="white"/>
<path fill-rule="evenodd" clip-rule="evenodd" d="M246.865 139.228C248.868 150.357 247.922 155.998 247.814 167.189C251.548 163.807 253.158 160.847 256.681 157.255C262.108 151.719 270.404 137.886 258.372 134.755C251.393 132.94 250.363 139.456 247.545 139.485C247.452 139.486 246.999 139.351 246.865 139.228Z" fill="#6DB4EC"/>
<path fill-rule="evenodd" clip-rule="evenodd" d="M168.697 223.002L104.97 222.994C103.6 223.961 101.632 223.794 99.8542 223.829C97.7467 223.87 96.1213 223.961 93.9946 223.757L99.8372 224.633C99.5108 224.928 99.3018 225.053 98.9466 225.431C97.7574 226.701 98.1595 225.916 97.7478 227.462C95.6979 227.457 90.6201 226.919 89.1387 228.019L130.081 228.187L159.779 228.066L164.631 227.419L167.351 225.118C167.551 224.933 167.674 225.47 167.563 224.768C167.369 223.542 168.181 224.712 166.288 223.751L168.699 223.002H168.697Z" fill="#263238"/>
<path fill-rule="evenodd" clip-rule="evenodd" d="M219.474 223.572L219.063 235.596C218.349 236.644 219.69 236.93 217.514 236.154L218.406 238.481C218.974 238.899 219.443 237.474 218.783 239.662L218.698 242.92C223.222 242.788 227.923 243.019 232.285 242.577C235.856 242.25 236.396 240.299 238.047 238.477L238.071 235.389L236 225.474C235.553 224.969 235.557 225.111 235.187 224.18C234.313 221.976 235.058 224.947 235.211 223.143L219.475 223.57L219.474 223.572Z" fill="white"/>
<path fill-rule="evenodd" clip-rule="evenodd" d="M208.333 201.316L208.492 228.307L159.778 228.065L130.08 228.187L150.274 228.337L146.983 231.772C146.926 231.805 146.791 231.877 146.731 231.907L145.439 232.378C143.219 232.895 142.755 232.33 141.567 232.977C147.592 232.077 182.569 233.072 193.48 233.152C196.383 233.174 199.291 233.182 202.194 233.195C206.408 233.213 207.136 232.708 209.922 231.16L210.378 234.962L209.21 195.475C209.106 195.623 209.019 195.815 208.964 195.959L208.333 201.315V201.316Z" fill="#52A8CC"/>
<path fill-rule="evenodd" clip-rule="evenodd" d="M18.4323 166.46L22.0437 165.847L23.0249 146.83C23.1763 142.984 23.3875 141.987 24.2546 140.812C25.4662 134.343 33.3949 118.743 28.2456 114.722C23.0899 113.146 23.0547 118.987 22.0106 123.353C21.0176 127.508 19.9351 132.16 18.8291 136.505C17.2975 142.518 17.2645 144.212 17.3637 151.206C17.4202 155.168 16.1873 164.098 18.4323 166.459V166.46Z" fill="#8188E8"/>
<path fill-rule="evenodd" clip-rule="evenodd" d="M90.5598 8.93412C92.5883 6.87569 90.5672 7.20205 94.2212 7.29271C94.3833 7.58494 94.9518 8.97678 94.9987 9.04611C96.3543 11.0939 96.5911 9.49619 97.4177 12.2799C97.696 13.2152 97.6139 13.6173 97.888 14.5164L99.2585 14.3596C101.462 9.52179 102.262 12.4612 99.5571 2.93801C102.034 3.3881 102.844 3.74539 102.361 9.6807C102.167 12.0644 101.657 14.8886 100.933 17.0548L100.878 17.9187C104.935 22.0643 103.936 25.7855 104.579 32.1506C105.1 37.2924 106.828 41.6247 108.5 46.0573C108.911 46.6663 108.774 46.181 109.1 47.2827C109.19 47.591 109.272 48.778 109.301 49.082C115.392 45.7224 110.467 36.1832 109.075 32.0408C103.39 24.1153 110.194 11.24 106.817 4.34159C102.848 -3.76521 99.1838 1.87787 97.519 2.37488C94.4729 3.28357 87.4401 4.14108 88.336 8.68882L90.5587 8.93519L90.5598 8.93412Z" fill="#2A2B2A"/>
<path fill-rule="evenodd" clip-rule="evenodd" d="M141.569 232.978L105.289 233.054L90.0566 233.214C93.6968 236.296 97.9629 235.34 103.663 235.338H180.961C189.62 235.338 203.142 234.385 211.546 236.12C213.798 235.338 215.29 235.401 217.514 236.152C219.69 236.927 218.348 236.64 219.064 235.593C217.211 235.743 211.937 236.268 210.38 234.962L209.923 231.16C207.137 232.707 206.411 233.213 202.196 233.195C199.293 233.182 196.385 233.173 193.481 233.152C182.571 233.072 147.593 232.077 141.569 232.978Z" fill="#D2EDFF"/>
<path fill-rule="evenodd" clip-rule="evenodd" d="M292.775 120.282C288.228 120.628 289.055 122.303 288.561 126.992C288.227 130.155 287.779 133.424 287.387 136.486C287.708 138.372 294.743 147.612 296.233 149.463L299.143 149.466L298.063 126.292L298.187 118.549L292.776 120.282H292.775Z" fill="#765EAC"/>
<path fill-rule="evenodd" clip-rule="evenodd" d="M35.168 218.702C35.3813 218.426 35.8932 219.206 36.1631 217.141L43.7376 220C43.8571 220.639 43.727 220.651 44.0192 221.495C44.5877 223.135 44.512 222.58 44.7999 223.057C44.4 214.701 43.9328 206.353 43.5169 198.034C43.3142 193.982 40.4154 178.675 38.6257 176.16L35.168 218.702Z" fill="#D2EDFF"/>
<path fill-rule="evenodd" clip-rule="evenodd" d="M208.412 179.663L208.289 144.618C207.178 145.282 206.709 145.95 204.74 145.403L201.736 143.998C202.728 145.424 202.504 145.511 202.463 149.019C202.215 169.72 203.398 207.575 202.258 223.313C203.952 222.228 203.276 214.158 203.276 211.084C203.276 204.71 203.693 176.444 203.071 174.212L203.24 186.677C206.024 185.045 202.851 186.427 205.74 183.101C206.274 182.486 206.32 182.389 206.718 181.851C206.954 181.532 206.925 181.523 207.406 180.892L208.411 179.663H208.412Z" fill="#263238"/>
<path fill-rule="evenodd" clip-rule="evenodd" d="M162.467 102.334C165.548 91.5022 179.564 90.0507 185.748 99.0629C186.742 100.511 186.877 101.934 187.663 102.925L187.821 102.065L195.59 102.104L195.757 90.8356L160.787 90.793L160.707 101.67L162.468 102.334H162.467Z" fill="#CCCCCC"/>
<path fill-rule="evenodd" clip-rule="evenodd" d="M87.2153 73.2423C87.419 74.2363 87.6899 74.0593 86.7855 74.0593C85.8832 75.2954 85.4267 76.2766 84.55 77.6674C84.0722 78.4268 83.6584 79.0624 83.2894 79.6768C82.2356 81.4334 82.8894 79.9626 82.3711 81.411L82.6879 110.552C83.4696 112.227 84.6151 113.449 85.5611 114.867C86.5743 116.387 87.4137 117.85 88.4056 119.346L88.3427 72.3496L87.2153 73.2423Z" fill="#FFC7C6"/>
<path fill-rule="evenodd" clip-rule="evenodd" d="M304.367 201.334L316.326 240.663L318.063 240.642L319.93 239.436L311.536 200.146L304.367 201.334Z" fill="#FFBF9D"/>
<path fill-rule="evenodd" clip-rule="evenodd" d="M106.196 55.8479C103.987 56.1998 101.105 56.4718 99.3669 57.6365C97.5933 58.8257 97.0515 60.353 95.3173 61.4654C94.0801 63.1505 94.7648 62.0733 94.2305 63.8054L119.242 63.8299C119.24 60.1653 118.935 59.0785 122.654 58.8961L122.828 55.0043L171.521 55.2709C170.102 53.9313 167.841 54.5616 164.086 54.5659H130.335C123.569 54.5616 125.587 53.9836 121.883 55.6538C119.868 56.5625 108.105 56.106 106.196 55.8479Z" fill="#FFC7C6"/>
<path fill-rule="evenodd" clip-rule="evenodd" d="M208.289 144.621L208.412 179.666L208.335 201.319L208.965 195.963C209.021 195.819 209.107 195.627 209.212 195.479L213.925 160.133L213.279 159.626C211.814 157.906 212.995 145.298 213.089 142.499C213.319 135.612 212.785 137.342 211.712 136.74C211.219 139.952 208.885 142.327 208.29 144.622L208.289 144.621Z" fill="#98B9C9"/>
<path fill-rule="evenodd" clip-rule="evenodd" d="M105.822 162.174C103.597 162.144 101.819 161.558 101.052 163.181C101.788 164.01 99.5725 163.922 103.065 164.342C103.61 164.407 105.68 164.318 106.376 164.309C121.32 164.124 193.587 165.078 195.478 163.725C195.155 161.352 193.858 162.123 190.778 162.172L105.822 162.174Z" fill="#CCCCCC"/>
<path fill-rule="evenodd" clip-rule="evenodd" d="M219.914 217.052C224.544 217.097 230.867 215.775 234.348 216.03L233.118 210.989C230.717 211.501 227.885 211.387 225.845 210.844C224.947 207.106 225.468 199.253 225.468 194.753C225.466 188.708 224.338 181.238 227.194 180.157L226.198 174.041C224.557 176.754 222.355 189.699 221.445 193.793C220.313 198.881 219.964 211.37 219.914 217.052Z" fill="#85DAF3"/>
<path fill-rule="evenodd" clip-rule="evenodd" d="M234.348 216.029C234.72 218.455 235.418 220.716 235.209 223.143C236.043 224.245 235.737 223.545 235.998 225.473L238.069 235.388L244.034 235.091C244.688 229.076 243.192 215.374 244.391 211.133L233.117 210.988L234.347 216.029H234.348Z" fill="#2C3C73"/>
<path fill-rule="evenodd" clip-rule="evenodd" d="M103.381 45.5477C104.467 45.7012 105.092 45.8666 106 46.05C106.189 46.0884 107.215 46.2793 107.218 46.2793C108.528 46.3497 107.827 46.4606 108.501 46.0585C106.828 41.6249 105.101 37.2937 104.58 32.1519C103.936 25.7867 104.935 22.0656 100.878 17.9199L100.038 17.9658C96.4061 21.0556 97.5665 22.1616 96.9991 27.9017C96.6002 31.9375 96.2269 36.3125 96.1074 40.0624L100.01 41.7561C100.088 42.1507 100.129 42.781 100.025 43.3516C99.5918 45.7066 100.038 44.1899 99.5108 44.5163L103.382 45.5477H103.381Z" fill="#FECF97"/>
<path fill-rule="evenodd" clip-rule="evenodd" d="M105.29 233.056L141.569 232.979C142.757 232.332 143.222 232.897 145.442 232.38L146.734 231.908C146.793 231.878 146.928 231.807 146.985 231.774L150.277 228.338L130.083 228.188L89.1404 228.02L88.4258 228.061C90.9759 229.298 108.516 228.785 112.932 228.857C110.285 229.436 110.298 228.927 108.515 230.675C105.847 233.29 106.68 231.526 105.29 233.057V233.056Z" fill="#98B9C9"/>
<path fill-rule="evenodd" clip-rule="evenodd" d="M164.197 103.61L164.162 102.729L164.422 102.101C168.224 92.5072 181.764 92.4304 185.243 102.336L185.287 102.932C186.43 104.759 186.257 107.259 185.207 109.322C183.279 119.374 166.824 118.933 164.684 109.878C163.709 108.356 163.218 105.4 164.197 103.609V103.61ZM162.467 102.333C160.787 107.5 162.609 112.12 165.403 115.046C168.441 118.228 172.675 119.234 178.238 118.604L183.138 128.985C186.626 130.859 188.742 129.746 186.46 135.615L186.978 136.282C189.974 136.821 189.826 135.76 188.706 133.151C187.886 131.241 187.609 130.918 187.014 128.867L181.768 116.712C183.904 115.449 186.009 113.395 186.977 110.292C187.819 108.325 187.753 106.526 187.699 103.95L187.663 102.926C186.877 101.935 186.743 100.513 185.749 99.0643C179.564 90.0509 165.548 91.5025 162.467 102.335V102.333Z" fill="url(#paint2_linear_636_9721)"/>
<path fill-rule="evenodd" clip-rule="evenodd" d="M291.989 208.456L293.467 241.01L297.084 240.719L298.242 201.451L291.902 201.242L291.989 208.456Z" fill="#FFBF9D"/>
<path fill-rule="evenodd" clip-rule="evenodd" d="M111.827 170.77C107.429 170.77 101.882 169.931 101.047 171.891C101.937 172.64 99.6241 172.55 103.072 172.894L184.772 172.852C186.773 172.852 188.776 172.838 190.777 172.865C192.936 172.894 194.783 173.478 195.499 171.89C195.011 170.61 196.331 170.686 190.224 170.761L111.827 170.769V170.77Z" fill="#CCCCCC"/>
<path fill-rule="evenodd" clip-rule="evenodd" d="M101.051 158.825C101.445 159.816 99.9096 160.053 105.821 159.962L193.532 159.985C196.104 159.669 194.959 160.264 195.503 158.825C194.549 156.938 175.725 157.932 172.794 157.931L103.074 157.888C99.6387 158.2 102.031 158.114 101.051 158.825Z" fill="#CCCCCC"/>
<path fill-rule="evenodd" clip-rule="evenodd" d="M111.828 166.513C107.593 166.513 101.971 165.723 101.053 167.538C101.693 168.789 99.9766 168.632 106.377 168.56L190.778 168.567C193.307 168.602 194.724 169.158 195.511 167.537C194.722 165.9 196.232 166.792 193.534 166.48L111.829 166.512L111.828 166.513Z" fill="#CCCCCC"/>
<path fill-rule="evenodd" clip-rule="evenodd" d="M186.981 136.282L105.267 136.408C102.773 136.369 101.752 135.793 101.045 137.597C101.933 139.255 107.452 138.515 111.285 138.515C136.162 138.515 168.544 137.793 191.597 138.575L189.261 136.701L190.931 131.793C192.191 131.735 191.392 131.673 192.935 132.039C191.556 131.095 191.257 131.632 190.168 131.406C190.075 131.387 189.91 131.372 189.822 131.343L187.016 128.865C187.611 130.916 187.888 131.239 188.708 133.15C189.828 135.759 189.976 136.82 186.981 136.281V136.282Z" fill="#CCCCCC"/>
<path fill-rule="evenodd" clip-rule="evenodd" d="M208.597 127.801L211.885 120.03C210.403 117.901 211.331 110.805 211.603 107.75L211.616 100.789L211.593 88.9277L211.784 65.4137L208.283 64.9902L208.598 127.801H208.597Z" fill="#CCCCCC"/>
<path fill-rule="evenodd" clip-rule="evenodd" d="M247.085 171.279L247.731 176.331L247.372 177.427C245.422 177.47 243.882 177.659 242.593 176.464C240.71 177.375 241.195 175.817 241.34 179.629L250.93 179.909L250.99 176.572L247.731 176.331C248.389 174.355 246.835 175.503 249.511 175.096C250.546 174.938 251.572 175.237 252.549 175.398L252.238 180.054C254.62 179.993 255.107 179.609 257.19 179.436L260.887 179.967L264.657 180.075C264.394 179.936 263.673 179.635 263.65 179.622C262.753 179.124 263.103 179.347 262.485 178.815C264.702 176.96 265.484 176.093 264.817 172.218C261.08 168.413 253.121 169.791 247.782 167.953L247.088 171.281L247.085 171.279Z" fill="#6DB4EC"/>
<path fill-rule="evenodd" clip-rule="evenodd" d="M186.462 135.614C188.744 129.746 186.628 130.858 183.14 128.984L183.18 132.1C161.438 132.711 133.665 132.143 110.74 132.142C106.184 132.142 101.886 131.302 101.047 133.242C101.986 134.988 106.423 134.21 110.74 134.21H176.062C177.829 134.209 179.805 134.12 181.54 134.177C185.013 134.292 183.671 134.65 186.462 135.614Z" fill="#CCCCCC"/>
<path fill-rule="evenodd" clip-rule="evenodd" d="M76.0022 29.8305L75.8209 34.0956L77.0485 37.9149L87.0046 37.7923L87.3246 37.4297C87.539 35.5493 87.1166 33.492 86.3903 31.7482C85.7536 28.6776 85.1713 24.1608 83.6717 21.9712C82.0399 21.472 74.7565 20.9345 73.5715 22.1002L73.2793 24.0989C73.9075 28.6424 74.5112 28.9453 76.0011 29.8295L76.0022 29.8305Z" fill="#2FC1DC"/>
<path fill-rule="evenodd" clip-rule="evenodd" d="M122.654 58.8957L171.628 58.644L171.533 56.1024L171.52 55.2695L122.827 55.0039L122.654 58.8957Z" fill="#FECF97"/>
<path fill-rule="evenodd" clip-rule="evenodd" d="M122.172 63.7577L171.875 63.7534L171.774 60.3021L122.391 60.2754L122.172 63.7577Z" fill="#FECF97"/>
<path fill-rule="evenodd" clip-rule="evenodd" d="M54.305 216.796L54.1621 223.603C56.6696 222.757 60.8856 223.908 62.8971 224.806C61.8434 218.754 65.476 218.569 68.1018 215.92C68.7588 212.521 67.1089 209.655 64.3977 208.869C61.1874 207.938 58.3611 209.513 54.897 208.525L54.3061 216.796H54.305Z" fill="#D2EDFF"/>
<path fill-rule="evenodd" clip-rule="evenodd" d="M292.775 120.282L298.186 118.549C300.585 116.159 297.049 113.332 296.41 111.928C295.524 109.977 297.066 106.246 297.998 103.941C299.436 105.629 302.534 108.728 305.266 108.54C305.686 108.512 307.014 107.246 306.487 110.15C306.131 112.113 303.288 112.353 304.076 116.731C305.115 118.387 305.02 118.402 307.109 119.288C308.656 119.945 309.622 120.598 310.541 120.007C307.612 112.958 309.241 113.312 307.875 106.481C307.021 102.205 304.204 98.3368 299.085 99.8406C294.915 100.883 294.771 104.091 294.381 109.216C294.096 112.955 292.96 116.64 292.776 120.282H292.775Z" fill="#433D51"/>
<path fill-rule="evenodd" clip-rule="evenodd" d="M298.186 118.551L298.062 126.294C301.236 128.33 302.539 127.356 305.146 125.706C305.272 121.33 305.551 120.538 304.076 116.733C303.288 112.355 306.13 112.115 306.486 110.152C307.013 107.248 305.685 108.513 305.265 108.542C302.534 108.73 299.436 105.63 297.998 103.943C297.066 106.247 295.523 109.979 296.41 111.93C297.049 113.335 300.584 116.161 298.186 118.551Z" fill="#FFBF9D"/>
<path fill-rule="evenodd" clip-rule="evenodd" d="M93.8866 19.7091C93.1613 21.5116 92.0724 24.0916 91.7727 26.4945C91.2287 30.8556 92.708 31.0166 93.1506 34.516C89.7996 33.4014 93.7682 33.8142 89.7761 32.7679L89.1426 36.2949C89.4412 36.6053 89.9521 37.2154 90.1931 37.4138L92.5054 38.6051C93.6999 40.254 92.8893 43.8183 92.7742 45.865L103.379 45.5461L99.5072 44.5148C100.035 44.1884 99.5883 45.704 100.021 43.3501C100.126 42.7795 100.084 42.1492 100.006 41.7546L96.1039 40.0609C96.2234 36.3109 96.5966 31.936 96.9955 27.9002C97.564 22.1611 96.4025 21.054 100.034 17.9643C95.0672 17.6198 97.2611 18.9444 93.8855 19.7113L93.8866 19.7091Z" fill="#F09D78"/>
<path fill-rule="evenodd" clip-rule="evenodd" d="M88.7234 156.541C90.8415 157.914 91.5871 156.85 93.349 159.335C91.9401 156.559 94.0497 146.761 93.3191 138.186C92.8594 132.785 91.1007 123.984 88.3501 120.373C88.22 127.616 88.9356 141.828 88.4461 147.939L88.7223 156.54L88.7234 156.541ZM94.15 161.667L94.1382 159.563C93.189 160.004 93.702 159.186 94.15 161.667Z" fill="#263238"/>
<path fill-rule="evenodd" clip-rule="evenodd" d="M219.229 93.3345C215.898 93.5478 215.872 95.0954 216.447 98.3515L219.136 99.0885C221.395 98.8059 224.344 98.68 226.761 98.4155L228.255 101.712C225.959 104.834 225.796 104.956 219.43 104.673L219.632 106.158L221.792 110.467L223.965 110.539L223.756 110.332L224.577 110.186L228.268 108.275C228.781 100.286 227.247 102.444 229.65 101.234C231.078 104.011 229.091 104.716 228.839 107.709C230.907 107.353 229.516 108.244 230.858 106.387C231.244 105.854 231.575 104.972 231.82 104.109C232.531 101.586 232.288 100.385 231.792 98.4144C229.634 96.0872 230.79 95.619 227.465 93.5862L226.992 93.2268L226.215 92.7266L219.231 93.3324L219.229 93.3345Z" fill="#433D51"/>
<path fill-rule="evenodd" clip-rule="evenodd" d="M171.628 58.6431C175.935 58.8276 174.751 60.5181 176.062 63.5844L192.661 63.6367L192.223 56.3682L171.533 56.1016L171.628 58.6442V58.6431Z" fill="#FFC7C6"/>
<path fill-rule="evenodd" clip-rule="evenodd" d="M298.064 126.294L299.144 149.468L299.812 149.457L303.776 147.594L305.146 125.705C302.541 127.355 301.238 128.329 298.062 126.293L298.064 126.294Z" fill="#6DB4EC"/>
<path fill-rule="evenodd" clip-rule="evenodd" d="M164.197 103.609C163.219 105.4 163.709 108.356 164.684 109.878L185.207 109.322C186.256 107.259 186.43 104.759 185.287 102.932C185.272 105.184 186.104 103.754 184.09 104.284H165.174C164.107 104.042 164.558 104.601 164.197 103.61V103.609Z" fill="#CCCCCC"/>
<path fill-rule="evenodd" clip-rule="evenodd" d="M185.208 109.322L164.686 109.878C166.825 118.933 183.28 119.374 185.208 109.322Z" fill="white"/>
<path fill-rule="evenodd" clip-rule="evenodd" d="M164.422 102.102L185.243 102.338C181.764 92.4321 168.225 92.5099 164.422 102.102Z" fill="#CCCCCC"/>
<path fill-rule="evenodd" clip-rule="evenodd" d="M228.837 107.712L228.779 108.806C237.427 109.763 241.93 107.269 246.432 102.759C246.337 102.656 246.195 102.531 246.123 102.472L245.486 101.938C240.122 98.1419 233.509 100.082 231.789 98.416C232.285 100.387 232.528 101.589 231.817 104.11C231.574 104.973 231.241 105.854 230.855 106.388C229.512 108.245 230.904 107.354 228.836 107.711L228.837 107.712Z" fill="#85DAF3"/>
<path fill-rule="evenodd" clip-rule="evenodd" d="M35.3647 108.362C35.625 110.826 35 116.5 37.4121 116.24C40.5136 116.463 42.5 117.5 42.2087 110.291C45.0884 108.277 44.5551 103.883 45.4222 99.9424L37.8658 99.5254C36.7118 100.629 37.2184 100.595 36.3203 101.583C34.7931 103.264 36.6328 101.448 34.4998 102.499C33.9473 106.553 35.4426 104.605 35.3637 108.362H35.3647Z" fill="#FFBF9D"/>
<path fill-rule="evenodd" clip-rule="evenodd" d="M49.7305 152.069L62.7956 154.589L63.2841 153.261L63.9432 149.658C62.9449 147.571 59.5224 146.842 57.4074 145.807C55.1698 144.713 52.3947 143.199 50.1859 142.615L49.7305 152.069Z" fill="#8188E8"/>
<path fill-rule="evenodd" clip-rule="evenodd" d="M219.915 217.051L219.475 223.571L235.21 223.143C235.057 224.948 234.312 221.977 235.187 224.181C235.557 225.112 235.553 224.968 236 225.475C235.738 223.546 236.044 224.246 235.21 223.145C235.419 220.718 234.721 218.458 234.35 216.031C230.87 215.776 224.546 217.098 219.916 217.052L219.915 217.051Z" fill="#D2EDFF"/>
<path fill-rule="evenodd" clip-rule="evenodd" d="M219.136 99.0899L219.428 104.675C225.795 104.958 225.957 104.836 228.254 101.715L226.759 98.418C224.343 98.6825 221.394 98.8073 219.135 99.091L219.136 99.0899ZM224.574 110.189C224.387 112.453 220.077 118.78 227.489 118.687C228.5 117.341 230.765 113.998 228.965 112.709L228.777 108.807L228.835 107.713C229.088 104.719 231.075 104.015 229.647 101.238C227.244 102.447 228.777 100.29 228.264 108.278L224.573 110.189H224.574Z" fill="#FFBF9D"/>
<path fill-rule="evenodd" clip-rule="evenodd" d="M232.285 242.577C229.716 244.392 227.745 242.26 227.174 246.729C230.069 246.744 244.39 245.951 245.782 245.379L245.718 242.358L245.442 238.666L245.084 237.916L238.046 238.477C236.396 240.298 235.855 242.248 232.285 242.577Z" fill="#2A2B2A"/>
<path fill-rule="evenodd" clip-rule="evenodd" d="M210.154 239.296C209.795 241.072 209.008 241.343 206.7 242.254C204.595 243.085 203.504 243.136 201.195 243.154C200.543 244.142 200.122 244.485 200.219 246.226L218.64 246.224L218.696 242.919L218.781 239.662L218.405 238.48C216.585 238.636 215.375 238.589 213.588 238.607C212.832 238.615 212.207 238.61 211.465 238.758C209.966 239.057 211.28 238.645 210.154 239.296Z" fill="#2A2B2A"/>
<path fill-rule="evenodd" clip-rule="evenodd" d="M33.6595 236.789L27.6559 236.754L27.8799 236.808C26.5328 237.975 26.8208 237.781 26.6267 240.111C26.5158 241.433 26.519 242.769 26.5872 244.093C29.132 244.564 29.7026 243.934 30.334 243.892L30.8022 243.922C36.0709 244.61 39.1682 244.545 44.8475 244.252C44.5361 240.234 42.563 241.74 39.2332 240.699C34.6108 239.255 35.2625 237.532 33.6605 236.788L33.6595 236.789Z" fill="#2A2B2A"/>
<path fill-rule="evenodd" clip-rule="evenodd" d="M52.641 236.787L46.567 236.835C45.2168 238.379 45.4802 241.857 45.4951 244.194L63.7799 244.323C63.4355 240.503 61.4186 241.599 58.2563 240.68C54.4072 239.561 54.7271 238.033 52.641 236.787Z" fill="#2A2B2A"/>
<path fill-rule="evenodd" clip-rule="evenodd" d="M35.4547 108.621C35.5336 104.864 34.0394 106.812 34.5908 102.758C36.7239 101.708 34.8841 103.523 36.4114 101.842C37.3094 100.854 36.8017 100.888 37.9568 99.7845L45.5133 100.202L47.9183 99.3792C48.1828 95.5727 46.0849 95.8767 43.2223 94.6374C38.3962 92.547 32.6689 95.5439 32.3404 102.227C32.2732 103.597 32.6156 105.149 33.1936 106.326C33.8656 107.695 34.4042 108.32 35.4547 108.62V108.621Z" fill="#433D51"/>
<path fill-rule="evenodd" clip-rule="evenodd" d="M211.615 100.79C212.09 102.236 213.121 103.299 214.326 104.23C216.172 105.655 217.42 105.755 219.63 106.161L219.428 104.676L219.135 99.0906L216.446 98.3537C215.871 95.0975 215.897 93.55 219.228 93.3366C216.873 91.387 215.078 89.4342 211.592 88.9297L211.615 100.791V100.79Z" fill="#85DAF3"/>
<path fill-rule="evenodd" clip-rule="evenodd" d="M290.221 168.972L297.343 171.5C296.767 170.408 297.043 171.258 296.739 169.595L298.221 169.206C298.377 165.909 298.171 168.142 298.98 167.627C297.652 165.976 296.063 163.606 294.599 161.679C293.422 160.13 292.081 157.489 290.503 156.486C290.681 159.498 289.391 163.569 288.363 166.527L290.222 168.972H290.221Z" fill="#765EAC"/>
<path fill-rule="evenodd" clip-rule="evenodd" d="M130.743 123.443C131.644 125.004 131.425 124.521 134.093 124.537C135.711 124.547 137.407 124.48 139.045 124.48L164.095 124.489C166.556 124.02 164.938 125.052 165.851 123.443C164.942 121.884 165.121 122.376 162.504 122.362L132.501 122.404C129.865 122.897 132.027 122.351 130.742 123.443H130.743Z" fill="#CCCCCC"/>
<path fill-rule="evenodd" clip-rule="evenodd" d="M18.4332 166.46C18.4236 168.632 18.4439 171.838 18.9366 173.876C19.5776 176.529 21.396 176.853 22.806 178.111L24.1307 176.687C24.6511 175.973 25.0106 177.567 24.7791 174.188C24.5423 170.734 24.6287 171.333 24.8548 168.464C23.7211 167.8 22.8732 167.464 22.0456 165.846L18.4343 166.459L18.4332 166.46Z" fill="#FFBF9D"/>
<path fill-rule="evenodd" clip-rule="evenodd" d="M137.416 83.2669C133.674 78.957 135.665 76.5594 131.425 76.3066C131.337 76.4528 131.23 76.5008 131.201 76.7663C131.172 77.0308 131.036 77.1012 131.002 77.2356L130.67 84.8593C131.022 88.5068 130.164 86.3311 131.969 87.1502C132.616 86.3065 132.285 87.2227 132.621 85.8394L132.717 79.3985C133.381 80.7616 134.358 82.2345 135.211 83.7202C136.383 85.7615 136.188 87.0585 139.045 86.9838C139.636 85.3563 139.362 82.9181 139.38 80.9717C139.405 78.2499 140.257 76.6181 137.957 76.3216C136.9 77.8553 137.498 81.1594 137.415 83.2669H137.416Z" fill="#7269E8"/>
<path fill-rule="evenodd" clip-rule="evenodd" d="M122.658 85.2918C120.562 82.4164 120.855 76.3883 125.07 78.067C127.369 78.9832 129.025 86.194 122.658 85.2918ZM122.645 76.3691C119.975 77.1444 118.652 79.3724 119.197 82.9411C119.673 86.049 121.91 88.0605 125.894 86.9982C131.233 85.5755 130.195 74.1762 122.644 76.3691H122.645Z" fill="#7269E8"/>
<path fill-rule="evenodd" clip-rule="evenodd" d="M90.5586 8.93484C90.8647 10.5677 91.3478 12.1046 92.0731 13.6276C92.9263 15.4205 93.2026 15.444 95.0711 16.0924C95.1522 16.1201 95.3367 16.1479 95.4583 16.2055C95.2706 19.2515 94.7725 17.4341 93.2484 19.8872L93.8873 19.7101C97.2629 18.9433 95.069 17.6197 100.036 17.9631L100.876 17.9173L100.932 17.0534L99.0973 17.4448L99.2573 14.3582L97.8868 14.515C97.6127 13.6159 97.6938 13.2138 97.4165 12.2785C96.5899 9.49477 96.3521 11.0925 94.9975 9.04469C94.9517 8.9743 94.3822 7.58246 94.22 7.29129C90.5671 7.20064 92.5872 6.87428 90.5586 8.9327V8.93484Z" fill="#FFBF9D"/>
<path fill-rule="evenodd" clip-rule="evenodd" d="M211.603 107.751C213.542 108.13 215.045 108.884 216.282 109.827C218.291 111.36 217.684 111.933 219.792 113.271L221.475 113.325C224.324 112.851 222.68 113.719 223.771 112.013L221.789 110.47L219.629 106.16C217.42 105.755 216.171 105.655 214.326 104.23C213.12 103.3 212.089 102.236 211.614 100.789L211.602 107.75L211.603 107.751Z" fill="#D2EDFF"/>
<path fill-rule="evenodd" clip-rule="evenodd" d="M96.5353 84.9574C95.4186 86.1807 95.9434 86.1029 94.5974 86.8665C93.2183 88.3405 92.4142 88.333 92.0078 91.3279C93.2023 92.1832 92.7181 91.8665 94.2422 91.9326C95.9242 90.8362 97.3331 90.4992 99.0011 89.3825C100.388 88.4546 102.17 86.8345 103.075 85.8853C102.877 83.9986 102.189 82.8115 101.019 81.793C96.7635 82.6963 97.5944 85.9824 96.8712 84.6342C96.8169 84.5319 96.6537 84.8582 96.5342 84.9595L96.5353 84.9574Z" fill="#2A2B2A"/>
<path fill-rule="evenodd" clip-rule="evenodd" d="M70.9058 89.6565C65.4333 90.5162 63.4762 89.8122 62.3574 92.4146C63.5775 94.2949 66.774 94.5306 69.5864 94.7887C73.9923 95.1919 75.0141 95.5758 75.5239 91.3822L71.7025 89.4102L70.9058 89.6565Z" fill="#2A2B2A"/>
<path fill-rule="evenodd" clip-rule="evenodd" d="M211.884 120.029C213.142 118.738 213.734 117.141 214.828 115.94C216.178 114.457 217.589 114.128 219.79 113.269C217.683 111.932 218.291 111.358 216.28 109.825C215.044 108.883 213.54 108.129 211.601 107.75C211.33 110.805 210.401 117.9 211.883 120.03L211.884 120.029Z" fill="#85DAF3"/>
<path fill-rule="evenodd" clip-rule="evenodd" d="M152.072 77.8374C153.142 77.8779 154.095 77.7169 154.652 78.5626C155.698 80.1486 154.403 80.5901 154.441 80.8301L151.86 81.1405L152.072 77.8363V77.8374ZM150.494 76.4263C149.547 77.8875 149.636 83.65 149.751 84.8595C150.089 88.4441 149.283 86.3356 151.021 87.1451C152.558 85.9858 151.812 85.1784 152.028 82.7179C157.541 83.2639 151.91 87.673 157.407 86.8966C156.911 85.1571 156.364 83.3962 155.715 82.0726C158.26 77.6059 156.512 75.411 150.494 76.4263Z" fill="#7269E8"/>
<path fill-rule="evenodd" clip-rule="evenodd" d="M77.957 47.4011L92.7756 45.8674C92.8908 43.8207 93.7013 40.2563 92.5068 38.6074L92.8332 40.1027C90.4911 40.7714 87.172 42.3691 85.0815 43.3567L79.5195 45.9602C78.1127 46.8571 79.223 46.1425 78.5372 46.7419L77.957 47.4021V47.4011Z" fill="#D2EDFF"/>
<path fill-rule="evenodd" clip-rule="evenodd" d="M199.611 62.3323C200.783 62.0998 201.118 61.8673 201.827 61.526C202.18 61.3553 203.783 60.5522 203.976 60.4392C204.714 60.004 204.48 60.1843 204.932 59.7768L207.688 56.6284C209.857 54.2276 212.123 50.9203 212.705 47.6172C209.599 48.8128 207.12 51.6583 205.145 53.9972L199.611 62.3334V62.3323Z" fill="#6DB4EC"/>
<path fill-rule="evenodd" clip-rule="evenodd" d="M240.899 159.822C240.477 160.481 241.736 160.521 239.648 160.254L241.338 175.329L242.707 175.121L243.37 171.08L242.093 170.45C242.109 163.912 243.874 149.756 241.632 144.879L241.053 159.508C241.032 159.577 240.957 159.721 240.899 159.822Z" fill="#6DB4EC"/>
<path fill-rule="evenodd" clip-rule="evenodd" d="M318.062 240.644C315.42 241.158 318.001 240.5 316.816 241.57C317.442 244.195 317.033 249.86 317.675 251.22C320.099 253.86 323.705 246.485 321.311 240.841C320.381 239.567 321.117 240.192 319.929 239.438L318.061 240.644H318.062Z" fill="#263238"/>
<path fill-rule="evenodd" clip-rule="evenodd" d="M297.083 240.721L293.465 241.012L293.456 241.908C293.344 244.623 291.723 248.432 292.582 250.713C293.974 252.069 295.949 252.14 297.41 250.766C298.234 249.443 297.123 243.177 297.083 240.721Z" fill="#263238"/>
<path fill-rule="evenodd" clip-rule="evenodd" d="M162.938 78.7247L163.959 82.433L161.695 82.4266L162.938 78.7247ZM158.219 86.8848C161.051 87.2848 160.419 86.9392 161.122 84.0339C167.481 84.0393 162.498 86.086 166.807 87.1472C167.334 86.2395 168.009 87.7434 165.993 81.8166C165.32 79.8392 164.736 77.8 163.954 76.3047L161.907 76.3378L158.219 86.8848Z" fill="#7269E8"/>
<path fill-rule="evenodd" clip-rule="evenodd" d="M178.773 197.391C174.452 197.315 174.428 197.134 173.676 198.565C174.778 199.262 172.224 199.219 176.017 199.531L194.018 199.488C196.214 199.134 194.8 199.985 195.779 198.565C195.155 197.258 197.165 197.279 190.769 197.391H178.773Z" fill="#CCCCCC"/>
<path fill-rule="evenodd" clip-rule="evenodd" d="M178.773 201.349C172.727 201.253 174.357 201.282 173.693 202.375C174.592 203.106 171.641 203.523 178.773 203.413H190.772C196.623 203.501 195.158 203.432 195.775 202.375C194.937 200.947 196.464 201.594 193.53 201.309L178.773 201.349Z" fill="#CCCCCC"/>
<path fill-rule="evenodd" clip-rule="evenodd" d="M164.162 102.73L164.197 103.611C164.559 104.602 164.107 104.043 165.174 104.285H184.09C186.104 103.754 185.272 105.185 185.287 102.932L185.243 102.337L164.422 102.102L164.162 102.73Z" fill="white"/>
<path fill-rule="evenodd" clip-rule="evenodd" d="M63.9423 149.657L63.2832 153.261C64.9897 154.109 69.1716 157.553 71.9915 155.634C72.2251 155.275 73.4175 156.698 72.2486 153.796C71.6833 152.392 68.4325 151.162 67.0406 150.732C67.7904 149.18 68.008 150.154 68.7546 148.66L63.9423 149.658V149.657Z" fill="#FFBF9D"/>
<path fill-rule="evenodd" clip-rule="evenodd" d="M118.327 85.8835C117.063 85.1167 117.652 85.6606 115.657 85.395C110.685 84.7338 112.587 79.8159 113.177 79.0832C116.411 75.9828 117.494 80.2234 118.514 76.4126C106.642 74.7808 108.591 87.2743 115.664 87.3137C118.407 87.3287 117.86 87.206 118.327 85.8835Z" fill="#7269E8"/>
<path fill-rule="evenodd" clip-rule="evenodd" d="M176.373 85.9326C174.804 84.5675 170.691 86.7379 170.33 82.0056C170.207 80.4037 170.912 79.0001 171.945 78.4434C173.379 77.6691 173.162 78.0829 174.429 77.9624C176.425 77.7714 174.693 78.6087 176.364 77.6125C175.706 74.0226 168.654 76.7166 168.191 80.9711C167.521 87.1357 175.28 89.2507 176.374 85.9326H176.373Z" fill="#7269E8"/>
<path fill-rule="evenodd" clip-rule="evenodd" d="M92.9008 20.8353L87.7281 32.083L86.3906 31.7503C87.1169 33.4941 87.5393 35.5514 87.3249 37.4317C87.8006 35.9663 87.5596 36.5582 88.6261 35.7541C89.3663 37.4008 88.4949 36.5806 90.1929 37.4136C89.9529 37.2163 89.442 36.6062 89.1423 36.2948L89.7758 32.7677C93.7679 33.8151 89.7993 33.4023 93.1504 34.5158C92.7078 31.0154 91.2285 30.8544 91.7724 26.4943C92.0721 24.0925 93.161 21.5114 93.8863 19.709L93.2474 19.886L92.8997 20.8342L92.9008 20.8353Z" fill="#FECF97"/>
<path fill-rule="evenodd" clip-rule="evenodd" d="M122.658 85.2904C129.025 86.1926 127.369 78.9818 125.07 78.0656C120.855 76.3869 120.562 82.415 122.658 85.2904Z" fill="white"/>
<path fill-rule="evenodd" clip-rule="evenodd" d="M186.978 110.29C189.02 108.662 192.328 110.005 194.07 109.601C195.861 109.185 195.161 109.835 195.752 108.202C193.978 106.918 190.184 107.498 188.034 107.513C188.655 104.782 191.377 106.998 194.069 106.36C195.857 105.935 195.171 106.57 195.73 104.936C193.633 103.5 194.039 104.307 194.02 104.304C192.298 104.053 190.431 104.654 187.699 103.949C187.753 106.525 187.818 108.325 186.977 110.291L186.978 110.29Z" fill="#CCCCCC"/>
<path fill-rule="evenodd" clip-rule="evenodd" d="M177.414 76.6298C177.612 78.7896 177.526 77.9534 180.35 78.1667L180.308 85.3936C180.764 88.1965 179.731 86.2597 181.505 87.1566C183.116 86.089 182.443 82.9075 182.453 78.8067C183.635 77.9033 184.564 78.4088 185.55 77.1738C184.097 75.3702 177.808 76.4592 177.414 76.6298Z" fill="#7269E8"/>
<path fill-rule="evenodd" clip-rule="evenodd" d="M140.484 77.1747C141.748 78.8214 141.591 77.5874 142.696 78.3351C145.227 80.0479 141.739 85.258 144.489 87.1501C145.474 86.6466 145.701 87.5607 145.624 83.1761C145.594 81.5016 145.607 79.8336 145.624 78.1591C148.496 77.9607 148.414 78.8022 148.618 76.6307L142.285 76.2617C139.047 76.6478 141.758 76.4377 140.484 77.1747Z" fill="#7269E8"/>
<path fill-rule="evenodd" clip-rule="evenodd" d="M148.193 198.564C149.159 199.997 149.09 199.522 151.522 199.513L160.343 199.528C162.825 199.441 162.391 199.984 162.732 198.02C161.222 196.8 157.544 197.406 155.378 197.405C148.445 197.402 149.098 196.629 148.194 198.564H148.193Z" fill="#CCCCCC"/>
<path fill-rule="evenodd" clip-rule="evenodd" d="M298.224 169.206C300.905 170.378 300.906 170.816 302.102 173.758C303.089 176.19 303.54 176.45 305.106 178.39C307.422 181.261 309.024 184.449 311.663 187.004L311.857 185.324L299.396 168.146L298.981 167.627C298.174 168.141 298.378 165.908 298.223 169.205L298.224 169.206Z" fill="#6DB4EC"/>
<path fill-rule="evenodd" clip-rule="evenodd" d="M242.707 175.119L242.592 176.462C243.88 177.657 245.42 177.469 247.371 177.425L247.729 176.329L247.084 171.277L243.369 171.076L242.707 175.117V175.119Z" fill="#FFBF9D"/>
<path fill-rule="evenodd" clip-rule="evenodd" d="M227.1 60.3337C228.279 59.9828 227.905 60.1844 229.079 59.3482C229.403 59.1168 230.103 58.4897 230.52 58.1441C232.042 56.8835 232.354 56.8739 233.033 54.8549C231.838 53.062 231.358 52.6781 229.409 51.8984C228.718 52.6653 228.894 52.2152 228.389 53.4748L227.1 60.3337Z" fill="#6DB4EC"/>
<path fill-rule="evenodd" clip-rule="evenodd" d="M322.7 196.985C323.02 198.015 323.934 199.994 324.964 200.516C326.627 201.357 328.195 200.212 329.168 199.698L328.924 197.175C328.083 197.175 328.332 197.356 328.402 196.433L327.52 195.697L327.156 194.965C325.344 194.954 326.771 194.661 325.142 195.768C323.751 196.712 324.992 196.312 322.699 196.985H322.7Z" fill="#FECF97"/>
<path fill-rule="evenodd" clip-rule="evenodd" d="M99.2576 14.3591L99.0977 17.4457L100.932 17.0543C101.656 14.8881 102.167 12.0639 102.36 9.68019C102.843 3.74487 102.033 3.38758 99.5563 2.9375C102.261 12.4607 101.46 9.52127 99.2576 14.3591Z" fill="white"/>
<path fill-rule="evenodd" clip-rule="evenodd" d="M45.5613 234.47C47.5184 234.079 45.9943 234.183 46.6406 235.037L46.5681 236.836L52.642 236.788L52.5813 235.068L52.8191 233.935L45.5357 233.792L44.8541 228.881C44.6483 230.867 44.9619 232.909 45.5613 234.47Z" fill="#FFBF9D"/>
<path fill-rule="evenodd" clip-rule="evenodd" d="M210.155 239.295C211.282 238.644 209.969 239.057 211.466 238.757C212.207 238.609 212.833 238.614 213.59 238.606C215.376 238.588 216.587 238.636 218.406 238.48L218.783 239.661C219.443 237.473 218.974 238.898 218.406 238.48L217.513 236.153C215.29 235.404 213.798 235.34 211.545 236.121C211.402 237.82 211.586 236.771 211.073 237.842L210.154 239.295H210.155Z" fill="#FFBF9D"/>
<path fill-rule="evenodd" clip-rule="evenodd" d="M238.071 235.39L238.047 238.479L245.085 237.918L245.442 238.668C245.792 237.595 246.127 237.671 245.085 237.918C244.122 236.792 244.134 236.616 244.037 235.094L238.071 235.39Z" fill="#FFBF9D"/>
<path fill-rule="evenodd" clip-rule="evenodd" d="M304.394 160.331L304.113 153.136C301.543 153.648 302.119 154.144 300.824 152.852L299.385 153.553C300.675 155.368 302.813 158.834 304.394 160.331Z" fill="#6DB4EC"/>
<path fill-rule="evenodd" clip-rule="evenodd" d="M27.6562 236.754L33.6598 236.789L33.6214 233.797L27.8141 233.688L27.6562 236.754Z" fill="#FFBF9D"/>
<path fill-rule="evenodd" clip-rule="evenodd" d="M283.435 151.303C285.546 151.003 285.437 150.488 286.873 151.473C286.113 149.294 286.871 149.988 286.845 147.58C285.543 146.572 284.423 146.391 282.662 145.816L283.435 151.304V151.303Z" fill="#FFC7C6"/>
<path fill-rule="evenodd" clip-rule="evenodd" d="M54.8007 196.39C55.5783 196.455 53.5987 197.131 55.75 196.377C57.6132 195.724 57.7604 194.619 56.648 192.787L54.7368 190.705C54.6536 190.633 54.4872 190.51 54.3613 190.414L54.8018 196.39H54.8007Z" fill="#D2EDFF"/>
<path fill-rule="evenodd" clip-rule="evenodd" d="M283.435 151.303L282.662 145.816L282.244 145.322C280.06 147.086 280.328 147.977 281.441 150.778L283.435 151.303Z" fill="#765EAC"/>
<path fill-rule="evenodd" clip-rule="evenodd" d="M242.626 118.907L244.69 115.247L239.66 114.102C240.373 115.105 241.871 118.002 242.626 118.907Z" fill="#85DAF3"/>
<path fill-rule="evenodd" clip-rule="evenodd" d="M94.5981 86.8649C95.944 86.1023 95.4204 86.1802 96.536 84.9558C96.2597 82.6745 96.0902 83.4744 95.0033 81.5738C94.0531 81.5738 94.1512 81.8426 94.4146 81C93.9443 82.1647 94.0445 82.1561 94.0211 83.6952C93.9933 85.5211 93.7683 85.872 94.5981 86.8639V86.8649Z" fill="white"/>
<path fill-rule="evenodd" clip-rule="evenodd" d="M151.861 81.141L154.442 80.8306C154.404 80.5906 155.698 80.1491 154.654 78.5631C154.097 77.7174 153.144 77.8784 152.074 77.8379L151.861 81.142V81.141Z" fill="white"/>
<path fill-rule="evenodd" clip-rule="evenodd" d="M75.8211 34.0969L76.0025 29.8318C74.3429 29.483 76.5059 28.9231 74.1019 29.6484L73.832 33.1242C74.9018 33.9732 74.4464 33.6554 75.8211 34.098V34.0969Z" fill="#FFBF9D"/>
<path fill-rule="evenodd" clip-rule="evenodd" d="M171.877 63.7521L174.081 63.766L173.974 60.3264L171.775 60.3008L171.877 63.7521Z" fill="#FFC7C6"/>
<path fill-rule="evenodd" clip-rule="evenodd" d="M85.9473 54.9961C86.2214 55.5763 86.2512 55.9752 86.68 56.549C88.0697 58.409 86.5883 56.7932 88.1849 57.8107C89.0296 56.3474 89.1757 56.8935 89.5159 55.0409L85.9473 54.9961Z" fill="#D2EDFF"/>
<path fill-rule="evenodd" clip-rule="evenodd" d="M122.173 63.7577L122.392 60.2754L120.506 60.7575L120.447 63.6521L122.173 63.7577Z" fill="#FFC7C6"/>
<path fill-rule="evenodd" clip-rule="evenodd" d="M311.164 169.724C312.075 170.689 311.301 170.019 312.024 170.904C313.017 172.12 312.131 171.318 313.373 172.14L313.806 168.178C312.6 168.724 312.364 169.098 311.164 169.725V169.724Z" fill="#6DB4EC"/>
<path fill-rule="evenodd" clip-rule="evenodd" d="M161.695 82.4266L163.96 82.433L162.939 78.7246L161.695 82.4266Z" fill="white"/>
<path fill-rule="evenodd" clip-rule="evenodd" d="M235.773 180.088C235.24 179.595 236.529 179.481 233.764 179.397C233.273 179.397 231.963 179.33 231.563 179.385C229.226 179.704 230.813 179.446 230.129 180.061L235.774 180.088H235.773Z" fill="#FECF97"/>
<path fill-rule="evenodd" clip-rule="evenodd" d="M260.887 179.966L257.19 179.434C255.106 179.608 254.62 179.991 252.238 180.053L252.55 175.396L252.591 179.696C255.064 179.849 258.547 181.178 260.887 179.966Z" fill="#FECF97"/>
</g>
<defs>
<linearGradient id="paint0_linear_636_9721" x1="256.001" y1="5.50001" x2="192.001" y2="102.5" gradientUnits="userSpaceOnUse">
<stop stop-color="#1424FF" stop-opacity="0.5"/>
<stop offset="1" stop-color="#0C1699" stop-opacity="0.2"/>
</linearGradient>
<linearGradient id="paint1_linear_636_9721" x1="37.2676" y1="113.539" x2="39" y2="169" gradientUnits="userSpaceOnUse">
<stop stop-color="#8188E8"/>
<stop offset="1" stop-color="#484C82"/>
</linearGradient>
<linearGradient id="paint2_linear_636_9721" x1="175.633" y1="93.1523" x2="175.633" y2="136.419" gradientUnits="userSpaceOnUse">
<stop stop-color="#7269E8"/>
<stop offset="1" stop-color="#403B82"/>
</linearGradient>
<clipPath id="clip0_636_9721">
<rect width="350" height="256.686" fill="white"/>
</clipPath>
</defs>
</svg>
