<svg width="57" height="56" viewBox="0 0 57 56" fill="none" xmlns="http://www.w3.org/2000/svg">
<g clip-path="url(#clip0_539_36289)">
<g clip-path="url(#clip1_539_36289)">
<g clip-path="url(#clip2_539_36289)">
<path d="M40.9492 0H16.9492C8.11266 0 0.949219 7.16344 0.949219 16V40C0.949219 48.8366 8.11266 56 16.9492 56H40.9492C49.7858 56 56.9492 48.8366 56.9492 40V16C56.9492 7.16344 49.7858 0 40.9492 0Z" fill="#EBE2F9"/>
<path d="M38.9492 21.9889V26.8764C38.9492 28.0935 38.5292 29.1189 37.7792 29.8281C37.0392 30.5468 35.9692 30.9493 34.6992 30.9493V32.6839C34.6992 33.3355 33.9392 33.7285 33.3792 33.3643L32.4092 32.751C32.4992 32.4539 32.5392 32.128 32.5392 31.783V27.8827C32.5392 25.9277 31.1792 24.6243 29.1392 24.6243H22.3492C22.2092 24.6243 22.0792 24.6339 21.9492 24.6435V21.9889C21.9492 19.5452 23.6492 17.916 26.1992 17.916H34.6992C37.2492 17.916 38.9492 19.5452 38.9492 21.9889Z" stroke="#8D53ED" stroke-width="1.5" stroke-miterlimit="10" stroke-linecap="round" stroke-linejoin="round"/>
<path d="M32.5392 27.8834V31.7837C32.5392 32.1287 32.4992 32.4546 32.4092 32.7516C32.0392 34.1604 30.8192 35.0421 29.1392 35.0421H26.4192L23.3992 36.9683C22.9492 37.2654 22.3492 36.9492 22.3492 36.4317V35.0421C21.3292 35.0421 20.4792 34.7163 19.8892 34.1508C19.2892 33.5758 18.9492 32.7612 18.9492 31.7837V27.8834C18.9492 26.0625 20.1292 24.8071 21.9492 24.6442C22.0792 24.6346 22.2092 24.625 22.3492 24.625H29.1392C31.1792 24.625 32.5392 25.9284 32.5392 27.8834Z" stroke="#8D53ED" stroke-width="1.5" stroke-miterlimit="10" stroke-linecap="round" stroke-linejoin="round"/>
</g>
</g>
</g>
<defs>
<clipPath id="clip0_539_36289">
<rect width="56" height="56" fill="white" transform="translate(0.949219)"/>
</clipPath>
<clipPath id="clip1_539_36289">
<rect width="56" height="56" fill="white" transform="translate(0.949219)"/>
</clipPath>
<clipPath id="clip2_539_36289">
<rect width="56" height="56" fill="white" transform="translate(0.949219)"/>
</clipPath>
</defs>
</svg>
