<svg width="308" height="328" viewBox="0 0 308 328" fill="none" xmlns="http://www.w3.org/2000/svg">
<path fill-rule="evenodd" clip-rule="evenodd" d="M266.551 315.82C269.178 314.779 266.788 317.549 269.203 317.263C271.04 317.045 271.191 315.297 273.054 315.166C273.361 316.521 273.207 315.861 273.573 316.091L273.054 315.166C272.481 312.607 273.265 311.69 272.542 310.201C270.091 310.813 268.585 311.223 266.012 310.961L266.007 311.537L266.05 311.858C266.118 312.596 266.095 312.759 266.253 313.498L266.272 315.384C266.569 315.592 267.487 315.909 266.276 315.818L267.052 315.826L266.551 315.82Z" fill="#FACBCA"/>
<path fill-rule="evenodd" clip-rule="evenodd" d="M163.726 58.5979C165.747 57.9761 212.282 58.4204 221.151 58.4204C224.488 58.4204 227.458 57.9446 228.908 60.2118C230.593 62.8459 228.74 65.5345 226.719 66.2195C224.992 66.8053 177.846 66.4264 169.224 66.4264C165.767 66.4264 163.11 66.9621 161.528 64.6438C159.798 62.1087 161.273 59.3526 163.726 58.5979ZM83.6179 57.7268C90.1243 55.2832 93.1886 64.7701 87.4357 67.1092C80.95 69.7455 77.3281 60.0887 83.6179 57.7268ZM65.0579 57.4295C71.56 56.2643 73.2555 66.3295 66.7784 67.4021C60.04 68.5182 58.3249 58.6361 65.0579 57.4295ZM104.016 57.4654C106.916 56.7162 109.397 58.9584 109.925 61.0982C110.702 64.243 108.606 66.8663 106.234 67.3563C99.4621 68.7535 97.2842 59.2045 104.016 57.4654ZM59.8625 49.6599C54.3655 51.4512 49.3999 55.599 48.5374 62.1697L48.2467 101.329L48.2881 108.005L48.2511 109.452C48.5636 115.934 48.2772 123.186 48.2772 129.76L48.275 170.952C48.2794 176.564 49.0155 176.496 46.7788 179.946C45.7672 181.506 43.8125 184.994 42.607 186.213L42.3304 186.824C41.9058 187.622 42.5896 187.108 41.5769 187.418L41.2774 188.914C40.8179 188.831 40.893 188.736 41.0292 189.18L39.3761 191.395C38.8752 192.211 38.1489 193.14 37.9365 193.952C36.3303 195.498 34.5641 199.032 33.0744 201.322C32.2098 202.652 31.5542 203.647 30.6787 205.006C28.6108 208.216 30.5382 206.792 29.9676 209.866L30.0994 207.967L32.2904 208.374C33.3553 207.321 33.4261 206.648 34.881 205.716C36.9173 204.411 41.4397 203.924 38.971 207.776C38.0171 208.288 38.2774 208.443 37.1667 208.91L36.8846 209.118L36.6451 209.552C35.8207 210.577 35.8131 211.398 34.3343 211.678L35.4254 211.813C35.6498 211.236 35.5888 211.078 35.8817 210.561C36.326 209.776 36.1605 210.269 36.6451 209.551L36.8846 209.117L37.1667 208.909L38.0988 208.938C38.5888 208.204 38.3122 208.392 38.971 207.775C39.3925 207.341 39.7061 207.042 40.1123 206.633L39.8455 205.655C39.1834 203.585 37.5772 203.999 35.7336 204.909C34.7427 205.398 34.098 205.83 33.4141 206.572C33.0744 206.941 32.7499 207.411 32.3927 207.606C31.1971 208.255 29.6899 207.645 30.8725 205.486L35.028 199.239C35.738 198.308 35.3677 198.459 35.9144 197.516C37.1198 195.433 37.6698 195.622 37.9365 193.95C39.4328 192.604 38.4984 193.63 39.485 191.793C40.0556 190.73 40.6818 190.552 41.0302 189.179C41.492 189.218 41.443 189.333 41.2785 188.913C41.9667 188.161 42.166 187.962 42.3315 186.823L42.6081 186.212L43.7199 185.805C43.7134 183.435 43.5141 185.821 45.3882 182.63C46.3269 181.033 47.5661 180.32 48.6442 177.483C50.0587 173.757 51.1564 174.049 51.3426 172.083C51.7488 167.799 51.3774 144.764 51.3774 139.622C51.3774 134.304 51.152 86.3694 51.5364 85.6637C51.9219 80.6339 55.7953 76.8356 60.3983 75.8022C63.2088 75.1706 111.473 75.5833 116.721 75.5833H229.275C236.494 75.5801 239.482 76.84 242.127 81.5116C244.336 85.4122 243.501 93.919 243.501 99.0109C243.501 124.049 243.58 149.099 243.504 174.131L246.437 173.412L246.589 167.436C245.613 164.759 245.185 163.509 245.303 160.303L245.044 159.841C244.686 158.727 244.279 156.499 244.903 155.305C245.56 154.051 246.352 154.099 246.683 153.248C246.69 153.232 246.698 153.16 246.705 153.143L247.026 152.634C246.621 152.193 246.791 152.552 246.644 151.786C246.59 151.506 246.603 150.689 246.607 150.368L246.577 131.275V108.863L246.579 98.4011C246.69 92.3575 246.594 86.2115 246.594 80.1536C246.594 74.5107 246.933 67.6177 246.383 62.2045C246.218 61.0089 245.697 59.443 245.22 58.3965C244.728 57.3152 243.847 56.2229 243.522 55.3093C242.955 55.3093 243.075 55.4291 243.271 54.8759C242.689 55.0088 242.832 55.0795 243.035 54.5068C242.382 54.2639 243.022 54.5743 242.475 54.1931C242.407 54.1463 242.215 53.9895 242.15 53.9362C236.246 49.0435 235.315 49.1589 225.506 49.1589C217.836 49.1589 210.088 49.0522 202.431 49.1633L179.587 49.1513L169.279 49.1306L155.626 49.1873C147.71 49.5444 139.499 48.9738 131.517 49.2058C116.09 49.6544 70.5538 48.4141 59.8669 49.6588L59.8625 49.6599Z" fill="#263238"/>
<path fill-rule="evenodd" clip-rule="evenodd" d="M236.546 225.938L232.978 288.281L232.799 288.767L232.727 291.756L231.666 310.585L233.198 310.889C235.699 311.384 237.25 311.258 239.767 311.093C242.174 310.67 241.29 311.014 242.464 304.809L252.474 250.684C253.365 252.26 257.515 276.621 258.252 280.639C259.156 285.574 260.104 290.493 261.074 295.506C261.681 298.639 263.042 308.249 264.009 310.466C264.076 310.516 264.185 310.493 264.224 310.594C264.518 311.352 272.392 311.584 274.597 310.199C274.571 303.961 273.372 295.99 272.824 289.591L269.168 248.34C268.829 244.63 267.621 229.836 267.707 226.956L266.982 225.84C262.027 227.139 256.498 227.485 251.254 227.023C250.239 225.609 251.044 224.45 250.174 222.83L247.564 222.891L246.976 226.94C245.266 227.012 243.066 226.675 241.452 226.441C239.915 226.217 237.609 225.457 236.544 225.939L236.546 225.938Z" fill="#354266"/>
<path fill-rule="evenodd" clip-rule="evenodd" d="M246.573 108.866V131.278C250.667 127.987 250.494 124.42 250.607 120.188C251.438 119.799 255.206 119.005 258.948 117.134C259.637 116.789 261.221 116.033 261.764 115.928C263.674 117.595 265.391 120.05 268.592 120.895C277.778 123.321 284.406 112.775 279.115 105.703C278.625 105.049 276.736 103.049 276.124 102.688C276.414 100.83 278.349 98.8004 279.889 94.2726C280.066 93.7531 280.21 93.2206 280.407 92.7491C280.533 92.4518 280.517 92.4627 280.679 92.1796C280.954 91.6961 280.369 92.6326 280.918 91.8072L281.2 91.4293C285.035 91.4827 287.961 91.4544 290.196 89.4474C292.224 87.6267 293.956 85.8888 294.106 81.8978C294.237 78.4458 292.501 75.5677 290.702 74.1347C287.712 71.751 286.02 71.9666 281.619 71.8577C281.073 71.0442 280.076 67.2754 279.586 66.0438C278.861 64.2209 277.579 62.3087 277.325 60.3083C290.158 49.1695 275.888 36.3482 266.61 43.5113C265.455 44.4031 264.577 45.7926 263.504 46.3709C262.761 46.0649 262.054 45.4703 261.197 44.9988L255.572 42.4713C254.592 42.149 253.441 41.892 252.646 41.4347C252.579 37.203 252.832 34.9097 250.703 32.0479C249.265 30.1161 246.633 28.339 243.195 28.2148C239.867 28.0951 236.777 29.8319 235.366 31.7027C232.822 35.0796 233.202 35.8756 233.12 40.8543C231.296 41.5392 229.238 42.0477 227.309 42.7839C225.734 43.385 223.114 44.9476 221.625 45.1055C219.4 42.5421 216.078 38.9486 210.329 40.1159C204.545 41.2909 203.661 45.785 202.426 49.1651C210.083 49.054 217.831 49.1607 225.501 49.1607C235.31 49.1607 236.241 49.0453 242.145 53.938C242.21 53.9924 242.403 54.1492 242.47 54.1949C243.016 54.5761 242.377 54.2657 243.03 54.5086C242.827 55.0813 242.684 55.0106 243.266 54.8777C243.07 55.432 242.95 55.3111 243.517 55.3111C243.615 54.6926 243.809 54.7285 243.266 54.8777C243.452 54.269 243.624 54.3049 243.03 54.5086L241.107 52.372C241.064 52.3405 240.981 52.3002 240.935 52.2653L240.117 51.5662C241.114 51.9419 241.265 51.4704 243.493 51.5749C244.68 51.6305 245.582 51.7688 246.647 51.9691C248.56 52.3296 250.409 52.812 252.145 53.4643C266.946 59.0266 274.414 75.706 269.284 89.9723C267.031 96.237 262.532 102.338 256.617 105.476C254.273 106.719 249.418 109.455 246.573 108.863V108.866Z" fill="#CDE4F4"/>
<path fill-rule="evenodd" clip-rule="evenodd" d="M235.909 192.695C235.461 192.55 235.628 192.52 235.628 193.058C236.072 192.966 236.005 193.106 235.909 192.695C237.795 195.729 237.059 212.175 236.347 217.47C236.002 220.035 235.329 222.629 235.055 224.91L236.17 225.651C236.213 225.681 236.325 225.849 236.357 225.792C236.389 225.736 236.49 225.881 236.546 225.937C237.611 225.455 239.917 226.215 241.454 226.439C243.068 226.675 245.268 227.01 246.977 226.938L247.566 222.889C247.424 220.297 248.772 213.777 248.803 213.686C248.821 213.632 248.883 213.583 248.897 213.466C248.911 213.348 248.956 213.316 248.997 213.248C249.541 214.17 250.382 221.75 250.372 222.077L250.175 222.827C251.045 224.447 250.24 225.606 251.255 227.02C256.5 227.482 262.028 227.136 266.983 225.837L267.708 226.953L268.793 225.2C268.614 218.927 266.84 212.708 267.425 206.204C267.349 207.609 269.246 211.207 270.059 211.964C273.024 214.728 287.184 216.459 291.891 216.209C292.307 214.473 293.261 211.913 292.966 209.953C291.624 209.349 289.892 208.707 288.398 208.179C287.265 207.778 285.268 207.277 284.701 206.432C284.681 206.403 285.055 206.011 284.671 206.341C283.026 206.585 281.278 205.412 280.084 204.816C277.919 203.737 278.274 203.558 277.714 200.863C276.996 197.407 276.418 193.7 275.53 190.244C273.607 182.767 271.804 177.609 265.007 175.406C264.643 175.319 264.535 175.279 264.214 175.191L262.547 174.579C262.467 174.541 262.247 174.415 262.16 174.381C260.722 173.83 260.435 174.405 258.924 173.789C256.176 172.667 257.234 173.359 255.415 175.34C254.73 176.087 253.951 176.388 253.213 176.992C253.254 177.066 253.327 177.151 253.363 177.198C253.397 177.243 253.47 177.343 253.51 177.394L254.106 178.104L255.043 178.363C256.002 177.662 255.673 177.55 256.88 177.229C256.765 177.803 254.441 184.431 253.155 185.341L253.355 180.038C252.484 182.152 253.507 185.531 252.456 188.041C251.599 190.087 250.473 192.344 249.902 194.24C249.207 193.079 248.965 189.954 249.097 188.742C248.673 188.31 248.825 188.606 248.531 187.894L246.565 175.472C247.332 175.874 246.675 175.483 247.195 175.912C249.639 177.93 246.918 177.298 250.096 178.208C250.551 178.337 250.22 178.147 250.591 178.369L250.441 177.645L251.742 176.948C251.088 176.827 251.157 176.848 250.691 176.508C249.3 175.496 249.705 174.294 249.344 173.216L246.799 173.229L246.712 168.097L246.584 167.434L246.433 173.41L243.499 174.128C241.867 175.41 240.026 174.5 232.07 181.002C230.353 182.404 223.526 189.018 222.599 189.376C219.692 187.396 212.843 180.884 212.247 180.665C210.78 181.831 208.75 182.922 207.719 184.295C208.123 185.161 208.661 185.936 209.201 186.673L210.664 188.935C211.172 189.229 214.505 193.391 215.123 194.094C216.709 195.904 217.947 197.143 219.991 198.709L219.412 197.682C219.492 197.722 219.588 197.774 219.653 197.8C219.716 197.826 219.815 197.879 219.893 197.91C219.979 197.943 220.278 198.055 220.379 198.083C220.44 198.099 221.105 198.212 221.156 198.217C224.578 198.598 228.548 196.575 230.497 193.941C231.96 191.964 234.262 184.23 235.493 183.553C235.402 186.177 235.843 188.546 235.807 191.218C235.806 191.279 235.791 191.738 235.795 191.831L235.912 192.693L235.909 192.695Z" fill="#69B5F2"/>
<path fill-rule="evenodd" clip-rule="evenodd" d="M11.831 236.328C10.8455 237.7 11.3464 251.673 11.4216 254.499C11.5032 257.591 11.4531 260.692 11.3954 263.782C11.3562 265.896 10.9065 271.226 11.2179 272.806C10.7813 273.573 10.8575 275.077 10.7812 276.139C11.0589 275.799 11.0121 275.985 11.2332 275.373C11.3987 274.916 11.3867 275.04 11.4357 274.527C11.5065 273.795 11.3845 273.414 11.2179 272.806L11.5664 271.123C11.5773 279.142 10.5221 293.503 12.247 300.577C12.7686 302.716 13.9283 307.414 15.651 307.297L15.0227 307.442C15.798 308.083 17.9117 308.142 18.9603 308.199C20.854 308.303 22.0725 308.3 23.7321 307.892C25.543 306.667 24.9528 306.102 24.7492 303.546C23.8758 292.647 25.151 278.965 26.4436 268.036L27.1144 263.203C27.3779 262.618 27.0991 263.057 27.4803 262.667L28.1663 246.401C28.4091 243.822 28.506 241.03 28.7848 238.375C29.0266 236.068 28.9917 232.507 29.2346 230.393L32.644 230.4C32.4829 230.539 32.5112 229.409 32.5635 231.106C32.8499 240.435 32.9359 240.704 31.4919 250.705C29.8313 262.209 34.4604 276.407 37.5563 288.031C38.3686 291.082 38.704 294.229 39.4108 297.216C40.2231 300.651 39.1756 304.839 39.45 307.687L45.2334 307.189C48.571 306.653 49.5913 305.715 51.7322 304.435C51.5057 302.191 50.0781 297.66 49.4857 295.348C45.8116 281.006 43.2297 261.122 41.4275 246.281C40.6467 239.85 39.2801 232.215 38.9109 225.926L38.446 224.933C37.087 228.179 32.3707 231.546 27.294 229.3C25.408 228.466 23.9771 227.09 23.0591 225.463C21.5292 222.75 21.9593 220.777 22.4711 218.238C21.6359 219.179 22.0715 219.438 20.4718 219.996C18.3614 220.732 17.7037 221.69 16.8892 222.843C15.6902 224.542 14.4129 227.874 13.9849 229.86C13.631 231.497 12.7305 233.913 13.1639 235.653C13.7367 236.249 13.349 235.256 13.006 235.75C12.5366 236.425 11.7123 240.353 11.9671 240.961L11.8277 236.327L11.831 236.328Z" fill="#32334D"/>
<path fill-rule="evenodd" clip-rule="evenodd" d="M109.751 89.3477C109.642 89.8878 109.606 89.7005 110.163 89.5012C110.039 90.0718 109.98 89.9096 110.559 89.7255C110.781 90.1916 110.294 89.842 111.061 90.3865C111.462 90.6707 110.539 90.6283 111.745 90.5967C111.998 91.1499 111.694 90.6511 112.081 91.1118L114.312 93.22C118.29 97.0748 119.266 100.166 120.834 102.135C120.931 102.79 120.821 102.54 121.154 103.216C121.447 103.811 121.502 103.778 121.804 104.1C121.849 104.736 121.675 104.252 122.011 104.979C122.241 105.478 122.144 105.209 122.416 105.47C122.398 106.644 122.812 106.678 123.154 107.841C123.362 108.547 123.228 108.433 123.368 109.015L123.736 109.98C123.755 109.937 123.817 110.133 123.873 110.198L123.865 108.906C132.529 108.191 131.031 113.165 131.031 120.319V148.749C131.031 151.167 131.619 155.622 130.45 157.507C127.851 161.691 120.93 158.891 114.124 159.881C111.836 160.319 83.6434 160.182 82.9051 159.782C80.1076 159.752 75.8389 159.22 73.5804 160.064C73.2461 160.937 73.1503 161.237 73 162.325C77.4581 162.231 126.343 162.699 128.801 162.015C130.645 161.502 132.509 159.637 133.109 158.011C134.218 155.006 133.575 131.685 133.575 126.412C133.575 122.567 134.059 113.678 133.148 110.764C132.03 107.19 129.06 106.34 125.499 106.319C123.211 106.306 123.522 106.757 122.418 105.468L121.806 104.097C121.688 103.116 121.464 102.677 120.835 102.133C121.844 101.393 124.049 101.678 126.084 101.683L195.995 101.684C198.461 101.684 206.709 102.046 208.32 101.272C210.914 100.025 213.228 96.7688 210.939 93.1873C209.04 90.2156 205.443 90.6664 200.927 90.6664H124.344C120.718 90.6664 115.031 90.3146 111.747 90.5956C111.539 90.3321 111.747 90.4747 111.286 90.1328C111.14 90.0239 110.748 89.817 110.561 89.7244C110.746 89.1124 110.784 89.2954 110.165 89.5001C110.31 89.0112 110.315 89.2115 109.753 89.3466C109.858 88.8424 109.912 89.0253 109.317 89.0645C109.317 89.6232 109.194 89.499 109.753 89.3466L109.751 89.3477Z" fill="#8DB5D8"/>
<path fill-rule="evenodd" clip-rule="evenodd" d="M59.8624 49.6617C70.5493 48.417 116.086 49.6584 131.513 49.2087C139.495 48.9767 147.706 49.5473 155.621 49.1901C155.073 48.7992 155.154 48.8275 153.87 48.7785C153.23 48.7546 152.473 48.7818 151.82 48.7829C144.687 48.7872 144.238 49.6802 141.768 46.6954C129.256 31.5775 145.161 8.67696 164.836 17.2317C172.562 20.59 177.094 29.5292 175.339 38.6383C174.702 41.9443 172.701 45.675 170.394 47.9422C170.112 48.2199 170.076 48.2155 169.763 48.5466C169.378 48.9549 169.62 48.6435 169.273 49.1346L179.581 49.1553L182.434 41.7701C186.487 41.7908 191.073 41.0797 191.246 35.4759C191.409 30.1913 187.304 28.8312 182.883 28.7495C182.452 27.6998 182.029 26.1938 181.642 25.132C181.157 23.8046 180.368 22.4369 180.212 21.2685C180.244 21.1225 186.608 15.7704 181.634 10.5891C180.36 9.26172 178.198 8.35245 175.695 8.81961C173.15 9.2933 172.371 10.7503 170.964 11.8578C169.926 11.4113 168.654 10.612 167.622 10.1253C166.437 9.56554 164.704 9.12778 163.704 8.58331C163.724 5.68562 163.845 4.12407 162.349 2.3186C159.444 -1.18564 154.525 -0.656408 152.214 2.21297C150.796 3.9738 150.822 5.42972 150.763 8.32414L142.944 10.9953C140.241 7.32993 135.846 6.29761 132.57 9.55683C127.676 14.4255 132.868 18.8815 133.776 20.1076L130.446 27.4265C126.372 27.5038 121.887 28.2519 121.796 33.7423C121.756 36.1838 122.858 37.9261 124.25 38.9802C126.707 40.8423 127.207 40.1116 130.353 40.6071C131.052 42.6358 131.192 44.254 132.342 46.2663C134.406 49.8762 128.062 48.784 124.261 48.784H68.5631C67.0299 48.784 65.4346 48.7393 63.91 48.7872C63.2066 48.809 62.4563 48.845 61.7768 48.9234C60.127 49.1128 60.2196 49.3056 59.8613 49.6617H59.8624Z" fill="#CDE4F4"/>
<path fill-rule="evenodd" clip-rule="evenodd" d="M108.289 141.401C106.206 144.173 101.175 145.76 98.1563 146.879C93.7418 148.513 89.1475 148.275 83.9891 147.701C80.4718 147.385 71.4684 143.237 70.5929 141.364C69.9232 141.299 69.9788 141.505 70.1628 140.935C69.5486 141.125 69.6085 141.26 69.8459 140.662C69.26 140.881 69.3929 140.943 69.5769 140.344L68.6546 139.819C67.8085 139.165 66.8556 138.259 66.664 137.45C66.1282 137.644 66.2731 137.689 66.4157 137.128C65.8331 137.292 66.0215 137.372 65.9692 136.725C64.7856 136.021 62.3147 131.202 61.5296 129.228C55.2224 113.363 63.4603 95.8855 78.9462 90.2698C84.8059 88.1442 93.8289 87.5725 99.4359 90.2295C100.744 90.3929 99.9988 90.1969 100.113 90.6825C102.352 90.6989 107.784 94.8597 109.195 96.0913C110.583 97.3012 115.153 101.976 115.424 104.101C115.925 103.956 115.733 103.914 115.764 104.522L115.674 104.608C116.396 105.169 116.211 104.757 116.285 105.816C116.964 106.247 116.476 105.664 116.919 106.627C116.929 106.648 117.149 107.342 117.201 107.492C117.531 108.424 117.747 108.511 117.794 109.492L118.246 110.366C119.075 115.847 120.077 119.217 118.559 125.217C117.796 128.234 114.923 135.583 112.999 136.367C112.619 135.908 112.452 135.865 112.424 135.119C111.89 135.96 112.581 136.107 112.999 136.367L112.244 136.723C112.95 138.182 109.014 141.172 108.289 141.401ZM83.4327 153.603C84.5554 153.398 89.3402 153.787 91.1969 153.773C93.745 153.752 95.8543 153.005 98.36 152.832L98.9447 152.797L106.632 149.521C107.892 149.16 107.468 149.659 108.364 148.684C109.183 147.792 112.073 145.281 113.179 145.139C113.521 144.052 113.73 144.181 114.444 143.444C114.742 143.136 114.86 142.913 115.171 142.666C116.16 141.882 115.571 142.128 115.847 142.573L120.029 136.27C121.308 134.038 122.428 131.713 123.266 129.027C124.091 126.386 124.702 123.215 124.802 120.201C124.855 118.584 124.856 116.706 124.685 115.107C124.507 113.442 124.008 111.853 124.081 110.357C124.025 110.291 123.963 110.095 123.944 110.139L123.576 109.174C123.436 108.59 123.569 108.705 123.361 108C123.019 106.838 122.605 106.804 122.624 105.628C122.352 105.368 122.45 105.636 122.219 105.138C121.882 104.411 122.057 104.894 122.012 104.258C121.708 103.937 121.655 103.97 121.362 103.375C121.029 102.698 121.139 102.948 121.042 102.294C119.474 100.324 118.498 97.2336 114.52 93.3788L112.289 91.2706C111.901 90.811 112.206 91.3098 111.952 90.7555C110.747 90.786 111.669 90.8285 111.268 90.5453C110.501 90.0009 110.989 90.3515 110.766 89.8843C110.186 90.0695 110.247 90.2306 110.37 89.66C109.814 89.8593 109.849 90.0455 109.958 89.5065C109.4 89.6589 109.523 89.782 109.523 89.2244C105.763 86.8919 102.555 85.0886 97.6021 83.8799C92.741 82.694 86.4458 82.596 81.478 83.7645C61.8519 88.3794 50.3069 107.206 54.8206 126.373C57.2729 136.785 62.8048 142.54 68.966 147.459C68.8506 148.57 68.403 148.832 67.9827 149.571L66.0847 149.227C65.5195 150.572 64.4992 151.41 64.1387 153.063C67.1094 154.389 71.9497 158.26 74.7276 159.063L76.777 155.339C76.1073 154.682 76.0083 154.788 75.5803 154.13L76.9709 151.803L83.4327 153.604V153.603Z" fill="#263238"/>
<path fill-rule="evenodd" clip-rule="evenodd" d="M42.6069 186.213L42.3304 186.824C42.1648 187.961 41.9666 188.162 41.2773 188.914C41.4429 189.334 41.4908 189.218 41.0291 189.18C40.6806 190.553 40.0545 190.731 39.4838 191.793C38.4984 193.632 39.4327 192.605 37.9354 193.951C37.6686 195.623 37.1187 195.434 35.9132 197.517C35.3676 198.46 35.7368 198.308 35.0268 199.24L30.8714 205.487C29.6877 207.646 31.1959 208.257 32.3915 207.607C32.7487 207.413 33.0732 206.942 33.413 206.573C34.0968 205.831 34.7415 205.399 35.7324 204.91C37.576 204 39.1822 203.586 39.8443 205.656L40.1111 206.634C39.7038 207.042 39.3913 207.341 38.9699 207.776C38.3111 208.393 38.5866 208.205 38.0976 208.939L37.1655 208.91L36.8834 209.118L36.6439 209.552C36.1593 210.27 36.3248 209.777 35.8805 210.562C35.5876 211.079 35.6475 211.237 35.4243 211.814L34.3331 211.679C32.1912 211.829 31.6478 212.291 29.8194 212.492C28.6641 214.65 26.9479 214.005 24.4934 214.697C23.8596 215.741 23.1485 217.187 22.4756 218.241C21.9627 220.778 21.5325 222.752 23.0636 225.466C23.9816 227.093 25.4125 228.468 27.2985 229.302C32.3763 231.549 37.0914 228.182 38.4504 224.936L38.9154 225.929C38.8109 223.42 41.5681 219.489 43.2451 216.416C43.869 215.271 47.3079 208.573 48.251 207.846C48.2891 207.778 48.3174 207.678 48.3359 207.628L49.6143 204.811C51.2913 201.865 50.9864 201.83 51.6409 200.385L53.8601 196.557C54.3883 195.617 54.8151 194.615 55.3465 193.634L58.1941 188.423C59.4442 185.977 58.6101 186.583 59.9299 185.894L64.8672 177.116C66.3035 174.483 68.5914 170.804 69.6727 168.066C67.7693 166.796 60.3884 162.136 58.4653 161.494L51.4198 172.157L51.5363 85.668C51.153 86.3736 51.3773 134.307 51.3773 139.626C51.3773 144.768 51.7487 167.803 51.3425 172.087C51.1563 174.053 50.0586 173.762 48.6441 177.487C47.566 180.326 46.3268 181.037 45.3881 182.634C43.514 185.825 43.7122 183.439 43.7199 185.81L42.608 186.216L42.6069 186.213Z" fill="#263238"/>
<path fill-rule="evenodd" clip-rule="evenodd" d="M48.2509 109.453L48.2879 108.006C47.3601 107.964 46.5761 107.569 45.9739 107.292C45.3488 107.003 44.7107 106.631 43.9038 106.553C44.1946 106.277 48.179 101.466 48.2454 101.331L48.5362 62.1712C48.1943 62.6057 48.3271 62.315 48.1093 62.9967C47.7347 64.1684 48.0364 88.9985 47.9144 91.575C41.4047 91.6719 40.6359 99.2521 41.752 105.295C38.7596 103.534 35.52 101.758 33.3791 99.8815C33.8256 99.6419 37.8384 94.6164 38.2979 93.9826C44.1445 85.9277 37.6761 83.9937 34.859 85.3092C30.7308 87.2355 30.5021 94.6556 31.4158 98.4506C29.5145 97.3834 24.6621 92.1597 24.0817 91.8614C26.6592 87.964 33.647 81.6133 30.109 77.717C29.3391 76.8688 27.7384 76.1217 25.9874 76.6455C24.1209 77.2042 23.7833 77.8401 23.008 79.308C21.1198 82.8841 21.9615 85.2526 21.8319 89.2C21.2493 88.6228 21.0228 88.3833 20.4337 87.6831L16.7433 82.4757C17.1865 80.9414 18.5368 80.1193 18.6555 79.9222C19.005 79.3396 18.2994 80.7378 18.8177 79.4038C19.2021 78.4161 19.9121 77.7595 20.6047 76.8437C27.9246 67.1619 18.8166 64.1313 15.7589 68.5851C14.1538 70.9231 14.0481 74.2161 14.3258 78.12C13.6986 76.9831 11.9476 74.166 11.8517 72.8832C11.6067 69.6262 14.3607 62.3117 11.8049 58.9022C8.5642 54.578 0.0420973 59.7363 7.62008 70.3068C8.90504 72.0992 10.2499 72.5663 11.2659 74.7442L13.8783 79.9374C10.8129 76.9744 -1.14812 75.1667 -0.119067 82.2046C0.0747653 83.5277 1.35319 84.7266 2.42907 85.1545C6.10971 86.6203 12.3875 83.0442 15.7502 82.9015C17.0297 84.6536 17.548 85.8624 19.4591 88.0664C20.1767 88.8929 20.3444 89.017 20.7942 90.1234C17.7516 89.775 10.0321 87.902 7.91845 92.3568C7.1845 93.9032 7.39576 95.6084 8.43244 96.7736C12.3102 101.134 20.1746 93.7213 23.2868 92.7151C24.3518 93.7376 25.2741 94.9224 26.3783 95.9482C27.3823 96.8814 29.0375 97.7765 29.7366 99.0256C25.64 99.0408 19.1847 98.8992 17.3988 103.272C15.7567 107.292 19.7357 111.754 26.3946 106.191C28.4843 104.444 30.3638 102.254 32.2989 100.949C32.7737 101.104 37.7415 104.604 40.442 105.926C39.193 106.568 37.4082 106.869 36.0906 107.412C25.9688 111.58 29.4676 121.091 36.0362 117.863C38.1215 116.839 39.5938 113.419 40.9604 111.125C41.6421 109.98 42.6504 108.499 43.0152 107.439C44.9525 107.912 46.2984 109.075 48.2465 109.454L48.2509 109.453Z" fill="#7AA841"/>
<path fill-rule="evenodd" clip-rule="evenodd" d="M48.25 207.843C48.3818 230.162 48.1923 252.486 48.2794 274.806C48.3186 285.006 54.6606 291.722 64.7922 291.732L215.93 291.718C221.054 291.718 227.811 291.343 232.729 291.754L232.8 288.765L232.98 288.279C232.487 288.279 232.658 288.194 232.8 288.765C228.436 288.158 219.361 288.686 214.48 288.686H68.2746C61.4633 288.686 57.5801 288.711 54.0966 284.634C50.5041 280.43 51.3938 275.446 51.3938 269.002V214.175C51.3938 212.012 51.0323 202.153 51.8174 200.602C52.094 200.057 53.1056 198.295 53.4421 197.898C55.7801 195.148 60.0226 191.745 59.929 185.891C58.6092 186.58 59.4433 185.974 58.1932 188.42L55.3456 193.631C54.8142 194.612 54.3873 195.613 53.8592 196.554L51.6399 200.382C50.9854 201.827 51.2903 201.862 49.6134 204.808L48.3349 207.625C48.3164 207.675 48.2881 207.774 48.25 207.843Z" fill="#263238"/>
<path fill-rule="evenodd" clip-rule="evenodd" d="M139.572 223.568C137.988 227.042 128.76 227.922 127.606 220.748C126.587 214.415 133.153 209.835 137.877 213.619C139.528 214.941 140.446 218.139 139.269 220.775C138.809 221.805 137.929 222.765 136.755 223.216C135.556 223.676 135.733 223.488 134.785 223.08C133.558 222.549 134.702 222.782 133.349 223.264C130.053 224.435 129.199 220.073 130.321 217.329C130.711 216.375 131.623 215.03 132.979 214.937C134.616 214.825 134.334 215.419 134.865 215.559C135.372 215.693 134.805 215.58 135.636 215.386L136.823 215.21L135.897 221.894C137.257 221.725 137.342 221.709 137.894 220.794C139.037 218.904 138.688 215.929 136.949 214.554C131.599 210.318 125.17 219.618 130.967 224.008C134.475 226.667 136.846 223.446 139.571 223.568H139.572ZM149.978 228.391C150.355 227.297 150.116 216.342 150.116 214.177C150.116 204.995 151.101 205.033 144.566 205.043H122.81C120.531 205.04 117.953 204.636 117.363 206.724C117.161 207.441 117.041 226.975 117.331 228.353C117.81 230.636 120.202 230.191 122.81 230.187H144.566C147.394 230.187 149.192 230.672 149.978 228.391Z" fill="#62C0A6"/>
<g filter="url(#filter0_d_824_8072)">
<path fill-rule="evenodd" clip-rule="evenodd" d="M243.031 54.5086C243.625 54.305 243.452 54.269 243.266 54.8778C243.81 54.7297 243.615 54.6926 243.518 55.3112C243.842 56.2237 244.723 57.317 245.216 58.3983C245.693 59.4448 246.214 61.0107 246.379 62.2064C247.617 63.4314 247.704 63.0721 249.185 63.7015C263.54 69.804 265.033 92.4976 246.575 98.403L246.572 108.864C249.418 109.456 254.274 106.72 256.617 105.477C262.532 102.338 267.031 96.2381 269.284 89.9734C274.415 75.7071 266.946 59.0277 252.145 53.4654C250.409 52.8131 248.56 52.3318 246.647 51.9703C245.582 51.7688 244.68 51.6305 243.493 51.5761C241.265 51.4715 241.114 51.943 240.117 51.5674L240.935 52.2665C240.982 52.3002 241.065 52.3416 241.107 52.3732L243.03 54.5097L243.031 54.5086Z" fill="#CDE4F4"/>
</g>
<path fill-rule="evenodd" clip-rule="evenodd" d="M11.2418 206.714C12.1989 207.741 11.9866 209.27 13.5579 210.583C14.6186 211.47 16.5133 211.999 17.4063 212.98C20.0056 213.334 21.0532 214.474 24.4932 214.696C26.9487 214.005 28.6649 214.65 29.8192 212.491L29.9673 209.865C30.5379 206.791 28.6105 208.215 30.6784 205.005C31.5539 203.646 32.2094 202.65 33.0741 201.321C34.5637 199.031 36.33 195.497 37.9362 193.951C38.1486 193.14 38.8749 192.211 39.3758 191.394L41.0288 189.179C40.8927 188.735 40.8165 188.83 41.2771 188.913L41.5766 187.417C40.1664 185.846 39.1874 185.928 36.9126 183.443C35.9957 182.441 36.8756 183.722 35.583 182.79C35.0015 182.37 34.9721 182.246 34.4407 181.895C33.9561 181.576 33.5184 181.347 32.9771 180.984L32.9183 180.788L30.2167 180.133C29.5872 183.29 27.4518 183.603 27.4518 183.603C27.4115 183.536 27.2939 183.669 27.2221 183.716C29.7963 191.141 33.2995 191.923 32.486 196.69C28.7923 195.178 27.6674 189.927 26.0329 185.532C25.5026 190.253 26.23 195.747 23.022 197.814C20.941 194.51 24.0053 191.125 24.4485 183.415C22.7497 183.709 22.2924 184.138 20.9759 182.862C20.1864 182.097 19.3903 181.356 20.1646 180.016C19.2423 180.751 18.1555 181.064 16.9772 181.713C12.1086 184.392 11.3093 185.171 10.7561 189.362C10.3162 192.691 10.2835 199.53 10.7016 203.034C10.8617 204.374 11.4356 205.833 11.2439 206.714H11.2418Z" fill="#D84967"/>
<path fill-rule="evenodd" clip-rule="evenodd" d="M65.9705 136.725C66.6587 136.725 66.5901 136.524 66.417 137.128C66.9843 136.97 66.8667 136.893 66.6653 137.449C67.568 137.343 67.1008 134.728 67.0802 133.242L67.0987 118.157C67.0998 111.886 66.3614 106.458 75.8168 106.48C89.1411 106.512 102.878 106.135 116.139 106.494L116.286 105.815L115.676 104.607L115.765 104.521C115.128 104.521 115.211 104.684 115.425 104.1L114.95 103.632C114.498 103.045 114.392 102.284 113.795 101.999C113.175 101.705 104.466 101.897 103.376 101.897C95.6411 101.897 86.9894 103.654 85.9342 97.5075C84.4238 88.7154 95.6269 90.964 100.114 90.6809C99.0702 90.8856 99.742 90.8475 99.4371 90.2279C93.8301 87.5709 84.8082 88.1426 78.9475 90.2682C63.4616 95.8839 55.2237 113.361 61.5309 129.226C62.316 131.202 64.7868 136.019 65.9705 136.724V136.725Z" fill="#EBEBEB"/>
<path fill-rule="evenodd" clip-rule="evenodd" d="M92.931 219.302C100.3 215.043 101.632 211.915 101.68 216.184C101.79 225.836 102.643 224.728 93.2207 224.725C83.6379 224.723 84.1813 226.434 84.116 217.072C84.0888 213.237 83.9766 213.346 87.8783 216.021C89.3331 217.02 91.3847 218.527 92.931 219.302ZM92.931 218.308C92.1775 218.01 85.757 214.095 85.5109 213.093L100.32 213.189C100.065 214.003 94.0036 217.793 92.931 218.308ZM76.9431 227.809C77.2153 230.551 79.1406 230.2 81.9076 230.184C84.3229 230.171 86.7436 230.184 89.16 230.184C112.729 230.184 109.798 232.079 109.799 221.717C109.799 205.549 111.52 205.048 104.826 205.039L83.0695 205.044C80.6629 205.05 77.8339 204.532 77.1271 206.489C76.7079 207.649 76.7983 226.336 76.9442 227.809H76.9431Z" fill="#62C0A6"/>
<path fill-rule="evenodd" clip-rule="evenodd" d="M259.307 154.578C259.516 153.883 259.565 154.099 258.829 154.288C258.829 154.914 258.694 154.782 259.307 154.578C259.465 155.147 259.158 154.62 259.621 155.394L259.877 155.76C260.2 156.169 260.078 155.994 260.39 156.278C262.236 153.602 265.203 150.731 267.565 149.309C269.326 150.272 269.994 151.009 271.881 151.876C272.268 152.053 272.348 152.094 272.715 152.265C274.009 152.864 275.965 153.665 277.715 153.803C282.901 154.215 282.984 149.838 282.081 148.635C279.765 145.546 270.164 147.472 269.593 147.459C270.224 147.96 271.859 146.501 272.848 145.84C274.159 144.964 282.941 140.689 283.519 139.623C284.785 139.634 293.647 146.564 297.643 143.034C298.689 142.112 300.563 138.292 295.37 137.237C292.432 136.639 288.788 136.915 286.204 137.735C287.129 137.038 287.603 136.8 288.521 135.924C289.402 135.083 289.891 134.357 290.684 133.415C291.618 132.304 293.7 129.273 293.962 127.636C299.943 127.492 310.274 128.941 307.289 120.846C301.808 118.874 298.987 122.151 294.928 125.083C296.096 121.039 297.043 117.157 296.682 112.635C296.482 110.129 296.463 96.274 289.283 98.9408C287.304 99.6758 287.472 102.055 288.531 104.167C289.705 106.506 290.863 108.697 293.012 110.411L295.004 112.065C295.095 114.458 295.013 117.047 294.679 119.244C294.304 121.722 293.515 123.364 293.087 125.424C292.79 124.334 292.657 122.321 292.389 121.025C291.905 118.682 290.861 115.207 288.657 114.153C286.928 113.327 280.064 113.336 286.406 122.229C288.314 124.905 289.46 125.153 292.121 127.15C291.236 130.598 286.612 135.24 284.322 136.902C284.615 134.328 285.856 126.375 282.797 124.363C280.526 122.87 274.79 122.964 278.897 132.289C279.534 133.734 279.932 134.272 280.819 135.336C281.417 136.051 282.308 137.547 282.94 137.883L268.143 146.587C268.143 143.692 269.276 140.955 268.371 137.474C267.831 135.397 265.512 131.759 262.369 133.832C258.175 136.598 265.034 146.546 266.482 147.557C264.315 149.25 260.612 152.304 259.306 154.576L259.307 154.578Z" fill="#7AA841"/>
<path fill-rule="evenodd" clip-rule="evenodd" d="M168.691 34.6122C168.691 41.8264 162.952 46.9837 155.869 46.7027C149.452 46.449 143.921 40.8366 144.367 34.047C145.416 18.0656 168.691 19.0228 168.691 34.6111V34.6122ZM155.621 49.191L169.274 49.1344C169.62 48.6443 169.379 48.9547 169.764 48.5463C170.077 48.2153 170.113 48.2196 170.395 47.942C172.702 45.6748 174.701 41.944 175.339 38.638C177.095 29.5289 172.563 20.5909 164.837 17.2315C145.162 8.67779 129.255 31.5784 141.768 46.6951C144.239 49.6799 144.688 48.787 151.82 48.7826C152.474 48.7826 153.231 48.7543 153.871 48.7783C155.155 48.8273 155.074 48.799 155.622 49.1899L155.621 49.191Z" fill="#CDE4F4"/>
<path fill-rule="evenodd" clip-rule="evenodd" d="M84.1826 145.457C85.5024 142.29 91.7932 141.11 95.5 139.684C96.0619 138.998 95.6786 139.722 96.0357 138.651C96.1272 138.375 96.235 137.783 96.3047 137.489C96.553 136.437 96.7065 135.897 96.8383 134.763C95.6862 134.299 94.6854 133.618 93.933 132.814C92.7112 131.508 93.2644 131.278 91.3032 130.501C88.2792 129.303 88.8422 126.548 90.1032 126.317C91.4034 126.079 90.4592 126.232 91.4317 127.05C96.4158 121.016 93.7413 123.337 95.5403 119.698C97.9588 122.066 96.626 122.002 102.086 123.854C107.815 125.798 107.059 129.715 107.301 129.046C107.316 129.004 107.37 129.181 107.412 129.245C107.708 128.262 107.701 127.69 108.351 127.063C109.222 130.546 106.709 130.318 105.359 131.455C103.371 133.131 106.251 131.748 101.018 135.003L102.029 139.781L103.242 140.039L108.289 141.403C109.015 141.173 112.95 138.183 112.244 136.725L112.998 136.368C112.579 136.107 111.889 135.96 112.423 135.12C113.318 127.682 111.333 131.312 109.802 127.116C109.113 125.225 109.735 123.95 109.762 121.93C109.798 119.248 109.163 119.013 108.693 117.135C108.209 117.839 108.414 117.186 108.453 118.008C108.454 118.023 108.718 118.787 108.734 118.831C108.983 119.518 109.032 119.608 109.08 120.425C108.387 118.21 107.5 116.581 105.531 115.442C107.291 116.349 107.332 116.994 108.278 117.286C107.985 116.1 106.211 114.985 104.698 114.566C101.825 113.771 100.133 115.061 99.2296 115.204C97.8434 115.421 96.786 113.986 94.1617 114.739C92.55 115.2 91.0353 116.416 90.3623 117.329C87.7086 120.933 89.6926 125.135 87.6737 127.393C82.3542 133.343 85.0494 130.847 85.1691 136.619C83.8515 137.466 82.5143 138.204 82.1375 140.512C81.7357 142.974 82.7484 144.793 84.1858 145.459L84.1826 145.457Z" fill="#32334D"/>
<path fill-rule="evenodd" clip-rule="evenodd" d="M11.2405 206.715C11.4321 205.834 10.8583 204.375 10.6982 203.034C10.28 199.53 10.3138 192.692 10.7526 189.363C11.3058 185.171 12.1051 184.393 16.9738 181.714C18.152 181.066 19.2388 180.751 20.1611 180.016L21.5779 179.766C23.2832 173.827 21.7281 173.979 20.833 172.86C20.3724 172.285 20.2973 171.937 19.8933 171.46C18.9121 170.304 16.5839 170.477 17.2733 167.879L17.5139 167.43C19.0428 166.668 18.4112 167.836 19.5372 168.544C21.9699 167.975 26.3801 164.759 27.7152 162.302L28.5297 160.948L29.0774 161.688C29.2909 162.043 29.2941 162.065 29.4499 162.487C29.6513 163.035 29.7961 163.717 29.9268 164.34C30.2067 165.68 30.3646 166.885 30.4147 168.271L31.3664 167.639C33.247 164.029 33.3407 159.325 29.1874 158.125C28.0026 157.783 27.3199 157.917 26.2799 157.525C23.2309 156.375 20.4954 157.05 18.2457 159.214C15.6181 161.74 15.3447 165.674 15.0235 170.181C14.8482 172.644 15.679 173.258 14.3287 176.176C13.9759 176.939 13.352 177.868 13.0209 178.362C12.8064 178.682 12.4634 179.186 12.2946 179.38C11.8917 179.84 12.2118 179.537 11.8557 179.81L11.5835 179.266C11.7937 178.923 11.908 178.798 12.1792 178.401C13.6481 176.257 14.5487 174.191 14.9004 171.524C13.0645 176.066 14.0184 176.712 9.21831 181.519C7.3181 183.422 2.86757 187.183 2.4211 190.691L2.63018 190.322C3.86504 187.895 3.53074 187.909 6.15619 184.836C6.98052 183.871 7.53153 183.351 8.44951 182.496C9.80634 181.232 9.99582 180.476 11.1109 180.222C10.9367 181.398 7.4357 184.644 5.55618 188.587C3.30859 193.302 3.17356 194.732 3.95434 200.398C1.30057 197.895 2.34052 192.278 2.42001 190.691C0.0961972 194.791 3.19316 201.611 6.35547 204.732C7.48253 205.845 9.04081 206.479 11.2416 206.715H11.2405Z" fill="#32334D"/>
<path fill-rule="evenodd" clip-rule="evenodd" d="M246.573 98.4036C265.033 92.4983 263.539 69.8046 249.183 63.7022C247.702 63.0727 247.615 63.4321 246.377 62.207C246.926 67.6191 246.588 74.5121 246.588 80.1562C246.588 86.2151 246.684 92.36 246.573 98.4036Z" fill="white"/>
<path fill-rule="evenodd" clip-rule="evenodd" d="M210.664 188.937L209.2 186.676C208.66 185.939 208.122 185.162 207.718 184.297C208.75 182.924 210.779 181.832 212.246 180.668C210.237 177.743 210.959 180.787 209.945 176.207C209.615 174.718 209.233 172.966 208.095 172.267C207.485 172.932 206.841 174.481 206.571 175.505C205.133 175.24 205.02 174.953 204.163 174L202.88 172.742C199.961 170.668 200.081 170.317 197.959 170.312C188.83 170.294 107.739 169.994 105.197 170.486L105.266 172.244C107.714 172.742 169.998 172.406 175.605 172.406C183.312 172.406 191.641 172.707 199.271 172.362L200.992 175.864C198.124 175.372 183.664 175.697 178.797 175.696C172.47 175.695 172.75 174.99 172.707 177.336C173.308 177.741 173.394 177.84 174.731 177.891L201.217 177.698C201.356 176.787 201.369 177.346 201.253 176.475C201.03 174.796 201.445 176.448 200.993 175.861C201.697 175.97 201.364 175.779 202.046 176.411C202.35 176.693 202.49 176.956 202.711 177.217C203.988 178.725 206.906 180.568 207.56 182.825C207.755 183.497 207.692 182.655 207.615 183.372L207.504 183.737C207.319 184.479 206.951 183.121 207.388 184.662L209.146 187.27C209.195 187.341 209.335 187.545 209.384 187.617L210.664 188.936V188.937Z" fill="#4E8BC2" fill-opacity="0.8"/>
<path fill-rule="evenodd" clip-rule="evenodd" d="M27.4816 262.668L32.1346 283.145C33.1038 288.719 33.7975 294.562 33.657 300.334C33.6123 302.164 33.2127 304.686 33.4043 306.453C34.6468 306.962 35.5724 307.412 37.257 307.551L39.4502 307.687C39.1747 304.84 40.2233 300.652 39.411 297.217C38.7053 294.23 38.3699 291.083 37.5565 288.032C34.4606 276.407 29.8315 262.21 31.4922 250.706C32.9361 240.705 32.8501 240.436 32.5637 231.107C32.5114 229.411 32.4831 230.54 32.6443 230.4L29.2348 230.394C28.9919 232.506 29.0279 236.068 28.785 238.376C28.5063 241.031 28.4093 243.824 28.1665 246.401L27.4805 262.668H27.4816Z" fill="#32334D"/>
<path fill-rule="evenodd" clip-rule="evenodd" d="M99.388 156.011C99.8911 156.712 99.7452 155.191 99.7572 156.749C99.7681 158.211 99.571 157.015 99.2574 157.618L98.2599 157.504C97.9223 156.619 97.8243 155.63 99.388 156.011ZM98.9437 152.796C100.504 153.746 100.223 154.632 99.0156 154.774C98.482 154.837 98.372 154.962 98.2076 154.333C97.9659 153.406 97.8722 154.018 98.359 152.831C95.8533 153.005 93.7451 153.752 91.1959 153.772C89.3392 153.787 84.5544 153.399 83.4317 153.602C82.9232 154.65 83.0723 158.53 83.1105 159.94C83.8488 160.34 112.041 160.476 114.329 160.039C114.463 157.239 113.205 146.596 113.787 145.426C112.823 145.57 113.464 145.574 113.177 145.137C112.071 145.279 109.182 147.79 108.362 148.682C107.466 149.658 107.891 149.158 106.63 149.519L98.9427 152.795L98.9437 152.796Z" fill="#FCA44A"/>
<path fill-rule="evenodd" clip-rule="evenodd" d="M100.114 90.6804C95.6266 90.9625 84.4235 88.7138 85.9339 97.507C86.9891 103.652 95.6407 101.897 103.376 101.897C104.466 101.897 113.175 101.705 113.795 101.999C114.392 102.283 114.498 103.044 114.95 103.631L115.425 104.1C115.21 104.683 115.127 104.521 115.764 104.521C115.734 103.913 115.926 103.955 115.425 104.1C115.154 101.975 110.584 97.3001 109.196 96.0903C107.784 94.8587 102.353 90.6978 100.114 90.6815C99.9998 90.1948 100.745 90.3908 99.4368 90.2285C99.7406 90.8492 99.0698 90.8862 100.114 90.6815V90.6804Z" fill="#8DB5D8"/>
<path fill-rule="evenodd" clip-rule="evenodd" d="M95.5006 139.683C94.122 140.558 93.8313 140.108 93.4098 141.654L98.7903 144.088C99.2411 144.107 100.485 143.283 101.174 142.997C102.087 142.62 103.232 142.31 104.408 142.084C104.119 140.664 104.053 141.159 103.243 140.039L102.03 139.781L101.018 135.002C106.252 131.748 103.373 133.131 105.36 131.455C106.709 130.318 109.224 130.545 108.351 127.063C107.701 127.689 107.709 128.262 107.413 129.244C107.369 129.182 107.317 129.003 107.302 129.046C107.06 129.714 107.816 125.796 102.087 123.854C96.6266 122.001 97.9595 122.066 95.5409 119.697C93.742 123.338 96.4164 121.016 91.4323 127.05C90.4599 126.232 91.404 126.079 90.1038 126.317C88.8428 126.548 88.2798 129.304 91.3038 130.501C93.2639 131.277 92.7118 131.508 93.9336 132.814C94.6861 133.617 95.6868 134.299 96.8389 134.763C96.7072 135.896 96.5536 136.435 96.3053 137.488C96.2357 137.783 96.1278 138.376 96.0364 138.65C95.6792 139.722 96.0625 138.998 95.5006 139.684V139.683Z" fill="#FACBCA"/>
<path fill-rule="evenodd" clip-rule="evenodd" d="M149.209 134.388H221.514C222.718 134.388 225.889 134.643 226.082 133.242C226.335 131.389 223.367 131.784 220.861 131.793L148.049 131.804C146.458 131.809 142.88 131.414 143.425 133.442C143.813 134.883 147.696 134.387 149.21 134.387L149.209 134.388Z" fill="#4E8BC2" fill-opacity="0.8"/>
<path fill-rule="evenodd" clip-rule="evenodd" d="M143.408 138.755V140.202C145.847 141.243 160.217 140.734 164.003 140.734C169.734 140.734 221.156 141.045 224.377 140.719C224.898 140.667 225.404 140.571 225.65 140.371C226.357 139.797 226.055 140.069 226.335 139.044C224.89 138.037 224.038 138.241 221.73 138.249L164.293 138.247C159.626 138.247 146.786 137.67 143.408 138.754V138.755Z" fill="#4E8BC2" fill-opacity="0.8"/>
<path fill-rule="evenodd" clip-rule="evenodd" d="M143.389 126.86C144.33 128.317 146.833 127.911 148.918 127.911H221.368C223.65 127.911 225.738 128.337 226.322 126.569C225.467 124.983 223.498 125.408 221.441 125.408H148.991C146.666 125.408 143.812 124.807 143.389 126.86Z" fill="#8DB5D8"/>
<path fill-rule="evenodd" clip-rule="evenodd" d="M143.446 151.701C143.224 154.433 146.577 153.556 152.109 153.556H216.218C218.321 153.556 225.446 154.117 226.161 152.716C227.341 150.408 219.328 151.151 217.669 151.151H164.292C160.651 151.151 145.512 150.581 143.445 151.701H143.446Z" fill="#4E8BC2" fill-opacity="0.8"/>
<path fill-rule="evenodd" clip-rule="evenodd" d="M116.285 105.814L116.138 106.493C102.875 106.134 89.1394 106.511 75.815 106.48C66.3597 106.457 67.098 111.885 67.0969 118.156L67.0784 133.242C67.0991 134.727 67.5673 137.344 66.6635 137.448C66.865 136.893 66.9815 136.969 66.4152 137.127C66.5884 136.524 66.657 136.724 65.9688 136.724C66.021 137.372 65.8326 137.29 66.4152 137.127C66.2726 137.688 66.1277 137.643 66.6635 137.448C66.8552 138.257 67.8069 139.163 68.6541 139.818L69.5764 140.343C69.3924 140.94 69.2585 140.878 69.8454 140.661C69.608 141.258 69.5481 141.123 70.1623 140.934C69.9783 141.503 69.9238 141.298 70.5924 141.363C70.5924 140.649 70.7939 140.715 70.1623 140.934C70.3267 140.351 70.4171 140.459 69.8454 140.661C70.0621 140.07 70.1764 140.153 69.5764 140.343C69.9097 138.234 69.6211 132.87 69.6211 130.339C69.6233 110.117 67.5771 108.933 78.1366 108.934L113.527 108.931C115.881 108.937 117.043 108.665 117.794 109.489C117.771 110.576 117.79 110.039 118.246 110.364L117.794 109.489C117.746 108.508 117.531 108.421 117.2 107.489C117.148 107.34 116.928 106.645 116.918 106.624C116.475 105.663 116.963 106.244 116.285 105.813C116.211 104.755 116.396 105.165 115.674 104.605L116.285 105.813V105.814Z" fill="#71A2CE" fill-opacity="0.8"/>
<path fill-rule="evenodd" clip-rule="evenodd" d="M143.522 146.5C145.508 147.829 150.371 147.146 153.27 147.154C175.929 147.222 199.894 146.838 222.313 147.163C225.029 147.202 224.925 147.427 226.464 146.004C225.44 144.579 225.294 144.652 222.899 144.679C221.058 144.7 219.22 144.696 217.378 144.696C194.17 144.696 169.956 144.941 146.884 144.694C145.016 144.675 143.256 144.241 143.521 146.5H143.522Z" fill="#4E8BC2" fill-opacity="0.8"/>
<path fill-rule="evenodd" clip-rule="evenodd" d="M260.368 163.425C259.473 162.371 260.398 162.571 259.415 162.013C258.681 163.167 258.948 163.325 257.636 163.816C257.859 162.03 257.805 160.315 256.517 159.625C254.474 158.461 254.314 160.656 249.761 157.994C247.572 156.715 245.721 158.136 245.298 160.305C245.181 163.511 245.61 164.761 246.584 167.438L246.712 168.101C248.659 169.273 247.802 171.276 248.707 171.845L249.974 170.199C250.008 170.168 250.08 170.1 250.135 170.055C250.066 171.508 248.84 175.193 251.334 176.405C251.935 176.697 251.761 176.654 252.479 176.87C254.058 176.254 255.07 175.837 255.853 174.301C257.367 171.329 255.589 172.53 256.043 169.84L255.901 169.394C255.719 167.663 256.285 168.012 256.951 166.752C258.678 163.485 258.074 165.84 259.195 164.079C259.604 163.439 258.985 163.388 260.368 163.427V163.425Z" fill="#FACBCA"/>
<path fill-rule="evenodd" clip-rule="evenodd" d="M92.9291 219.304C91.3828 218.529 89.3312 217.021 87.8764 216.023C83.9747 213.347 84.0868 213.238 84.1141 217.074C84.1805 226.435 83.636 224.726 93.2187 224.727C102.641 224.729 101.788 225.837 101.678 216.185C101.629 211.916 100.298 215.044 92.9291 219.304Z" fill="#EBEBEB"/>
<path fill-rule="evenodd" clip-rule="evenodd" d="M21.5806 179.766C21.8419 179.886 24.377 182.312 26.7988 180.839L27.6721 179.932C27.719 179.873 27.7767 179.797 27.8192 179.741L28.1251 179.342C27.891 178.817 27.6569 178.029 27.4642 177.227C27.4086 176.997 27.2671 176.46 27.2398 176.264L27.2921 175.186C28.3614 174.807 27.7037 174.957 28.4072 175.162C28.3408 173.643 29.5146 174.477 30.0907 171.95C30.8442 168.643 29.4253 171.582 31.3691 167.641L30.4174 168.272C30.3673 166.886 30.2105 165.682 29.9295 164.341C29.7999 163.718 29.654 163.037 29.4526 162.489C29.2969 162.066 29.2925 162.045 29.0802 161.69L28.5324 160.949L27.7179 162.304C26.3828 164.759 21.9726 167.976 19.5399 168.546C18.4139 167.838 19.0455 166.669 17.5166 167.432L17.276 167.88C16.5867 170.479 18.9148 170.305 19.896 171.462C20.3 171.939 20.3751 172.285 20.8357 172.861C21.7308 173.981 23.2859 173.827 21.5806 179.767V179.766Z" fill="#FACBCA"/>
<path fill-rule="evenodd" clip-rule="evenodd" d="M82.7786 175.337C83.6595 174.665 84.8498 172.66 85.6795 171.665C86.5834 171.93 86.8796 172.294 87.2868 172.984C86.5169 174.084 83.8937 177.079 82.7786 177.581C81.6101 176.651 80.1749 175.685 79.8341 174.701L80.4733 173.907C81.9858 174.331 81.3107 174.852 82.7775 175.336L82.7786 175.337ZM75.928 176.175C77.3241 183.801 91.7907 182.6 90.2041 173.988C88.7634 166.167 74.3719 167.674 75.928 176.175Z" fill="#FCA44A"/>
<path fill-rule="evenodd" clip-rule="evenodd" d="M83.0693 194.632C81.9237 194.378 80.1814 193.1 79.5988 192.419C79.9146 191.461 80.0039 191.469 80.7476 191.034L82.7078 192.559L85.5847 188.834C86.7031 189.084 86.616 189.12 87.3086 189.809C86.9122 190.955 83.9916 193.746 83.0693 194.632ZM75.8692 192.13C76.4202 196.192 79.2689 197.514 83.9491 197.428C87.7583 197.358 90.7278 194.887 90.2639 190.743C89.3667 182.74 74.7552 183.925 75.8692 192.13Z" fill="#FCA44A"/>
<path fill-rule="evenodd" clip-rule="evenodd" d="M248.256 151.969C248.182 152.33 248.682 152.162 247.551 152.338L247.024 152.635L246.703 153.144C246.696 153.161 246.687 153.233 246.681 153.249C246.35 154.1 245.557 154.052 244.901 155.306C244.275 156.5 244.684 158.728 245.042 159.842L245.3 160.305C245.724 158.134 247.575 156.714 249.763 157.994C254.316 160.655 254.475 158.459 256.519 159.624C257.807 160.314 257.861 162.03 257.638 163.815C258.95 163.324 258.683 163.168 259.417 162.012C259.563 161.683 259.694 161.227 259.848 160.901C260.521 159.488 261.068 159.86 260.297 156.451L260.391 156.278C260.079 155.994 260.201 156.17 259.878 155.759L259.622 155.394C259.158 154.618 259.466 155.146 259.308 154.578C258.695 154.78 258.83 154.912 258.83 154.287C258.219 154.135 258.459 154.588 258.458 153.894C258.458 153.564 258.648 153.491 258.77 153.363C256.833 153.143 258.129 153.475 257.109 152.356C256.529 151.722 257.097 151.886 256.442 152.3C254.232 153.696 258.057 152.032 255.875 152.714L255.525 152.218C251.529 151.125 251.611 151.882 248.258 151.97L248.256 151.969Z" fill="#32334D"/>
<path fill-rule="evenodd" clip-rule="evenodd" d="M105.424 189.453C106.094 190.141 141.887 189.83 148.337 189.874C153.109 189.907 152.612 189.892 152.391 187.8C140.215 187.321 122.465 187.764 109.175 187.738C108.634 187.737 106.323 187.666 105.976 187.755C105.053 187.991 104.829 188.842 105.424 189.453Z" fill="#4E8BC2" fill-opacity="0.8"/>
<path fill-rule="evenodd" clip-rule="evenodd" d="M84.1841 145.455L83.9902 147.699C89.1497 148.273 93.7428 148.512 98.1574 146.877C101.176 145.759 106.207 144.171 108.29 141.399L103.244 140.036C104.054 141.157 104.119 140.662 104.409 142.081C103.234 142.308 102.087 142.617 101.175 142.994C100.486 143.28 99.242 144.104 98.7912 144.084L93.4107 141.651C93.8332 140.105 94.1229 140.555 95.5015 139.68C91.7947 141.106 85.5028 142.287 84.1841 145.452V145.455Z" fill="#FCA44A"/>
<path fill-rule="evenodd" clip-rule="evenodd" d="M11.2194 272.807C11.3849 273.414 11.5079 273.795 11.4371 274.527C11.3881 275.04 11.4001 274.916 11.2346 275.373C11.0135 275.985 11.0604 275.799 10.7827 276.139C10.2741 281.02 9.8353 285.68 8.89336 290.577L5.6875 304.104C6.7906 305.243 9.41823 306.091 11.1627 306.655C12.4891 307.018 13.59 307.524 15.0263 307.442L15.6546 307.297C13.9319 307.414 12.7722 302.716 12.2506 300.577C10.5246 293.503 11.5809 279.142 11.57 271.123L11.2215 272.807H11.2194Z" fill="#32334D"/>
<path fill-rule="evenodd" clip-rule="evenodd" d="M231.894 314.503C230.592 317.271 227.525 315.934 225.764 316.546C223.082 317.479 222.568 320.996 222.987 321.396C223.596 321.979 237.866 321.77 239.55 321.609C240.172 319.368 239.657 317.685 239.866 315.579C239.54 315.366 239.589 315.873 239.498 314.832C237.637 314.711 237.214 315.99 235.366 315.935C232.936 315.863 234.683 313.448 231.895 314.502L231.894 314.503Z" fill="#414A81"/>
<path fill-rule="evenodd" clip-rule="evenodd" d="M271.174 315.801C268.216 315.919 268.373 315.027 266.199 314.62C265.604 316.873 265.716 319.13 265.963 321.619L282.811 321.666C282.311 314.297 277.049 317.118 275.354 316.031C274.33 315.375 273.998 314.473 272.497 314.246C271.773 314.84 271.699 315.118 271.174 315.801Z" fill="#414A81"/>
<path fill-rule="evenodd" clip-rule="evenodd" d="M21.5785 179.765L20.1618 180.016C19.3875 181.356 20.1825 182.097 20.973 182.862C22.2896 184.139 22.7469 183.71 24.4457 183.416C24.0025 191.125 20.9371 194.51 23.0192 197.815C26.2283 195.748 25.5009 190.253 26.0301 185.533C27.6646 189.928 28.7906 195.178 32.4832 196.69C33.2967 191.924 29.7935 191.142 27.2192 183.716C27.2911 183.669 27.4087 183.536 27.449 183.603C27.449 183.603 29.5844 183.29 30.2138 180.134C29.7924 179.394 29.3743 179.104 28.122 179.34L27.816 179.739C27.7735 179.794 27.7158 179.871 27.669 179.93L26.7956 180.837C24.3738 182.31 21.8388 179.884 21.5774 179.764L21.5785 179.765Z" fill="#EBEBEB"/>
<path fill-rule="evenodd" clip-rule="evenodd" d="M11.8299 236.329L11.9693 240.963C11.7145 240.354 12.5388 236.427 13.0082 235.751C13.3512 235.258 13.7388 236.252 13.1661 235.655C12.7316 233.914 13.6332 231.499 13.9871 229.861C14.4162 227.876 15.6924 224.544 16.8913 222.845C17.7059 221.692 18.3636 220.733 20.474 219.998C22.0736 219.44 21.6381 219.181 22.4733 218.24C23.1463 217.187 23.8573 215.74 24.4911 214.697C21.0511 214.475 20.0036 213.334 17.4042 212.98C15.9069 216.293 14.5621 219.563 13.545 223.532C12.8241 226.346 11.4183 233.413 11.8299 236.327V236.329Z" fill="#32334D"/>
<path fill-rule="evenodd" clip-rule="evenodd" d="M151.819 195.413C159.308 195.191 182.588 195.905 186.057 195.254L185.966 193.655C184.527 193.05 150.676 192.923 148.562 193.516C148.277 196.044 149.369 195.486 151.819 195.413Z" fill="#4E8BC2" fill-opacity="0.8"/>
<path fill-rule="evenodd" clip-rule="evenodd" d="M10.0176 309.96C8.67497 312.056 8.10763 312.475 7.65354 315.523C7.3715 317.412 6.59726 320.311 6.52539 322.089L7.64592 322.663C8.63359 321.887 9.0365 319.59 9.96646 318.46C13.8148 321.296 10.4249 324.809 18.4995 326.97C19.8323 327.327 19.902 327.137 20.0795 327.104C22.4099 326.678 19.4675 323.31 18.6846 321.822C18.2686 321.822 18.3906 321.91 18.4396 321.452C16.5383 321.864 15.7161 321.731 14.7306 320.51C12.1629 317.329 11.712 313.866 10.5741 309.905C10.463 309.855 10.3596 309.689 10.0176 309.96Z" fill="#414A81"/>
<path fill-rule="evenodd" clip-rule="evenodd" d="M132.004 222.05C130.927 219.578 132.417 214.631 134.305 216.591C135.019 217.334 134.578 219.297 134.329 220.176C133.864 221.819 133.677 222.404 132.004 222.05ZM139.573 223.567C136.847 223.445 134.477 226.665 130.968 224.007C125.172 219.615 131.601 210.317 136.951 214.553C138.689 215.929 139.038 218.904 137.896 220.792C137.343 221.707 137.259 221.723 135.899 221.892L136.824 215.208L135.637 215.385C134.805 215.58 135.373 215.692 134.866 215.558C134.335 215.417 134.617 214.825 132.98 214.936C131.625 215.029 130.712 216.373 130.322 217.327C129.201 220.07 130.054 224.434 133.351 223.262C134.703 222.781 133.56 222.548 134.787 223.078C135.734 223.487 135.558 223.675 136.757 223.214C137.931 222.763 138.811 221.804 139.27 220.774C140.447 218.137 139.528 214.939 137.878 213.617C133.155 209.833 126.589 214.413 127.608 220.747C128.762 227.921 137.99 227.04 139.574 223.567H139.573Z" fill="#EBEBEB"/>
<path fill-rule="evenodd" clip-rule="evenodd" d="M52.7994 318.565C52.2898 318.508 52.3834 318.661 52.4117 318.199C50.6553 318.557 50.5453 319.92 48.1071 318.732C44.494 316.972 40.4769 311.162 39.6035 310.857C39.1995 314.172 38.8816 314.46 39.8584 317.695C40.2798 319.092 40.8983 322.855 41.5843 323.731L42.9031 323.719L42.9096 318.876C46.7645 319.602 45.9978 321.304 48.2792 322.653C50.1162 323.739 54.9566 323.442 56.3069 322.31C56.8089 320.336 54.2096 319.726 52.7983 318.565H52.7994Z" fill="#414A81"/>
<path fill-rule="evenodd" clip-rule="evenodd" d="M113.528 193.299C111.882 193.299 110.239 193.301 108.594 193.309C107.034 193.316 104.781 192.84 105.202 194.741C105.448 195.852 108.538 195.383 109.756 195.383C118.863 195.38 130.628 195.154 139.347 195.4C140.564 195.433 143.358 195.859 142.768 193.962C142.421 192.848 139.534 193.323 138.185 193.324L113.528 193.299Z" fill="#4E8BC2" fill-opacity="0.8"/>
<path fill-rule="evenodd" clip-rule="evenodd" d="M292.426 215.686C293.474 216.069 295.2 216.264 296.226 216.866C308.416 224.028 308.623 219.67 306.944 218.34C305.38 217.1 302.454 216.793 301.142 215.048C301.867 213.085 302.693 214.137 303.36 212.147C300.933 210.85 299.151 212.121 295.971 211.705C294.543 211.518 293.641 210.278 293.121 211.909C292.72 213.164 293.045 214.184 292.426 215.685V215.686Z" fill="#FACBCA"/>
<path fill-rule="evenodd" clip-rule="evenodd" d="M149.988 235.663C149.9 234.05 144.12 234.744 142.537 234.744C138.234 234.744 118.885 234.38 117.438 234.992L117.588 236.515C119.283 237.055 138.343 236.762 142.827 236.762C144.316 236.762 150.09 237.489 149.989 235.662L149.988 235.663Z" fill="#4E8BC2" fill-opacity="0.8"/>
<path fill-rule="evenodd" clip-rule="evenodd" d="M10.0167 309.96C10.3586 309.688 10.4632 309.856 10.5732 309.906C11.7111 313.866 12.1609 317.329 14.7297 320.511C15.7152 321.732 16.5373 321.865 18.4386 321.453C18.3896 321.91 18.2666 321.822 18.6836 321.822C18.737 321.322 18.8818 321.384 18.4386 321.453C17.9323 320.326 17.5076 319.897 17.2147 318.879C15.5518 313.097 16.6048 312.997 16.6538 308.455C17.9562 308.25 18.7457 308.455 20.1113 308.523C20.782 308.556 21.4485 308.54 22.116 308.458C22.1792 308.45 22.7661 308.355 22.8554 308.328L23.303 308.146C23.3694 308.116 23.4652 308.051 23.5186 308.024C23.573 307.997 23.6667 307.944 23.7331 307.891C22.0735 308.299 20.8561 308.302 18.9613 308.198C17.9127 308.141 15.799 308.082 15.0237 307.441C13.5874 307.524 12.4864 307.017 11.1601 306.654C11.1394 307.72 11.1514 307.542 10.8193 308.373L10.0156 309.96H10.0167Z" fill="#FACBCA"/>
<path fill-rule="evenodd" clip-rule="evenodd" d="M100.762 236.763C102.502 236.763 104.245 236.765 105.986 236.773C108.115 236.781 109.789 237.327 109.387 235.118C107.628 234.273 89.8566 234.744 86.2587 234.744C84.0634 234.744 74.8215 234.02 77.0625 236.388C77.7388 237.102 98.3819 236.762 100.762 236.762V236.763Z" fill="#4E8BC2" fill-opacity="0.8"/>
<path fill-rule="evenodd" clip-rule="evenodd" d="M109.372 240.337C108.171 239.803 106.831 239.996 105.405 239.998C100.061 240 81.7486 239.61 76.9496 240.232C76.7939 242.368 77.6476 242.016 79.5729 241.973C85.2082 241.842 107.437 242.341 109.338 241.824L109.372 240.337Z" fill="#4E8BC2" fill-opacity="0.8"/>
<path fill-rule="evenodd" clip-rule="evenodd" d="M259.416 162.012C260.398 162.571 259.474 162.372 260.369 163.425C262.635 164.282 267.179 165.597 269.451 163.601C270.053 163.072 270.818 162.29 270.892 161.088C271.16 156.707 263.798 157.077 261.07 158.386L260.452 156.698C260.413 156.629 260.356 156.527 260.296 156.451C261.067 159.861 260.52 159.488 259.847 160.902C259.693 161.227 259.562 161.685 259.416 162.012Z" fill="#7AA841"/>
<path fill-rule="evenodd" clip-rule="evenodd" d="M149.84 240.54C149.275 239.561 143.175 240 141.666 240H124.26C119.706 240 117.232 239.279 117.458 241.574C119.231 242.447 138.387 241.959 143.115 241.959C144.531 241.959 151.077 242.684 149.838 240.539L149.84 240.54Z" fill="#4E8BC2" fill-opacity="0.8"/>
<path fill-rule="evenodd" clip-rule="evenodd" d="M39.4529 307.688L37.2598 307.552C38.0928 308.271 38.4522 308.079 39.7132 308.088C39.5607 309.657 39.9941 309.81 39.6054 310.859C40.4787 311.164 44.4958 316.973 48.1089 318.733C50.5482 319.921 50.6582 318.559 52.4136 318.201C52.3842 318.663 52.2905 318.51 52.8012 318.567C52.8012 317.986 52.9559 318.078 52.4136 318.201C50.2694 316.747 49.7968 316.758 47.7692 313.585C46.9623 312.321 44.926 308.535 45.2363 307.191L39.4529 307.689V307.688Z" fill="#FACBCA"/>
<path fill-rule="evenodd" clip-rule="evenodd" d="M251.743 176.949L253.216 176.993C253.954 176.389 254.732 176.087 255.418 175.341C257.238 173.358 256.179 172.668 258.928 173.789C260.438 174.406 260.725 173.831 262.163 174.382C262.251 174.416 262.471 174.542 262.551 174.58L264.218 175.192C264.538 175.28 264.647 175.319 265.01 175.406L262.94 174.18C263.319 173.621 263.477 173.272 263.521 172.127C263.553 171.267 263.385 170.436 263.213 169.796C261.129 168.598 258.612 168.654 256.044 169.839C255.59 172.528 257.368 171.327 255.855 174.3C255.072 175.837 254.059 176.254 252.48 176.869C251.762 176.652 251.937 176.697 251.335 176.404C248.842 175.192 250.068 171.507 250.137 170.053C250.081 170.1 250.008 170.166 249.975 170.198L248.708 171.843C247.803 171.275 248.66 169.271 246.713 168.1L246.8 173.232L249.345 173.219C249.707 174.297 249.301 175.498 250.692 176.511C251.158 176.85 251.089 176.83 251.743 176.951V176.949Z" fill="#7AA841"/>
<path fill-rule="evenodd" clip-rule="evenodd" d="M219.993 198.712C223.423 199.796 226.19 198.729 228.946 197.353C230.709 196.473 234.505 194.18 235.629 193.057C235.629 192.519 235.461 192.549 235.91 192.694L235.793 191.833C235.79 191.74 235.805 191.281 235.805 191.22C235.841 188.547 235.401 186.178 235.492 183.555C234.261 184.231 231.958 191.966 230.496 193.942C228.548 196.576 224.577 198.6 221.155 198.218C221.103 198.213 220.438 198.101 220.377 198.085C220.275 198.056 219.976 197.944 219.891 197.911C219.813 197.882 219.714 197.828 219.651 197.801C219.588 197.775 219.491 197.722 219.41 197.684L219.989 198.711L219.993 198.712Z" fill="#6697D2"/>
<path fill-rule="evenodd" clip-rule="evenodd" d="M250.593 178.371L250.677 178.805C251.203 180.504 249.187 186.11 249.099 188.746C248.967 189.958 249.209 193.082 249.905 194.244C250.475 192.348 251.601 190.09 252.458 188.044C253.509 185.534 252.487 182.155 253.358 180.042L253.913 178.44L254.108 178.107L253.512 177.397C253.472 177.345 253.399 177.245 253.365 177.201C253.329 177.155 253.258 177.069 253.215 176.995L251.742 176.951L250.442 177.648L250.591 178.372L250.593 178.371Z" fill="#414A81"/>
<path fill-rule="evenodd" clip-rule="evenodd" d="M92.9298 218.309C94.0025 217.794 100.064 214.003 100.318 213.19L85.5098 213.094C85.7559 214.096 92.1763 218.01 92.9298 218.309Z" fill="#EBEBEB"/>
<path fill-rule="evenodd" clip-rule="evenodd" d="M29.9665 209.865L29.8184 212.491C31.6456 212.29 32.1901 211.828 34.332 211.678C35.8108 211.398 35.8185 210.577 36.6428 209.552L36.8824 209.118L37.1644 208.91C38.2751 208.442 38.0149 208.288 38.9688 207.776C41.4385 203.924 36.915 204.411 34.8787 205.716C33.425 206.648 33.3531 207.321 32.2881 208.374L30.0971 207.967L29.9654 209.866L29.9665 209.865Z" fill="#FACBCA"/>
<path fill-rule="evenodd" clip-rule="evenodd" d="M60.7159 158.191C61.6208 159.084 70.5186 164.413 71.7818 164.641C72.1096 163.935 72.4798 163.415 72.6835 162.542C71.05 160.813 63.5951 157.392 62.0281 156.021C61.5228 156.721 60.9969 157.291 60.7148 158.191H60.7159Z" fill="#69B5F2"/>
<path fill-rule="evenodd" clip-rule="evenodd" d="M170.97 188.446C170.596 187.323 168.235 187.703 166.905 187.719L158.196 187.726C156.758 187.699 154.843 187.331 155.374 189.229C155.723 190.474 162.175 189.818 163.713 189.818C167.318 189.818 171.666 190.541 170.969 188.446H170.97Z" fill="#4E8BC2" fill-opacity="0.8"/>
<path fill-rule="evenodd" clip-rule="evenodd" d="M248.255 151.969C247.054 151.567 247.888 151.829 247.551 152.338C248.683 152.162 248.181 152.33 248.255 151.969C251.608 151.881 251.528 151.125 255.523 152.217C256.121 151.322 255.276 150.068 254.789 149.253C254.175 148.226 253.524 147.371 252.148 147.047C246.93 145.812 248.299 151.256 248.254 151.969H248.255Z" fill="#7AA841"/>
<path fill-rule="evenodd" clip-rule="evenodd" d="M231.894 314.503C234.683 313.449 232.935 315.864 235.366 315.936C237.213 315.991 237.636 314.711 239.497 314.833C239.588 315.874 239.539 315.367 239.865 315.58L239.497 314.833C239.331 312.868 240.249 312.279 239.768 311.09C237.252 311.256 235.7 311.383 233.2 310.887C232.673 311.441 234.005 311.485 231.748 311.532L233.096 311.556C233.048 312.112 233 312.23 233.041 312.797L232.532 314.063C232.47 314.099 232.385 314.156 232.326 314.193L231.894 314.502V314.503Z" fill="#FACBCA"/>
<path fill-rule="evenodd" clip-rule="evenodd" d="M249.098 188.746C249.186 186.111 251.202 180.504 250.676 178.805L250.592 178.371C250.222 178.149 250.553 178.34 250.098 178.21C246.92 177.302 249.641 177.932 247.197 175.915C246.676 175.486 247.334 175.876 246.566 175.475L248.533 187.896C248.827 188.608 248.675 188.312 249.098 188.745V188.746Z" fill="#EBEBEB"/>
<path fill-rule="evenodd" clip-rule="evenodd" d="M83.0681 194.632C83.9905 193.745 86.911 190.954 87.3074 189.809C86.6148 189.119 86.702 189.083 85.5836 188.834L82.7066 192.558L80.7465 191.034C80.0027 191.468 79.9135 191.461 79.5977 192.419C80.1802 193.099 81.9226 194.378 83.0681 194.632Z" fill="#EBEBEB"/>
<path fill-rule="evenodd" clip-rule="evenodd" d="M247.566 222.889L250.176 222.828L250.373 222.077C250.383 221.749 249.541 214.17 248.999 213.248C248.957 213.316 248.912 213.347 248.899 213.466C248.885 213.585 248.823 213.632 248.804 213.686C248.773 213.777 247.425 220.298 247.567 222.89L247.566 222.889Z" fill="#EBEBEB"/>
<path fill-rule="evenodd" clip-rule="evenodd" d="M82.7774 175.335C81.3095 174.851 81.9857 174.33 80.4732 173.906L79.834 174.7C80.1737 175.684 81.6101 176.65 82.7785 177.58C83.8936 177.077 86.5158 174.083 87.2867 172.983C86.8795 172.293 86.5833 171.928 85.6795 171.664C84.8497 172.659 83.6595 174.664 82.7785 175.336L82.7774 175.335Z" fill="#EBEBEB"/>
<path fill-rule="evenodd" clip-rule="evenodd" d="M48.2873 108.005L48.2459 101.33C48.1795 101.465 44.195 106.277 43.9043 106.553C44.7101 106.629 45.3493 107.002 45.9744 107.291C46.5766 107.569 47.3606 107.962 48.2884 108.005H48.2873Z" fill="#EBEBEB"/>
<path fill-rule="evenodd" clip-rule="evenodd" d="M132.003 222.051C133.676 222.406 133.863 221.82 134.328 220.177C134.577 219.298 135.018 217.334 134.304 216.592C132.416 214.631 130.926 219.579 132.003 222.051Z" fill="#62C0A6"/>
<path fill-rule="evenodd" clip-rule="evenodd" d="M254.109 178.105L253.914 178.438L253.359 180.04L253.158 185.343C254.444 184.432 256.768 177.804 256.883 177.23C255.676 177.552 256.005 177.664 255.046 178.365L254.109 178.106V178.105Z" fill="#EBEBEB"/>
<path fill-rule="evenodd" clip-rule="evenodd" d="M28.4056 175.16C27.7011 174.955 28.3599 174.806 27.2906 175.184L27.2383 176.262C27.2655 176.458 27.4071 176.995 27.4626 177.225C27.6564 178.027 27.8906 178.815 28.1236 179.339C29.3759 179.104 29.794 179.394 30.2155 180.133L32.9171 180.788C33.4551 179.814 35.6156 181.994 36.0272 182.931C36.3637 182.555 36.6936 182.604 34.6747 181.069C33.9418 180.51 33.3908 180.217 32.5926 179.696L32.6678 179.965C32.6678 179.975 32.9444 179.909 32.5926 180.635L32.3356 179.383C30.8111 178.784 28.4535 177.037 28.4045 175.161L28.4056 175.16Z" fill="#32334D"/>
<path fill-rule="evenodd" clip-rule="evenodd" d="M113.18 145.135C113.465 145.573 112.825 145.569 113.789 145.425C114.831 144.761 115.538 144.203 115.849 142.57C115.572 142.123 116.161 141.877 115.172 142.662C114.861 142.909 114.743 143.133 114.445 143.441C113.732 144.178 113.523 144.048 113.181 145.135H113.18Z" fill="#32334D"/>
<path fill-rule="evenodd" clip-rule="evenodd" d="M98.9458 152.795L98.361 152.83C97.8743 154.017 97.9679 153.405 98.2097 154.331C98.3741 154.961 98.4841 154.835 99.0177 154.772C100.225 154.631 100.506 153.744 98.9458 152.795Z" fill="#FACBCA"/>
<path fill-rule="evenodd" clip-rule="evenodd" d="M99.2596 157.617C99.5721 157.014 99.7703 158.209 99.7594 156.748C99.7474 155.19 99.8922 156.711 99.3902 156.01C97.8265 155.629 97.9245 156.618 98.2621 157.503L99.2596 157.617Z" fill="#FACBCA"/>
<defs>
<filter id="filter0_d_824_8072" x="236.117" y="51.5605" width="38.7812" height="65.3867" filterUnits="userSpaceOnUse" color-interpolation-filters="sRGB">
<feFlood flood-opacity="0" result="BackgroundImageFix"/>
<feColorMatrix in="SourceAlpha" type="matrix" values="0 0 0 0 0 0 0 0 0 0 0 0 0 0 0 0 0 0 127 0" result="hardAlpha"/>
<feOffset dy="4"/>
<feGaussianBlur stdDeviation="2"/>
<feComposite in2="hardAlpha" operator="out"/>
<feColorMatrix type="matrix" values="0 0 0 0 0 0 0 0 0 0 0 0 0 0 0 0 0 0 0.25 0"/>
<feBlend mode="normal" in2="BackgroundImageFix" result="effect1_dropShadow_824_8072"/>
<feBlend mode="normal" in="SourceGraphic" in2="effect1_dropShadow_824_8072" result="shape"/>
</filter>
</defs>
</svg>
