<svg width="350" height="230" viewBox="0 0 350 230" fill="none" xmlns="http://www.w3.org/2000/svg">
<g clip-path="url(#clip0_639_12478)">
<path fill-rule="evenodd" clip-rule="evenodd" d="M117.347 218.244L115.348 215.104C115.039 216.631 116.155 215.344 114.804 216.555C114.5 215.411 114.369 214.838 113.267 213.616C113.365 214.492 113.425 214.88 113.49 215.018C114.105 214.498 113.326 214.606 112.721 214.668C112.65 214.675 112.504 214.706 112.424 214.721C112.338 214.736 112.201 214.782 112.108 214.803C107.639 215.796 98.3509 214.637 96.577 215.271C97.3657 216.917 98.0186 217.017 98.9834 218.621C103.617 226.322 87.194 223.823 86.5547 217.775C86.381 216.133 86.6126 213.148 86.6395 211.378C85.3844 212.71 85.7152 213.835 85.7152 215.779C80.3756 215.142 66.9265 216.471 62.9472 216.102C62.1444 214.218 62.9369 215.982 62.0418 215.129C62.236 217.371 62.0956 218.524 60.8791 219.782C60.2982 220.383 59.0287 221.626 58.2649 222.177C56.6439 223.347 51.7149 224.222 49.9659 222.618C47.6481 220.398 51.3678 218.002 51.6422 215.995C51.6657 215.823 51.7338 215.771 51.7637 215.654C52.5544 215.928 52.3087 215.983 52.1517 215.121C53.4396 214.744 53.9722 214.201 54.5921 213.038C55.8286 210.719 54.3541 211.218 56.2582 210.656L56.1098 209.561C54.4774 209.38 53.2481 209.024 52.1997 208.518C50.8383 196.008 52.6028 182.627 52.641 170.182L48.6019 163.414C48.5621 163.333 48.4944 163.221 48.4607 163.136C46.8536 159.094 50.9466 152.659 43.808 144.921C43.2266 144.291 43.6941 144.692 43.1256 144.217C40.1583 141.735 33.7157 141.467 30.6667 144.491C24.2188 150.887 33.296 157.258 26.8538 169.859C22.3975 178.575 27.5146 182.208 28.0105 184.437C26.313 183.861 24.8963 182.967 23.5697 181.981C20.1887 179.47 21.1678 174.133 15.0213 170.513C8.99845 166.965 -0.618064 171.069 6.57881 181.683C9.19413 185.54 9.36483 186.429 9.42538 192.27C9.56694 205.911 15.7885 195.78 18.7868 209.077C20.4896 216.628 22.1848 215.71 22.8169 218.1C20.7436 218.894 13.8623 219.238 11.0385 219.477C6.69841 219.845 3.54639 220.534 0 221.757C0.440555 222.326 0.504519 222.638 1.94124 223.236C2.38256 223.42 3.51876 223.73 4.03085 223.838C8.32286 224.739 15.8218 224.885 19.8178 225.544C30.0963 227.237 72.731 228.136 84.8027 228.634C126.152 230.338 335.194 230.816 349.999 222.507C349.519 221.245 349.963 221.724 348.756 221.041C346.376 219.695 324.657 218.007 322.819 217.994L325.99 213.08C330.161 205.533 325.337 204.695 333.765 198.99C342.127 193.33 334.396 186.881 341.392 177.469C347.956 168.64 340.336 160.902 331.428 166.129C325.385 169.675 327.017 174.467 322.098 178.711C320.365 180.207 320.503 179.379 318.538 180.457C317.921 180.796 318.537 180.605 317.713 181.053C317.8 179.705 320.766 178.875 320.927 174.062C321.122 168.222 317.372 163.587 316.29 157.556C315.557 153.469 316.845 152.057 317.243 148.655C317.55 146.03 317.835 141.579 316.726 139.292C315.392 136.543 308.628 132.341 302.37 136.572C299.253 138.679 298.168 141.841 297.892 142.002C294.785 142.511 282.988 142.678 280.72 141.714C281.17 143.711 283.271 142.904 285.594 142.879L302.639 142.902C302.652 143.121 303.299 151.114 303.743 150.222C303.778 150.151 303.879 150.493 303.973 150.611C305.37 148.867 305.208 145.589 306.321 143.272C307.396 141.035 306.501 142.037 307.909 141.931C308.31 142.86 306.936 145.966 306.61 147.498C306.767 147.434 306.933 147.343 307.067 147.276C308.437 146.596 309.151 145.947 310.917 146.016C310.535 147.353 309.801 147.216 308.451 148.163C304.097 151.215 305.739 153.896 304.455 157.929C304.426 158.018 304.324 158.345 304.302 158.28C304.279 158.216 304.211 158.522 304.137 158.626C304.777 174.162 309.546 200.681 309.942 216.493C306.662 217.429 300.185 221.284 298.583 223.145L298.108 223.755C298.039 223.836 297.947 223.955 297.871 224.041L295.657 226.065C295.388 226.274 295.557 226.266 294.704 226.735C290.429 226.266 285.523 225.644 281.507 225.302C273.887 224.654 247.235 220.863 243.711 222.103C241.623 224.904 233.354 223.629 229.138 223.64L132.611 223.742C129.431 223.76 123.847 224.147 121.083 222.865C119.294 222.036 118.508 222.204 120.315 221.296C119.519 219.79 118.708 219.001 117.221 218.208L117.693 218.846C119.472 221.034 119.063 219.808 119.43 221.448C117.552 220.975 115.609 218.433 115.318 216.355L117.347 218.244V218.244ZM323.623 188.882C325.082 188.397 328.846 180.707 329.942 178.737C331.209 176.458 335.211 170.128 337.357 169.559C336.845 171.087 336.072 171.626 334.853 172.343C334.978 172.455 335.159 172.534 335.292 172.592C338.297 173.9 337.575 172.408 338.215 173.584C335.442 175.088 334.159 173.296 332.034 176.79C331.235 178.103 328.967 181.867 328.604 183.223C330.737 182.535 333.071 180.917 335.833 181.568C334.793 182.221 331.877 182.683 329.946 183.757C325.668 186.137 322.903 192.473 319.795 198.195C322.581 197.345 324.53 195.06 327.672 195.276C327.188 195.749 327.451 195.545 326.738 195.971L326.084 196.304C326.067 196.313 324.931 196.742 324.773 196.805C323.701 197.228 322.929 197.605 321.989 198.125C318.392 200.115 317.606 201.005 315.582 204.036L310.149 210.768C309.772 209.173 310.763 209.184 311.601 207.317C314.644 200.533 312.241 194.321 313.288 192.492C315.366 197.086 313.226 201.742 313.643 205.695L318.756 198.073C319.36 197.202 319.669 196.519 320.272 195.506C321.954 192.675 322.482 193.25 322.634 189.082C322.69 187.52 322.143 181.945 322.299 181.607C323.472 183.528 323.562 186.231 323.622 188.881L323.623 188.882ZM306.665 181.372C307.511 180.326 306.456 178.849 309.482 176.966C311.896 175.464 313.308 174.358 314.612 174.95C313.422 177.683 311.382 176.034 306.665 181.372V181.372ZM12.3011 177.329C11.445 176.146 10.649 175.7 10.2304 174.166C13.3359 175.663 20.6187 188.521 21.6826 191.61C24.0031 189.311 21.4316 189.336 23.79 185.002C24.782 187.613 21.6247 191.574 25.3452 197.513L29.6678 204.11C29.7731 204.266 30.432 205.179 30.4513 205.2C31.3055 206.107 30.2677 205.464 31.79 206.255C31.2847 201.384 31.0943 199.744 31.9024 194.956C32.6018 195.907 32.3308 196.57 32.1424 198.298C31.3918 205.185 33.0375 208.68 37.2534 212.939C38.6527 214.352 40.3112 215.22 41.2347 216.917C39.0134 216.295 39.5512 215.713 37.652 214.818C32.7918 212.528 28.3795 213.246 23.1818 213.344C25.9015 211.047 32.8055 212.692 35.7898 213.274C35.3019 211.284 33.0288 209.218 31.6651 207.6C25.4466 200.222 26.3046 200.017 14.8226 197.262C16.0394 194.788 24.461 199.449 25.6956 200.048C25.0496 197.856 23.9732 197.062 22.9202 194.951C22.1243 193.355 21.46 191.731 20.4139 190.206C19.367 188.679 18.2096 187.733 16.4095 186.821C12.8052 184.994 12.0362 185.991 11.5199 184.735C14.7624 184.974 15.5474 185.748 17.9685 186.498C17.6324 185.141 15.7196 181.84 14.9342 180.644C13.5035 178.468 12.9593 178.686 11.001 178.162L12.3007 177.329H12.3011ZM305.047 163.679C305.195 161.404 306.396 160.386 307.698 159.256C308.452 158.601 310.718 157.167 311.872 156.936C311.862 158.301 311.803 158.062 310.549 158.906C305.518 162.291 307.737 162.459 305.047 163.679V163.679ZM52.1517 215.121C51.3326 214.98 51.5117 214.845 51.7637 215.655C50.6245 213.449 47.5512 211.152 47.2628 209.099C48.3275 208.652 46.2784 209.185 47.8423 209.196C48.0667 209.198 47.9857 209.385 48.5973 209.099C47.5118 205.604 46.5111 203.409 45.4809 199.698C44.4582 196.014 44.3996 193.461 42.6529 190.716C36.5668 181.152 31.7306 180.662 30.7696 179.122C32.5137 177.999 36.1138 181.262 37.3151 182.364C38.3245 183.289 39.1174 184.046 40.075 185.071L42.9314 187.988C42.2536 184.508 42.0159 176.329 40.9228 172.006C39.5201 166.457 35.115 165.475 33.112 162.656C35.5317 161.757 38.7533 166.863 40.5614 167.745C40.2124 160.138 39.9467 155.412 34.0726 152.852C35.4514 152.03 36.6293 153.163 38.0441 153.682C37.7413 151.448 36.7724 150.135 37.4665 148.659C40.0973 151.722 41.7294 164.696 42.0431 169.479C42.1741 171.477 42.4261 175.159 43.604 176.681C44.043 173.325 46.6777 170.55 48.1621 168.843C49.0746 170.361 48.4266 169.889 47.267 171.519C45.2633 174.336 43.4787 178.613 43.5631 182.256C43.6702 186.876 45.5449 193.813 46.4631 198.814C47.3063 197.978 46.5244 199.361 47.3003 197.534C47.4025 197.294 47.6076 196.374 47.698 196.027C47.9671 194.99 48.1916 194.395 48.5863 193.328C49.3694 191.212 49.6389 189.891 51.1933 188.966C50.939 191.927 49.5655 193.566 49.0114 195.604C46.0479 206.503 51.5896 209.949 52.152 215.121L52.1517 215.121Z" fill="#AFAAE9" fill-opacity="0.2"/>
<path fill-rule="evenodd" clip-rule="evenodd" d="M285.804 62.6072L255.3 62.4846L255.597 61.7204C254.746 61.7204 255.007 61.5713 255.3 62.4846C252.94 63.6299 247.285 74.1018 245.366 75.2115C244.943 75.9223 245.908 75.8031 244.848 75.8061C244.226 73.3766 244.807 75.1498 243.523 73.8823C241.754 72.1367 240.975 70.4717 238.651 69.225L238.239 68.7137L237.691 68.356L237.219 67.8965L236.989 67.2361L236.444 66.836C234.775 63.6068 229.095 59.5858 226.471 55.9592C227.305 54.2011 229.262 52.3821 230.961 51.37L240.467 62.8714L241.048 63.3271L241.232 63.2465C242.049 63.2465 241.927 63.0167 241.796 63.7593C242.523 63.6825 242.37 63.5213 242.256 64.2434C243.006 64.1011 242.741 64.0345 242.543 64.8698L244.621 67.5945C246.141 66.1381 247.234 64.3112 247.53 62.5304C248.282 62.5675 248.038 62.7192 248.077 61.8805C247.136 61.8805 247.29 61.6417 247.53 62.5304C246.845 62.4335 247.165 62.5834 246.493 62.1928C248.279 59.2713 245.419 19.8306 247.483 12.7787C246.661 12.5028 245.149 13.7071 244.4 14.3494C233.272 23.8989 221.021 23.2267 206.918 22.4467C206.939 45.0611 205.307 51.4722 210.545 74.6786C211.51 78.9536 216.867 90.3247 219.561 93.8144L226.275 101.176C228.167 102.969 231.654 105.259 234.087 106.918L242.485 112.652C248.55 116.227 248.287 114.74 253.887 111.165C254.651 110.677 255.433 110.133 256.055 109.679L256.854 109.123C256.936 109.069 257.051 109 257.135 108.948L269.927 99.0242C274.003 93.7322 273.238 96.4361 277.339 88.7476C281.024 81.8403 285.771 70.5796 285.803 62.6065L285.804 62.6072Z" fill="#D1DEED"/>
<path fill-rule="evenodd" clip-rule="evenodd" d="M130.791 202.968L133.816 203.059L134.731 207.288L126.089 207.273L128.582 205.379C129.349 204.679 129.915 203.916 130.791 202.968ZM133.182 201.662C131.337 202.427 130.942 201.26 129.228 203.298C124.27 209.196 120.388 204.809 120.93 200.858C121.309 198.096 123.757 195.829 127.098 196.251C130.403 196.669 131.853 199.045 133.182 201.662ZM147.961 199.586C135.765 200.288 127.875 193.228 123.01 196.135C119.601 198.172 118.885 202.938 121.886 206.014C124.606 208.801 129.74 208.316 134.591 208.306C135.128 213.511 127.188 226.655 120.317 221.144C118.51 222.053 119.296 221.884 121.085 222.713C123.849 223.995 129.433 223.608 132.612 223.59L229.14 223.488C233.355 223.477 241.624 224.752 243.712 221.951C245.2 220.532 253.289 216.189 248.785 207.006C247.314 204.008 248.163 205.051 247.192 206.213C249.838 208.756 250.254 214.385 246.471 218.544C242.07 223.383 241.131 222.706 232.782 222.652C221.067 222.576 133.568 223.24 127.19 222.581C130.517 218.957 137.25 214.572 135.323 204.914C134.754 202.06 133.381 200.905 132.806 198.407L143.743 200.213C146.23 200.641 146.398 201.209 147.961 199.586ZM236.423 198.241C240.181 196.642 243.766 201.084 244.937 203.027C245.679 203.027 245.518 202.839 245.45 203.567L247.384 205.25C247.162 204.184 247.195 204.564 247.036 204.254C246.169 202.566 241.016 195.889 237.23 197.014C234.199 197.915 235.667 197.56 236.423 198.241ZM238.567 180.199L239.098 178.974L239.9 175.908L248.15 176.185L254.156 176.545C255.783 176.29 255.295 176.21 256.709 176.871C257.579 176.541 257.444 176.395 257.148 177.278C258.241 179.416 257.46 179.018 257.482 181.538C263.738 182.032 269.743 182.288 275.766 182.693C283.819 183.235 285.738 182.267 288.131 175.472L297.358 146.362C297.8 145.587 297.57 145.915 298.081 145.393C298.438 151.865 297.681 159.204 297.582 165.691C297.486 171.958 296.991 179.419 296.61 185.739C295.828 198.749 295.213 212.742 294.98 225.795L296.511 224.425C297.685 223.379 297.005 223.805 298.584 222.993C300.187 221.132 306.663 217.277 309.943 216.341C309.548 200.529 304.778 174.01 304.138 158.474C304.027 155.869 303.211 152.929 303.974 150.458C303.88 150.341 303.78 149.998 303.744 150.07C303.3 150.961 302.653 142.968 302.641 142.75L285.596 142.727C283.272 142.752 281.171 143.558 280.722 141.562C277.121 134.993 276.596 136.106 271.541 132.367C267.303 129.233 266.074 127.872 257.828 127.708C254.898 127.65 252.005 127.781 249.492 128.538C245.236 129.821 246.37 130.429 243.796 132.059C240.434 134.19 235.627 137.659 235.627 141.992C235.887 143.004 236.158 142.911 235.186 142.624L230.051 143.144C226.015 143.131 218.015 143.311 214.817 142.867L214.891 144.578C215.036 148.903 215.995 153.636 216.198 158.386L217.409 188.02C217.615 192.736 218.493 196.975 218.631 201.493C211.543 203.185 196.233 203.04 188.161 202.848C177.929 202.605 168.665 201.593 158.563 201.077L156.01 201.54C156.586 201.723 156.239 201.682 157.125 201.834C157.611 201.917 158.932 201.987 159.522 202.045C161.207 202.21 162.85 202.346 164.519 202.496L195.446 203.819C203.257 203.742 217.245 203.147 224.871 201.55C228.298 200.833 231.039 199.763 233.831 199.589L234.81 199.14C234.924 198.346 233.87 198.324 235.785 198.744C234.575 197.056 235.786 198.101 234.08 198.321L228.405 200.037C225.797 200.625 222.779 200.812 220.033 201.497C218.37 198.421 217.923 181.972 217.887 179.056L238.567 180.198L238.567 180.199ZM150.331 200.203L147.664 200.109C147.949 201 150.43 201.153 151.278 201.258C153.597 201.545 154.271 201.987 155.599 200.509L150.331 200.203ZM117.223 218.056L117.349 218.092L115.319 216.203C115.611 218.281 117.553 220.823 119.431 221.296C119.064 219.656 119.473 220.882 117.694 218.694L117.223 218.056ZM115.349 214.952C112.756 210.444 111.316 201.365 110.783 195.289C110.445 191.436 110.255 187.729 109.971 183.9C109.094 172.063 109.629 160.448 108.144 148.697C107.558 144.057 106.935 140.411 104.826 136.675L101.193 131.894C100.171 131.894 100.285 132.185 100.542 131.274C99.8164 131.483 100.089 131.517 100.227 130.679C99.4993 130.796 99.7384 130.887 99.8804 130.076L97.6761 127.675L91.5011 121.221C91.43 121.139 91.1469 120.96 91.106 120.763C91.0791 120.633 90.9735 120.616 90.9111 120.539C90.0716 120.057 90.6174 120.559 89.9986 119.918C89.3616 119.259 89.9009 119.896 89.4111 118.853L89.5875 118.7C87.8412 117.034 87.711 117.392 83.886 117.48C81.0065 117.547 79.3586 116.964 79.7242 119.82C81.882 120.714 87.2735 120.762 89.3328 119.652C89.9092 120.754 90.1541 120.751 90.8891 121.823C91.7153 121.603 91.5356 121.477 91.3142 122.313C92.0647 122.131 91.8747 122.02 91.7271 122.803C92.5098 122.664 92.3732 122.497 92.1786 123.262C92.9352 123.083 92.7827 122.933 92.6479 123.697C93.4749 123.546 93.3175 123.39 93.0824 124.201C93.7281 124.081 93.5306 123.99 93.4499 124.699C94.2554 124.528 94.118 124.348 93.9579 125.139L94.2815 125.705L94.8594 126.025C95.7137 125.788 95.4828 125.693 95.2629 126.583L95.5706 127.145C96.3151 127.045 96.2231 126.831 96.1179 127.498C96.9301 127.326 96.7575 127.18 96.5717 127.999L96.9679 128.458C98.3331 129.013 96.8832 128.25 97.8313 128.988C97.84 128.994 98.5337 129.655 98.5345 129.656L99.5829 130.86C100.492 130.585 100.357 130.402 100.087 131.307C100.849 131.117 100.61 131.044 100.435 131.867C101.152 131.756 100.961 131.639 100.82 132.391L101.144 133.039C103.337 136.251 103.834 135.883 105.503 140.41C107.93 146.991 108.304 164.684 108.545 172.069C108.805 180.006 109.666 197.673 111.094 204.492C111.563 206.728 113.257 212.059 113.269 213.463C114.371 214.685 114.502 215.258 114.807 216.402C116.157 215.192 115.041 216.478 115.351 214.951L115.349 214.952ZM238.435 142.726C239.164 140.857 239.623 139.882 241.158 138.102L245.319 134.881C247.393 134.135 248.632 135.662 250.821 136.221C252.844 136.738 255.237 137.148 257.366 137.251C259.891 137.374 262.423 137.2 264.904 136.781C267.162 136.401 268.833 135.005 270.326 135.38C271.834 135.757 277.117 139.613 277.203 142.757L238.435 142.726Z" fill="#7269E8"/>
<path fill-rule="evenodd" clip-rule="evenodd" d="M230.53 115.292L232.541 116.738L232.997 117.193C232.997 116.487 233.19 116.59 232.541 116.738C233.682 115.907 232.451 115.759 233.947 116.281C234.107 116.676 234.215 116.494 233.247 117.206C233.247 118.008 233.027 117.854 233.773 117.803C234.802 116.935 233.195 116.389 235.875 117.183C236.431 118.594 236.125 117.558 235.232 118.476C235.232 119.251 235.08 119.038 235.899 118.822C235.869 119.529 235.739 119.269 236.59 119.306C236.59 118.402 236.797 118.593 235.899 118.822L237.117 118.213C238.086 119.319 239.762 120.331 241.045 120.982C242.02 121.478 245.773 122.603 243.699 122.781C244.027 123.45 243.067 123.323 244.56 123.336L245.528 123.757C245.528 122.766 245.707 123.102 244.56 123.336L248.298 123.302C249.671 123.357 248.271 122.938 248.867 123.418C250.094 123.488 249.891 123.848 249.891 122.816L249.885 123.011C252.769 122.535 268.46 111.944 271.121 109.359C272.137 108.373 272.506 108.109 273.575 107.235C278.737 103.015 285.836 92.6851 289.19 83.5307C293.515 71.7284 294.329 63.4593 295.327 50.5049C295.814 44.1907 295.778 18.5806 294.742 13.1936C288.155 11.8212 267.831 18.9837 255.334 8.30323C253.702 6.9089 247.989 1.58515 247.111 1.19493L245.937 0.732422C246.304 1.4557 245.321 1.4118 247.111 1.19493L239.429 8.89253C228.121 17.4262 215.298 15.5186 203.135 14.2223L204.341 14.0596L203.197 13.5763C202.01 14.5671 201.186 13.9797 199.653 14.2288C199.157 34.905 197.891 55.9839 202.798 74.9656C205.747 86.3708 212.528 99.5068 220.555 106.436L227.465 111.879C228.411 112.633 228.008 112.058 228.279 112.731L228.184 113.927C228.313 113.847 228.643 113.597 229.157 113.482C229.519 113.401 229.976 113.481 230.395 113.603L229.278 114.796L229.751 114.947L230.456 115.335C230.456 114.574 230.607 114.81 229.751 114.947C230.856 113.966 228.91 114.315 231.097 114.106L232.615 115.818C232.652 115.74 232.783 115.994 232.842 116.099L230.53 115.292V115.292ZM247.483 12.7788C249.07 14.2257 248.973 14.3597 250.868 15.6133C261.274 22.4937 274.854 24.8759 286.668 22.5187C288.352 30.1289 287.04 54.56 285.803 62.607C285.771 70.5801 281.024 81.8404 277.34 88.7481C273.238 96.4366 274.003 93.7327 269.927 99.0247L257.135 108.948C257.051 109.001 256.936 109.07 256.854 109.123L256.056 109.68C255.433 110.134 254.651 110.678 253.887 111.165C248.287 114.741 248.55 116.228 242.485 112.652L234.088 106.918C231.654 105.259 228.167 102.97 226.275 101.176L219.561 93.8148C216.867 90.3252 211.51 78.954 210.545 74.6791C205.307 51.4727 206.939 45.0616 206.918 22.4472C221.022 23.2276 233.272 23.8998 244.4 14.3499C245.149 13.7076 246.661 12.5033 247.483 12.7792L247.483 12.7788Z" fill="#263238"/>
<path fill-rule="evenodd" clip-rule="evenodd" d="M245.45 203.566C245.517 202.837 245.679 203.026 244.937 203.026C244.923 203.749 244.741 203.58 245.45 203.566C245.957 205.462 246.497 205.495 247.192 206.212C248.163 205.05 247.314 204.006 248.785 207.005C253.289 216.188 245.2 220.531 243.712 221.95C247.236 220.71 273.888 224.5 281.509 225.149C285.525 225.491 290.43 226.113 294.706 226.582C295.558 226.113 295.389 226.121 295.659 225.912L297.872 223.888C297.948 223.803 298.041 223.683 298.109 223.602L298.584 222.992C297.005 223.803 297.686 223.378 296.512 224.424L294.98 225.794C295.213 212.741 295.828 198.748 296.61 185.738C296.99 179.418 297.486 171.957 297.582 165.69C297.681 159.203 298.438 151.864 298.081 145.393C297.57 145.914 297.8 145.586 297.359 146.361L288.131 175.471C285.738 182.266 283.819 183.234 275.767 182.693C269.743 182.287 263.738 182.031 257.482 181.537C257.46 179.018 258.241 179.415 257.148 177.277C257.444 176.394 257.58 176.54 256.71 176.87C255.295 176.209 255.783 176.289 254.157 176.544L248.151 176.185C249.515 176.79 252.48 177.015 254.157 176.544L256.71 176.87C256.622 177.502 256.496 177.346 257.148 177.277C256.755 182.065 256.651 189.282 255.537 193.423C253.718 193.755 242.468 192.855 239.564 192.278L237.846 191.559C236.388 189.904 238.956 184.573 238.568 180.198C239.172 179.896 238.978 180.844 239.098 178.973L238.568 180.198L217.888 179.056C217.924 181.973 218.371 198.422 220.034 201.498C222.78 200.812 225.798 200.625 228.406 200.038L234.081 198.322C235.787 198.101 234.576 197.056 235.786 198.744C233.871 198.324 234.925 198.345 234.811 199.141L235.786 198.744C236.645 198.987 236.423 199.142 236.423 198.24C235.667 197.559 234.199 197.914 237.231 197.013C241.016 195.888 246.17 202.565 247.036 204.253C247.196 204.563 247.163 204.183 247.385 205.249L245.451 203.566H245.45Z" fill="#2A2B2A"/>
<path fill-rule="evenodd" clip-rule="evenodd" d="M236.422 198.24C236.422 199.142 236.644 198.986 235.785 198.744L234.81 199.141L233.831 199.589C231.038 199.764 228.298 200.833 224.871 201.551C217.245 203.148 203.257 203.743 195.446 203.819L164.519 202.497C162.85 202.346 161.207 202.211 159.522 202.045C158.932 201.987 157.611 201.917 157.125 201.834C156.239 201.682 156.586 201.723 156.01 201.54L158.563 201.077L157.679 200.653C156.842 200.386 157.428 200.166 155.599 200.509C154.271 201.987 153.597 201.545 151.278 201.258C150.429 201.153 147.949 200.999 147.664 200.108L150.331 200.203C149.199 199.495 151.424 200.283 149.076 199.569C148.012 199.246 148.298 199.536 147.961 199.585C146.397 201.209 146.23 200.641 143.743 200.213L132.806 198.406C133.381 200.905 134.753 202.06 135.323 204.914C137.25 214.572 130.517 218.957 127.189 222.58C133.568 223.24 221.067 222.576 232.782 222.652C241.131 222.705 242.071 223.383 246.471 218.544C250.253 214.384 249.837 208.756 247.192 206.213C246.497 205.496 245.957 205.463 245.45 203.567C244.74 203.581 244.923 203.75 244.937 203.027C243.766 201.084 240.18 196.642 236.423 198.241L236.422 198.24Z" fill="#AFAAE9" fill-opacity="0.2"/>
<path fill-rule="evenodd" clip-rule="evenodd" d="M67.0419 118.998C67.6668 122.62 67.3319 131.075 67.3417 135.185C67.3898 155.068 67.6271 149.727 54.7526 152.038L53.9498 153.695C53.9222 153.625 53.8601 153.943 53.8026 154.062L52.6418 170.03C52.6036 182.476 50.8391 195.856 52.2005 208.367C53.2489 208.873 54.4782 209.228 56.1106 209.41L61.1539 209.398C65.3747 208.895 64.3074 207.6 64.695 203.389C64.9845 200.244 65.2366 197.19 65.5405 194.246C67.5552 174.733 68.8712 160.404 72.1133 140.712C73.3929 143.962 83.2804 202.656 83.6714 208.259L85.1516 208.637C89.3861 209.174 90.7933 209.144 94.7886 208.285C95.5758 204.546 94.4207 186.957 94.1478 181.836C93.9151 177.462 93.7826 173.176 93.4912 168.883C93.2527 165.375 92.47 159.709 92.7747 156.362C92.0582 155.523 92.2126 154.944 91.9557 153.494C88.9702 153.37 79.7227 152.658 77.5225 151.577C75.7543 147.78 76.4378 122.403 76.8462 116.517C76.1411 115.813 78.043 115.73 75.4178 116.054L73.9796 116.114C72.6511 116.808 71.8884 116.838 69.9854 116.7C70.0876 116.578 70.4404 116.176 70.8991 115.779C69.5483 116.367 67.9825 117.774 67.0423 118.998L67.0419 118.998Z" fill="#263238"/>
<path fill-rule="evenodd" clip-rule="evenodd" d="M247.53 62.5321C247.29 61.6435 247.136 61.8823 248.077 61.8823C250.034 59.1004 252.894 52.9834 254.685 50.1326L255.926 48.3587L261.722 37.9004L264.562 38.5673C265.636 38.8724 266.075 39.0192 267.371 39.5135L269.887 40.9351C269.662 42.5436 267.819 45.2646 266.55 46.2672L264.616 48.7549C264.498 49.655 264.769 49.5206 263.95 49.3552C264.198 50.1826 264.418 50.0342 263.632 50.0342L262.928 51.3036C262.87 52.1246 263.111 51.9652 262.382 51.9652C260.497 55.3512 257.228 58.4509 255.598 61.7207L255.301 62.4848L285.804 62.6075C287.041 54.5605 288.353 30.1298 286.669 22.5192C274.855 24.8764 261.275 22.4942 250.869 15.6138C248.974 14.3606 249.07 14.2262 247.484 12.7793C245.42 19.8312 248.279 59.2719 246.494 62.1934C247.166 62.584 246.846 62.4341 247.531 62.531L247.53 62.5321Z" fill="white"/>
<path fill-rule="evenodd" clip-rule="evenodd" d="M96.9673 128.458L96.571 127.998C96.7568 127.179 96.9294 127.325 96.1172 127.498C96.2224 126.831 96.3144 127.045 95.5699 127.145L95.2622 126.582C95.4821 125.693 95.7126 125.787 94.8587 126.025L94.2808 125.704L93.9572 125.139C94.1173 124.348 94.255 124.528 93.4492 124.699C93.5299 123.989 93.7274 124.081 93.0817 124.201C93.3172 123.389 93.4746 123.545 92.6472 123.697C92.7816 122.933 92.9341 123.083 92.1779 123.261C92.3725 122.497 92.5091 122.663 91.7264 122.803C91.874 122.019 92.064 122.13 91.3135 122.313C91.5353 121.477 91.715 121.603 90.8884 121.822C90.1534 120.75 89.9082 120.753 89.3321 119.652C87.2728 120.762 81.8817 120.714 79.7235 119.819C79.3579 116.964 81.0058 117.547 83.8853 117.48C87.7103 117.391 87.8405 117.034 89.5868 118.699L88.9752 114.748C97.0021 114.163 94.3815 108.263 93.8838 94.6456C93.604 86.9976 90.5872 80.4653 85.0488 78.2599L84.5178 75.0859L84.4709 78.5343C82.9599 78.0998 82.5368 77.6157 81.3442 77.439C82.505 79.0036 83.2889 82.293 84.0337 84.19C83.438 84.9481 84.2218 84.3232 82.9365 85.1392C82.7692 85.2452 82.1303 85.4473 81.8745 85.5559C82.7529 88.0248 83.3899 86.0457 83.2707 90.1061C83.2022 92.4462 82.7737 93.0927 82.3547 95.1634C80.552 104.066 81.0565 102.954 77.9742 102.79C77.1211 101.805 77.699 102.789 77.2456 101.503C77.0344 100.903 77.0503 100.777 76.9973 100.142L77.3781 93.137L76.6101 102.149C76.2536 102.117 75.3638 102.04 74.9372 101.98C74.8161 101.962 74.6704 101.937 74.5584 101.92L73.3548 101.702C71.4836 102.222 69.5071 101.864 67.4637 101.907C63.3832 101.992 65.706 102.361 63.5017 103.521C63.6963 106.152 64.5891 109.583 58.5523 107.362C58.5054 107.345 57.6337 106.934 57.586 106.903C56.5758 106.235 57.4047 106.998 56.8919 106.138C55.1543 106.555 56.2791 106.389 55.7594 105.562L54.3375 105.243C54.2262 105.32 55.1626 105.983 52.9719 105.689C52.059 105.566 52.5779 105.652 52.0121 105.198C51.799 105.027 51.5477 104.589 51.3868 104.396C49.6333 102.29 50.8482 103.039 51.1264 102.808C49.9819 101.834 50.7442 102.839 50.2457 101.561C48.3306 101.017 49.2454 101.039 47.8238 99.6219C47.7087 102.894 46.3814 108.416 46.8901 111.022C47.6421 114.875 49.8767 115.656 54.381 115.372L54.4355 117.442L60.4281 117.124L59.2252 114.695C60.3985 113.864 59.6836 114.283 61.2721 113.88C66.0035 112.68 70.3027 111.297 75.1057 111.912C74.6946 113.038 74.8354 112.883 74.251 113.673C73.4445 113.544 73.6019 113.32 73.5368 114.005L72.8991 114.195L72.5959 114.697C71.6338 115.225 71.7144 115.067 70.8988 115.778C70.4401 116.175 70.0873 116.576 69.9851 116.698C71.8882 116.836 72.6508 116.807 73.9793 116.112L72.8416 116.357L72.5959 114.697L72.8991 114.195L73.5368 114.005C74.4433 114.254 74.318 114.516 74.251 113.673C75.0254 112.592 75.1393 112.677 76.5439 112.578L76.6745 115.15C74.8789 115.876 75.8778 115.693 75.4175 116.053C78.0427 115.729 76.1408 115.812 76.8459 116.516C76.4372 122.401 75.7536 147.779 77.5223 151.576C79.7224 152.656 88.9699 153.368 91.9554 153.493C92.2124 154.943 92.0579 155.521 92.7744 156.361L92.634 154.175L94.7164 153.753C94.4757 147.089 92.3191 136.45 91.3142 129.155C90.6015 123.98 89.8957 123.442 90.8881 121.821C90.6504 122.634 90.4906 122.487 91.3131 122.312C91.0879 123.094 90.9323 122.947 91.726 122.802C91.5727 123.582 91.4092 123.443 92.1775 123.26C91.9781 124.02 91.8581 123.84 92.6469 123.696C92.517 124.452 92.3429 124.312 93.0814 124.2C92.8573 124.994 92.6669 124.889 93.4489 124.698C93.3565 125.386 93.2282 125.199 93.9568 125.138L94.2804 125.704C94.174 126.441 94.0745 126.22 94.8583 126.024C94.727 126.785 94.5363 126.648 95.2618 126.582C95.0472 127.361 94.8254 127.271 95.5695 127.144C95.4749 127.854 95.364 127.653 96.1168 127.497C96.0263 128.213 95.8628 128.057 96.5706 127.998C96.3867 128.752 96.2224 128.63 96.9669 128.457C97.4093 129.107 97.552 129.507 98.1421 130.045C99.3271 131.125 98.734 130.583 99.5818 130.859C99.3926 131.654 99.2647 131.465 100.086 131.306C99.8403 132.101 99.6435 131.978 100.434 131.866C100.247 132.599 100.085 132.452 100.819 132.39C100.684 133.167 100.463 133.038 101.143 133.038L100.819 132.39C100.96 131.638 101.151 131.755 100.434 131.866C100.609 131.044 100.848 131.116 100.086 131.306C100.355 130.401 100.491 130.585 99.5818 130.859L98.5334 129.655C98.5327 129.655 97.8389 128.994 97.8302 128.987C96.8821 128.249 98.3321 129.013 96.9669 128.457L96.9673 128.458ZM100.227 130.678C100.089 131.517 99.8165 131.483 100.542 131.273C100.285 132.184 100.171 131.894 101.193 131.894C101.122 130.957 101.394 131.094 100.542 131.273C100.752 130.468 100.985 130.563 100.227 130.678C100.377 129.998 100.531 130.174 99.8804 130.075C99.4732 129.013 100.089 129.798 99.0656 128.664C98.2655 127.777 98.8275 128.239 97.6762 127.675L99.8804 130.076C99.7385 130.887 99.4993 130.796 100.227 130.679V130.678ZM90.9108 120.538C90.5099 119.807 90.9365 120.312 90.3305 119.589C89.8207 118.98 90.1436 119.375 89.4104 118.853C89.9006 119.896 89.3612 119.259 89.9979 119.918C90.6167 120.558 90.0709 120.057 90.9104 120.538H90.9108ZM82.3445 101.201C85.6521 100.331 91.7555 99.9304 91.3456 105.739C88.4207 106.164 87.7039 105.106 84.7823 104.784C82.3733 104.519 81.2356 104.189 80.3605 101.947L82.3442 101.201H82.3445Z" fill="#99C7F0"/>
<path fill-rule="evenodd" clip-rule="evenodd" d="M61.1537 209.397C61.2529 210.385 61.1529 210.089 61.5852 210.786C61.9258 211.24 61.827 210.827 62.0908 211.705C62.282 212.341 62.1468 212.499 62.1472 212.951L62.0428 214.976C62.9379 215.829 62.1457 214.065 62.9481 215.949C66.9275 216.318 80.3769 214.989 85.7162 215.626C85.7162 213.682 85.3854 212.557 86.6404 211.225L87.1294 211.376L86.7449 209.245L85.1511 208.636L83.6708 208.258C83.2802 202.656 73.3924 143.961 72.1127 140.711C68.871 160.403 67.5546 174.732 65.5399 194.245C65.236 197.189 64.984 200.243 64.6944 203.388C64.3065 207.599 65.3742 208.894 61.1533 209.397H61.1537Z" fill="white"/>
<path fill-rule="evenodd" clip-rule="evenodd" d="M62.7073 120.158C60.0174 120.48 56.7563 120.424 54.0127 119.975L51.3955 151.578C51.506 151.675 51.6661 151.77 51.7623 151.824C51.8538 151.875 52.0113 151.99 52.1199 152.046L52.7815 152.351C52.8909 152.394 53.4545 152.457 53.6274 152.485L53.8023 154.062C53.8598 153.944 53.9219 153.626 53.9495 153.696L54.7523 152.038C67.6268 149.728 67.3895 155.069 67.3414 135.186C67.3316 131.075 67.6665 122.621 67.0416 118.998C65.4501 119.714 64.8835 121.16 62.7073 120.158Z" fill="#99C7F0"/>
<path fill-rule="evenodd" clip-rule="evenodd" d="M53.0835 5.89371C52.744 8.50865 52.3307 9.7743 52.4155 12.7045C52.4957 15.4622 53.4541 16.7267 53.5059 19.0767C56.6053 16.869 52.3981 16.9477 53.7618 9.18992C54.2614 6.34789 54.6769 7.44776 53.0835 5.89371ZM53.8995 19.9873C54.1906 19.6565 55.1909 19.7118 54.5891 19.1664C53.7951 18.4469 56.002 18.0317 53.8995 19.5316V19.9869V19.9873ZM70.5907 45.4907L76.3107 45.4895L75.1378 25.0003C73.9853 26.1146 74.0553 24.6298 73.8763 26.8216C70.9332 26.8216 63.3457 27.3344 61.1524 26.2959C57.8933 24.7528 57.6102 22.9013 56.4785 21.0138C54.6997 18.0472 55.8423 19.1698 54.345 20.4426C55.7393 22.2211 58.7506 26.6358 60.8742 27.5918C63.6474 28.8404 70.4726 27.3643 73.9217 28.1444L75.1412 44.5729C73.5432 44.4131 71.8185 44.6126 70.5907 45.4907ZM74.5458 22.3509L72.8305 13.1621C70.5339 14.8202 72.2231 15.4183 73.2245 22.7188C73.5304 24.947 73.622 24.9148 74.3312 25.4538C74.9921 23.6488 74.7926 24.5314 74.5455 22.3513L74.5458 22.3509ZM72.4316 12.2511C70.2803 7.7566 68.9908 3.19171 65.3983 1.5612C86.138 0.72059 108.51 1.45182 129.425 1.46847C140.2 1.47718 150.979 1.48891 161.753 1.45296C166.577 1.43706 172.114 0.782661 175.141 3.87336C177.106 5.8797 178.417 8.89281 179.401 11.7878C179.5 12.0785 179.757 12.9286 179.875 13.1803C180.367 14.2313 179.467 12.6678 180.202 13.7896C180.597 14.3929 180.754 14.4357 180.877 14.5254C182.073 10.7262 177.045 3.62167 175.253 2.36964C170.747 -0.777449 164.927 0.0976053 159.021 0.152485L67.9572 0.267545C59.9924 0.28117 58.4391 -0.424702 53.9336 4.51073C56.7821 7.84706 52.8386 4.38431 58.6385 2.16791C61.9113 0.917023 65.7518 2.32877 67.229 4.7522C67.5991 5.35891 67.6938 5.67229 68.017 6.22866C69.3969 8.60441 70.9018 10.5233 71.2152 14.0678C73.7434 12.3147 71.5986 14.0122 72.432 12.2511H72.4316ZM53.4541 5.42136C53.5968 5.52355 53.8764 5.5701 53.8817 5.72869C53.8848 5.81952 54.1516 5.90544 54.1437 5.88084C54.1077 5.76994 54.4495 6.0996 53.4768 4.96642L53.4537 5.42174L53.4541 5.42136ZM214.891 144.578L214.817 142.867C218.016 143.311 226.015 143.131 230.051 143.144L235.186 142.624C236.158 142.911 235.887 143.004 235.627 141.992C234.87 141.992 235.069 141.825 235.186 142.624L215.41 142.478C214.492 137.982 210.292 131.849 208.131 129.819C198.908 121.152 194.919 117.613 192.109 105.477C187.116 83.9242 184.682 46.6356 182.893 23.1605C182.766 21.4948 182.583 20.3408 182.308 18.6955L181.592 15.2945C180.81 13.9354 181.726 15.0996 180.876 14.5254C180.116 16.9363 181.394 20.7628 181.683 23.6321C182.009 26.8659 182.126 30.3513 182.276 33.6494C182.947 48.5068 185.863 75.2236 188.041 89.2582C190.969 108.129 190.882 114.332 202.363 125.993C216.828 140.684 211.057 137.271 214.89 144.579L214.891 144.578Z" fill="#7269E8"/>
<path fill-rule="evenodd" clip-rule="evenodd" d="M53.9332 4.51116C53.2856 4.51116 53.4192 4.34235 53.4768 4.96647C54.4495 6.09965 54.1077 5.76999 54.1437 5.88089C54.1516 5.90549 53.8848 5.81995 53.8817 5.72874C53.8761 5.57015 53.5968 5.5236 53.4541 5.42141C52.8152 5.42141 52.9424 5.26699 53.0835 5.89338C54.6773 7.44743 54.2614 6.34756 53.7618 9.18959C52.3981 16.947 56.6049 16.8687 53.5059 19.0763C53.3458 19.7016 53.2372 19.5317 53.8995 19.5317C56.002 18.0314 53.7947 18.4469 54.5891 19.1664C55.1909 19.7118 54.1906 19.6566 53.8995 19.9874C53.8238 20.6122 53.6952 20.4427 54.345 20.4427C55.8423 19.1698 54.6996 18.0473 56.4785 21.0138C57.6102 22.9013 57.8933 24.7528 61.1524 26.2959C63.3457 27.3345 70.9336 26.8216 73.8763 26.8216C74.0553 24.6298 73.9853 26.1146 75.1378 25.0004C75.2362 24.0387 75.285 24.6579 75.0409 23.6C74.7987 22.5523 74.6912 22.6303 74.5458 22.351C74.793 24.5311 74.9924 23.6484 74.3316 25.4534C73.6223 24.9145 73.5304 24.947 73.2249 22.7185C72.2235 15.4179 70.5343 14.8199 72.8309 13.1618C73.1761 11.451 72.8979 12.7515 72.4316 12.2511C71.5982 14.0122 73.7431 12.3147 71.2148 14.0679C70.9014 10.5234 69.3966 8.60408 68.0166 6.22871C67.6934 5.67234 67.5988 5.35896 67.2286 4.75225C65.7514 2.3292 61.9109 0.917073 58.6382 2.16796C52.8386 4.38436 56.7817 7.84711 53.9332 4.51078V4.51116Z" fill="#AFAAE9" fill-opacity="0.2"/>
<path fill-rule="evenodd" clip-rule="evenodd" d="M89.6561 33.3793C87.0725 23.1761 103.428 23.7101 101.898 33.6616L94.8201 33.8327L92.986 33.9269L89.6561 33.3793ZM93.0533 18.1188C97.4672 16.2385 99.7945 22.8427 96.3662 24.2923C92.3297 25.9988 88.7397 19.9563 93.0533 18.1188ZM83.0757 27.2747C85.0079 42.4758 109.169 43.1748 107.2 26.3728C106.51 20.4802 100.846 14.8567 94.3761 14.809C87.4688 14.7583 82.1344 19.8716 83.0757 27.2747Z" fill="url(#paint0_linear_639_12478)"/>
<path fill-rule="evenodd" clip-rule="evenodd" d="M203.197 13.5766L197.41 13.2996C196.234 16.8774 196.149 41.0973 196.415 46.3605C196.913 56.1917 197.879 67.1223 200.571 75.8319C205.417 91.5136 211.934 102.33 224.695 111.405C225.757 112.16 228.783 113.829 229.279 114.796L230.395 113.603C229.976 113.481 229.519 113.401 229.157 113.482C228.644 113.597 228.314 113.847 228.185 113.927L228.279 112.731C228.008 112.058 228.411 112.633 227.465 111.88L220.555 106.437C212.529 99.5072 205.747 86.3712 202.799 74.966C197.892 55.9842 199.158 34.9053 199.653 14.2292C201.186 13.9805 202.01 14.5675 203.197 13.5766H203.197ZM230.456 115.336L230.531 115.292L232.842 116.099C232.783 115.994 232.653 115.74 232.616 115.818L231.098 114.106C228.911 114.315 230.857 113.966 229.752 114.947C230.607 114.81 230.457 114.574 230.457 115.335L230.456 115.336ZM232.997 117.193L233.247 117.206C234.215 116.494 234.107 116.676 233.947 116.281C232.451 115.76 233.682 115.907 232.541 116.738C233.19 116.59 232.997 116.488 232.997 117.193V117.193ZM234.355 118.154L235.233 118.476C236.125 117.558 236.432 118.594 235.876 117.183C233.195 116.389 234.803 116.935 233.773 117.803L234.355 118.154H234.355ZM236.59 119.306C238.594 120.546 241.198 122.354 243.699 122.781C245.773 122.604 242.02 121.478 241.045 120.982C239.762 120.331 238.086 119.319 237.117 118.213L235.899 118.822C236.797 118.593 236.59 118.402 236.59 119.306ZM245.528 123.758C247.232 124.278 247.311 124.151 248.867 123.418C248.271 122.938 249.672 123.357 248.298 123.303L244.56 123.336C245.707 123.102 245.528 122.767 245.528 123.758ZM247.11 1.19493C245.321 1.4118 246.304 1.4557 245.937 0.732422C242.442 1.07419 241.191 5.26325 233.759 10.0469C223.026 16.955 209.669 13.6168 204.341 14.06L203.135 14.2227C215.298 15.5186 228.121 17.4266 239.429 8.89291L247.11 1.19531V1.19493Z" fill="#7269E8" fill-opacity="0.5"/>
<path fill-rule="evenodd" clip-rule="evenodd" d="M63.8656 55.7436C63.4266 59.013 63.7546 61.8946 64.7163 64.7151C65.5168 62.5755 66.4155 58.586 67.4983 56.4673C69.3987 56.3776 71.5856 56.5426 73.4008 56.3659C75.5914 56.1528 76.2689 55.2501 78.5179 54.9753C79.3986 56.884 80.1635 58.9888 80.5007 61.422L81.3576 61.592C81.4258 61.6079 81.5756 61.6359 81.6513 61.6552C82.3125 61.8232 82.0934 61.6173 82.8568 62.0405C82.3296 65.3984 79.6015 65.3813 77.1076 70.4614L76.8919 74.2644C78.8918 75.8551 79.3755 75.4524 81.3451 77.4368C82.5374 77.6136 82.9609 78.0973 84.4718 78.5321L84.5187 75.0838C83.6482 68.6844 83.5456 64.1554 83.6815 57.3231C83.7901 51.8562 81.7361 45.0136 76.3117 45.4882L70.5917 45.4894C68.2878 45.8735 66.3746 47.3992 65.4503 48.8904C64.2138 50.8854 64.0291 53.1529 63.8668 55.7433L63.8656 55.7436Z" fill="#433D51"/>
<path fill-rule="evenodd" clip-rule="evenodd" d="M63.8657 55.7441L63.4434 59.0131C63.5035 59.1266 63.552 59.183 63.5705 59.3764L67.0306 68.4404C67.1154 68.5407 67.2407 68.5622 67.2831 68.7432C67.4489 69.4494 70.5445 73.4087 74.7093 71.7309C74.8361 71.6798 74.9269 71.6185 75.0571 71.5651L76.4606 71.0307L77.1074 70.4626C79.6012 65.3826 82.3293 65.3992 82.8565 62.0417C82.0931 61.6182 82.3123 61.8241 81.6511 61.6564C81.5758 61.6375 81.4255 61.6091 81.3574 61.5932L80.5005 61.4233C80.1633 58.99 79.3987 56.8849 78.5176 54.9766C76.2687 55.2513 75.5916 56.154 73.4005 56.3671C71.5853 56.5439 69.3988 56.3785 67.4981 56.4685C66.4156 58.5873 66.176 60.1315 65.3755 62.2711C64.4138 59.4502 63.4267 59.0142 63.8654 55.7449L63.8657 55.7441Z" fill="#FFBF9D"/>
<path fill-rule="evenodd" clip-rule="evenodd" d="M242.814 179.669L253.166 180.436C253.332 182.095 253.027 183.602 252.894 185.268C252.859 185.701 252.771 187.22 252.696 187.595L251.896 189.835L241.321 188.737L242.815 179.67L242.814 179.669ZM239.098 178.974C238.977 180.845 239.172 179.897 238.567 180.199C238.955 184.574 236.388 189.905 237.846 191.56L239.563 192.28C242.468 192.856 253.718 193.756 255.537 193.424C256.65 189.283 256.755 182.066 257.148 177.278C256.496 177.347 256.622 177.504 256.709 176.871L254.156 176.545C252.479 177.016 249.514 176.791 248.15 176.186L239.9 175.908L239.098 178.975V178.974Z" fill="white"/>
<path fill-rule="evenodd" clip-rule="evenodd" d="M255.926 48.357L254.685 50.131C252.893 52.9817 250.034 59.0988 248.077 61.8806C248.038 62.7197 248.282 62.5676 247.53 62.5305C247.234 64.3113 246.141 66.1382 244.621 67.5946L242.543 64.8699C242.741 64.0346 243.006 64.1012 242.256 64.2435C242.37 63.5214 242.524 63.6826 241.796 63.7594C241.927 63.0168 242.049 63.2466 241.232 63.2466L241.796 63.7594C241.678 64.5103 241.513 64.3605 242.256 64.2435L242.543 64.8699C241.918 67.0912 242.979 65.1133 241.436 66.8876C240.77 67.6536 240.729 67.6964 239.893 68.2551L240.233 69.0677C241.732 70.364 242.167 71.2019 243.708 72.2064L260.171 53.3224C260.233 53.2501 260.318 53.1452 260.381 53.0737C260.443 53.0025 260.532 52.9003 260.596 52.8303C262.091 51.1866 264.938 47.2742 266.55 46.2663C267.82 45.2637 269.662 42.5428 269.888 40.9342L267.372 39.5126C266.076 39.0183 265.637 38.8715 264.563 38.5664L265.315 39.6424C264.128 40.5716 263.551 41.4754 262.675 42.5893L255.347 50.5242L255.926 48.3578L255.926 48.357ZM263.949 49.354C264.769 49.5194 264.497 49.6537 264.615 48.7537C263.56 48.7537 263.64 48.4418 263.949 49.354L263.632 50.033C264.418 50.033 264.197 50.1813 263.949 49.354ZM262.928 51.3028C262.111 51.2449 262.35 51.081 262.381 51.9644C263.111 51.9644 262.869 52.1237 262.928 51.3028Z" fill="#AFAAE9"/>
<path fill-rule="evenodd" clip-rule="evenodd" d="M52.3441 95.0153C52.2388 94.9063 51.8581 94.5543 51.7956 94.507C50.0486 93.1895 52.8872 94.9786 51.2275 94.3155C50.0962 95.5157 50.2764 95.5562 48.7322 95.9551C48.9937 96.8275 49.2874 96.7923 48.4684 96.5751C48.7019 97.3207 48.7144 97.0258 47.8549 96.8502C47.912 97.5425 48.0846 97.3896 47.4219 97.3862L47.5657 98.8562L47.8246 99.623C49.2462 101.04 48.3314 101.018 50.2465 101.562C51.3873 101.731 50.7692 101.61 51.9463 101.95C50.8759 100.912 49.421 100.3 48.7912 98.7809L52.7702 100.727L51.4194 99.584C49.9812 98.5617 50.2393 98.7006 49.2723 97.3941C49.6614 97.1496 48.3355 96.438 50.5447 97.2476C50.1084 96.2764 49.9165 96.3582 50.91 96.8025L51.5905 96.639C53.1184 96.7079 55.5112 98.6147 56.5403 99.612L56.6512 99.1771C57.5297 97.8369 56.0157 98.7434 57.8082 98.1011C58.6799 99.1964 59.7362 99.8467 60.6419 100.614C61.6423 101.461 62.5783 102.576 63.5021 103.522C65.706 102.362 63.3837 101.993 67.4641 101.908C69.5075 101.865 71.484 102.224 73.3552 101.703C72.3617 100.413 73.113 101.528 72.7742 100.37C72.0574 100.37 72.2292 100.529 72.3859 99.7944C71.694 99.5068 71.8897 99.7392 71.2898 99.0878C70.531 98.2639 71.2482 99.4046 70.8708 98.1976C70.2051 98.1779 70.4091 98.3146 70.5559 97.569C69.833 97.5754 70.087 97.7332 69.9231 96.9418C68.5057 96.4944 66.8222 93.571 66.1228 92.1782L64.7863 90.5318C63.6312 88.9755 63.1123 87.7992 61.5121 86.7988L52.6631 93.4378C51.8702 94.2674 52.1696 93.4991 52.3573 94.1017L52.992 93.596L53.992 92.7418C53.992 91.8997 53.7902 92.0632 54.6116 92.2694L55.2887 91.7823L56.0623 91.5613C56.5562 90.7491 56.1883 90.8142 56.652 91.6529C57.9611 94.2652 55.1971 96.6341 52.3444 95.0165L52.3441 95.0153Z" fill="#294492"/>
<path fill-rule="evenodd" clip-rule="evenodd" d="M51.765 215.502C51.5129 214.691 51.3339 214.827 52.153 214.968C51.5901 209.796 46.0488 206.35 49.0123 195.451C49.5664 193.414 50.9399 191.775 51.1943 188.813C49.6402 189.739 49.3707 191.06 48.5873 193.176C48.1925 194.243 47.9684 194.837 47.699 195.874C47.6085 196.222 47.4034 197.141 47.3012 197.381C46.5253 199.208 47.3072 197.825 46.464 198.661C45.5458 193.66 43.6711 186.724 43.564 182.103C43.4796 178.461 45.2638 174.183 47.2679 171.366C48.4275 169.736 49.0755 170.208 48.163 168.69C46.6782 170.398 44.0439 173.173 43.6049 176.529C42.4271 175.006 42.175 171.324 42.044 169.326C41.7303 164.544 40.0986 151.569 37.4674 148.506C36.7733 149.983 37.7422 151.295 38.045 153.529C36.6302 153.01 35.4524 151.878 34.0735 152.699C39.9472 155.259 40.2133 159.986 40.5623 167.592C38.7539 166.711 35.5326 161.604 33.1129 162.504C35.1159 165.322 39.5211 166.305 40.9237 171.853C42.0168 176.177 42.2541 184.356 42.9323 187.835L40.0759 184.918C39.1183 183.894 38.3254 183.136 37.316 182.211C36.1147 181.11 32.5146 177.846 30.7705 178.969C31.7319 180.51 36.5681 180.999 42.6538 190.563C44.4008 193.309 44.4595 195.861 45.4818 199.545C46.512 203.256 47.5127 205.451 48.5982 208.947C47.987 209.232 48.068 209.045 47.8432 209.044C46.2793 209.033 48.3284 208.499 47.2637 208.947C47.5521 211 50.6254 213.297 51.7646 215.502L51.765 215.502Z" fill="white"/>
<path fill-rule="evenodd" clip-rule="evenodd" d="M78.0711 78.9116L78.0207 77.3595C77.4549 76.9269 78.336 77.04 76.7714 76.8671L75.1779 77.7398C74.8063 78.5812 76.3789 78.3954 74.8142 78.5104L73.8832 78.7527C71.7553 81.3226 67.4807 79.5982 66.7351 76.5586C65.8385 77.3129 65.7299 76.7107 66.0088 78.6758C66.3017 80.742 67.9058 81.8884 69.2679 82.8081C70.1593 82.0141 70.4367 81.1258 70.9522 80.4252C73.896 80.9668 71.8893 80.664 73.8275 82.4569C74.6068 83.1775 73.8158 82.7865 74.8683 82.8293C78.5605 82.9796 72.6156 81.8475 75.8997 82.8233C74.8101 84.1896 75.6965 83.5193 74.3317 84.1673C72.7231 82.3687 74.2242 82.7805 71.7425 81.6197C72.1111 85.8462 71.2644 96.8226 72.3855 99.793C73.1875 99.6124 72.9544 99.5163 72.7738 100.369C73.1126 101.526 72.3613 100.412 73.3548 101.702L74.5584 101.92C74.6704 101.937 74.8161 101.962 74.9372 101.979C75.3638 102.04 76.2532 102.116 76.6101 102.148L77.3781 93.1366L77.6407 89.9028L77.8008 80.8919L76.6457 81.9596C76.3058 82.251 76.1635 82.4834 76.1075 82.377C76.0674 82.3009 75.9368 82.5129 75.8418 82.5655L78.0711 78.9116Z" fill="#D1DEED"/>
<path fill-rule="evenodd" clip-rule="evenodd" d="M76.5781 76.4071L76.7715 76.8685C78.3362 77.0411 77.4551 76.9283 78.0209 77.3609L78.0712 78.9131C77.8604 82.3588 78.4936 86.7965 77.6409 89.9043L77.3782 93.138L76.9975 100.143C77.0505 100.778 77.0342 100.904 77.2458 101.504C77.6992 102.791 77.1212 101.806 77.9743 102.791C81.0567 102.955 80.5522 104.067 82.3549 95.1644C82.7743 93.0937 83.2024 92.4469 83.2709 90.1071C83.3901 86.0468 82.7531 88.0258 81.8746 85.557C82.1309 85.4484 82.7697 85.2463 82.9367 85.1403C84.222 84.3243 83.4381 84.9491 84.0339 84.191C83.289 82.2941 82.5052 79.0047 81.3444 77.44C79.3747 75.456 78.8907 75.8587 76.8911 74.2676C77.094 74.76 77.2878 74.6502 77.1655 75.5215C76.9623 76.9673 77.5342 75.9855 76.5781 76.4071Z" fill="#5FA0DF"/>
<path fill-rule="evenodd" clip-rule="evenodd" d="M61.5109 86.7978L61.7032 85.151L59.5651 84.5174C60.0337 82.3585 61.0495 79.4942 62.4056 77.7967L61.7156 77.2547C61.6839 77.1169 61.5711 77.0813 61.4821 77.0132L61.5851 75.793C61.5124 75.8989 61.4431 76.0553 61.3951 76.1279C59.936 78.3352 59.7411 77.3724 56.5584 79.0881C51.2763 81.9358 48.2507 89.5679 48.7314 95.954L48.4676 96.574L47.8541 96.8492C46.9896 96.6346 47.1891 96.5074 47.4211 97.3851C47.0797 97.9089 47.1406 97.3722 47.1493 98.2492C47.1501 98.3078 47.3094 98.6201 47.3151 98.5504C47.3219 98.4706 47.4835 98.7518 47.5649 98.8551L47.4211 97.3851C48.0838 97.3881 47.9108 97.541 47.8541 96.8492C48.7132 97.0248 48.7011 97.3196 48.4676 96.574C49.2866 96.7913 48.9929 96.8264 48.7314 95.954C50.2756 95.5551 50.0954 95.5146 51.2267 94.3144C52.8864 94.9776 50.0477 93.1888 51.7948 94.506C51.8573 94.5533 52.238 94.9053 52.3433 95.0143L52.3561 94.0995C53.1835 94.2157 52.9908 94.4068 52.9908 93.5938L52.3561 94.0995C52.168 93.4969 51.8686 94.2652 52.6619 93.4356L61.5109 86.7966V86.7978ZM56.6512 91.6514C56.1875 90.8123 56.555 90.7476 56.0615 91.5598L56.6512 91.6514ZM53.9908 92.7403C54.8106 92.7513 54.6872 92.9894 54.6104 92.268C55.4907 92.4701 55.2875 92.6616 55.2875 91.7809L54.6104 92.268C53.7891 92.0617 53.9908 91.8982 53.9908 92.7403Z" fill="#99C7F0"/>
<path fill-rule="evenodd" clip-rule="evenodd" d="M87.1301 211.376L86.6411 211.226C86.6139 212.996 86.3826 215.981 86.5563 217.623C87.1956 223.671 103.619 226.169 98.985 218.468C98.0198 216.864 97.3673 216.765 96.5786 215.119C95.1589 214.444 93.6616 212.953 92.9501 210.898L87.1305 211.376H87.1301Z" fill="#294492"/>
<path fill-rule="evenodd" clip-rule="evenodd" d="M52.1526 214.969C52.3096 215.831 52.5553 215.775 51.7646 215.502C51.7347 215.619 51.6666 215.67 51.6431 215.842C51.3687 217.85 47.649 220.245 49.9668 222.466C51.7158 224.069 56.6444 223.194 58.2658 222.024C59.0296 221.473 60.2991 220.23 60.88 219.63C62.0965 218.371 62.2369 217.218 62.0427 214.977L62.1472 212.952L61.5855 210.786L56.2591 210.504C54.355 211.066 55.8292 210.566 54.593 212.886C53.9731 214.049 53.4406 214.592 52.1526 214.969V214.969Z" fill="#294492"/>
<path fill-rule="evenodd" clip-rule="evenodd" d="M241.321 188.736L251.895 189.834L252.695 187.593C252.77 187.219 252.859 185.7 252.893 185.267C253.026 183.601 253.331 182.094 253.165 180.434L242.813 179.668L241.32 188.736L241.321 188.736Z" fill="#7269E8"/>
<path fill-rule="evenodd" clip-rule="evenodd" d="M236.444 66.8355L236.99 67.2356L237.22 67.896L237.691 68.3555L238.239 68.7132L238.651 69.2245C240.976 70.4712 241.754 72.1362 243.523 73.8817C244.807 75.1493 244.227 73.3761 244.849 75.8056C245.908 75.8025 244.944 75.9221 245.367 75.211C244.994 73.7209 244.967 74.6588 244.423 73.9756C243.667 73.0248 243.734 73.9809 243.708 72.2062C242.168 71.2021 241.732 70.3637 240.233 69.0674L238.651 69.2241L238.239 68.7128L237.691 68.3551L237.22 67.8956L236.99 67.2352L236.444 66.8351L236.227 66.0956L237.341 66.1463C237.835 65.1002 237.9 64.7815 238.65 64.065C239.197 63.5416 238.568 64.0726 239.442 63.4897C239.485 63.4613 240.405 62.9155 240.468 62.8705C240.318 63.5726 240.231 63.3262 241.049 63.3262L240.468 62.8705L230.961 51.3691C229.263 52.3812 227.306 54.2002 226.472 55.9583C229.096 59.5849 234.776 63.6059 236.444 66.8351V66.8355Z" fill="#AFAAE9"/>
<path fill-rule="evenodd" clip-rule="evenodd" d="M12.3018 177.176L11.002 178.009C12.9603 178.534 13.5042 178.315 14.9352 180.492C15.7206 181.687 17.6335 184.988 17.9695 186.345C15.5484 185.596 14.7634 184.821 11.5209 184.582C12.0372 185.839 12.8063 184.842 16.4106 186.668C18.2106 187.581 19.3684 188.527 20.4149 190.053C21.4611 191.579 22.1253 193.202 22.9213 194.798C23.9742 196.91 25.051 197.703 25.6967 199.895C24.4617 199.297 16.0404 194.635 14.8236 197.109C26.3057 199.864 25.4476 200.07 31.6661 207.448C33.0298 209.066 35.3026 211.132 35.7908 213.122C32.8065 212.54 25.9026 210.895 23.1828 213.191C28.3801 213.093 32.7929 212.376 37.653 214.666C39.5522 215.561 39.0144 216.142 41.2357 216.765C40.3118 215.067 38.6533 214.2 37.2544 212.787C33.0385 208.528 31.3929 205.033 32.1434 198.146C32.3319 196.418 32.6029 195.754 31.9034 194.803C31.0954 199.592 31.2854 201.232 31.791 206.103C30.2688 205.311 31.3066 205.955 30.4523 205.048C30.4326 205.027 29.7737 204.113 29.6689 203.958L25.3462 197.36C21.6257 191.422 24.783 187.461 23.791 184.85C21.4327 189.183 24.0045 189.158 21.6836 191.457C20.6197 188.369 13.3373 175.51 10.2314 174.014C10.6504 175.547 11.446 175.994 12.3021 177.176H12.3018Z" fill="white"/>
<path fill-rule="evenodd" clip-rule="evenodd" d="M97.5522 59.8726C94.535 59.8726 93.0369 59.4214 91.6797 60.6942C103.751 61.4156 163.714 60.8335 171.877 60.684C171.774 60.5924 171.627 60.5042 171.531 60.4573C171.435 60.4104 171.296 60.3018 171.174 60.2503C170.158 59.8211 171.777 59.8767 168.602 59.8404L97.5519 59.8722L97.5522 59.8726Z" fill="#95B3CC"/>
<path fill-rule="evenodd" clip-rule="evenodd" d="M89.6563 33.3789L92.9862 33.9266L94.8203 33.8323L101.898 33.6612C103.428 23.7098 87.0727 23.1757 89.6563 33.3789Z" fill="white"/>
<path fill-rule="evenodd" clip-rule="evenodd" d="M133.181 201.662C131.853 199.044 130.402 196.668 127.097 196.25C123.757 195.828 121.309 198.095 120.93 200.857C120.387 204.808 124.269 209.195 129.228 203.297C130.941 201.259 131.336 202.426 133.181 201.661V201.662Z" fill="white"/>
<path fill-rule="evenodd" clip-rule="evenodd" d="M323.623 188.729C323.563 186.078 323.473 183.375 322.3 181.455C322.144 181.793 322.691 187.368 322.635 188.93C322.483 193.098 321.955 192.522 320.273 195.353C319.67 196.366 319.361 197.049 318.757 197.92L313.644 205.542C313.227 201.589 315.367 196.933 313.289 192.34C312.242 194.169 314.645 200.381 311.602 207.164C310.764 209.032 309.773 209.021 310.15 210.616L315.583 203.883C317.606 200.853 318.393 199.962 321.99 197.972C322.93 197.452 323.702 197.076 324.774 196.652C324.932 196.589 326.069 196.16 326.085 196.152L326.739 195.818C327.453 195.393 327.19 195.597 327.673 195.123C324.531 194.908 322.582 197.192 319.796 198.043C322.903 192.32 325.669 185.985 329.947 183.605C331.877 182.531 334.793 182.069 335.834 181.416C333.072 180.765 330.738 182.383 328.605 183.071C328.968 181.715 331.236 177.951 332.035 176.637C334.161 173.143 335.443 174.936 338.216 173.432C337.576 172.256 338.298 173.748 335.293 172.439C335.16 172.381 334.979 172.303 334.854 172.19C336.073 171.474 336.846 170.935 337.358 169.406C335.212 169.975 331.21 176.306 329.943 178.584C328.847 180.555 325.083 188.245 323.624 188.729L323.623 188.729Z" fill="white"/>
<path fill-rule="evenodd" clip-rule="evenodd" d="M60.4274 117.125C61.7442 117.894 62.0163 118.675 62.707 120.157C64.8833 121.159 65.4499 119.713 67.0414 118.997C67.9816 117.774 69.5474 116.367 70.8982 115.779C71.7142 115.068 71.6336 115.226 72.5953 114.697L72.8985 114.196L73.5362 114.006C73.6013 113.321 73.4439 113.544 74.2504 113.674C74.8348 112.884 74.694 113.039 75.105 111.913C70.3021 111.298 66.0029 112.681 61.2714 113.881C59.6826 114.284 60.3979 113.865 59.2246 114.696L60.4274 117.125Z" fill="#294492"/>
<path fill-rule="evenodd" clip-rule="evenodd" d="M149.004 114.704C146.475 114.7 133.713 114.32 132.254 115.179C133.849 117.04 142.213 115.911 145.361 115.916C149.914 115.923 154.468 115.92 159.021 115.916C163.334 115.913 183.955 116.553 186.266 115.608C185.483 114.555 186.085 114.704 184.063 114.705L149.003 114.705L149.004 114.704Z" fill="#99C7F0"/>
<path fill-rule="evenodd" clip-rule="evenodd" d="M61.4815 77.0141C61.5704 77.0822 61.6832 77.1182 61.715 77.2556L62.405 77.7976C61.0489 79.4951 60.033 82.3594 59.5645 84.5183L61.7025 85.1519L61.5102 86.7987C63.1105 87.799 63.6294 88.9753 64.7845 90.5317L66.1209 92.1781L66.2549 86.8891C65.4764 85.3256 65.979 82.2073 65.8791 80.081C65.6535 75.2701 66.4952 77.3941 66.8919 74.5226L67.1012 73.4844C64.21 74.8991 64.3 76.4967 61.4811 77.0149L61.4815 77.0141Z" fill="#5FA0DF"/>
<path fill-rule="evenodd" clip-rule="evenodd" d="M178.466 84.6451C176.881 83.8704 126.037 83.9082 124.624 84.7833C125.77 85.734 126.016 85.4615 128.059 85.4566L160.386 85.4441C162.11 85.4449 177.12 86.2745 178.466 84.6451Z" fill="#99C7F0"/>
<path fill-rule="evenodd" clip-rule="evenodd" d="M125.327 18.8C122.151 18.8038 113.955 17.7009 112.309 19.5347C114.223 20.3363 165.668 20.2368 167.103 19.5347C165.893 18.3829 163.06 18.8019 160.843 18.8038L125.327 18.8Z" fill="#CCCCCC"/>
<path fill-rule="evenodd" clip-rule="evenodd" d="M243.708 72.2054C243.734 73.9801 243.667 73.0241 244.423 73.9748C244.966 74.658 244.993 73.7197 245.366 75.2102C247.285 74.1001 252.94 63.6286 255.3 62.4833C255.007 61.57 254.746 61.7191 255.597 61.7191C257.228 58.449 260.496 55.3492 262.381 51.9637C262.35 51.0803 262.111 51.2442 262.928 51.3021L263.632 50.0327L263.949 49.3537C263.64 48.4419 263.56 48.7534 264.615 48.7534L266.549 46.2656C264.937 47.2735 262.09 51.1859 260.595 52.8297C260.531 52.8997 260.442 53.0019 260.38 53.073C260.317 53.1446 260.232 53.2494 260.17 53.3217L243.707 72.2058L243.708 72.2054Z" fill="#AFAAE9"/>
<path fill-rule="evenodd" clip-rule="evenodd" d="M169.493 90.0758C172.477 90.0799 176.606 90.5417 179.024 89.6492C176.963 88.0615 165.259 88.9933 161.752 89.0039L126.277 89.1447C125.121 89.4244 125.745 89.2109 125.168 89.653C127.743 90.8225 161.077 90.0633 169.493 90.0762V90.0758Z" fill="#95B3CC"/>
<path fill-rule="evenodd" clip-rule="evenodd" d="M119.918 69.1628C120.01 69.226 120.149 69.2858 120.219 69.3108C122.263 70.0496 171.401 69.8036 172.632 69.5606C174.068 69.2771 173.219 69.4611 173.757 69.1624C173.644 69.0935 173.491 69.0311 173.395 68.9985C170.343 67.9558 153.131 68.6019 146.727 68.6049L126.237 68.5796C124.321 68.5807 121.402 68.164 119.918 69.1624V69.1628Z" fill="#95B3CC"/>
<path fill-rule="evenodd" clip-rule="evenodd" d="M66.2551 86.8879L66.1211 92.1769C66.8205 93.5697 68.504 96.4931 69.9215 96.9405C70.8779 96.9405 70.7257 96.6808 70.5543 97.5676C71.3184 97.5612 71.1205 97.4147 70.8692 98.1963C71.2068 97.6403 71.0111 98.3575 71.1723 97.297L70.6901 81.6921C70.4509 82.9555 70.0501 83.1417 69.3219 84.0334C68.6308 83.3934 66.8837 81.7417 66.2324 81.2637L66.2547 86.8879H66.2551Z" fill="#D1DEED"/>
<path fill-rule="evenodd" clip-rule="evenodd" d="M50.2463 101.56C50.7451 102.838 49.9825 101.833 51.127 102.808L51.5282 103.283L54.3381 105.242L55.76 105.561C57.7974 105.517 56.7539 105.386 56.8925 106.137L62.7135 106.765C62.6545 100.666 58.1759 100.099 54.5549 99.5522C53.2477 99.355 52.8571 99.8837 51.4192 99.5824L52.77 100.725L48.791 98.7793C49.4208 100.299 50.8757 100.91 51.9461 101.948C50.7686 101.609 51.387 101.73 50.2463 101.56Z" fill="#FCB07C"/>
<path fill-rule="evenodd" clip-rule="evenodd" d="M61.7388 75.5011L61.6338 76.8382C64.509 76.2704 64.4171 74.5199 67.366 72.9697L67.7972 71.6169L67.6802 70.7481C67.73 68.7554 67.7652 68.9943 67.2927 67.4449L63.7635 57.5134C63.7446 57.3014 63.6952 57.2392 63.6338 57.1152L61.7388 75.5011Z" fill="#433D51"/>
<path fill-rule="evenodd" clip-rule="evenodd" d="M153.102 152.22C149.209 152.22 130.699 151.633 128.604 152.488C129.252 152.902 127.528 153.145 130.737 153.309C137.883 153.675 176.408 153.254 177.041 152.943C176.191 151.787 173.962 152.217 171.772 152.219L153.102 152.221V152.22Z" fill="#95B3CC"/>
<path fill-rule="evenodd" clip-rule="evenodd" d="M129.094 162.049C129.921 162.962 129.397 162.684 131.216 162.774L166.306 162.762C169.203 162.762 176.493 163.731 177.922 162.049C176.302 161.318 130.357 161.407 129.094 162.049H129.094Z" fill="#95B3CC"/>
<path fill-rule="evenodd" clip-rule="evenodd" d="M171.769 171.317C167.163 171.319 134.935 170.935 129.465 171.578C130.364 172.438 130.046 172.298 131.701 172.387L154.467 172.351C157.048 172.353 176.76 173.011 178.002 171.674C176.583 171.048 173.775 171.315 171.769 171.318V171.317Z" fill="#95B3CC"/>
<path fill-rule="evenodd" clip-rule="evenodd" d="M126.119 94.2061L126.824 94.5615C129.237 95.3824 146.75 94.856 153.101 94.842L177.264 94.8863L179.339 93.8681C176.805 93.0075 181.702 94.2481 178.581 93.6433C178.153 93.56 177.268 93.5585 176.801 93.5566L126.118 94.2061H126.119Z" fill="#99C7F0"/>
<path fill-rule="evenodd" clip-rule="evenodd" d="M112.985 23.6327C114.159 24.6803 115.764 24.3567 117.585 24.331C123.576 24.2462 149.901 25.1678 151.604 23.6603C149.875 22.8239 115.224 22.6914 112.985 23.6327Z" fill="#CCCCCC"/>
<path fill-rule="evenodd" clip-rule="evenodd" d="M67.4102 71.4548L67.5248 72.2477C67.7811 75.1117 67.1172 76.6684 69.0024 78.1279C71.103 79.7538 71.4717 78.8803 73.8826 78.7524C73.5492 77.88 73.3153 78.0348 74.1771 78.0348L75.1774 77.7395C75.3254 76.6313 74.6789 77.3769 75.5063 76.7203C76.4987 75.9323 74.8265 76.5117 76.5774 76.4054L76.2689 74.6027C73.3365 74.0338 69.8665 72.9067 68.3779 70.8984L67.4102 71.4548Z" fill="#FFBF9D"/>
<path fill-rule="evenodd" clip-rule="evenodd" d="M174.501 180.705C168.277 180.713 131.843 180.196 129.466 181.072C129.556 181.153 129.694 181.232 129.771 181.267L177.149 181.643C178.228 181.378 177.593 181.62 178.143 181.172C176.906 180.466 176.159 180.703 174.501 180.705Z" fill="#95B3CC"/>
<path fill-rule="evenodd" clip-rule="evenodd" d="M130.924 64.3143C119.628 64.2333 103.488 63.9619 92.0732 64.5262C92.87 65.3025 91.7792 64.8642 93.46 65.2843L129.429 65.2665C131.725 64.7514 129.976 65.368 130.924 64.3143Z" fill="#95B3CC"/>
<path fill-rule="evenodd" clip-rule="evenodd" d="M93.0532 18.1172C88.7396 19.9544 92.3295 25.9969 96.3661 24.2907C99.7944 22.8411 97.4667 16.2373 93.0532 18.1172Z" fill="white"/>
<path fill-rule="evenodd" clip-rule="evenodd" d="M66.2553 86.8881L66.233 81.2638C66.8839 81.7418 68.6314 83.3939 69.3225 84.0335C70.0507 83.1418 70.4515 82.9552 70.6907 81.6922L71.1729 97.2971C71.0113 98.3576 71.207 97.64 70.8698 98.1964C71.1211 97.4148 71.319 97.5613 70.5549 97.5677C70.7263 96.6806 70.8781 96.9406 69.922 96.9406C70.0859 97.732 69.8323 97.5746 70.5549 97.5677C70.408 98.3134 70.204 98.1767 70.8698 98.1964C71.2471 99.4034 70.5299 98.2626 71.2887 99.0866C71.8886 99.738 71.693 99.5056 72.3848 99.7932C72.2281 100.528 72.0567 100.369 72.7732 100.369C72.9537 99.5162 73.1868 99.6123 72.3848 99.7932C71.2638 96.8229 72.1104 85.8465 71.7418 81.62C74.2235 82.7808 72.7224 82.369 74.331 84.1675C75.6958 83.5199 74.8094 84.1899 75.8991 82.8235C72.6149 81.8478 78.5598 82.9798 74.8677 82.8296C73.8151 82.7868 74.6062 83.1778 73.8269 82.4572C71.8886 80.6643 73.8954 80.9671 70.9515 80.4255C70.4364 81.1264 70.1586 82.0143 69.2673 82.8084C67.9051 81.8887 66.3011 80.7422 66.0081 78.6761C65.7296 76.711 65.8378 77.3132 66.7344 76.5589L66.8923 74.5215C66.4956 77.3934 65.6539 75.269 65.8795 80.0799C65.979 82.2062 65.4764 85.3242 66.2553 86.8881ZM77.6405 89.9031C78.4932 86.7953 77.86 82.3576 78.0708 78.9119L75.8415 82.5658C75.9365 82.5132 76.0675 82.3012 76.1072 82.3773C76.1632 82.4837 76.3055 82.2513 76.6454 81.9598L77.8006 80.8921L77.6405 89.9031Z" fill="#95B3CC"/>
<path fill-rule="evenodd" clip-rule="evenodd" d="M255.926 48.3587L255.347 50.5251L262.674 42.5902C263.55 41.4763 264.127 40.5725 265.314 39.6433L264.562 38.5673L261.723 37.9004L255.926 48.3587Z" fill="#AFAAE9"/>
<path fill-rule="evenodd" clip-rule="evenodd" d="M50.9096 96.8022C51.7536 97.6893 52.2169 97.9051 52.721 98.7222C51.7173 97.9785 51.7109 97.8453 50.5444 97.2476C48.3352 96.4381 49.6614 97.15 49.2719 97.3941C50.2389 98.7007 49.9808 98.5618 51.419 99.584C52.8569 99.8853 53.2475 99.3562 54.5548 99.5538C58.1757 100.101 62.6543 100.668 62.7134 106.766L56.8923 106.139C56.7542 105.387 57.7973 105.519 55.7599 105.563C56.2795 106.39 55.1547 106.556 56.8923 106.139C57.4048 106.999 56.5763 106.236 57.5864 106.904C57.6341 106.935 58.5058 107.346 58.5527 107.363C64.5895 109.584 63.6967 106.153 63.5021 103.522C62.5783 102.576 61.6423 101.461 60.6419 100.614C59.7362 99.8463 58.6799 99.1957 57.8082 98.1008C56.0157 98.743 57.5297 97.8366 56.6512 99.1768L56.5403 99.6117C55.5112 98.6144 53.1184 96.7076 51.5905 96.6387L50.91 96.8022H50.9096Z" fill="#DBAD9E"/>
<path fill-rule="evenodd" clip-rule="evenodd" d="M303.974 150.46C303.21 152.931 304.027 155.87 304.138 158.475C304.212 158.371 304.28 158.065 304.303 158.13C304.325 158.194 304.427 157.867 304.456 157.778C305.74 153.746 304.098 151.064 308.452 148.012C309.802 147.065 310.536 147.202 310.918 145.866C309.151 145.796 308.438 146.445 307.068 147.125C306.934 147.192 306.768 147.284 306.611 147.348C306.937 145.815 308.31 142.709 307.91 141.78C306.502 141.887 307.397 140.885 306.322 143.121C305.209 145.438 305.372 148.716 303.974 150.46L303.974 150.46Z" fill="white"/>
<path fill-rule="evenodd" clip-rule="evenodd" d="M122.137 84.6454C120.409 83.8899 98.8759 83.9073 97.248 84.7869C98.6965 85.9951 115.577 85.4576 119.444 85.4614C122.606 85.4644 121.84 85.0246 122.137 84.6454Z" fill="#99C7F0"/>
<path fill-rule="evenodd" clip-rule="evenodd" d="M144.906 27.67C143.129 27.67 141.589 27.3407 140.339 28.2812C141.993 29.0083 165.531 29.2577 167.158 28.1859C165.562 27.1121 148.349 27.6707 144.906 27.67Z" fill="#CCCCCC"/>
<path fill-rule="evenodd" clip-rule="evenodd" d="M121.685 115.911C124.138 115.918 128.546 116.474 129.743 115.151C128.083 114.22 111.786 114.68 110.302 114.679C106.186 114.677 105.577 114.241 104.857 115.795L121.685 115.911Z" fill="#99C7F0"/>
<path fill-rule="evenodd" clip-rule="evenodd" d="M97.6875 89.6539C99.2151 90.4696 121.101 90.4117 122.563 89.6539C122.083 89.2319 123.279 88.9818 119.42 88.995C115.261 89.0094 99.2412 88.3368 97.6875 89.6539Z" fill="#95B3CC"/>
<path fill-rule="evenodd" clip-rule="evenodd" d="M92.5518 69.1643C92.6434 69.2321 92.7679 69.321 92.8398 69.3502C92.9124 69.3801 93.0529 69.4815 93.1482 69.5129C94.8522 70.0708 110.172 69.7377 114.417 69.6961L117.257 69.1643C116.766 68.8532 117.793 68.625 114.417 68.6083C110.171 68.5875 94.2466 68.0508 92.5518 69.1643Z" fill="#95B3CC"/>
<path fill-rule="evenodd" clip-rule="evenodd" d="M180.945 190.735C183.136 192.383 189.234 191.419 192.259 191.42C194.268 191.421 201.62 192.009 203.222 190.735L201.83 190.315C201.636 190.293 200.724 190.297 200.476 190.296C196.471 190.281 182.795 189.698 180.945 190.735Z" fill="#95B3CC"/>
<path fill-rule="evenodd" clip-rule="evenodd" d="M113.066 28.1848C114.62 29.2972 127.775 28.74 131.701 28.7336L136.677 28.6352C137.529 28.4717 137.234 28.4876 137.713 28.1848C137.609 28.1174 137.476 28.0281 137.393 27.9959C137.309 27.9634 137.165 27.8635 137.057 27.8298L131.701 27.6791C129.576 27.6905 127.452 27.6894 125.326 27.6882C123.357 27.6871 114.607 27.1939 113.065 28.1844L113.066 28.1848Z" fill="#CCCCCC"/>
<path fill-rule="evenodd" clip-rule="evenodd" d="M83.1509 102.857C84.0869 101.89 85.9892 101.88 87.8646 102.173C89.788 102.473 90.6703 102.862 90.6831 105.068C88.8308 104.951 83.987 103.782 83.1505 102.857H83.1509ZM80.3604 101.946C81.2354 104.189 82.3728 104.518 84.7822 104.784C87.7041 105.106 88.4205 106.163 91.3455 105.738C91.7554 99.9299 85.6519 100.33 82.3444 101.2L80.3607 101.946H80.3604Z" fill="#95B3CC"/>
<path fill-rule="evenodd" clip-rule="evenodd" d="M180.493 181.172C181.09 181.67 179.876 181.412 181.776 181.767C181.786 181.769 201.262 182.3 202.738 181.172C200.82 180.13 181.845 180.446 180.494 181.172H180.493Z" fill="#95B3CC"/>
<path fill-rule="evenodd" clip-rule="evenodd" d="M202.567 161.781C197.686 161.703 182.435 161.237 179.92 161.996C181.711 163.49 188.999 162.74 191.348 162.74C193.321 162.74 195.294 162.738 197.267 162.745C200.336 162.754 201.11 163.203 202.568 161.781H202.567Z" fill="#95B3CC"/>
<path fill-rule="evenodd" clip-rule="evenodd" d="M130.791 202.967C129.915 203.915 129.348 204.678 128.582 205.378L126.089 207.272L134.731 207.287L133.816 203.058L130.791 202.967Z" fill="white"/>
<path fill-rule="evenodd" clip-rule="evenodd" d="M98.8662 94.2062C99.6531 94.7012 98.0195 94.3856 100.272 94.702L122.539 94.6528C123.389 94.4723 123.035 94.5059 123.457 94.2062C121.77 93.1154 108.941 93.7168 104.838 93.7111C103.774 93.7096 102.69 93.6903 101.63 93.699L98.8662 94.2062Z" fill="#95B3CC"/>
<path fill-rule="evenodd" clip-rule="evenodd" d="M201.686 152.267L182.697 152.204C180.689 152.208 180.607 151.948 179.277 152.734C180.921 153.743 195.328 153.264 197.731 153.287C199.522 153.304 201.104 153.779 201.686 152.267Z" fill="#95B3CC"/>
<path fill-rule="evenodd" clip-rule="evenodd" d="M54.4351 117.443L54.0127 119.974C56.7563 120.424 60.0173 120.48 62.7072 120.158C62.0165 118.675 61.7444 117.894 60.4276 117.125L54.4351 117.443Z" fill="#5FA0DF"/>
<path fill-rule="evenodd" clip-rule="evenodd" d="M178.598 190.735C176.562 189.786 134.283 190.271 129.89 190.721L178.598 190.735Z" fill="#95B3CC"/>
<path fill-rule="evenodd" clip-rule="evenodd" d="M237.341 66.1469C238.21 67.2025 238.573 67.7694 239.892 68.2546C240.729 67.696 240.77 67.6532 241.436 66.8872C242.979 65.1129 241.918 67.0908 242.543 64.8695L242.256 64.2431C241.513 64.36 241.678 64.5099 241.796 63.759L241.231 63.2462L241.048 63.3268C240.23 63.3268 240.317 63.5732 240.467 62.8711C240.404 62.9161 239.484 63.4619 239.442 63.4903C238.567 64.0732 239.197 63.5421 238.649 64.0656C237.9 64.7817 237.834 65.1007 237.34 66.1469H237.341Z" fill="#AFAAE9"/>
<path fill-rule="evenodd" clip-rule="evenodd" d="M76.4601 71.0306L76.2694 74.6031L76.5778 76.4058C74.827 76.5118 76.4991 75.9327 75.5067 76.7207C74.6793 77.3778 75.3258 76.6318 75.1778 77.74L74.1775 78.0352C73.3157 78.0352 73.5496 77.8804 73.883 78.7528C71.4721 78.8807 71.1034 79.7539 69.0028 78.1283C67.1176 76.6689 67.7811 75.1122 67.5252 72.2482L67.1025 73.4828L66.8932 74.521L66.7354 76.5584C67.481 79.598 71.7556 81.3223 73.8834 78.7524L74.8145 78.5102C76.3787 78.3952 74.8065 78.581 75.1782 77.7396L76.7716 76.8668L76.5782 76.4055C77.5343 75.9835 76.9624 76.9656 77.1656 75.5198C77.2882 74.6485 77.0941 74.7583 76.8912 74.2659L77.1069 70.4629L76.4601 71.031V71.0306Z" fill="#AEA0A8"/>
<path fill-rule="evenodd" clip-rule="evenodd" d="M67.4107 71.4564L68.3784 70.9C69.867 72.9083 73.3369 74.0354 76.2694 74.6043L76.4602 71.0317L75.0568 71.5662C74.927 71.6195 74.8361 71.6808 74.709 71.7319C70.5445 73.4098 67.4485 69.4504 67.2827 68.7442C67.2403 68.5633 67.1154 68.5417 67.0303 68.4414C67.4935 69.8554 67.4591 69.637 67.4103 71.456L67.4107 71.4564Z" fill="#E08F66"/>
<path fill-rule="evenodd" clip-rule="evenodd" d="M87.864 102.174C85.9886 101.881 84.0864 101.891 83.1504 102.858C83.9868 103.783 88.8307 104.952 90.683 105.069C90.6701 102.863 89.7879 102.474 87.8644 102.174H87.864Z" fill="#DBAD9E"/>
<path fill-rule="evenodd" clip-rule="evenodd" d="M85.1523 208.637L86.7461 209.246L87.1307 211.377L92.9502 210.899L92.4946 209.403C92.588 209.334 92.7171 209.247 92.7852 209.21C92.8537 209.172 92.9983 209.071 93.0839 209.027C93.7496 208.684 93.1743 208.996 93.7534 208.731L94.7893 208.285C90.794 209.145 89.3868 209.175 85.1523 208.638V208.637Z" fill="#FFBF9D"/>
<path fill-rule="evenodd" clip-rule="evenodd" d="M306.667 181.219C311.383 175.882 313.424 177.53 314.614 174.798C313.31 174.205 311.897 175.311 309.484 176.814C306.458 178.696 307.512 180.173 306.667 181.22V181.219Z" fill="white"/>
<path fill-rule="evenodd" clip-rule="evenodd" d="M119.935 162.959C120.52 164.85 123.884 164.615 123.65 162.058C123.413 159.479 119.001 159.936 119.935 162.959Z" fill="#99C7F0"/>
<path fill-rule="evenodd" clip-rule="evenodd" d="M55.288 91.7816C55.288 92.6623 55.4912 92.4708 54.6109 92.2687C54.6877 92.9901 54.8115 92.752 53.9913 92.741L52.9913 93.5953C52.9913 94.4083 53.1836 94.2175 52.3566 94.1009L52.3438 95.0157C55.1964 96.633 57.9608 94.2641 56.6513 91.6521L56.0616 91.5605L55.288 91.7816Z" fill="white"/>
<path fill-rule="evenodd" clip-rule="evenodd" d="M305.048 163.525C307.737 162.305 305.519 162.137 310.55 158.752C311.804 157.908 311.864 158.147 311.873 156.781C310.719 157.013 308.453 158.447 307.699 159.102C306.397 160.232 305.196 161.25 305.048 163.524V163.525Z" fill="white"/>
<path fill-rule="evenodd" clip-rule="evenodd" d="M123.498 172.851C123.53 172.746 123.64 172.592 123.667 172.463C124.147 170.121 123.341 170.569 123.301 170.491C123.283 170.482 121.792 169.238 120.628 170.544C119.995 171.255 120.323 172.411 120.491 173.227C122.62 174.033 123.197 173.852 123.498 172.851L123.498 172.851Z" fill="#95B3CC"/>
<path fill-rule="evenodd" clip-rule="evenodd" d="M164.507 23.2771L154.723 23.4274C155.868 24.4644 153.598 23.7105 156.262 24.2839L167.297 24.1556C166.62 23.4194 167.166 23.2586 164.507 23.2767V23.2771Z" fill="#CCCCCC"/>
<path fill-rule="evenodd" clip-rule="evenodd" d="M124.194 192.324C125.245 187.821 119.993 187.628 121.014 192.486L124.194 192.324Z" fill="#95B3CC"/>
<path fill-rule="evenodd" clip-rule="evenodd" d="M122.574 179.455C119.348 180.011 119.056 183.561 123.608 182.974L123.826 180.379L122.574 179.455Z" fill="#95B3CC"/>
<path fill-rule="evenodd" clip-rule="evenodd" d="M74.2508 113.675C74.3174 114.519 74.4431 114.256 73.5366 114.007L72.8989 114.197L72.5957 114.698L72.8413 116.359L73.9791 116.114L75.4173 116.055C75.8775 115.695 74.8783 115.878 76.6742 115.152L76.5437 112.58C75.1391 112.679 75.0252 112.594 74.2508 113.675Z" fill="#D1DEED"/>
<path fill-rule="evenodd" clip-rule="evenodd" d="M119.512 154.205C123.818 155.667 122.994 151.55 121.962 151.27C120.64 150.913 121.451 150.793 119.499 151.377L119.512 154.205Z" fill="#95B3CC"/>
<path fill-rule="evenodd" clip-rule="evenodd" d="M56.2591 210.503L61.5855 210.786L62.1472 212.951C62.1472 212.499 62.2819 212.34 62.0908 211.704C61.827 210.827 61.9258 211.239 61.5851 210.786C61.1529 210.088 61.2528 210.384 61.1536 209.396L56.1104 209.409L56.2587 210.504L56.2591 210.503Z" fill="#FFBF9D"/>
<path fill-rule="evenodd" clip-rule="evenodd" d="M236.444 66.8365L236.99 67.2365L237.22 67.897L237.692 68.3564L238.239 68.7141L238.651 69.2254L240.233 69.0688L239.893 68.2562C238.574 67.7706 238.211 67.204 237.341 66.1484L236.228 66.0977L236.445 66.8372L236.444 66.8365Z" fill="#AFAAE9"/>
<path fill-rule="evenodd" clip-rule="evenodd" d="M54.337 105.243L51.5271 103.284L51.1259 102.809C50.8478 103.039 49.6328 102.291 51.3863 104.397C51.5468 104.589 51.7981 105.027 52.0116 105.198C52.577 105.653 52.0585 105.566 52.9714 105.689C55.1621 105.984 54.2257 105.32 54.337 105.243V105.243Z" fill="#585073"/>
<path fill-rule="evenodd" clip-rule="evenodd" d="M50.9096 96.8016C49.9157 96.3572 50.1076 96.2755 50.5444 97.2467C51.7108 97.8447 51.7173 97.9775 52.721 98.7213C52.2169 97.9045 51.7536 97.6884 50.9096 96.8012V96.8016Z" fill="#585073"/>
</g>
<defs>
<linearGradient id="paint0_linear_639_12478" x1="95.141" y1="14.8086" x2="95.141" y2="38.825" gradientUnits="userSpaceOnUse">
<stop stop-color="#7269E8"/>
<stop offset="1" stop-color="#403B82"/>
</linearGradient>
<clipPath id="clip0_639_12478">
<rect width="350" height="229.497" fill="white"/>
</clipPath>
</defs>
</svg>
