<svg width="49" height="48" viewBox="0 0 49 48" fill="none" xmlns="http://www.w3.org/2000/svg">
<g clip-path="url(#clip0_619_18341)">
<g clip-path="url(#clip1_619_18341)">
<g clip-path="url(#clip2_619_18341)">
<path opacity="0.1" d="M34.9752 0H14.4037C6.82955 0 0.689453 6.14009 0.689453 13.7143V34.2857C0.689453 41.8599 6.82955 48 14.4037 48H34.9752C42.5494 48 48.6895 41.8599 48.6895 34.2857V13.7143C48.6895 6.14009 42.5494 0 34.9752 0Z" fill="#1424FF"/>
<mask id="mask0_619_18341" style="mask-type:luminance" maskUnits="userSpaceOnUse" x="14" y="12" width="21" height="23">
<path d="M34.9757 12.8574H14.4043V34.286H34.9757V12.8574Z" fill="white"/>
</mask>
<g mask="url(#mask0_619_18341)">
<path fill-rule="evenodd" clip-rule="evenodd" d="M34.8219 17.6228C34.8294 17.6509 34.8333 17.6798 34.8334 17.7089V22.2304C34.8334 22.2884 34.8181 22.3454 34.789 22.3956C34.76 22.4458 34.7182 22.4874 34.668 22.5163L30.8791 24.7013V29.0319C30.8791 29.1497 30.8166 29.2585 30.7145 29.3178L22.8057 33.878C22.7876 33.8883 22.7678 33.8949 22.7481 33.9019C22.7407 33.9044 22.7337 33.9089 22.7259 33.911C22.6706 33.9256 22.6125 33.9256 22.5572 33.911C22.5481 33.9085 22.5399 33.9035 22.5312 33.9003C22.5131 33.8937 22.4942 33.8879 22.477 33.878L14.5697 29.3178C14.5195 29.2889 14.4778 29.2473 14.4487 29.1971C14.4196 29.1469 14.4043 29.0899 14.4043 29.0319V15.4676C14.4043 15.4379 14.4084 15.4091 14.4158 15.381C14.4183 15.3716 14.424 15.3629 14.4274 15.3534C14.4335 15.3361 14.4393 15.3184 14.4484 15.3023C14.4545 15.2916 14.4635 15.283 14.471 15.2731C14.4804 15.2599 14.4891 15.2463 14.5001 15.2347C14.5096 15.2253 14.522 15.2183 14.5327 15.21C14.5446 15.2002 14.5553 15.1895 14.5689 15.1816L18.5231 12.9015C18.5732 12.8727 18.6299 12.8574 18.6877 12.8574C18.7455 12.8574 18.8022 12.8727 18.8523 12.9015L22.8061 15.1816C22.8193 15.1898 22.8312 15.2002 22.8431 15.2096C22.8538 15.2178 22.8658 15.2253 22.8752 15.2344C22.8868 15.2463 22.895 15.2599 22.9048 15.2731C22.9118 15.283 22.9213 15.2916 22.927 15.3023C22.9365 15.3188 22.9419 15.3361 22.9485 15.3534C22.9517 15.3629 22.9575 15.3716 22.96 15.3815C22.9675 15.4096 22.9714 15.4385 22.9714 15.4676V23.9397L26.2662 22.0396V17.7085C26.2662 17.6796 26.2703 17.6504 26.2777 17.6228C26.2806 17.6129 26.2859 17.6043 26.2893 17.5948C26.2958 17.5774 26.3016 17.5597 26.3106 17.5437C26.3168 17.533 26.3259 17.5243 26.3328 17.5144C26.3428 17.5012 26.351 17.4876 26.3625 17.476C26.3719 17.4666 26.3839 17.4596 26.3945 17.4514C26.4069 17.4415 26.4176 17.4308 26.4308 17.4229L30.3854 15.1428C30.4354 15.1139 30.4922 15.0988 30.55 15.0988C30.6077 15.0988 30.6645 15.1139 30.7145 15.1428L34.6684 17.4229C34.6824 17.4311 34.693 17.4415 34.7054 17.4509C34.7157 17.4592 34.7277 17.4666 34.7371 17.4757C34.7486 17.4876 34.7568 17.5012 34.7668 17.5144C34.7741 17.5243 34.7832 17.533 34.789 17.5437C34.7984 17.5597 34.8038 17.5774 34.8103 17.5948C34.8141 17.6043 34.8194 17.6129 34.8219 17.6228ZM34.1743 22.0396V18.2796L32.7906 19.0775L30.8791 20.1798V23.9397L34.1743 22.0396ZM30.2205 28.8411V25.0787L28.3402 26.1543L22.9711 29.2234V33.0213L30.2205 28.8411ZM15.0634 16.0383V28.8411L22.312 33.0209V29.2239L18.5252 27.0773L18.5239 27.0765L18.5223 27.0757C18.5095 27.0682 18.4989 27.0575 18.4869 27.0485C18.4766 27.0402 18.4647 27.0336 18.4557 27.0245L18.4548 27.0233C18.4441 27.0131 18.4367 27.0003 18.4276 26.9887C18.4194 26.9776 18.4096 26.9681 18.403 26.9566L18.4025 26.9554C18.3952 26.943 18.3906 26.9281 18.3853 26.9141C18.3799 26.9018 18.373 26.8902 18.3696 26.877C18.3655 26.8613 18.3647 26.8445 18.3631 26.8284C18.3614 26.8161 18.3581 26.8037 18.3581 26.7913V17.9385L16.447 16.8357L15.0634 16.0383ZM18.6881 13.5683L15.3938 15.4676L18.6873 17.3669L21.9812 15.4672L18.6873 13.5683H18.6881ZM20.4013 25.4216L22.3124 24.3197V16.0383L20.9287 16.8361L19.0173 17.9385V26.2198L20.4013 25.4216ZM30.55 15.8096L27.2561 17.7089L30.55 19.6082L33.8434 17.7085L30.55 15.8096ZM30.2205 20.1798L28.309 19.0775L26.9253 18.2796V22.0396L28.8364 23.1415L30.2205 23.9397V20.1798ZM22.6411 28.6528L27.4725 25.8901L29.8876 24.5096L26.5961 22.6115L22.8065 24.7968L19.3526 26.7885L22.6411 28.6528Z" fill="#1424FF"/>
</g>
</g>
</g>
</g>
<defs>
<clipPath id="clip0_619_18341">
<rect width="48" height="48" fill="white" transform="translate(0.689453)"/>
</clipPath>
<clipPath id="clip1_619_18341">
<rect width="48" height="48" fill="white" transform="translate(0.689453)"/>
</clipPath>
<clipPath id="clip2_619_18341">
<rect width="48" height="48" fill="white" transform="translate(0.689453)"/>
</clipPath>
</defs>
</svg>
