<svg width="48" height="48" viewBox="0 0 48 48" fill="none" xmlns="http://www.w3.org/2000/svg">
<g clip-path="url(#clip0_619_18277)">
<g clip-path="url(#clip1_619_18277)">
<g clip-path="url(#clip2_619_18277)">
<path opacity="0.1" d="M34.2857 0H13.7143C6.14009 0 0 6.14009 0 13.7143V34.2857C0 41.8599 6.14009 48 13.7143 48H34.2857C41.8599 48 48 41.8599 48 34.2857V13.7143C48 6.14009 41.8599 0 34.2857 0Z" fill="#1424FF"/>
<path d="M10.3134 19.2422H15.1833C16.6127 19.2542 17.6484 19.6663 18.2906 20.4778C18.9328 21.2894 19.1447 22.3978 18.9266 23.8032C18.8419 24.4454 18.654 25.0752 18.3633 25.693C18.0846 26.3109 17.6971 26.868 17.2003 27.3648C16.5945 27.9946 15.9465 28.3944 15.256 28.5641C14.5655 28.7338 13.8506 28.8185 13.1118 28.8185H10.9312L10.2407 32.2711H7.71484L10.3134 19.2422ZM12.4394 21.3137L11.3491 26.7652C11.4218 26.7772 11.4945 26.7833 11.5672 26.7833C11.6519 26.7833 11.7369 26.7833 11.8216 26.7833C12.9846 26.7953 13.9538 26.6805 14.729 26.4381C15.5042 26.1837 16.0254 25.2994 16.2918 23.785C16.5098 22.513 16.2918 21.78 15.6376 21.5863C14.9954 21.3926 14.19 21.3017 13.2208 21.3137C13.0754 21.3257 12.9362 21.3319 12.8028 21.3319C12.6818 21.3319 12.5546 21.3319 12.4212 21.3319L12.4394 21.3137Z" fill="#1424FF"/>
<path d="M21.8042 15.7715H24.3118L23.6032 19.2422H25.8564C27.0921 19.2666 28.0126 19.521 28.6185 20.0054C29.2363 20.4899 29.418 21.4108 29.1636 22.7675L27.9461 28.8186H25.4021L26.5651 23.0401C26.6861 22.4342 26.6498 22.0043 26.4561 21.7499C26.2624 21.4955 25.8444 21.3683 25.2022 21.3683L23.1852 21.3501L21.6952 28.8186H19.1875L21.8042 15.7715Z" fill="#1424FF"/>
<path d="M31.8544 19.2422H36.7243C38.1537 19.2542 39.1895 19.6663 39.8316 20.4778C40.4738 21.2894 40.6857 22.3978 40.4676 23.8032C40.3829 24.4454 40.1951 25.0752 39.9043 25.693C39.6256 26.3109 39.2381 26.868 38.7413 27.3648C38.1355 27.9946 37.4875 28.3944 36.797 28.5641C36.1065 28.7338 35.3916 28.8185 34.6528 28.8185H32.4722L31.7817 32.2711H29.2559L31.8544 19.2422ZM33.9804 21.3137L32.8901 26.7652C32.9628 26.7772 33.0355 26.7833 33.1082 26.7833C33.1929 26.7833 33.2779 26.7833 33.3626 26.7833C34.5256 26.7953 35.4948 26.6805 36.27 26.4381C37.0452 26.1837 37.5664 25.2994 37.8328 23.785C38.0508 22.513 37.8328 21.78 37.1786 21.5863C36.5364 21.3926 35.7311 21.3017 34.7618 21.3137C34.6164 21.3257 34.4772 21.3319 34.3439 21.3319C34.2228 21.3319 34.0956 21.3319 33.9623 21.3319L33.9804 21.3137Z" fill="#1424FF"/>
</g>
</g>
</g>
<defs>
<clipPath id="clip0_619_18277">
<rect width="48" height="48" fill="white"/>
</clipPath>
<clipPath id="clip1_619_18277">
<rect width="48" height="48" fill="white"/>
</clipPath>
<clipPath id="clip2_619_18277">
<rect width="48" height="48" fill="white"/>
</clipPath>
</defs>
</svg>
