<svg width="57" height="56" viewBox="0 0 57 56" fill="none" xmlns="http://www.w3.org/2000/svg">
<g clip-path="url(#clip0_539_36278)">
<g clip-path="url(#clip1_539_36278)">
<g clip-path="url(#clip2_539_36278)">
<path opacity="0.1" d="M40.9492 0H16.9492C8.11266 0 0.949219 7.16344 0.949219 16V40C0.949219 48.8366 8.11266 56 16.9492 56H40.9492C49.7858 56 56.9492 48.8366 56.9492 40V16C56.9492 7.16344 49.7858 0 40.9492 0Z" fill="#1424FF"/>
<path d="M35.4191 32.83L35.8091 35.99C35.9091 36.82 35.0191 37.4 34.3091 36.97L30.1191 34.48C29.6591 34.48 29.2092 34.45 28.7692 34.39C29.5092 33.52 29.9491 32.42 29.9491 31.23C29.9491 28.39 27.4891 26.09 24.4491 26.09C23.2891 26.09 22.2192 26.42 21.3292 27C21.2992 26.75 21.2891 26.5 21.2891 26.24C21.2891 21.69 25.2391 18 30.1191 18C34.9991 18 38.9491 21.69 38.9491 26.24C38.9491 28.94 37.5591 31.33 35.4191 32.83Z" stroke="#1424FF" stroke-width="1.5" stroke-linecap="round" stroke-linejoin="round"/>
<path d="M29.9492 31.2297C29.9492 32.4197 29.5092 33.5198 28.7692 34.3898C27.7792 35.5898 26.2092 36.3597 24.4492 36.3597L21.8392 37.9097C21.3992 38.1797 20.8392 37.8097 20.8992 37.2997L21.1492 35.3298C19.8092 34.3998 18.9492 32.9097 18.9492 31.2297C18.9492 29.4697 19.8892 27.9198 21.3292 26.9998C22.2192 26.4198 23.2892 26.0898 24.4492 26.0898C27.4892 26.0898 29.9492 28.3897 29.9492 31.2297Z" stroke="#1424FF" stroke-width="1.5" stroke-linecap="round" stroke-linejoin="round"/>
</g>
</g>
</g>
<defs>
<clipPath id="clip0_539_36278">
<rect width="56" height="56" fill="white" transform="translate(0.949219)"/>
</clipPath>
<clipPath id="clip1_539_36278">
<rect width="56" height="56" fill="white" transform="translate(0.949219)"/>
</clipPath>
<clipPath id="clip2_539_36278">
<rect width="56" height="56" fill="white" transform="translate(0.949219)"/>
</clipPath>
</defs>
</svg>
