<svg width="57" height="56" viewBox="0 0 57 56" fill="none" xmlns="http://www.w3.org/2000/svg">
<g clip-path="url(#clip0_539_36300)">
<g clip-path="url(#clip1_539_36300)">
<g clip-path="url(#clip2_539_36300)">
<path d="M40.9492 0H16.9492C8.11266 0 0.949219 7.16344 0.949219 16V40C0.949219 48.8366 8.11266 56 16.9492 56H40.9492C49.7858 56 56.9492 48.8366 56.9492 40V16C56.9492 7.16344 49.7858 0 40.9492 0Z" fill="#F9E2F3"/>
<path d="M22.4179 25C24.3509 25 25.918 23.433 25.918 21.5C25.918 19.567 24.3509 18 22.4179 18C20.485 18 18.918 19.567 18.918 21.5C18.918 23.433 20.485 25 22.4179 25Z" stroke="#FA8ADD" stroke-width="1.5"/>
<path d="M33.9179 31H36.9179C38.0179 31 38.9179 31.9 38.9179 33V36C38.9179 37.1 38.0179 38 36.9179 38H33.9179C32.8179 38 31.918 37.1 31.918 36V33C31.918 31.9 32.8179 31 33.9179 31Z" stroke="#FA8ADD" stroke-width="1.5"/>
<path d="M28.9509 21H31.6309C33.4809 21 34.3409 23.29 32.9509 24.51L24.9609 31.5C23.5709 32.71 24.4309 35 26.2709 35H28.9509" stroke="#FA8ADD" stroke-width="1.5" stroke-linecap="round" stroke-linejoin="round"/>
<path d="M22.4375 21.5H22.449" stroke="#FA8ADD" stroke-width="2" stroke-linecap="round" stroke-linejoin="round"/>
<path d="M35.4375 34.5H35.449" stroke="#FA8ADD" stroke-width="2" stroke-linecap="round" stroke-linejoin="round"/>
</g>
</g>
</g>
<defs>
<clipPath id="clip0_539_36300">
<rect width="56" height="56" fill="white" transform="translate(0.949219)"/>
</clipPath>
<clipPath id="clip1_539_36300">
<rect width="56" height="56" fill="white" transform="translate(0.949219)"/>
</clipPath>
<clipPath id="clip2_539_36300">
<rect width="56" height="56" fill="white" transform="translate(0.949219)"/>
</clipPath>
</defs>
</svg>
