<svg width="49" height="48" viewBox="0 0 49 48" fill="none" xmlns="http://www.w3.org/2000/svg">
<g clip-path="url(#clip0_539_37761)">
<g clip-path="url(#clip1_539_37761)">
<path d="M34.315 0H13.7436C6.16939 0 0.0292969 6.14009 0.0292969 13.7143V34.2857C0.0292969 41.8599 6.16939 48 13.7436 48H34.315C41.8892 48 48.0293 41.8599 48.0293 34.2857V13.7143C48.0293 6.14009 41.8892 0 34.315 0Z" fill="#E2F1F9"/>
<path d="M32.5991 18.1277V20.4421C32.5991 22.3707 31.8276 23.142 29.8991 23.142H27.5848C25.6562 23.142 24.8848 22.3707 24.8848 20.4421V18.1277C24.8848 16.1992 25.6562 15.4277 27.5848 15.4277H29.8991C31.8276 15.4277 32.5991 16.1992 32.5991 18.1277Z" stroke="#5AADE9" stroke-width="1.28571" stroke-linecap="round" stroke-linejoin="round"/>
<path d="M23.1733 27.5593V29.8737C23.1733 31.8022 22.4018 32.5737 20.4733 32.5737H18.159C16.2304 32.5737 15.459 31.8022 15.459 29.8737V27.5593C15.459 25.6307 16.2304 24.8594 18.159 24.8594H20.4733C22.4018 24.8594 23.1733 25.6307 23.1733 27.5593Z" stroke="#5AADE9" stroke-width="1.28571" stroke-linecap="round" stroke-linejoin="round"/>
<path d="M28.6389 23.143V25.3887C28.6389 27.6944 27.7217 28.6115 25.416 28.6115H23.1703V27.5572C23.1703 25.6287 22.3989 24.8572 20.4703 24.8572H19.416V22.6115C19.416 20.3058 20.3332 19.3887 22.6389 19.3887H24.8846V20.443C24.8846 22.3715 25.656 23.143 27.5846 23.143H28.6389Z" stroke="#5AADE9" stroke-width="1.28571" stroke-linecap="round" stroke-linejoin="round"/>
</g>
</g>
<defs>
<clipPath id="clip0_539_37761">
<rect width="48" height="48" fill="white" transform="translate(0.0292969)"/>
</clipPath>
<clipPath id="clip1_539_37761">
<rect width="48" height="48" fill="white" transform="translate(0.0292969)"/>
</clipPath>
</defs>
</svg>
