<svg width="1441" height="260" viewBox="0 0 1441 260" fill="none" xmlns="http://www.w3.org/2000/svg">
<rect width="1440" height="259" transform="translate(0.913086 0.5)" fill="#D6D6FF"/>
<path d="M-44.9092 13.5C-44.9092 15.1569 -46.2523 16.5 -47.9092 16.5C-49.566 16.5 -50.9092 15.1569 -50.9092 13.5C-50.9092 11.8431 -49.566 10.5 -47.9092 10.5C-46.2523 10.5 -44.9092 11.8431 -44.9092 13.5Z" fill="white"/>
<path d="M-23.9092 13.5C-23.9092 15.1569 -25.2523 16.5 -26.9092 16.5C-28.566 16.5 -29.9092 15.1569 -29.9092 13.5C-29.9092 11.8431 -28.566 10.5 -26.9092 10.5C-25.2523 10.5 -23.9092 11.8431 -23.9092 13.5Z" fill="white"/>
<path d="M-2.90918 13.5C-2.90918 15.1569 -4.25233 16.5 -5.90918 16.5C-7.56603 16.5 -8.90918 15.1569 -8.90918 13.5C-8.90918 11.8431 -7.56603 10.5 -5.90918 10.5C-4.25233 10.5 -2.90918 11.8431 -2.90918 13.5Z" fill="white"/>
<path d="M18.0908 13.5C18.0908 15.1569 16.7477 16.5 15.0908 16.5C13.434 16.5 12.0908 15.1569 12.0908 13.5C12.0908 11.8431 13.434 10.5 15.0908 10.5C16.7477 10.5 18.0908 11.8431 18.0908 13.5Z" fill="white"/>
<path d="M39.0908 13.5C39.0908 15.1569 37.7477 16.5 36.0908 16.5C34.434 16.5 33.0908 15.1569 33.0908 13.5C33.0908 11.8431 34.434 10.5 36.0908 10.5C37.7477 10.5 39.0908 11.8431 39.0908 13.5Z" fill="white"/>
<path d="M60.0908 13.5C60.0908 15.1569 58.7477 16.5 57.0908 16.5C55.434 16.5 54.0908 15.1569 54.0908 13.5C54.0908 11.8431 55.434 10.5 57.0908 10.5C58.7477 10.5 60.0908 11.8431 60.0908 13.5Z" fill="white"/>
<path d="M81.0908 13.5C81.0908 15.1569 79.7477 16.5 78.0908 16.5C76.434 16.5 75.0908 15.1569 75.0908 13.5C75.0908 11.8431 76.434 10.5 78.0908 10.5C79.7477 10.5 81.0908 11.8431 81.0908 13.5Z" fill="white"/>
<path d="M102.091 13.5C102.091 15.1569 100.748 16.5 99.0908 16.5C97.434 16.5 96.0908 15.1569 96.0908 13.5C96.0908 11.8431 97.434 10.5 99.0908 10.5C100.748 10.5 102.091 11.8431 102.091 13.5Z" fill="white"/>
<path d="M123.091 13.5C123.091 15.1569 121.748 16.5 120.091 16.5C118.434 16.5 117.091 15.1569 117.091 13.5C117.091 11.8431 118.434 10.5 120.091 10.5C121.748 10.5 123.091 11.8431 123.091 13.5Z" fill="white"/>
<path d="M-44.9092 34.5C-44.9092 36.1569 -46.2523 37.5 -47.9092 37.5C-49.566 37.5 -50.9092 36.1569 -50.9092 34.5C-50.9092 32.8431 -49.566 31.5 -47.9092 31.5C-46.2523 31.5 -44.9092 32.8431 -44.9092 34.5Z" fill="white"/>
<path d="M-23.9092 34.5C-23.9092 36.1569 -25.2523 37.5 -26.9092 37.5C-28.566 37.5 -29.9092 36.1569 -29.9092 34.5C-29.9092 32.8431 -28.566 31.5 -26.9092 31.5C-25.2523 31.5 -23.9092 32.8431 -23.9092 34.5Z" fill="white"/>
<path d="M-2.90918 34.5C-2.90918 36.1569 -4.25233 37.5 -5.90918 37.5C-7.56603 37.5 -8.90918 36.1569 -8.90918 34.5C-8.90918 32.8431 -7.56603 31.5 -5.90918 31.5C-4.25233 31.5 -2.90918 32.8431 -2.90918 34.5Z" fill="white"/>
<path d="M18.0908 34.5C18.0908 36.1569 16.7477 37.5 15.0908 37.5C13.434 37.5 12.0908 36.1569 12.0908 34.5C12.0908 32.8431 13.434 31.5 15.0908 31.5C16.7477 31.5 18.0908 32.8431 18.0908 34.5Z" fill="white"/>
<path d="M39.0908 34.5C39.0908 36.1569 37.7477 37.5 36.0908 37.5C34.434 37.5 33.0908 36.1569 33.0908 34.5C33.0908 32.8431 34.434 31.5 36.0908 31.5C37.7477 31.5 39.0908 32.8431 39.0908 34.5Z" fill="white"/>
<path d="M60.0908 34.5C60.0908 36.1569 58.7477 37.5 57.0908 37.5C55.434 37.5 54.0908 36.1569 54.0908 34.5C54.0908 32.8431 55.434 31.5 57.0908 31.5C58.7477 31.5 60.0908 32.8431 60.0908 34.5Z" fill="white"/>
<path d="M81.0908 34.5C81.0908 36.1569 79.7477 37.5 78.0908 37.5C76.434 37.5 75.0908 36.1569 75.0908 34.5C75.0908 32.8431 76.434 31.5 78.0908 31.5C79.7477 31.5 81.0908 32.8431 81.0908 34.5Z" fill="white"/>
<path d="M102.091 34.5C102.091 36.1569 100.748 37.5 99.0908 37.5C97.434 37.5 96.0908 36.1569 96.0908 34.5C96.0908 32.8431 97.434 31.5 99.0908 31.5C100.748 31.5 102.091 32.8431 102.091 34.5Z" fill="white"/>
<path d="M123.091 34.5C123.091 36.1569 121.748 37.5 120.091 37.5C118.434 37.5 117.091 36.1569 117.091 34.5C117.091 32.8431 118.434 31.5 120.091 31.5C121.748 31.5 123.091 32.8431 123.091 34.5Z" fill="white"/>
<path d="M-44.9092 55.5C-44.9092 57.1569 -46.2523 58.5 -47.9092 58.5C-49.566 58.5 -50.9092 57.1569 -50.9092 55.5C-50.9092 53.8431 -49.566 52.5 -47.9092 52.5C-46.2523 52.5 -44.9092 53.8431 -44.9092 55.5Z" fill="white"/>
<path d="M-23.9092 55.5C-23.9092 57.1569 -25.2523 58.5 -26.9092 58.5C-28.566 58.5 -29.9092 57.1569 -29.9092 55.5C-29.9092 53.8431 -28.566 52.5 -26.9092 52.5C-25.2523 52.5 -23.9092 53.8431 -23.9092 55.5Z" fill="white"/>
<path d="M-2.90918 55.5C-2.90918 57.1569 -4.25233 58.5 -5.90918 58.5C-7.56603 58.5 -8.90918 57.1569 -8.90918 55.5C-8.90918 53.8431 -7.56603 52.5 -5.90918 52.5C-4.25233 52.5 -2.90918 53.8431 -2.90918 55.5Z" fill="white"/>
<path d="M18.0908 55.5C18.0908 57.1569 16.7477 58.5 15.0908 58.5C13.434 58.5 12.0908 57.1569 12.0908 55.5C12.0908 53.8431 13.434 52.5 15.0908 52.5C16.7477 52.5 18.0908 53.8431 18.0908 55.5Z" fill="white"/>
<path d="M39.0908 55.5C39.0908 57.1569 37.7477 58.5 36.0908 58.5C34.434 58.5 33.0908 57.1569 33.0908 55.5C33.0908 53.8431 34.434 52.5 36.0908 52.5C37.7477 52.5 39.0908 53.8431 39.0908 55.5Z" fill="white"/>
<path d="M60.0908 55.5C60.0908 57.1569 58.7477 58.5 57.0908 58.5C55.434 58.5 54.0908 57.1569 54.0908 55.5C54.0908 53.8431 55.434 52.5 57.0908 52.5C58.7477 52.5 60.0908 53.8431 60.0908 55.5Z" fill="white"/>
<path d="M81.0908 55.5C81.0908 57.1569 79.7477 58.5 78.0908 58.5C76.434 58.5 75.0908 57.1569 75.0908 55.5C75.0908 53.8431 76.434 52.5 78.0908 52.5C79.7477 52.5 81.0908 53.8431 81.0908 55.5Z" fill="white"/>
<path d="M102.091 55.5C102.091 57.1569 100.748 58.5 99.0908 58.5C97.434 58.5 96.0908 57.1569 96.0908 55.5C96.0908 53.8431 97.434 52.5 99.0908 52.5C100.748 52.5 102.091 53.8431 102.091 55.5Z" fill="white"/>
<path d="M123.091 55.5C123.091 57.1569 121.748 58.5 120.091 58.5C118.434 58.5 117.091 57.1569 117.091 55.5C117.091 53.8431 118.434 52.5 120.091 52.5C121.748 52.5 123.091 53.8431 123.091 55.5Z" fill="white"/>
<path d="M1304.11 205.635C1304.11 207.292 1302.76 208.635 1301.11 208.635C1299.45 208.635 1298.11 207.292 1298.11 205.635C1298.11 203.978 1299.45 202.635 1301.11 202.635C1302.76 202.635 1304.11 203.978 1304.11 205.635Z" fill="white"/>
<path d="M1325.11 205.635C1325.11 207.292 1323.76 208.635 1322.11 208.635C1320.45 208.635 1319.11 207.292 1319.11 205.635C1319.11 203.978 1320.45 202.635 1322.11 202.635C1323.76 202.635 1325.11 203.978 1325.11 205.635Z" fill="white"/>
<path d="M1346.11 205.635C1346.11 207.292 1344.76 208.635 1343.11 208.635C1341.45 208.635 1340.11 207.292 1340.11 205.635C1340.11 203.978 1341.45 202.635 1343.11 202.635C1344.76 202.635 1346.11 203.978 1346.11 205.635Z" fill="white"/>
<path d="M1367.11 205.635C1367.11 207.292 1365.76 208.635 1364.11 208.635C1362.45 208.635 1361.11 207.292 1361.11 205.635C1361.11 203.978 1362.45 202.635 1364.11 202.635C1365.76 202.635 1367.11 203.978 1367.11 205.635Z" fill="white"/>
<path d="M1388.11 205.635C1388.11 207.292 1386.76 208.635 1385.11 208.635C1383.45 208.635 1382.11 207.292 1382.11 205.635C1382.11 203.978 1383.45 202.635 1385.11 202.635C1386.76 202.635 1388.11 203.978 1388.11 205.635Z" fill="white"/>
<path d="M1409.11 205.635C1409.11 207.292 1407.76 208.635 1406.11 208.635C1404.45 208.635 1403.11 207.292 1403.11 205.635C1403.11 203.978 1404.45 202.635 1406.11 202.635C1407.76 202.635 1409.11 203.978 1409.11 205.635Z" fill="white"/>
<path d="M1430.11 205.635C1430.11 207.292 1428.76 208.635 1427.11 208.635C1425.45 208.635 1424.11 207.292 1424.11 205.635C1424.11 203.978 1425.45 202.635 1427.11 202.635C1428.76 202.635 1430.11 203.978 1430.11 205.635Z" fill="white"/>
<path d="M1451.11 205.635C1451.11 207.292 1449.76 208.635 1448.11 208.635C1446.45 208.635 1445.11 207.292 1445.11 205.635C1445.11 203.978 1446.45 202.635 1448.11 202.635C1449.76 202.635 1451.11 203.978 1451.11 205.635Z" fill="white"/>
<path d="M1472.11 205.635C1472.11 207.292 1470.76 208.635 1469.11 208.635C1467.45 208.635 1466.11 207.292 1466.11 205.635C1466.11 203.978 1467.45 202.635 1469.11 202.635C1470.76 202.635 1472.11 203.978 1472.11 205.635Z" fill="white"/>
<path d="M1304.11 226.635C1304.11 228.292 1302.76 229.635 1301.11 229.635C1299.45 229.635 1298.11 228.292 1298.11 226.635C1298.11 224.978 1299.45 223.635 1301.11 223.635C1302.76 223.635 1304.11 224.978 1304.11 226.635Z" fill="white"/>
<path d="M1325.11 226.635C1325.11 228.292 1323.76 229.635 1322.11 229.635C1320.45 229.635 1319.11 228.292 1319.11 226.635C1319.11 224.978 1320.45 223.635 1322.11 223.635C1323.76 223.635 1325.11 224.978 1325.11 226.635Z" fill="white"/>
<path d="M1346.11 226.635C1346.11 228.292 1344.76 229.635 1343.11 229.635C1341.45 229.635 1340.11 228.292 1340.11 226.635C1340.11 224.978 1341.45 223.635 1343.11 223.635C1344.76 223.635 1346.11 224.978 1346.11 226.635Z" fill="white"/>
<path d="M1367.11 226.635C1367.11 228.292 1365.76 229.635 1364.11 229.635C1362.45 229.635 1361.11 228.292 1361.11 226.635C1361.11 224.978 1362.45 223.635 1364.11 223.635C1365.76 223.635 1367.11 224.978 1367.11 226.635Z" fill="white"/>
<path d="M1388.11 226.635C1388.11 228.292 1386.76 229.635 1385.11 229.635C1383.45 229.635 1382.11 228.292 1382.11 226.635C1382.11 224.978 1383.45 223.635 1385.11 223.635C1386.76 223.635 1388.11 224.978 1388.11 226.635Z" fill="white"/>
<path d="M1409.11 226.635C1409.11 228.292 1407.76 229.635 1406.11 229.635C1404.45 229.635 1403.11 228.292 1403.11 226.635C1403.11 224.978 1404.45 223.635 1406.11 223.635C1407.76 223.635 1409.11 224.978 1409.11 226.635Z" fill="white"/>
<path d="M1430.11 226.635C1430.11 228.292 1428.76 229.635 1427.11 229.635C1425.45 229.635 1424.11 228.292 1424.11 226.635C1424.11 224.978 1425.45 223.635 1427.11 223.635C1428.76 223.635 1430.11 224.978 1430.11 226.635Z" fill="white"/>
<path d="M1451.11 226.635C1451.11 228.292 1449.76 229.635 1448.11 229.635C1446.45 229.635 1445.11 228.292 1445.11 226.635C1445.11 224.978 1446.45 223.635 1448.11 223.635C1449.76 223.635 1451.11 224.978 1451.11 226.635Z" fill="white"/>
<path d="M1472.11 226.635C1472.11 228.292 1470.76 229.635 1469.11 229.635C1467.45 229.635 1466.11 228.292 1466.11 226.635C1466.11 224.978 1467.45 223.635 1469.11 223.635C1470.76 223.635 1472.11 224.978 1472.11 226.635Z" fill="white"/>
<path d="M1304.11 247.635C1304.11 249.292 1302.76 250.635 1301.11 250.635C1299.45 250.635 1298.11 249.292 1298.11 247.635C1298.11 245.978 1299.45 244.635 1301.11 244.635C1302.76 244.635 1304.11 245.978 1304.11 247.635Z" fill="white"/>
<path d="M1325.11 247.635C1325.11 249.292 1323.76 250.635 1322.11 250.635C1320.45 250.635 1319.11 249.292 1319.11 247.635C1319.11 245.978 1320.45 244.635 1322.11 244.635C1323.76 244.635 1325.11 245.978 1325.11 247.635Z" fill="white"/>
<path d="M1346.11 247.635C1346.11 249.292 1344.76 250.635 1343.11 250.635C1341.45 250.635 1340.11 249.292 1340.11 247.635C1340.11 245.978 1341.45 244.635 1343.11 244.635C1344.76 244.635 1346.11 245.978 1346.11 247.635Z" fill="white"/>
<path d="M1367.11 247.635C1367.11 249.292 1365.76 250.635 1364.11 250.635C1362.45 250.635 1361.11 249.292 1361.11 247.635C1361.11 245.978 1362.45 244.635 1364.11 244.635C1365.76 244.635 1367.11 245.978 1367.11 247.635Z" fill="white"/>
<path d="M1388.11 247.635C1388.11 249.292 1386.76 250.635 1385.11 250.635C1383.45 250.635 1382.11 249.292 1382.11 247.635C1382.11 245.978 1383.45 244.635 1385.11 244.635C1386.76 244.635 1388.11 245.978 1388.11 247.635Z" fill="white"/>
<path d="M1409.11 247.635C1409.11 249.292 1407.76 250.635 1406.11 250.635C1404.45 250.635 1403.11 249.292 1403.11 247.635C1403.11 245.978 1404.45 244.635 1406.11 244.635C1407.76 244.635 1409.11 245.978 1409.11 247.635Z" fill="white"/>
<path d="M1430.11 247.635C1430.11 249.292 1428.76 250.635 1427.11 250.635C1425.45 250.635 1424.11 249.292 1424.11 247.635C1424.11 245.978 1425.45 244.635 1427.11 244.635C1428.76 244.635 1430.11 245.978 1430.11 247.635Z" fill="white"/>
<path d="M1451.11 247.635C1451.11 249.292 1449.76 250.635 1448.11 250.635C1446.45 250.635 1445.11 249.292 1445.11 247.635C1445.11 245.978 1446.45 244.635 1448.11 244.635C1449.76 244.635 1451.11 245.978 1451.11 247.635Z" fill="white"/>
<path d="M1472.11 247.635C1472.11 249.292 1470.76 250.635 1469.11 250.635C1467.45 250.635 1466.11 249.292 1466.11 247.635C1466.11 245.978 1467.45 244.635 1469.11 244.635C1470.76 244.635 1472.11 245.978 1472.11 247.635Z" fill="white"/>
<circle cx="38.6367" cy="38.6367" r="38.6367" transform="matrix(1 0 0 -1 295.17 234.866)" fill="#E0E0FF"/>
<circle cx="28.9806" cy="28.9806" r="28.9806" transform="matrix(0.999384 0.0351034 0.0351034 -0.999384 378.447 232.831)" fill="#E0E0FF"/>
</svg>
